<svg xmlns="http://www.w3.org/2000/svg" viewBox="0 0 1918 840"><defs><style>.cls-1{fill:#2a0dfc;}.cls-2{font-size:44.67px;}.cls-11,.cls-2{fill:#fff;}.cls-18,.cls-2{font-family:Beograd-Regular, Beograd;}.cls-3{letter-spacing:-0.05em;}.cls-4{fill:#ce6a6a;}.cls-5{fill:#894619;}.cls-6{fill:#93549e;}.cls-7{fill:#d7574d;}.cls-8{fill:#efaf84;}.cls-9{fill:#513e31;}.cls-10{fill:#c60c35;}.cls-12{fill:#ea9b9b;}.cls-13{fill:#c675c4;}.cls-14{fill:#b79cb7;}.cls-15{fill:#daff15;}.cls-16{fill:#7f1800;}.cls-17{fill:#916860;}.cls-18{font-size:120px;fill:#fcdb0d;}.cls-19{font-size:160px;}.cls-20{letter-spacing:0.05em;}.cls-21{fill:#d00;}</style></defs><g id="Layer_11" data-name="Layer 11"><rect class="cls-1" x="0.07" width="1918" height="756"/></g><g id="Layer_7" data-name="Layer 7"><text class="cls-2" transform="translate(737.79 714.93)">russian KI<tspan class="cls-3" x="248.07" y="0">T</tspan><tspan x="268.12" y="0">CHEN</tspan></text><circle class="cls-4" cx="363.56" cy="557.38" r="52.62"/><circle class="cls-5" cx="363.33" cy="473.23" r="31.65"/><path class="cls-4" d="M332.15,479.23c-.19,0-1.13-.13-1.57.4s-.1,1.67,0,2c1,3,.35,6.3.78,9.42.82,5.91-1.29,12.42-2.35,15.71a48.41,48.41,0,0,1-7.07,13.75l1.18,2.35c-.49.65-1.18,1.59-2,2.75a55.47,55.47,0,0,0-9.81,25.13,53.3,53.3,0,0,0,3.53,25.53,48.25,48.25,0,0,0,11,16.88,43.76,43.76,0,0,0,7.46,5.89,41.36,41.36,0,0,0,11.78,5.11c1.28.31,3.6.6,8.24,1.18a60.44,60.44,0,0,0,9.43.78,42.82,42.82,0,0,0,8.25-1.18c1.11-.24,3.11-.82,7.06-2,3.77-1.08,5.65-1.63,6.68-2a74.14,74.14,0,0,0,9-3.54c5.84-2.94,9.26-7.35,11.78-10.6a49.91,49.91,0,0,0,9-19.24,49.26,49.26,0,0,0,1.58-16.89c-1.27-13.76-8.87-23.39-12.57-27.49l1.18-3.14a43.27,43.27,0,0,1-3.54-5.49c-5.25-9.74-5.45-19.2-5.49-24.35a63.55,63.55,0,0,1,.78-10.6l-2-1.18C359.08,479.05,334,479.4,332.15,479.23Z"/><path class="cls-6" d="M362.23,438a33.83,33.83,0,0,0-15.06,4.18,34.57,34.57,0,0,0-14.23,15.07,36.54,36.54,0,0,0-3.34,14.64,42.25,42.25,0,0,0,.42,6.27c1.18,7.83,12.89,23.12,32.21,38.91a105.79,105.79,0,0,0,9.83-6.9c9.46-7.49,22.39-17.73,24.68-33.05a34.87,34.87,0,0,0-10-29.71,43.06,43.06,0,0,0-5.44-4.18,31.71,31.71,0,0,0-4.6-2.51A33,33,0,0,0,362.23,438Z"/><path class="cls-7" d="M363.56,514.18a30.81,30.81,0,0,0-11-9.42c-3-1.51-4.09-1.37-4.71-1.18-4.65,1.44-6.46,13.13-2.75,15.71.58.4,1.61.8,6.28-.4A54,54,0,0,0,363.56,514.18Z"/><path class="cls-7" d="M362.51,514.12a31,31,0,0,1,11-9.43c3-1.5,4.08-1.37,4.71-1.18,4.64,1.45,6.45,13.13,2.75,15.71-.58.41-1.61.8-6.29-.39A54.71,54.71,0,0,1,362.51,514.12Z"/><path class="cls-7" d="M361.21,514.18q-1.23,5.58-2.75,11.39c-2.59,9.86-5.53,19-8.64,27.49l4.32-2.36c-.26,3.1-.26,4.67,0,4.72q1.11.18,8.64-37.31Z"/><path class="cls-7" d="M364.35,514.18q1.23,5.58,2.75,11.39c2.58,9.86,5.53,19,8.64,27.49l-4.32-2.36c.26,3.1.26,4.67,0,4.72q-1.12.18-8.64-37.31Z"/><circle class="cls-7" cx="363.17" cy="515.75" r="3.14"/><circle class="cls-8" cx="363.34" cy="471.97" r="24.94"/><path class="cls-9" d="M339.74,461.32l.13-.27a31,31,0,0,1,4.56-6.5,28.67,28.67,0,0,1,14.06-7.81,25.71,25.71,0,0,1,11.45.52s7.55,2.09,12.5,7.81a34.86,34.86,0,0,1,4.17,6.25l.52,1-17.19,1-1.56-4.16-1.56,4.16h-9.9c-.34-1.73-.69-3.47-1-5.2l-2.08,4.68c-2.93,0-6.07-.17-9.37-.52-1.44-.15-2.83-.32-4.17-.52h-1"/><path class="cls-10" d="M360.48,486.86a2.2,2.2,0,0,1-.16-1.68,1.53,1.53,0,0,1,1-.94,1.9,1.9,0,0,1,1.92,1.65,2.23,2.23,0,0,1,.34-.95c.08-.13.69-1.06,1.6-.93a1.64,1.64,0,0,1,1.25,1.29,1.94,1.94,0,0,1-.23,1.29,6.91,6.91,0,0,1-3.25,2.85A5.32,5.32,0,0,1,360.48,486.86Z"/><path d="M347.91,470.89a3,3,0,0,1-2.06-1.43,2.14,2.14,0,0,1-.23-.75,4.17,4.17,0,0,0,.36.51,5.05,5.05,0,0,0,.6.64,4.46,4.46,0,0,0,1.47.79"/><path d="M348.28,470.23a2.67,2.67,0,0,1-1.85-1.28,2.2,2.2,0,0,1-.21-.68c.08.12.19.28.33.46a3.22,3.22,0,0,0,.54.57,3.93,3.93,0,0,0,1.31.71"/><path d="M348.86,469.9a2.26,2.26,0,0,1-1.58-1.09,2,2,0,0,1-.17-.57c.07.1.16.24.28.39a3.44,3.44,0,0,0,.45.48,3.89,3.89,0,0,0,1.12.61"/><path d="M349.44,469.57a1.88,1.88,0,0,1-1.3-.89,1.64,1.64,0,0,1-.14-.47c.05.08.13.19.23.32a2.9,2.9,0,0,0,.37.39,2.83,2.83,0,0,0,.92.5"/><path class="cls-11" d="M358.26,471.18c.24-.89-2.23-2.89-4.72-3.14-3-.29-6.09,1.93-5.89,3.14s3.82,1.48,5.11,1.57a10.51,10.51,0,0,0,5.1-1.17A.71.71,0,0,0,358.26,471.18Z"/><path d="M353,472.86h-.29c-1.36-.09-5-.35-5.19-1.65a1.58,1.58,0,0,1,.57-1.28,7.11,7.11,0,0,1,5.42-2,7,7,0,0,1,4.56,2.44,1,1,0,0,1,.24.83h0a.77.77,0,0,1-.44.45A10.87,10.87,0,0,1,353,472.86Zm0-4.75a7,7,0,0,0-4.73,1.94,1.47,1.47,0,0,0-.52,1.12c.2,1.15,3.82,1.4,5,1.49a10.67,10.67,0,0,0,5.06-1.17c.1-.06.29-.16.34-.33a.84.84,0,0,0-.21-.67,6.89,6.89,0,0,0-4.42-2.35A4.58,4.58,0,0,0,353,468.11Z"/><path d="M379.21,471.16a3,3,0,0,0,2.07-1.43,2.46,2.46,0,0,0,.22-.76,5.43,5.43,0,0,1-1,1.15,4.56,4.56,0,0,1-1.46.79"/><path d="M378.84,470.5a2.69,2.69,0,0,0,1.85-1.29,2.2,2.2,0,0,0,.21-.68,3.94,3.94,0,0,1-.32.46,4.82,4.82,0,0,1-.54.58,4.53,4.53,0,0,1-1.32.71"/><path d="M378.26,470.17a2.31,2.31,0,0,0,1.58-1.09,1.79,1.79,0,0,0,.17-.58l-.27.39a5.54,5.54,0,0,1-.46.49,3.48,3.48,0,0,1-1.12.6"/><path d="M377.69,469.84a1.88,1.88,0,0,0,1.29-.9,1.55,1.55,0,0,0,.14-.47,3,3,0,0,1-.6.72,2.72,2.72,0,0,1-.92.49"/><path class="cls-11" d="M368.87,471.58c-.25-.89,2.22-2.9,4.71-3.15,3-.29,6.1,1.93,5.89,3.15s-3.82,1.48-5.11,1.57a10.59,10.59,0,0,1-5.1-1.18A.71.71,0,0,1,368.87,471.58Z"/><path d="M374.08,473.25a10.87,10.87,0,0,1-4.87-1.2.77.77,0,0,1-.44-.45h0a1.06,1.06,0,0,1,.24-.83,7,7,0,0,1,4.56-2.43,7.14,7.14,0,0,1,5.42,2,1.63,1.63,0,0,1,.58,1.28c-.23,1.31-3.84,1.56-5.2,1.65Zm-5.12-1.7a.6.6,0,0,0,.34.33,10.53,10.53,0,0,0,5.06,1.17c1.19-.09,4.82-.34,5-1.49a1.45,1.45,0,0,0-.52-1.11,6.51,6.51,0,0,0-9.68.43.88.88,0,0,0-.21.67Z"/><circle class="cls-12" cx="350.61" cy="479.63" r="3.93"/><circle class="cls-12" cx="376.13" cy="479.63" r="3.93"/><path class="cls-13" d="M363.08,595.08a37.77,37.77,0,0,0,18.62-4.26c2.74-1.47,10.23-5.61,14.36-14.36a31.1,31.1,0,0,0,2.66-9.57,31.48,31.48,0,0,0-1.07-12.24,28.79,28.79,0,0,0-11.17,10.64,36.7,36.7,0,0,0-2.66-4.79,37.19,37.19,0,0,0-4.78-5.85,33.56,33.56,0,0,0-3.73,3.73,33,33,0,0,0-4.25,6.38,26.52,26.52,0,0,0-8-10.11,17.86,17.86,0,0,0-3.19,2.66,18.46,18.46,0,0,0-4.26,7.45,29.25,29.25,0,0,0-2.12-3.72,29.62,29.62,0,0,0-5.85-6.39,24.7,24.7,0,0,0-3.2,3.2,25,25,0,0,0-4.25,7.44,26.4,26.4,0,0,0-2.13-3.19,27.38,27.38,0,0,0-9-7.45,26,26,0,0,0-1.06,3.73A31.37,31.37,0,0,0,335.42,585C344.47,595,357.21,595.05,363.08,595.08Z"/><path class="cls-14" d="M363.08,594.55c6.42-.28,13-2.65,16-3.73a27.16,27.16,0,0,0,2.66-1.06c.92-.45,8.84-4.4,10.63-12.23.36-1.56.94-4.11-.53-5.86a5.21,5.21,0,0,0-3.72-1.59,6.48,6.48,0,0,0-5.85,3.72,5.45,5.45,0,0,0,0-2.66A6.65,6.65,0,0,0,372.12,568a6.15,6.15,0,0,0-2.13,3.72,5.47,5.47,0,0,0-.53-2.65,6.86,6.86,0,0,0-8-3.2,7.07,7.07,0,0,0-4.78,6.39,7.11,7.11,0,0,0-2.13-3.19,6.61,6.61,0,0,0-5.32-1.6c-3.17.58-4.52,3.6-4.79,4.25a7.36,7.36,0,0,0-.53,2.66,5.66,5.66,0,0,0-1.06-2.12,5,5,0,0,0-8.51.53,6.11,6.11,0,0,0-.53,4.25c.63,3.91,3.31,6.75,5.32,8.51A37.2,37.2,0,0,0,363.08,594.55Z"/><path class="cls-15" d="M363.08,590.29c1.6.24,3.53-4.82,3.72-5.32a17.33,17.33,0,0,0,1.07-9c-.45-2.75-1.32-3.5-1.6-3.72a4.93,4.93,0,0,0-4.25-.54,5.89,5.89,0,0,0-3.19,2.66c-2.77,4.37.82,10.77,1.06,11.17a21.52,21.52,0,0,0,2.13,3.73C362.65,590.11,362.85,590.26,363.08,590.29Z"/><path class="cls-15" d="M368.92,588.78c.57,1,4.32-.1,4.69-.2a12.48,12.48,0,0,0,5.65-3.37c1.38-1.46,1.43-2.29,1.43-2.55a3.58,3.58,0,0,0-1.56-2.67,4.31,4.31,0,0,0-2.93-.66c-3.72.33-5.81,5.2-5.94,5.51a16.53,16.53,0,0,0-1.2,2.86C368.83,588.45,368.84,588.63,368.92,588.78Z"/><path class="cls-15" d="M357.24,588.78c-.57,1-4.32-.1-4.69-.2a12.48,12.48,0,0,1-5.65-3.37c-1.38-1.46-1.43-2.29-1.43-2.55A3.58,3.58,0,0,1,347,580a4.3,4.3,0,0,1,2.93-.66c3.71.33,5.8,5.2,5.93,5.51a15.78,15.78,0,0,1,1.2,2.86C357.32,588.45,357.32,588.63,357.24,588.78Z"/><path class="cls-9" d="M381,466.08c.06-.13-.9-.78-2-1.18a7,7,0,0,0-1.57-.39,12.47,12.47,0,0,0-4.72,0c-1.8.36-4,1.15-3.92,1.57s1.17.44,2.16.19,1.12-.76,2-1.17c1.63-.81,3.81-.17,7.07.78C380.49,466,381,466.17,381,466.08Z"/><path class="cls-9" d="M346.88,466.47c-.06-.13.89-.78,2-1.18a7.94,7.94,0,0,1,1.57-.39,12.63,12.63,0,0,1,4.71,0c1.8.36,4,1.15,3.93,1.57s-1.17.45-2.16.2-1.13-.77-2-1.18c-1.63-.8-3.82-.17-7.07.78C347.43,466.4,346.92,466.56,346.88,466.47Z"/><circle class="cls-16" cx="353.07" cy="470.4" r="2.04"/><circle class="cls-17" cx="353.07" cy="470.4" r="1.52"/><circle cx="353.07" cy="470.4" r="1.01"/><circle class="cls-11" cx="353.75" cy="469.81" r="0.39"/><circle class="cls-16" cx="374.28" cy="470.79" r="2.04"/><circle class="cls-17" cx="374.28" cy="470.79" r="1.52"/><circle cx="374.28" cy="470.79" r="1.01"/><circle class="cls-11" cx="373.61" cy="470.2" r="0.39"/><circle cx="365.14" cy="478.84" r="0.39"/><circle cx="361.99" cy="478.84" r="0.39"/><circle class="cls-4" cx="513.11" cy="459.38" r="52.62"/><circle class="cls-5" cx="512.87" cy="375.23" r="31.65"/><path class="cls-4" d="M481.7,381.23c-.2,0-1.13-.13-1.57.4s-.1,1.67,0,2c1,3,.35,6.3.78,9.42.82,5.91-1.29,12.42-2.35,15.71a48.41,48.41,0,0,1-7.07,13.75l1.18,2.35c-.5.65-1.19,1.59-2,2.75a55.33,55.33,0,0,0-9.82,25.13,53.48,53.48,0,0,0,3.54,25.53,48,48,0,0,0,11,16.88,44.1,44.1,0,0,0,7.47,5.89,41.36,41.36,0,0,0,11.78,5.11c1.28.31,3.6.6,8.24,1.18a60.36,60.36,0,0,0,9.43.78,42.7,42.7,0,0,0,8.24-1.18c1.12-.24,3.12-.82,7.07-2,3.77-1.08,5.65-1.63,6.68-2a74.79,74.79,0,0,0,9-3.54c5.84-2.94,9.26-7.35,11.78-10.6a49.91,49.91,0,0,0,9-19.24,49.07,49.07,0,0,0,1.57-16.89c-1.26-13.76-8.86-23.39-12.56-27.49l1.18-3.14a42.19,42.19,0,0,1-3.54-5.49c-5.25-9.74-5.45-19.2-5.5-24.35a64.84,64.84,0,0,1,.79-10.6l-2-1.18C508.63,381.05,483.52,381.4,481.7,381.23Z"/><path class="cls-6" d="M511.78,340a33.83,33.83,0,0,0-15.06,4.18,34.57,34.57,0,0,0-14.23,15.07,36.54,36.54,0,0,0-3.34,14.64,41.45,41.45,0,0,0,.41,6.27c1.19,7.83,12.9,23.12,32.22,38.91a105.79,105.79,0,0,0,9.83-6.9c9.46-7.49,22.39-17.73,24.68-33.05a34.87,34.87,0,0,0-10-29.71,43.06,43.06,0,0,0-5.44-4.18,31.71,31.71,0,0,0-4.6-2.51A33.12,33.12,0,0,0,511.78,340Z"/><path class="cls-7" d="M513.11,416.18a30.89,30.89,0,0,0-11-9.42c-3-1.51-4.09-1.37-4.72-1.18-4.64,1.44-6.45,13.13-2.74,15.71.58.4,1.6.8,6.28-.4A54,54,0,0,0,513.11,416.18Z"/><path class="cls-7" d="M512.06,416.12a31,31,0,0,1,11-9.43c3-1.5,4.09-1.37,4.72-1.18,4.64,1.45,6.45,13.13,2.75,15.71-.59.41-1.61.8-6.29-.39A54.71,54.71,0,0,1,512.06,416.12Z"/><path class="cls-7" d="M510.76,416.18q-1.23,5.58-2.75,11.39c-2.59,9.86-5.53,19-8.64,27.49l4.32-2.36c-.26,3.1-.26,4.67,0,4.72q1.11.18,8.64-37.31C511.8,418.8,511.28,417.49,510.76,416.18Z"/><path class="cls-7" d="M513.9,416.18q1.23,5.58,2.75,11.39c2.58,9.86,5.52,19,8.64,27.49L521,452.7c.26,3.1.26,4.67,0,4.72q-1.12.18-8.64-37.31C512.85,418.8,513.37,417.49,513.9,416.18Z"/><circle class="cls-7" cx="512.72" cy="417.75" r="3.14"/><circle class="cls-8" cx="512.89" cy="373.97" r="24.94"/><path class="cls-9" d="M489.29,363.32a2.9,2.9,0,0,1,.13-.27,31.15,31.15,0,0,1,4.55-6.5A28.71,28.71,0,0,1,508,348.74a25.75,25.75,0,0,1,11.46.52s7.55,2.09,12.5,7.81a34.41,34.41,0,0,1,4.16,6.25c.23.44.41.8.52,1l-17.18,1-1.56-4.16-1.56,4.16h-9.9c-.35-1.73-.69-3.47-1-5.2l-2.08,4.68c-2.93,0-6.07-.17-9.38-.52-1.43-.15-2.82-.32-4.16-.52h-1"/><path class="cls-10" d="M510,388.86a2.2,2.2,0,0,1-.16-1.68,1.51,1.51,0,0,1,1-.94,1.9,1.9,0,0,1,1.92,1.65,2.07,2.07,0,0,1,.33-.95c.09-.13.7-1.06,1.61-.93A1.64,1.64,0,0,1,516,387.3a1.94,1.94,0,0,1-.23,1.29,6.89,6.89,0,0,1-3.26,2.85A5.35,5.35,0,0,1,510,388.86Z"/><path d="M497.46,372.89a3,3,0,0,1-2.07-1.43,2.34,2.34,0,0,1-.22-.75,5.31,5.31,0,0,0,.35.51,4.61,4.61,0,0,0,.61.64,4.46,4.46,0,0,0,1.46.79"/><path d="M497.83,372.23A2.7,2.7,0,0,1,496,371a2.46,2.46,0,0,1-.2-.68c.08.12.18.28.32.46a4.21,4.21,0,0,0,.54.57A4,4,0,0,0,498,372"/><path d="M498.41,371.9a2.24,2.24,0,0,1-1.58-1.09,1.74,1.74,0,0,1-.17-.57l.27.39a4.53,4.53,0,0,0,.46.48,3.76,3.76,0,0,0,1.12.61"/><path d="M499,371.57a1.89,1.89,0,0,1-1.29-.89,1.64,1.64,0,0,1-.14-.47l.22.32a3.16,3.16,0,0,0,.38.39,2.64,2.64,0,0,0,.92.5"/><path class="cls-11" d="M507.8,373.18c.25-.89-2.22-2.89-4.71-3.14-3-.29-6.1,1.93-5.89,3.14s3.82,1.48,5.11,1.57a10.51,10.51,0,0,0,5.1-1.17A.7.7,0,0,0,507.8,373.18Z"/><path d="M502.59,374.86h-.29c-1.36-.09-5-.35-5.2-1.65a1.63,1.63,0,0,1,.58-1.28,7.15,7.15,0,0,1,5.42-2,7,7,0,0,1,4.56,2.44,1,1,0,0,1,.24.83h0a.77.77,0,0,1-.44.45A10.87,10.87,0,0,1,502.59,374.86Zm0-4.75a7,7,0,0,0-4.73,1.94,1.47,1.47,0,0,0-.52,1.12c.19,1.15,3.82,1.4,5,1.49a10.67,10.67,0,0,0,5.06-1.17c.1-.06.29-.16.34-.33h0a.88.88,0,0,0-.21-.67,6.89,6.89,0,0,0-4.42-2.35A4.71,4.71,0,0,0,502.55,370.11Z"/><path d="M528.76,373.16a3,3,0,0,0,2.06-1.43,2.25,2.25,0,0,0,.23-.76,3.52,3.52,0,0,1-.36.51,3.95,3.95,0,0,1-2.07,1.43"/><path d="M528.38,372.5a2.7,2.7,0,0,0,1.86-1.29,2.2,2.2,0,0,0,.21-.68,4.17,4.17,0,0,1-.33.46,3.56,3.56,0,0,1-.54.58,4.42,4.42,0,0,1-1.31.71"/><path d="M527.81,372.17a2.3,2.3,0,0,0,1.57-1.09,1.83,1.83,0,0,0,.18-.58,4.41,4.41,0,0,1-.28.39,4,4,0,0,1-.45.49,3.48,3.48,0,0,1-1.12.6"/><path d="M527.23,371.84a1.87,1.87,0,0,0,1.3-.9,1.55,1.55,0,0,0,.14-.47,3.43,3.43,0,0,1-.23.32,2.38,2.38,0,0,1-1.29.89"/><path class="cls-11" d="M518.41,373.58c-.25-.89,2.23-2.9,4.72-3.15,3-.29,6.09,1.93,5.89,3.15s-3.82,1.48-5.11,1.57a10.59,10.59,0,0,1-5.1-1.18A.72.72,0,0,1,518.41,373.58Z"/><path d="M523.63,375.25a10.87,10.87,0,0,1-4.87-1.2.77.77,0,0,1-.44-.45,1.06,1.06,0,0,1,.24-.83,7,7,0,0,1,4.56-2.43,7.16,7.16,0,0,1,5.42,2,1.58,1.58,0,0,1,.57,1.28c-.22,1.31-3.83,1.56-5.19,1.65Zm0-4.74a4.61,4.61,0,0,0-.53,0,6.89,6.89,0,0,0-4.42,2.35.84.84,0,0,0-.21.67h0a.6.6,0,0,0,.34.33,10.52,10.52,0,0,0,5,1.17c1.2-.09,4.82-.34,5-1.49a1.45,1.45,0,0,0-.52-1.11A7,7,0,0,0,523.67,370.51Z"/><circle class="cls-12" cx="500.15" cy="381.63" r="3.93"/><circle class="cls-12" cx="525.68" cy="381.63" r="3.93"/><path class="cls-13" d="M512.63,497.08a37.74,37.74,0,0,0,18.61-4.26c2.75-1.47,10.24-5.61,14.36-14.36a30.52,30.52,0,0,0,2.66-9.57,31.32,31.32,0,0,0-1.06-12.24A28.61,28.61,0,0,0,536,467.29a36.44,36.44,0,0,0-7.45-10.64,34.42,34.42,0,0,0-3.72,3.73,32.09,32.09,0,0,0-4.25,6.38,26.52,26.52,0,0,0-8-10.11,17.86,17.86,0,0,0-3.19,2.66,18.46,18.46,0,0,0-4.26,7.45,28.22,28.22,0,0,0-2.13-3.72,29.37,29.37,0,0,0-5.85-6.39,24.68,24.68,0,0,0-3.19,3.2,25,25,0,0,0-4.25,7.44,26.4,26.4,0,0,0-2.13-3.19,27.38,27.38,0,0,0-9-7.45,27.2,27.2,0,0,0-1.07,3.73A31.41,31.41,0,0,0,485,487C494,497,506.76,497.05,512.63,497.08Z"/><path class="cls-14" d="M512.63,496.55c6.42-.28,13-2.65,16-3.73a26.18,26.18,0,0,0,2.66-1.06c.93-.45,8.85-4.4,10.64-12.23.36-1.56.94-4.11-.53-5.86a5.21,5.21,0,0,0-3.72-1.59,6.48,6.48,0,0,0-5.85,3.72,5.58,5.58,0,0,0,0-2.66A6.65,6.65,0,0,0,521.67,470a6.15,6.15,0,0,0-2.13,3.72A5.47,5.47,0,0,0,519,471a6.87,6.87,0,0,0-8-3.2,7.06,7.06,0,0,0-4.78,6.39,7.2,7.2,0,0,0-2.13-3.19,6.61,6.61,0,0,0-5.32-1.6c-3.17.58-4.52,3.6-4.79,4.25a7.36,7.36,0,0,0-.53,2.66,5.82,5.82,0,0,0-1.06-2.12,5,5,0,0,0-8.51.53,6.15,6.15,0,0,0-.54,4.25c.64,3.91,3.32,6.75,5.32,8.51A37.24,37.24,0,0,0,512.63,496.55Z"/><path class="cls-15" d="M512.63,492.29c1.6.24,3.53-4.82,3.72-5.32a17.44,17.44,0,0,0,1.07-9c-.45-2.75-1.32-3.5-1.6-3.72a5,5,0,0,0-4.26-.54,6,6,0,0,0-3.19,2.66c-2.76,4.37.83,10.77,1.07,11.17a21.42,21.42,0,0,0,2.12,3.73C512.2,492.11,512.4,492.26,512.63,492.29Z"/><path class="cls-15" d="M518.47,490.78c.56,1,4.31-.1,4.68-.2a12.36,12.36,0,0,0,5.65-3.37c1.39-1.46,1.44-2.29,1.44-2.55a3.56,3.56,0,0,0-1.57-2.67,4.29,4.29,0,0,0-2.92-.66c-3.72.33-5.81,5.2-5.94,5.51a15.78,15.78,0,0,0-1.2,2.86C518.38,490.45,518.39,490.63,518.47,490.78Z"/><path class="cls-15" d="M506.78,490.78c-.56,1-4.31-.1-4.68-.2a12.42,12.42,0,0,1-5.65-3.37c-1.38-1.46-1.43-2.29-1.44-2.55a3.61,3.61,0,0,1,1.57-2.67,4.29,4.29,0,0,1,2.92-.66c3.72.33,5.81,5.2,5.94,5.51a15.78,15.78,0,0,1,1.2,2.86C506.87,490.45,506.87,490.63,506.78,490.78Z"/><path class="cls-9" d="M530.59,368.08a4.46,4.46,0,0,0-2-1.18,6.75,6.75,0,0,0-1.57-.39,12.42,12.42,0,0,0-4.71,0c-1.8.36-4,1.15-3.93,1.57s1.18.44,2.16.19,1.13-.76,2-1.17c1.63-.81,3.81-.17,7.07.78C530,368,530.55,368.17,530.59,368.08Z"/><path class="cls-9" d="M496.42,368.47a4.46,4.46,0,0,1,2-1.18,7.94,7.94,0,0,1,1.57-.39,12.63,12.63,0,0,1,4.71,0c1.8.36,4,1.15,3.93,1.57s-1.18.45-2.16.2-1.13-.77-2-1.18c-1.62-.8-3.81-.17-7.06.78C497,368.4,496.47,368.56,496.42,368.47Z"/><circle class="cls-16" cx="502.62" cy="372.4" r="2.04"/><circle class="cls-17" cx="502.62" cy="372.4" r="1.52"/><circle cx="502.62" cy="372.4" r="1.01"/><circle class="cls-11" cx="503.3" cy="371.81" r="0.39"/><circle class="cls-16" cx="523.83" cy="372.79" r="2.04"/><circle class="cls-17" cx="523.83" cy="372.79" r="1.52"/><circle cx="523.83" cy="372.79" r="1.01"/><circle class="cls-11" cx="523.15" cy="372.2" r="0.39"/><circle cx="514.68" cy="380.84" r="0.39"/><circle cx="511.54" cy="380.84" r="0.39"/><circle class="cls-4" cx="662.7" cy="356.38" r="52.62"/><circle class="cls-5" cx="662.46" cy="272.23" r="31.65"/><path class="cls-4" d="M631.28,278.23c-.19,0-1.13-.13-1.57.4s-.1,1.67,0,2c1,3,.35,6.3.79,9.42.82,5.91-1.29,12.42-2.36,15.71a48.41,48.41,0,0,1-7.07,13.75l1.18,2.35c-.49.65-1.18,1.59-2,2.75a55.33,55.33,0,0,0-9.82,25.13A53.43,53.43,0,0,0,614,375.23a48.25,48.25,0,0,0,11,16.88,44.16,44.16,0,0,0,7.46,5.89,41.36,41.36,0,0,0,11.78,5.11c1.28.31,3.6.6,8.25,1.18a60.25,60.25,0,0,0,9.42.78,42.7,42.7,0,0,0,8.25-1.18c1.11-.24,3.11-.82,7.07-2,3.76-1.08,5.64-1.63,6.67-2a74.14,74.14,0,0,0,9-3.54c5.84-2.94,9.26-7.35,11.79-10.6a50.22,50.22,0,0,0,9-19.24,49.58,49.58,0,0,0,1.57-16.89c-1.27-13.76-8.87-23.39-12.57-27.49l1.18-3.14a42.31,42.31,0,0,1-3.53-5.49c-5.26-9.74-5.45-19.2-5.5-24.35a63.55,63.55,0,0,1,.78-10.6l-2-1.18C658.21,278.05,633.11,278.4,631.28,278.23Z"/><path class="cls-6" d="M661.36,237a33.92,33.92,0,0,0-15.06,4.18,34.51,34.51,0,0,0-14.22,15.07,36.66,36.66,0,0,0-3.35,14.64,42.25,42.25,0,0,0,.42,6.27c1.18,7.83,12.89,23.12,32.21,38.91a105.79,105.79,0,0,0,9.83-6.9c9.46-7.49,22.4-17.73,24.69-33.05a35.13,35.13,0,0,0-.42-12.14,34.56,34.56,0,0,0-9.62-17.57,43.06,43.06,0,0,0-5.44-4.18,32.45,32.45,0,0,0-4.61-2.51A33,33,0,0,0,661.36,237Z"/><path class="cls-7" d="M662.7,313.18a30.9,30.9,0,0,0-11-9.42c-3-1.51-4.08-1.37-4.71-1.18-4.65,1.44-6.45,13.13-2.75,15.71.58.4,1.61.8,6.28-.4A54.34,54.34,0,0,0,662.7,313.18Z"/><path class="cls-7" d="M661.64,313.12a31.06,31.06,0,0,1,11-9.43c3-1.5,4.08-1.37,4.71-1.18,4.65,1.45,6.45,13.13,2.75,15.71-.58.41-1.61.8-6.28-.39A54.82,54.82,0,0,1,661.64,313.12Z"/><path class="cls-7" d="M660.34,313.18q-1.23,5.58-2.75,11.39c-2.58,9.86-5.53,19-8.64,27.49l4.32-2.36c-.26,3.1-.26,4.67,0,4.72q1.13.18,8.64-37.31Z"/><path class="cls-7" d="M663.48,313.18q1.23,5.58,2.75,11.39c2.59,9.86,5.53,19,8.64,27.49l-4.32-2.36c.26,3.1.26,4.67,0,4.72q-1.11.18-8.64-37.31C662.44,315.8,663,314.49,663.48,313.18Z"/><circle class="cls-7" cx="662.3" cy="314.75" r="3.14"/><circle class="cls-8" cx="662.47" cy="270.97" r="24.94"/><path class="cls-9" d="M638.87,260.32c0-.06.08-.15.13-.27a31,31,0,0,1,4.56-6.5,28.71,28.71,0,0,1,14.06-7.81,25.71,25.71,0,0,1,11.45.52s7.55,2.09,12.5,7.81a34.32,34.32,0,0,1,4.17,6.25c.23.44.4.8.52,1l-17.19,1-1.56-4.16L666,262.4h-9.89l-1-5.2q-1,2.34-2.08,4.68c-2.93,0-6.06-.17-9.37-.52-1.43-.15-2.82-.32-4.17-.52h-1"/><path class="cls-10" d="M659.62,285.86a2.16,2.16,0,0,1-.16-1.68,1.49,1.49,0,0,1,1-.94,1.91,1.91,0,0,1,1.92,1.65,2.07,2.07,0,0,1,.33-.95c.08-.13.69-1.06,1.6-.93a1.62,1.62,0,0,1,1.25,1.29,1.88,1.88,0,0,1-.23,1.29,6.87,6.87,0,0,1-3.25,2.85A5.3,5.3,0,0,1,659.62,285.86Z"/><path d="M647.05,269.89a3,3,0,0,1-2.07-1.43,2.37,2.37,0,0,1-.23-.75,5.69,5.69,0,0,0,.36.51,5.05,5.05,0,0,0,.6.64,4.56,4.56,0,0,0,1.47.79"/><path d="M647.42,269.23a2.7,2.7,0,0,1-1.86-1.28,1.92,1.92,0,0,1-.2-.68,4.45,4.45,0,0,0,.32.46,3.65,3.65,0,0,0,.54.57,3.84,3.84,0,0,0,1.32.71"/><path d="M648,268.9a2.23,2.23,0,0,1-1.57-1.09,1.74,1.74,0,0,1-.17-.57,3.55,3.55,0,0,0,.27.39,3.09,3.09,0,0,0,.46.48,3.77,3.77,0,0,0,1.11.61"/><path d="M648.57,268.57a1.85,1.85,0,0,1-1.29-.89,1.41,1.41,0,0,1-.15-.47l.23.32a3.76,3.76,0,0,0,.37.39,2.83,2.83,0,0,0,.92.5"/><path class="cls-11" d="M657.39,270.18c.25-.89-2.23-2.89-4.71-3.14-3-.29-6.1,1.93-5.89,3.14s3.81,1.48,5.1,1.57a10.56,10.56,0,0,0,5.11-1.17A.73.73,0,0,0,657.39,270.18Z"/><path d="M652.17,271.86h-.29c-1.36-.09-5-.35-5.19-1.65a1.62,1.62,0,0,1,.57-1.28,7.15,7.15,0,0,1,5.43-2,7,7,0,0,1,4.56,2.44,1,1,0,0,1,.23.83h0a.77.77,0,0,1-.44.45A10.85,10.85,0,0,1,652.17,271.86Zm0-4.75a7,7,0,0,0-4.73,1.94,1.5,1.5,0,0,0-.52,1.12c.2,1.15,3.82,1.4,5,1.49a10.66,10.66,0,0,0,5.05-1.17c.1-.06.29-.16.34-.33h0a.84.84,0,0,0-.21-.67,6.86,6.86,0,0,0-4.41-2.35Z"/><path d="M678.34,270.16a3,3,0,0,0,2.07-1.43,2.22,2.22,0,0,0,.22-.76,4.3,4.3,0,0,1-.35.51,4.45,4.45,0,0,1-.6.64,4.56,4.56,0,0,1-1.47.79"/><path d="M678,269.5a2.72,2.72,0,0,0,1.86-1.29,2.16,2.16,0,0,0,.2-.68,3.94,3.94,0,0,1-.32.46,4.82,4.82,0,0,1-.54.58,4.41,4.41,0,0,1-1.32.71"/><path d="M677.39,269.17a2.31,2.31,0,0,0,1.58-1.09,1.79,1.79,0,0,0,.17-.58,2.8,2.8,0,0,1-.27.39,4.33,4.33,0,0,1-.46.49,3.37,3.37,0,0,1-1.12.6"/><path d="M676.82,268.84a1.86,1.86,0,0,0,1.29-.9,1.55,1.55,0,0,0,.14-.47,2.06,2.06,0,0,1-.22.32,2.54,2.54,0,0,1-.38.4,2.82,2.82,0,0,1-.91.49"/><path class="cls-11" d="M668,270.58c-.25-.89,2.23-2.9,4.71-3.15,3-.29,6.1,1.93,5.89,3.15s-3.82,1.48-5.1,1.57a10.64,10.64,0,0,1-5.11-1.18A.71.71,0,0,1,668,270.58Z"/><path d="M673.21,272.25a10.81,10.81,0,0,1-4.86-1.2.81.81,0,0,1-.45-.45,1.06,1.06,0,0,1,.24-.83,7,7,0,0,1,4.56-2.43,7.16,7.16,0,0,1,5.43,2,1.65,1.65,0,0,1,.57,1.28c-.22,1.31-3.84,1.56-5.2,1.65Zm0-4.74a4.78,4.78,0,0,0-.53,0,6.91,6.91,0,0,0-4.42,2.35.92.92,0,0,0-.21.67h0a.59.59,0,0,0,.35.33,10.5,10.5,0,0,0,5,1.17c1.19-.09,4.82-.34,5-1.49a1.42,1.42,0,0,0-.52-1.11A7,7,0,0,0,673.25,267.51Z"/><circle class="cls-12" cx="649.74" cy="278.63" r="3.93"/><circle class="cls-12" cx="675.26" cy="278.63" r="3.93"/><path class="cls-13" d="M662.21,394.08a37.77,37.77,0,0,0,18.62-4.26c2.74-1.47,10.23-5.61,14.36-14.36a30.52,30.52,0,0,0,2.66-9.57,31.48,31.48,0,0,0-1.07-12.24,28.7,28.7,0,0,0-11.16,10.64,36.44,36.44,0,0,0-7.45-10.64,33.18,33.18,0,0,0-8,10.11,26.52,26.52,0,0,0-8-10.11,17.94,17.94,0,0,0-7.44,10.11,29.34,29.34,0,0,0-8-10.11,24.07,24.07,0,0,0-3.19,3.2,24.83,24.83,0,0,0-4.26,7.44,26.4,26.4,0,0,0-2.13-3.19,27.28,27.28,0,0,0-9-7.45,26,26,0,0,0-1.06,3.73A31.4,31.4,0,0,0,634.55,384C643.6,394,656.35,394.05,662.21,394.08Z"/><path class="cls-14" d="M662.21,393.55c6.42-.28,13-2.65,16-3.73a26.18,26.18,0,0,0,2.66-1.06c.93-.45,8.85-4.4,10.64-12.23.35-1.56.93-4.11-.54-5.86a5.21,5.21,0,0,0-3.72-1.59,6.37,6.37,0,0,0-4.79,2.13,6.57,6.57,0,0,0-1.06,1.59,5.45,5.45,0,0,0,0-2.66A6.65,6.65,0,0,0,671.25,367a6.07,6.07,0,0,0-2.12,3.72,5.59,5.59,0,0,0-.53-2.65,6.88,6.88,0,0,0-8-3.2,7.07,7.07,0,0,0-4.79,6.39A7,7,0,0,0,653.7,368a6.61,6.61,0,0,0-5.32-1.6c-3.16.58-4.51,3.6-4.78,4.25a7.41,7.41,0,0,0-.54,2.66,5.66,5.66,0,0,0-1.06-2.12,5,5,0,0,0-8.51.53A6.23,6.23,0,0,0,633,376c.63,3.91,3.31,6.75,5.32,8.51A37.22,37.22,0,0,0,662.21,393.55Z"/><path class="cls-15" d="M662.21,389.29c1.61.24,3.54-4.82,3.73-5.32a17.41,17.41,0,0,0,1.06-9c-.44-2.75-1.31-3.5-1.6-3.72a4.93,4.93,0,0,0-4.25-.54,5.89,5.89,0,0,0-3.19,2.66c-2.77,4.37.83,10.77,1.06,11.17a21.52,21.52,0,0,0,2.13,3.73C661.78,389.11,662,389.26,662.21,389.29Z"/><path class="cls-15" d="M668.05,387.78c.57,1,4.32-.1,4.69-.2a12.48,12.48,0,0,0,5.65-3.37c1.38-1.46,1.43-2.29,1.43-2.55a3.58,3.58,0,0,0-1.56-2.67,4.3,4.3,0,0,0-2.93-.66c-3.71.33-5.8,5.2-5.93,5.51a15.78,15.78,0,0,0-1.2,2.86C668,387.45,668,387.63,668.05,387.78Z"/><path class="cls-15" d="M656.37,387.78c-.57,1-4.32-.1-4.69-.2a12.48,12.48,0,0,1-5.65-3.37c-1.38-1.46-1.43-2.29-1.43-2.55a3.58,3.58,0,0,1,1.56-2.67,4.31,4.31,0,0,1,2.93-.66c3.71.33,5.81,5.2,5.94,5.51a16.53,16.53,0,0,1,1.2,2.86C656.46,387.45,656.45,387.63,656.37,387.78Z"/><path class="cls-9" d="M680.17,265.08c.06-.13-.9-.78-2-1.18a6.87,6.87,0,0,0-1.57-.39,12.42,12.42,0,0,0-4.71,0c-1.8.36-4,1.15-3.93,1.57s1.17.44,2.16.19,1.12-.76,2-1.17c1.63-.81,3.82-.17,7.07.78C679.62,265,680.13,265.17,680.17,265.08Z"/><path class="cls-9" d="M646,265.47c-.06-.13.9-.78,2-1.18a8.11,8.11,0,0,1,1.57-.39,12.68,12.68,0,0,1,4.72,0c1.79.36,4,1.15,3.92,1.57s-1.17.45-2.16.2-1.12-.77-2-1.18c-1.63-.8-3.82-.17-7.07.78C646.56,265.4,646.05,265.56,646,265.47Z"/><circle class="cls-16" cx="652.21" cy="269.4" r="2.04"/><circle class="cls-17" cx="652.21" cy="269.4" r="1.52"/><circle cx="652.21" cy="269.4" r="1.01"/><circle class="cls-11" cx="652.88" cy="268.81" r="0.39"/><circle class="cls-16" cx="673.41" cy="269.79" r="2.04"/><circle class="cls-17" cx="673.41" cy="269.79" r="1.52"/><circle cx="673.41" cy="269.79" r="1.01"/><circle class="cls-11" cx="672.74" cy="269.2" r="0.39"/><circle cx="664.27" cy="277.84" r="0.39"/><circle cx="661.13" cy="277.84" r="0.39"/><circle class="cls-4" cx="810.25" cy="256.38" r="52.62"/><circle class="cls-5" cx="810.02" cy="172.23" r="31.65"/><path class="cls-4" d="M778.84,178.23c-.2,0-1.13-.13-1.57.4s-.1,1.67,0,2c1,3,.35,6.3.78,9.42.82,5.91-1.29,12.42-2.35,15.71a48.41,48.41,0,0,1-7.07,13.75l1.18,2.35c-.49.65-1.19,1.59-2,2.75A55.47,55.47,0,0,0,758,249.7a53.3,53.3,0,0,0,3.53,25.53,48.25,48.25,0,0,0,11,16.88A43.76,43.76,0,0,0,780,298a41.36,41.36,0,0,0,11.78,5.11c1.28.31,3.6.6,8.24,1.18a60.44,60.44,0,0,0,9.43.78,42.82,42.82,0,0,0,8.25-1.18c1.11-.24,3.11-.82,7.06-2,3.77-1.08,5.65-1.63,6.68-2a74.14,74.14,0,0,0,9-3.54c5.84-2.94,9.26-7.35,11.78-10.6a49.91,49.91,0,0,0,9-19.24,49.26,49.26,0,0,0,1.58-16.89c-1.27-13.76-8.87-23.39-12.57-27.49l1.18-3.14a43.27,43.27,0,0,1-3.54-5.49c-5.25-9.74-5.45-19.2-5.49-24.35a63.55,63.55,0,0,1,.78-10.6l-2-1.18C805.77,178.05,780.67,178.4,778.84,178.23Z"/><path class="cls-6" d="M808.92,137a33.83,33.83,0,0,0-15.06,4.18,34.57,34.57,0,0,0-14.23,15.07,36.54,36.54,0,0,0-3.34,14.64,40.73,40.73,0,0,0,.42,6.27c1.18,7.83,12.89,23.12,32.21,38.91a105.79,105.79,0,0,0,9.83-6.9c9.46-7.49,22.39-17.73,24.68-33.05a34.87,34.87,0,0,0-10-29.71,43.06,43.06,0,0,0-5.44-4.18,31.71,31.71,0,0,0-4.6-2.51A33,33,0,0,0,808.92,137Z"/><path class="cls-7" d="M810.25,213.18a30.81,30.81,0,0,0-11-9.42c-3-1.51-4.09-1.37-4.71-1.18-4.65,1.44-6.46,13.13-2.75,15.71.58.4,1.6.8,6.28-.4A54,54,0,0,0,810.25,213.18Z"/><path class="cls-7" d="M809.2,213.12a31,31,0,0,1,11-9.43c3-1.5,4.08-1.37,4.71-1.18,4.64,1.45,6.45,13.13,2.75,15.71-.59.41-1.61.8-6.29-.39A54.71,54.71,0,0,1,809.2,213.12Z"/><path class="cls-7" d="M807.9,213.18q-1.23,5.58-2.75,11.39c-2.59,9.86-5.53,19-8.64,27.49l4.32-2.36c-.26,3.1-.26,4.67,0,4.72q1.11.18,8.64-37.31Z"/><path class="cls-7" d="M811,213.18q1.23,5.58,2.75,11.39c2.58,9.86,5.53,19,8.64,27.49l-4.32-2.36c.26,3.1.26,4.67,0,4.72q-1.12.18-8.64-37.31Z"/><circle class="cls-7" cx="809.86" cy="214.75" r="3.14"/><circle class="cls-8" cx="810.03" cy="170.97" r="24.94"/><path class="cls-9" d="M786.43,160.32l.13-.27a31.15,31.15,0,0,1,4.55-6.5,28.71,28.71,0,0,1,14.06-7.81,25.75,25.75,0,0,1,11.46.52s7.55,2.09,12.5,7.81a34.41,34.41,0,0,1,4.16,6.25c.23.44.41.8.53,1l-17.19,1-1.56-4.16-1.56,4.16h-9.9c-.34-1.73-.69-3.47-1-5.2l-2.08,4.68c-2.93,0-6.07-.17-9.38-.52-1.43-.15-2.82-.32-4.16-.52h-1"/><path class="cls-10" d="M807.17,185.86a2.2,2.2,0,0,1-.16-1.68,1.53,1.53,0,0,1,1-.94,1.9,1.9,0,0,1,1.92,1.65,2.23,2.23,0,0,1,.34-.95c.08-.13.69-1.06,1.6-.93a1.64,1.64,0,0,1,1.25,1.29,1.94,1.94,0,0,1-.23,1.29,6.89,6.89,0,0,1-3.26,2.85A5.35,5.35,0,0,1,807.17,185.86Z"/><path d="M794.6,169.89a3,3,0,0,1-2.07-1.43,2.34,2.34,0,0,1-.22-.75,4.17,4.17,0,0,0,.36.51,4.39,4.39,0,0,0,.6.64,4.56,4.56,0,0,0,1.46.79"/><path d="M795,169.23a2.67,2.67,0,0,1-1.85-1.28,2.2,2.2,0,0,1-.21-.68l.32.46a3.84,3.84,0,0,0,.55.57,3.93,3.93,0,0,0,1.31.71"/><path d="M795.55,168.9a2.26,2.26,0,0,1-1.58-1.09,1.74,1.74,0,0,1-.17-.57l.27.39a4.53,4.53,0,0,0,.46.48,3.89,3.89,0,0,0,1.12.61"/><path d="M796.12,168.57a1.89,1.89,0,0,1-1.29-.89,1.64,1.64,0,0,1-.14-.47l.22.32a4.16,4.16,0,0,0,.38.39,2.83,2.83,0,0,0,.92.5"/><path class="cls-11" d="M805,170.18c.24-.89-2.23-2.89-4.72-3.14-3-.29-6.09,1.93-5.89,3.14s3.82,1.48,5.11,1.57a10.51,10.51,0,0,0,5.1-1.17A.71.71,0,0,0,805,170.18Z"/><path d="M799.73,171.86h-.29c-1.36-.09-5-.35-5.19-1.65a1.58,1.58,0,0,1,.57-1.28,7.11,7.11,0,0,1,5.42-2,7,7,0,0,1,4.56,2.44,1,1,0,0,1,.24.83h0a.77.77,0,0,1-.44.45A10.87,10.87,0,0,1,799.73,171.86Zm0-4.75a7,7,0,0,0-4.73,1.94,1.47,1.47,0,0,0-.52,1.12c.19,1.15,3.82,1.4,5,1.49a10.67,10.67,0,0,0,5.06-1.17c.1-.06.29-.16.34-.33a.88.88,0,0,0-.21-.67,6.89,6.89,0,0,0-4.42-2.35A4.58,4.58,0,0,0,799.69,167.11Z"/><path d="M825.9,170.16a3,3,0,0,0,2.07-1.43,2.46,2.46,0,0,0,.22-.76,5.43,5.43,0,0,1-1,1.15,4.56,4.56,0,0,1-1.46.79"/><path d="M825.53,169.5a2.69,2.69,0,0,0,1.85-1.29,2.2,2.2,0,0,0,.21-.68,3.94,3.94,0,0,1-.32.46,4.82,4.82,0,0,1-.54.58,4.53,4.53,0,0,1-1.32.71"/><path d="M825,169.17a2.33,2.33,0,0,0,1.58-1.09,1.79,1.79,0,0,0,.17-.58l-.27.39a5.54,5.54,0,0,1-.46.49,3.48,3.48,0,0,1-1.12.6"/><path d="M824.38,168.84a1.88,1.88,0,0,0,1.29-.9,1.55,1.55,0,0,0,.14-.47,3,3,0,0,1-.6.72,2.92,2.92,0,0,1-.92.49"/><path class="cls-11" d="M815.56,170.58c-.25-.89,2.22-2.9,4.71-3.15,3-.29,6.09,1.93,5.89,3.15s-3.82,1.48-5.11,1.57A10.59,10.59,0,0,1,816,171,.71.71,0,0,1,815.56,170.58Z"/><path d="M820.77,172.25a10.87,10.87,0,0,1-4.87-1.2.77.77,0,0,1-.44-.45h0a1.06,1.06,0,0,1,.24-.83,7,7,0,0,1,4.56-2.43,7.14,7.14,0,0,1,5.42,2,1.63,1.63,0,0,1,.58,1.28c-.23,1.31-3.84,1.56-5.2,1.65Zm-5.12-1.7a.6.6,0,0,0,.34.33,10.53,10.53,0,0,0,5.06,1.17c1.19-.09,4.82-.34,5-1.49a1.45,1.45,0,0,0-.52-1.11,6.51,6.51,0,0,0-9.68.43.88.88,0,0,0-.21.67Z"/><circle class="cls-12" cx="797.3" cy="178.63" r="3.93"/><circle class="cls-12" cx="822.82" cy="178.63" r="3.93"/><path class="cls-13" d="M809.77,294.08a37.77,37.77,0,0,0,18.62-4.26c2.74-1.47,10.23-5.61,14.36-14.36a31.1,31.1,0,0,0,2.66-9.57,31.48,31.48,0,0,0-1.07-12.24,28.79,28.79,0,0,0-11.17,10.64,36.7,36.7,0,0,0-2.66-4.79,37.19,37.19,0,0,0-4.78-5.85,33.56,33.56,0,0,0-3.73,3.73,33,33,0,0,0-4.25,6.38,26.52,26.52,0,0,0-8-10.11,17.86,17.86,0,0,0-3.19,2.66,18.46,18.46,0,0,0-4.26,7.45A29.25,29.25,0,0,0,800.2,260a29.62,29.62,0,0,0-5.85-6.39,24.7,24.7,0,0,0-3.2,3.2,25,25,0,0,0-4.25,7.44,26.4,26.4,0,0,0-2.13-3.19,27.38,27.38,0,0,0-9-7.45,26,26,0,0,0-1.06,3.73A31.37,31.37,0,0,0,782.11,284C791.16,294,803.9,294.05,809.77,294.08Z"/><path class="cls-14" d="M809.77,293.55c6.42-.28,13-2.65,16-3.73a28.22,28.22,0,0,0,2.66-1.06c.92-.45,8.84-4.4,10.63-12.23.36-1.56.94-4.11-.53-5.86a5.21,5.21,0,0,0-3.72-1.59,6.48,6.48,0,0,0-5.85,3.72,5.45,5.45,0,0,0,0-2.66A6.65,6.65,0,0,0,818.81,267a6.15,6.15,0,0,0-2.13,3.72,5.47,5.47,0,0,0-.53-2.65,6.86,6.86,0,0,0-8-3.2,7.06,7.06,0,0,0-4.78,6.39,7.2,7.2,0,0,0-2.13-3.19,6.61,6.61,0,0,0-5.32-1.6c-3.17.58-4.52,3.6-4.79,4.25a7.36,7.36,0,0,0-.53,2.66,5.66,5.66,0,0,0-1.06-2.12,5,5,0,0,0-8.51.53,6.11,6.11,0,0,0-.53,4.25c.63,3.91,3.31,6.75,5.31,8.51A37.24,37.24,0,0,0,809.77,293.55Z"/><path class="cls-15" d="M809.77,289.29c1.6.24,3.53-4.82,3.72-5.32a17.33,17.33,0,0,0,1.07-9c-.45-2.75-1.32-3.5-1.6-3.72a4.93,4.93,0,0,0-4.25-.54,6,6,0,0,0-3.2,2.66c-2.76,4.37.83,10.77,1.07,11.17a21.52,21.52,0,0,0,2.13,3.73C809.34,289.11,809.54,289.26,809.77,289.29Z"/><path class="cls-15" d="M815.61,287.78c.57,1,4.32-.1,4.68-.2a12.47,12.47,0,0,0,5.66-3.37c1.38-1.46,1.43-2.29,1.43-2.55a3.58,3.58,0,0,0-1.56-2.67,4.31,4.31,0,0,0-2.93-.66c-3.72.33-5.81,5.2-5.94,5.51a15.78,15.78,0,0,0-1.2,2.86C815.52,287.45,815.53,287.63,815.61,287.78Z"/><path class="cls-15" d="M803.93,287.78c-.57,1-4.32-.1-4.69-.2a12.48,12.48,0,0,1-5.65-3.37c-1.38-1.46-1.43-2.29-1.43-2.55a3.58,3.58,0,0,1,1.56-2.67,4.3,4.3,0,0,1,2.93-.66c3.71.33,5.8,5.2,5.93,5.51a15.78,15.78,0,0,1,1.2,2.86C804,287.45,804,287.63,803.93,287.78Z"/><path class="cls-9" d="M827.73,165.08c.06-.13-.9-.78-2-1.18a6.93,6.93,0,0,0-1.58-.39,12.41,12.41,0,0,0-4.71,0c-1.8.36-4,1.15-3.92,1.57s1.17.44,2.16.19,1.12-.76,2-1.17c1.63-.81,3.81-.17,7.07.78C827.17,165,827.69,165.17,827.73,165.08Z"/><path class="cls-9" d="M793.57,165.47c-.06-.13.89-.78,2-1.18a7.94,7.94,0,0,1,1.57-.39,12.63,12.63,0,0,1,4.71,0c1.8.36,4,1.15,3.93,1.57s-1.18.45-2.16.2-1.13-.77-2-1.18c-1.63-.8-3.82-.17-7.07.78C794.12,165.4,793.61,165.56,793.57,165.47Z"/><circle class="cls-16" cx="799.76" cy="169.4" r="2.04"/><circle class="cls-17" cx="799.76" cy="169.4" r="1.52"/><circle cx="799.76" cy="169.4" r="1.01"/><circle class="cls-11" cx="800.44" cy="168.81" r="0.39"/><circle class="cls-16" cx="820.97" cy="169.79" r="2.04"/><circle class="cls-17" cx="820.97" cy="169.79" r="1.52"/><circle cx="820.97" cy="169.79" r="1.01"/><circle class="cls-11" cx="820.29" cy="169.2" r="0.39"/><circle cx="811.82" cy="177.84" r="0.39"/><circle cx="808.68" cy="177.84" r="0.39"/><circle class="cls-4" cx="958.98" cy="158.38" r="52.62"/><circle class="cls-5" cx="958.74" cy="74.23" r="31.65"/><path class="cls-4" d="M927.57,80.23a1.91,1.91,0,0,0-1.58.4c-.49.59-.09,1.67,0,2,1,3,.36,6.3.79,9.42.82,5.91-1.29,12.42-2.36,15.71a48.16,48.16,0,0,1-7.06,13.75l1.17,2.35c-.49.65-1.18,1.59-2,2.75a55.33,55.33,0,0,0-9.82,25.13,53.48,53.48,0,0,0,3.54,25.53,48,48,0,0,0,11,16.88,44.57,44.57,0,0,0,7.46,5.89,41.6,41.6,0,0,0,11.78,5.11c1.29.31,3.61.6,8.25,1.18a60.36,60.36,0,0,0,9.43.78,42.7,42.7,0,0,0,8.24-1.18c1.12-.24,3.12-.82,7.07-2,3.77-1.08,5.65-1.63,6.68-2a74.79,74.79,0,0,0,9-3.54c5.83-2.94,9.26-7.35,11.78-10.6a49.91,49.91,0,0,0,9-19.24,49.32,49.32,0,0,0,1.57-16.89c-1.26-13.76-8.86-23.39-12.56-27.49l1.17-3.14a43.41,43.41,0,0,1-3.53-5.49c-5.26-9.74-5.45-19.2-5.5-24.35a64.84,64.84,0,0,1,.79-10.6l-2-1.18C954.49,80.05,929.39,80.4,927.57,80.23Z"/><path class="cls-6" d="M957.65,39a33.92,33.92,0,0,0-15.07,4.18,34.62,34.62,0,0,0-14.22,15.07A36.66,36.66,0,0,0,925,72.91a42.25,42.25,0,0,0,.42,6.27c1.19,7.83,12.9,23.12,32.22,38.91a105.79,105.79,0,0,0,9.83-6.9c9.46-7.49,22.39-17.73,24.68-33a34.87,34.87,0,0,0-10-29.71,43.06,43.06,0,0,0-5.44-4.18,31.71,31.71,0,0,0-4.6-2.51A33.12,33.12,0,0,0,957.65,39Z"/><path class="cls-7" d="M959,115.18a30.89,30.89,0,0,0-11-9.42c-3-1.51-4.09-1.37-4.72-1.18-4.64,1.44-6.45,13.13-2.75,15.71.59.4,1.61.8,6.29-.4A54.23,54.23,0,0,0,959,115.18Z"/><path class="cls-7" d="M957.93,115.12a31,31,0,0,1,11-9.43c3-1.5,4.09-1.37,4.72-1.18,4.64,1.45,6.45,13.13,2.74,15.71-.58.41-1.6.8-6.28-.39A54.51,54.51,0,0,1,957.93,115.12Z"/><path class="cls-7" d="M956.63,115.18q-1.25,5.58-2.75,11.39c-2.59,9.86-5.53,19-8.64,27.49l4.32-2.36c-.26,3.1-.26,4.67,0,4.72q1.11.18,8.64-37.31C957.67,117.8,957.15,116.49,956.63,115.18Z"/><path class="cls-7" d="M959.77,115.18q1.23,5.58,2.75,11.39c2.58,9.86,5.52,19,8.63,27.49l-4.31-2.36c.25,3.1.25,4.67,0,4.72q-1.12.18-8.64-37.31C958.72,117.8,959.24,116.49,959.77,115.18Z"/><circle class="cls-7" cx="958.59" cy="116.75" r="3.14"/><circle class="cls-8" cx="958.76" cy="72.97" r="24.94"/><path class="cls-9" d="M935.15,62.32l.14-.27a31.15,31.15,0,0,1,4.55-6.5,28.71,28.71,0,0,1,14.06-7.81,25.75,25.75,0,0,1,11.46.52s7.55,2.09,12.5,7.81A35,35,0,0,1,982,62.32c.23.44.41.8.52,1l-17.18,1-1.56-4.16-1.57,4.16h-9.89c-.35-1.73-.69-3.47-1-5.2q-1,2.34-2.08,4.68c-2.94,0-6.07-.17-9.38-.52-1.43-.15-2.82-.32-4.16-.52h-1"/><path class="cls-10" d="M955.9,87.86a2.2,2.2,0,0,1-.16-1.68,1.49,1.49,0,0,1,1-.94c.73-.14,1.63.51,1.92,1.65a2.07,2.07,0,0,1,.33-1c.09-.13.7-1.06,1.61-.93a1.64,1.64,0,0,1,1.25,1.29,1.94,1.94,0,0,1-.23,1.29,6.89,6.89,0,0,1-3.26,2.85A5.35,5.35,0,0,1,955.9,87.86Z"/><path d="M943.33,71.89a3,3,0,0,1-2.07-1.43,2.34,2.34,0,0,1-.22-.75,5.31,5.31,0,0,0,.35.51,4.61,4.61,0,0,0,.61.64,4.46,4.46,0,0,0,1.46.79"/><path d="M943.7,71.23A2.7,2.7,0,0,1,941.84,70a2.46,2.46,0,0,1-.2-.68c.08.12.18.28.32.46a4.21,4.21,0,0,0,.54.57,3.93,3.93,0,0,0,1.32.71"/><path d="M944.28,70.9a2.24,2.24,0,0,1-1.58-1.09,1.74,1.74,0,0,1-.17-.57,3.55,3.55,0,0,0,.27.39,3.68,3.68,0,0,0,.46.48,3.76,3.76,0,0,0,1.12.61"/><path d="M944.85,70.57a1.89,1.89,0,0,1-1.29-.89,1.64,1.64,0,0,1-.14-.47l.22.32a3.16,3.16,0,0,0,.38.39,2.73,2.73,0,0,0,.91.5"/><path class="cls-11" d="M953.67,72.18c.25-.89-2.23-2.89-4.71-3.14-3-.29-6.1,1.93-5.89,3.14s3.82,1.48,5.1,1.57a10.56,10.56,0,0,0,5.11-1.17A.7.7,0,0,0,953.67,72.18Z"/><path d="M948.46,73.86h-.29c-1.36-.09-5-.35-5.2-1.65a1.63,1.63,0,0,1,.58-1.28,7.11,7.11,0,0,1,5.42-2,7,7,0,0,1,4.56,2.44,1,1,0,0,1,.24.83h0a.83.83,0,0,1-.44.45A10.87,10.87,0,0,1,948.46,73.86Zm0-4.75a7,7,0,0,0-4.73,1.94,1.47,1.47,0,0,0-.52,1.12c.19,1.15,3.82,1.4,5,1.49a10.64,10.64,0,0,0,5.05-1.17c.11-.06.3-.16.35-.33a.92.92,0,0,0-.21-.67A6.91,6.91,0,0,0,949,69.14,4.71,4.71,0,0,0,948.42,69.11Z"/><path d="M974.62,72.16a3,3,0,0,0,2.07-1.43,2.5,2.5,0,0,0,.23-.76,4.54,4.54,0,0,1-.36.51,3.95,3.95,0,0,1-2.07,1.43"/><path d="M974.25,71.5a2.72,2.72,0,0,0,1.86-1.29,1.92,1.92,0,0,0,.2-.68A3,3,0,0,1,976,70a4.1,4.1,0,0,1-.54.58,4.42,4.42,0,0,1-1.31.71"/><path d="M973.68,71.17a2.3,2.3,0,0,0,1.57-1.09,2.12,2.12,0,0,0,.18-.58,4.41,4.41,0,0,1-.28.39,3.55,3.55,0,0,1-.46.49,3.38,3.38,0,0,1-1.11.6"/><path d="M973.1,70.84a1.87,1.87,0,0,0,1.3-.9,1.55,1.55,0,0,0,.14-.47,3.43,3.43,0,0,1-.23.32,2.38,2.38,0,0,1-1.29.89"/><path class="cls-11" d="M964.28,72.58c-.25-.89,2.23-2.9,4.71-3.15,3-.29,6.1,1.93,5.9,3.15s-3.82,1.48-5.11,1.57a10.59,10.59,0,0,1-5.1-1.18A.72.72,0,0,1,964.28,72.58Z"/><path d="M969.5,74.25a10.87,10.87,0,0,1-4.87-1.2.77.77,0,0,1-.44-.45h0a1.08,1.08,0,0,1,.23-.83A7,7,0,0,1,969,69.34a7.16,7.16,0,0,1,5.42,2,1.62,1.62,0,0,1,.57,1.28c-.22,1.31-3.83,1.56-5.19,1.65Zm-5.12-1.7a.6.6,0,0,0,.34.33,10.52,10.52,0,0,0,5,1.17c1.2-.09,4.82-.34,5-1.49a1.49,1.49,0,0,0-.52-1.11A7,7,0,0,0,969,69.53a6.86,6.86,0,0,0-4.41,2.35.84.84,0,0,0-.21.67Z"/><circle class="cls-12" cx="946.02" cy="80.63" r="3.93"/><circle class="cls-12" cx="971.55" cy="80.63" r="3.93"/><path class="cls-13" d="M958.5,196.08a37.74,37.74,0,0,0,18.61-4.26c2.75-1.47,10.23-5.61,14.36-14.36a30.52,30.52,0,0,0,2.66-9.57,31.32,31.32,0,0,0-1.06-12.24,28.61,28.61,0,0,0-11.17,10.64,36.7,36.7,0,0,0-2.66-4.79,37.2,37.2,0,0,0-4.79-5.85,33.54,33.54,0,0,0-3.72,3.73,32.09,32.09,0,0,0-4.25,6.38,26.78,26.78,0,0,0-8-10.11,17.86,17.86,0,0,0-3.19,2.66,18.46,18.46,0,0,0-4.26,7.45,28.22,28.22,0,0,0-2.13-3.72,29.37,29.37,0,0,0-5.85-6.39,24.07,24.07,0,0,0-3.19,3.2,25,25,0,0,0-4.25,7.44,26.4,26.4,0,0,0-2.13-3.19,27.38,27.38,0,0,0-9-7.45,25.84,25.84,0,0,0-1.07,3.73A31.41,31.41,0,0,0,930.84,186C939.89,196,952.63,196.05,958.5,196.08Z"/><path class="cls-14" d="M958.5,195.55c6.42-.28,13-2.65,16-3.73a26.18,26.18,0,0,0,2.66-1.06c.93-.45,8.85-4.4,10.64-12.23.35-1.56.94-4.11-.53-5.86a5.21,5.21,0,0,0-3.72-1.59,6.32,6.32,0,0,0-4.79,2.13,6.66,6.66,0,0,0-1.07,1.59,5.33,5.33,0,0,0,0-2.66,6.64,6.64,0,0,0-10.1-3.19,6.15,6.15,0,0,0-2.13,3.72,5.47,5.47,0,0,0-.53-2.65,6.88,6.88,0,0,0-8-3.2,7.08,7.08,0,0,0-4.79,6.39A7.07,7.07,0,0,0,950,170a6.61,6.61,0,0,0-5.32-1.6c-3.17.58-4.52,3.6-4.79,4.25a7.36,7.36,0,0,0-.53,2.66,5.82,5.82,0,0,0-1.06-2.12,5,5,0,0,0-8.51.53,6.15,6.15,0,0,0-.54,4.25c.64,3.91,3.32,6.75,5.32,8.51A37.24,37.24,0,0,0,958.5,195.55Z"/><path class="cls-15" d="M958.5,191.29c1.6.24,3.53-4.82,3.72-5.32a17.3,17.3,0,0,0,1.06-9c-.44-2.75-1.31-3.5-1.59-3.72a5,5,0,0,0-4.26-.54,5.93,5.93,0,0,0-3.19,2.66c-2.77,4.37.83,10.77,1.07,11.17a21.42,21.42,0,0,0,2.12,3.73C958.06,191.11,958.27,191.26,958.5,191.29Z"/><path class="cls-15" d="M964.34,189.78c.56,1,4.31-.1,4.68-.2a12.36,12.36,0,0,0,5.65-3.37c1.38-1.46,1.43-2.29,1.44-2.55a3.59,3.59,0,0,0-1.57-2.67,4.29,4.29,0,0,0-2.92-.66c-3.72.33-5.81,5.2-5.94,5.51a15.78,15.78,0,0,0-1.2,2.86C964.25,189.45,964.26,189.63,964.34,189.78Z"/><path class="cls-15" d="M952.65,189.78c-.56,1-4.31-.1-4.68-.2a12.36,12.36,0,0,1-5.65-3.37c-1.38-1.46-1.43-2.29-1.44-2.55a3.61,3.61,0,0,1,1.57-2.67,4.29,4.29,0,0,1,2.92-.66c3.72.33,5.81,5.2,5.94,5.51a15.78,15.78,0,0,1,1.2,2.86C952.74,189.45,952.73,189.63,952.65,189.78Z"/><path class="cls-9" d="M976.46,67.08a4.46,4.46,0,0,0-2-1.18,6.75,6.75,0,0,0-1.57-.39,12.42,12.42,0,0,0-4.71,0c-1.8.36-4,1.15-3.93,1.57s1.18.44,2.16.19,1.13-.76,2-1.17c1.62-.81,3.81-.17,7.06.78C975.9,67,976.41,67.17,976.46,67.08Z"/><path class="cls-9" d="M942.29,67.47a4.46,4.46,0,0,1,2-1.18,7.94,7.94,0,0,1,1.57-.39,12.63,12.63,0,0,1,4.71,0c1.8.36,4,1.15,3.93,1.57s-1.18.45-2.16.2-1.13-.77-2-1.18c-1.63-.8-3.81-.17-7.07.78C942.85,67.4,942.33,67.56,942.29,67.47Z"/><circle class="cls-16" cx="948.49" cy="71.4" r="2.04"/><circle class="cls-17" cx="948.49" cy="71.4" r="1.52"/><circle cx="948.49" cy="71.4" r="1.01"/><circle class="cls-11" cx="949.16" cy="70.81" r="0.39"/><circle class="cls-16" cx="969.7" cy="71.79" r="2.04"/><circle class="cls-17" cx="969.7" cy="71.79" r="1.52"/><circle cx="969.7" cy="71.79" r="1.01"/><circle class="cls-11" cx="969.02" cy="71.2" r="0.39"/><circle cx="960.55" cy="79.84" r="0.39"/><circle cx="957.41" cy="79.84" r="0.39"/><circle class="cls-4" cx="1555.69" cy="557.38" r="52.62"/><circle class="cls-5" cx="1555.92" cy="473.23" r="31.65"/><path class="cls-4" d="M1587.1,479.23c.2,0,1.13-.13,1.57.4s.1,1.67,0,2c-1,3-.35,6.3-.78,9.42-.82,5.91,1.29,12.42,2.35,15.71a48.41,48.41,0,0,0,7.07,13.75l-1.18,2.35c.49.65,1.19,1.59,2,2.75a55.35,55.35,0,0,1,9.81,25.13,53.3,53.3,0,0,1-3.53,25.53,48.18,48.18,0,0,1-11,16.88,44.1,44.1,0,0,1-7.47,5.89,41.36,41.36,0,0,1-11.78,5.11c-1.28.31-3.6.6-8.24,1.18a60.44,60.44,0,0,1-9.43.78,42.58,42.58,0,0,1-8.24-1.18c-1.12-.24-3.12-.82-7.07-2-3.77-1.08-5.65-1.63-6.68-2a74.79,74.79,0,0,1-9-3.54c-5.84-2.94-9.26-7.35-11.78-10.6a49.91,49.91,0,0,1-9-19.24,49.07,49.07,0,0,1-1.57-16.89c1.26-13.76,8.86-23.39,12.56-27.49l-1.18-3.14a43.27,43.27,0,0,0,3.54-5.49c5.25-9.74,5.45-19.2,5.5-24.35a64.84,64.84,0,0,0-.79-10.6l2-1.18C1560.17,479.05,1585.28,479.4,1587.1,479.23Z"/><path class="cls-6" d="M1557,438a33.83,33.83,0,0,1,15.06,4.18,34.57,34.57,0,0,1,14.23,15.07,36.54,36.54,0,0,1,3.34,14.64,41.45,41.45,0,0,1-.41,6.27c-1.19,7.83-12.9,23.12-32.22,38.91a105.79,105.79,0,0,1-9.83-6.9c-9.46-7.49-22.39-17.73-24.68-33.05a34.87,34.87,0,0,1,10-29.71,43.06,43.06,0,0,1,5.44-4.18,31.71,31.71,0,0,1,4.6-2.51A33.09,33.09,0,0,1,1557,438Z"/><path class="cls-7" d="M1555.69,514.18a30.89,30.89,0,0,1,11-9.42c3-1.51,4.09-1.37,4.71-1.18,4.65,1.44,6.46,13.13,2.75,15.71-.58.4-1.6.8-6.28-.4A54,54,0,0,1,1555.69,514.18Z"/><path class="cls-7" d="M1556.74,514.12a31,31,0,0,0-11-9.43c-3-1.5-4.08-1.37-4.71-1.18-4.64,1.45-6.45,13.13-2.75,15.71.59.41,1.61.8,6.29-.39A54.71,54.71,0,0,0,1556.74,514.12Z"/><path class="cls-7" d="M1558,514.18q1.23,5.58,2.75,11.39c2.59,9.86,5.53,19,8.64,27.49l-4.32-2.36c.26,3.1.26,4.67,0,4.72q-1.11.18-8.64-37.31C1557,516.8,1557.52,515.49,1558,514.18Z"/><path class="cls-7" d="M1554.9,514.18q-1.23,5.58-2.75,11.39c-2.58,9.86-5.53,19-8.64,27.49l4.32-2.36c-.26,3.1-.26,4.67,0,4.72q1.13.18,8.64-37.31Z"/><circle class="cls-7" cx="1556.08" cy="515.75" r="3.14"/><circle class="cls-8" cx="1555.91" cy="471.97" r="24.94"/><path class="cls-9" d="M1579.51,461.32l-.13-.27a31.15,31.15,0,0,0-4.55-6.5,28.71,28.71,0,0,0-14.06-7.81,25.75,25.75,0,0,0-11.46.52s-7.55,2.09-12.5,7.81a34.41,34.41,0,0,0-4.16,6.25c-.23.44-.41.8-.53,1l17.19,1,1.56-4.16,1.56,4.16h9.9c.35-1.73.69-3.47,1-5.2l2.08,4.68c2.93,0,6.07-.17,9.38-.52,1.43-.15,2.82-.32,4.16-.52h1"/><path class="cls-10" d="M1558.77,486.86a2.2,2.2,0,0,0,.16-1.68,1.51,1.51,0,0,0-1-.94,1.9,1.9,0,0,0-1.92,1.65,2.33,2.33,0,0,0-.33-.95c-.09-.13-.7-1.06-1.61-.93a1.64,1.64,0,0,0-1.25,1.29,1.94,1.94,0,0,0,.23,1.29,6.89,6.89,0,0,0,3.26,2.85A5.35,5.35,0,0,0,1558.77,486.86Z"/><path d="M1571.34,470.89a3,3,0,0,0,2.07-1.43,2.34,2.34,0,0,0,.22-.75,4.17,4.17,0,0,1-.36.51,3.88,3.88,0,0,1-.6.64,4.56,4.56,0,0,1-1.46.79"/><path d="M1571,470.23a2.67,2.67,0,0,0,1.85-1.28,2.2,2.2,0,0,0,.21-.68c-.08.12-.18.28-.32.46a4.21,4.21,0,0,1-.54.57,4,4,0,0,1-1.32.71"/><path d="M1570.39,469.9a2.26,2.26,0,0,0,1.58-1.09,1.74,1.74,0,0,0,.17-.57l-.27.39a4.53,4.53,0,0,1-.46.48,3.89,3.89,0,0,1-1.12.61"/><path d="M1569.82,469.57a1.89,1.89,0,0,0,1.29-.89,1.64,1.64,0,0,0,.14-.47l-.22.32a4.16,4.16,0,0,1-.38.39,2.73,2.73,0,0,1-.92.5"/><path class="cls-11" d="M1561,471.18c-.25-.89,2.22-2.89,4.71-3.14,3-.29,6.09,1.93,5.89,3.14s-3.82,1.48-5.11,1.57a10.51,10.51,0,0,1-5.1-1.17A.7.7,0,0,1,1561,471.18Z"/><path d="M1561.34,471.66a.77.77,0,0,1-.44-.45h0a1,1,0,0,1,.24-.83,7,7,0,0,1,4.56-2.44,7.15,7.15,0,0,1,5.42,2,1.58,1.58,0,0,1,.57,1.28c-.22,1.3-3.83,1.56-5.19,1.65h-.29A10.87,10.87,0,0,1,1561.34,471.66Zm4.38-3.52a6.89,6.89,0,0,0-4.42,2.35.88.88,0,0,0-.21.67h0c.05.17.24.27.34.33a10.67,10.67,0,0,0,5.06,1.17c1.19-.09,4.82-.34,5-1.49a1.47,1.47,0,0,0-.52-1.12,7,7,0,0,0-4.73-1.94A4.58,4.58,0,0,0,1565.72,468.14Z"/><path d="M1540,471.16a3,3,0,0,1-2.07-1.43,2.46,2.46,0,0,1-.22-.76,3.52,3.52,0,0,0,.36.51,3.93,3.93,0,0,0,.6.64,4.56,4.56,0,0,0,1.46.79"/><path d="M1540.41,470.5a2.69,2.69,0,0,1-1.85-1.29,2.2,2.2,0,0,1-.21-.68c.08.13.19.29.32.46a4.33,4.33,0,0,0,.55.58,4.42,4.42,0,0,0,1.31.71"/><path d="M1541,470.17a2.33,2.33,0,0,1-1.58-1.09,1.79,1.79,0,0,1-.17-.58l.27.39a5.54,5.54,0,0,0,.46.49,3.48,3.48,0,0,0,1.12.6"/><path d="M1541.56,469.84a1.88,1.88,0,0,1-1.29-.9,1.55,1.55,0,0,1-.14-.47,3,3,0,0,0,.6.72,2.92,2.92,0,0,0,.92.49"/><path class="cls-11" d="M1550.39,471.58c.24-.89-2.23-2.9-4.72-3.15-3-.29-6.09,1.93-5.89,3.15s3.82,1.48,5.11,1.57A10.59,10.59,0,0,0,1550,472,.72.72,0,0,0,1550.39,471.58Z"/><path d="M1544.88,473.24c-1.36-.09-5-.34-5.19-1.65a1.58,1.58,0,0,1,.57-1.28,7.14,7.14,0,0,1,5.42-2,7,7,0,0,1,4.56,2.43,1.06,1.06,0,0,1,.24.83.77.77,0,0,1-.44.45,10.87,10.87,0,0,1-4.87,1.2Zm-4.48-2.79a1.45,1.45,0,0,0-.52,1.11c.19,1.15,3.82,1.4,5,1.49a10.53,10.53,0,0,0,5.06-1.17.6.6,0,0,0,.34-.33h0a.84.84,0,0,0-.21-.67,6.89,6.89,0,0,0-4.42-2.35,4.61,4.61,0,0,0-.53,0A7,7,0,0,0,1540.4,470.45Z"/><circle class="cls-12" cx="1568.65" cy="479.63" r="3.93"/><circle class="cls-12" cx="1543.12" cy="479.63" r="3.93"/><path class="cls-13" d="M1556.17,595.08a37.72,37.72,0,0,1-18.61-4.26c-2.75-1.47-10.24-5.61-14.37-14.36a31.1,31.1,0,0,1-2.66-9.57,31.48,31.48,0,0,1,1.07-12.24,29.07,29.07,0,0,1,4.79,3.2,28.68,28.68,0,0,1,6.38,7.44,36.7,36.7,0,0,1,2.66-4.79,37.19,37.19,0,0,1,4.78-5.85,33.56,33.56,0,0,1,3.73,3.73,32.54,32.54,0,0,1,4.25,6.38,26.52,26.52,0,0,1,8-10.11,17.86,17.86,0,0,1,3.19,2.66,18.46,18.46,0,0,1,4.26,7.45,29,29,0,0,1,8-10.11,24.68,24.68,0,0,1,3.19,3.2,25,25,0,0,1,4.25,7.44,26.4,26.4,0,0,1,2.13-3.19,27.38,27.38,0,0,1,9-7.45,27.2,27.2,0,0,1,1.07,3.73,31.41,31.41,0,0,1-7.45,26.59C1574.78,595,1562,595.05,1556.17,595.08Z"/><path class="cls-14" d="M1556.17,594.55c-6.42-.28-13-2.65-16-3.73a26.86,26.86,0,0,1-2.65-1.06c-.93-.45-8.85-4.4-10.64-12.23-.36-1.56-.94-4.11.53-5.86a5.21,5.21,0,0,1,3.72-1.59,6.48,6.48,0,0,1,5.85,3.72,5.45,5.45,0,0,1,0-2.66,6.65,6.65,0,0,1,10.11-3.19,6.15,6.15,0,0,1,2.13,3.72,5.47,5.47,0,0,1,.53-2.65,6.87,6.87,0,0,1,8-3.2,7.06,7.06,0,0,1,4.78,6.39,7.2,7.2,0,0,1,2.13-3.19,6.61,6.61,0,0,1,5.32-1.6c3.17.58,4.52,3.6,4.79,4.25a7.36,7.36,0,0,1,.53,2.66,5.66,5.66,0,0,1,1.06-2.12,5,5,0,0,1,8.51.53,6.11,6.11,0,0,1,.53,4.25c-.63,3.91-3.31,6.75-5.31,8.51A37.24,37.24,0,0,1,1556.17,594.55Z"/><path class="cls-15" d="M1556.17,590.29c-1.6.24-3.53-4.82-3.72-5.32a17.33,17.33,0,0,1-1.07-9c.45-2.75,1.32-3.5,1.6-3.72a4.93,4.93,0,0,1,4.25-.54,6,6,0,0,1,3.2,2.66c2.76,4.37-.83,10.77-1.07,11.17a21.52,21.52,0,0,1-2.13,3.73C1556.6,590.11,1556.4,590.26,1556.17,590.29Z"/><path class="cls-15" d="M1550.33,588.78c-.57,1-4.31-.1-4.68-.2a12.47,12.47,0,0,1-5.66-3.37c-1.38-1.46-1.43-2.29-1.43-2.55a3.58,3.58,0,0,1,1.56-2.67,4.32,4.32,0,0,1,2.93-.66c3.72.33,5.81,5.2,5.94,5.51a15.78,15.78,0,0,1,1.2,2.86C1550.42,588.45,1550.41,588.63,1550.33,588.78Z"/><path class="cls-15" d="M1562,588.78c.56,1,4.31-.1,4.68-.2a12.48,12.48,0,0,0,5.65-3.37c1.38-1.46,1.43-2.29,1.43-2.55a3.58,3.58,0,0,0-1.56-2.67,4.3,4.3,0,0,0-2.93-.66c-3.71.33-5.8,5.2-5.93,5.51a15.78,15.78,0,0,0-1.2,2.86C1561.93,588.45,1561.93,588.63,1562,588.78Z"/><path class="cls-9" d="M1538.21,466.08a4.46,4.46,0,0,1,2-1.18,6.75,6.75,0,0,1,1.57-.39,12.42,12.42,0,0,1,4.71,0c1.8.36,4,1.15,3.93,1.57s-1.18.44-2.16.19-1.13-.76-2-1.17c-1.63-.81-3.81-.17-7.07.78C1538.77,466,1538.25,466.17,1538.21,466.08Z"/><path class="cls-9" d="M1572.38,466.47a4.46,4.46,0,0,0-2-1.18,7.94,7.94,0,0,0-1.57-.39,12.63,12.63,0,0,0-4.71,0c-1.8.36-4,1.15-3.93,1.57s1.18.45,2.16.2,1.13-.77,2-1.18c1.63-.8,3.82-.17,7.07.78C1571.82,466.4,1572.33,466.56,1572.38,466.47Z"/><circle class="cls-16" cx="1566.18" cy="470.4" r="2.04"/><circle class="cls-17" cx="1566.18" cy="470.4" r="1.52"/><circle cx="1566.18" cy="470.4" r="1.01"/><circle class="cls-11" cx="1565.5" cy="469.81" r="0.39"/><circle class="cls-16" cx="1544.97" cy="470.79" r="2.04"/><circle class="cls-17" cx="1544.97" cy="470.79" r="1.52"/><circle cx="1544.97" cy="470.79" r="1.01"/><circle class="cls-11" cx="1545.65" cy="470.2" r="0.39"/><circle cx="1554.12" cy="478.84" r="0.39"/><circle cx="1557.26" cy="478.84" r="0.39"/><circle class="cls-4" cx="1406.1" cy="459.38" r="52.62"/><circle class="cls-5" cx="1406.34" cy="375.23" r="31.65"/><path class="cls-4" d="M1437.52,381.23c.19,0,1.13-.13,1.57.4s.1,1.67,0,2c-1,3-.35,6.3-.79,9.42-.82,5.91,1.29,12.42,2.36,15.71a48.41,48.41,0,0,0,7.07,13.75l-1.18,2.35c.49.65,1.18,1.59,2,2.75a55.33,55.33,0,0,1,9.82,25.13,53.43,53.43,0,0,1-3.53,25.53,48.25,48.25,0,0,1-11,16.88,44.16,44.16,0,0,1-7.46,5.89,41.48,41.48,0,0,1-11.78,5.11c-1.28.31-3.61.6-8.25,1.18a60.25,60.25,0,0,1-9.42.78,42.7,42.7,0,0,1-8.25-1.18c-1.12-.24-3.11-.82-7.07-2-3.76-1.08-5.64-1.63-6.67-2a74.8,74.8,0,0,1-9-3.54c-5.83-2.94-9.25-7.35-11.78-10.6a50.22,50.22,0,0,1-9-19.24,49.58,49.58,0,0,1-1.57-16.89c1.26-13.76,8.86-23.39,12.57-27.49l-1.18-3.14a43.41,43.41,0,0,0,3.53-5.49c5.26-9.74,5.45-19.2,5.5-24.35a63.55,63.55,0,0,0-.78-10.6l2-1.18C1410.59,381.05,1435.69,381.4,1437.52,381.23Z"/><path class="cls-6" d="M1407.44,340a33.92,33.92,0,0,1,15.06,4.18,34.51,34.51,0,0,1,14.22,15.07,36.66,36.66,0,0,1,3.35,14.64,42.25,42.25,0,0,1-.42,6.27c-1.18,7.83-12.89,23.12-32.21,38.91a104.45,104.45,0,0,1-9.83-6.9c-9.46-7.49-22.4-17.73-24.69-33.05a34.87,34.87,0,0,1,10-29.71,43.06,43.06,0,0,1,5.44-4.18,32,32,0,0,1,19-5.23Z"/><path class="cls-7" d="M1406.1,416.18a30.9,30.9,0,0,1,11-9.42c3-1.51,4.08-1.37,4.71-1.18,4.65,1.44,6.45,13.13,2.75,15.71-.58.4-1.61.8-6.28-.4A54.34,54.34,0,0,1,1406.1,416.18Z"/><path class="cls-7" d="M1407.16,416.12a31.06,31.06,0,0,0-11-9.43c-3-1.5-4.09-1.37-4.71-1.18-4.65,1.45-6.45,13.13-2.75,15.71.58.41,1.61.8,6.28-.39A54.82,54.82,0,0,0,1407.16,416.12Z"/><path class="cls-7" d="M1408.46,416.18q1.23,5.58,2.75,11.39c2.58,9.86,5.53,19,8.64,27.49l-4.32-2.36c.26,3.1.26,4.67,0,4.72q-1.12.18-8.64-37.31C1407.41,418.8,1407.93,417.49,1408.46,416.18Z"/><path class="cls-7" d="M1405.32,416.18q-1.23,5.58-2.75,11.39c-2.59,9.86-5.53,19-8.64,27.49l4.32-2.36c-.26,3.1-.26,4.67,0,4.72q1.11.18,8.64-37.31C1406.36,418.8,1405.84,417.49,1405.32,416.18Z"/><circle class="cls-7" cx="1406.49" cy="417.75" r="3.14"/><circle class="cls-8" cx="1406.32" cy="373.97" r="24.94"/><path class="cls-9" d="M1429.93,363.32l-.14-.27a30.71,30.71,0,0,0-4.55-6.5,28.71,28.71,0,0,0-14.06-7.81,25.71,25.71,0,0,0-11.45.52s-7.55,2.09-12.5,7.81a34.32,34.32,0,0,0-4.17,6.25c-.23.44-.4.8-.52,1l17.19,1,1.56-4.16,1.56,4.16h9.89l1-5.2q1,2.34,2.08,4.68c2.93,0,6.06-.17,9.37-.52,1.43-.15,2.82-.32,4.17-.52h1"/><path class="cls-10" d="M1409.18,388.86a2.16,2.16,0,0,0,.16-1.68,1.49,1.49,0,0,0-1-.94,1.91,1.91,0,0,0-1.92,1.65,2.07,2.07,0,0,0-.33-.95c-.08-.13-.69-1.06-1.6-.93a1.62,1.62,0,0,0-1.25,1.29,1.88,1.88,0,0,0,.23,1.29,6.87,6.87,0,0,0,3.25,2.85A5.3,5.3,0,0,0,1409.18,388.86Z"/><path d="M1421.75,372.89a3,3,0,0,0,2.07-1.43,2.37,2.37,0,0,0,.23-.75q-.13.21-.36.51a5.05,5.05,0,0,1-.6.64,4.56,4.56,0,0,1-1.47.79"/><path d="M1421.38,372.23a2.7,2.7,0,0,0,1.86-1.28,1.92,1.92,0,0,0,.2-.68,4.45,4.45,0,0,1-.32.46,3.65,3.65,0,0,1-.54.57,3.84,3.84,0,0,1-1.32.71"/><path d="M1420.81,371.9a2.25,2.25,0,0,0,1.57-1.09,1.74,1.74,0,0,0,.17-.57,3.55,3.55,0,0,1-.27.39,3.09,3.09,0,0,1-.46.48,3.77,3.77,0,0,1-1.11.61"/><path d="M1420.23,371.57a1.85,1.85,0,0,0,1.29-.89,1.18,1.18,0,0,0,.14-.47,3.84,3.84,0,0,1-.22.32,3.76,3.76,0,0,1-.37.39,2.83,2.83,0,0,1-.92.5"/><path class="cls-11" d="M1411.41,373.18c-.25-.89,2.23-2.89,4.71-3.14,3-.29,6.1,1.93,5.89,3.14s-3.81,1.48-5.1,1.57a10.56,10.56,0,0,1-5.11-1.17A.73.73,0,0,1,1411.41,373.18Z"/><path d="M1411.76,373.66a.77.77,0,0,1-.44-.45h0a1,1,0,0,1,.23-.83,7,7,0,0,1,4.56-2.44,7.15,7.15,0,0,1,5.43,2,1.62,1.62,0,0,1,.57,1.28c-.22,1.3-3.83,1.56-5.19,1.65h-.29A10.82,10.82,0,0,1,1411.76,373.66Zm4.37-3.52a6.86,6.86,0,0,0-4.41,2.35.84.84,0,0,0-.21.67h0c0,.17.24.27.34.33a10.66,10.66,0,0,0,5.05,1.17c1.19-.09,4.82-.34,5-1.49a1.48,1.48,0,0,0-.53-1.12,7,7,0,0,0-4.72-1.94Z"/><path d="M1390.46,373.16a3,3,0,0,1-2.07-1.43,2.5,2.5,0,0,1-.23-.76c.09.14.21.32.36.51a4.45,4.45,0,0,0,.6.64,4.56,4.56,0,0,0,1.47.79"/><path d="M1390.83,372.5a2.72,2.72,0,0,1-1.86-1.29,2.16,2.16,0,0,1-.2-.68,3.94,3.94,0,0,0,.32.46,4.82,4.82,0,0,0,.54.58,4.41,4.41,0,0,0,1.32.71"/><path d="M1391.41,372.17a2.31,2.31,0,0,1-1.58-1.09,1.79,1.79,0,0,1-.17-.58,2.8,2.8,0,0,0,.27.39,4.33,4.33,0,0,0,.46.49,3.28,3.28,0,0,0,1.12.6"/><path d="M1392,371.84a1.84,1.84,0,0,1-1.29-.9,1.55,1.55,0,0,1-.14-.47,2.06,2.06,0,0,0,.22.32,2.54,2.54,0,0,0,.38.4,2.82,2.82,0,0,0,.91.49"/><path class="cls-11" d="M1400.8,373.58c.25-.89-2.23-2.9-4.71-3.15-3-.29-6.1,1.93-5.89,3.15s3.81,1.48,5.1,1.57a10.64,10.64,0,0,0,5.11-1.18A.71.71,0,0,0,1400.8,373.58Z"/><path d="M1395.3,375.24c-1.36-.09-5-.34-5.2-1.65a1.65,1.65,0,0,1,.57-1.28,7.16,7.16,0,0,1,5.43-2,7,7,0,0,1,4.56,2.43,1.06,1.06,0,0,1,.24.83.81.81,0,0,1-.45.45,10.81,10.81,0,0,1-4.86,1.2Zm-4.48-2.79a1.47,1.47,0,0,0-.53,1.11c.2,1.15,3.83,1.4,5,1.49a10.5,10.5,0,0,0,5-1.17.59.59,0,0,0,.35-.33h0a.92.92,0,0,0-.21-.67,6.91,6.91,0,0,0-4.42-2.35,4.78,4.78,0,0,0-.53,0A7,7,0,0,0,1390.82,372.45Z"/><circle class="cls-12" cx="1419.06" cy="381.63" r="3.93"/><circle class="cls-12" cx="1393.54" cy="381.63" r="3.93"/><path class="cls-13" d="M1406.59,497.08a37.77,37.77,0,0,1-18.62-4.26c-2.74-1.47-10.23-5.61-14.36-14.36a30.52,30.52,0,0,1-2.66-9.57,31.71,31.71,0,0,1,1.06-12.24,28.61,28.61,0,0,1,11.17,10.64,36.44,36.44,0,0,1,7.45-10.64,33.18,33.18,0,0,1,8,10.11,26.07,26.07,0,0,1,3.19-5.32,26.84,26.84,0,0,1,4.79-4.79,17.94,17.94,0,0,1,7.44,10.11,29.34,29.34,0,0,1,8-10.11,24.07,24.07,0,0,1,3.19,3.2,24.83,24.83,0,0,1,4.26,7.44,26.49,26.49,0,0,1,11.17-10.64,26,26,0,0,1,1.06,3.73,31.41,31.41,0,0,1-7.45,26.59C1425.2,497,1412.45,497.05,1406.59,497.08Z"/><path class="cls-14" d="M1406.59,496.55c-6.42-.28-13-2.65-16-3.73a26.18,26.18,0,0,1-2.66-1.06c-.93-.45-8.85-4.4-10.64-12.23-.35-1.56-.93-4.11.53-5.86a5.24,5.24,0,0,1,3.73-1.59,6.37,6.37,0,0,1,4.79,2.13,6.88,6.88,0,0,1,1.06,1.59,5.45,5.45,0,0,1,0-2.66,6.64,6.64,0,0,1,10.1-3.19,6.1,6.1,0,0,1,2.13,3.72,5.59,5.59,0,0,1,.53-2.65,6.88,6.88,0,0,1,8-3.2,4,4,0,1,0,6.92,3.2,6.59,6.59,0,0,1,5.32-1.6c3.16.58,4.51,3.6,4.78,4.25a7.15,7.15,0,0,1,.53,2.66,5.88,5.88,0,0,1,1.07-2.12,5,5,0,0,1,8.51.53,6.23,6.23,0,0,1,.53,4.25c-.63,3.91-3.32,6.75-5.32,8.51A37.22,37.22,0,0,1,1406.59,496.55Z"/><path class="cls-15" d="M1406.59,492.29c-1.61.24-3.54-4.82-3.73-5.32a17.41,17.41,0,0,1-1.06-9c.44-2.75,1.31-3.5,1.6-3.72a4.93,4.93,0,0,1,4.25-.54,5.89,5.89,0,0,1,3.19,2.66c2.77,4.37-.83,10.77-1.06,11.17a21.52,21.52,0,0,1-2.13,3.73C1407,492.11,1406.82,492.26,1406.59,492.29Z"/><path class="cls-15" d="M1400.75,490.78c-.57,1-4.32-.1-4.69-.2a12.48,12.48,0,0,1-5.65-3.37c-1.38-1.46-1.43-2.29-1.43-2.55a3.58,3.58,0,0,1,1.56-2.67,4.3,4.3,0,0,1,2.93-.66c3.71.33,5.8,5.2,5.93,5.51a15.78,15.78,0,0,1,1.2,2.86C1400.83,490.45,1400.83,490.63,1400.75,490.78Z"/><path class="cls-15" d="M1412.43,490.78c.57,1,4.32-.1,4.69-.2a12.48,12.48,0,0,0,5.65-3.37c1.38-1.46,1.43-2.29,1.43-2.55a3.58,3.58,0,0,0-1.56-2.67,4.31,4.31,0,0,0-2.93-.66c-3.72.33-5.81,5.2-5.94,5.51a15.78,15.78,0,0,0-1.2,2.86C1412.34,490.45,1412.35,490.63,1412.43,490.78Z"/><path class="cls-9" d="M1388.63,368.08c-.06-.13.9-.78,2-1.18a6.75,6.75,0,0,1,1.57-.39,12.42,12.42,0,0,1,4.71,0c1.8.36,4,1.15,3.93,1.57s-1.17.44-2.16.19-1.12-.76-2-1.17c-1.63-.81-3.82-.17-7.07.78C1389.18,368,1388.67,368.17,1388.63,368.08Z"/><path class="cls-9" d="M1422.79,368.47c.06-.13-.9-.78-2-1.18a8.11,8.11,0,0,0-1.57-.39,12.68,12.68,0,0,0-4.72,0c-1.79.36-4,1.15-3.92,1.57s1.17.45,2.16.2,1.12-.77,2-1.18c1.63-.8,3.81-.17,7.07.78C1422.24,368.4,1422.75,368.56,1422.79,368.47Z"/><circle class="cls-16" cx="1416.59" cy="372.4" r="2.04"/><circle class="cls-17" cx="1416.59" cy="372.4" r="1.52"/><circle cx="1416.59" cy="372.4" r="1.01"/><circle class="cls-11" cx="1415.92" cy="371.81" r="0.39"/><circle class="cls-16" cx="1395.39" cy="372.79" r="2.04"/><circle class="cls-17" cx="1395.39" cy="372.79" r="1.52"/><circle cx="1395.39" cy="372.79" r="1.01"/><circle class="cls-11" cx="1396.06" cy="372.2" r="0.39"/><circle cx="1404.53" cy="380.84" r="0.39"/><circle cx="1407.67" cy="380.84" r="0.39"/><circle class="cls-4" cx="1257.54" cy="357.38" r="52.62"/><circle class="cls-5" cx="1257.78" cy="273.23" r="31.65"/><path class="cls-4" d="M1289,279.23c.19,0,1.13-.13,1.57.4s.1,1.67,0,2c-1,3-.35,6.3-.78,9.42-.82,5.91,1.29,12.42,2.35,15.71a48.41,48.41,0,0,0,7.07,13.75l-1.18,2.35c.49.65,1.18,1.59,2,2.75a55.47,55.47,0,0,1,9.81,25.13,53.43,53.43,0,0,1-3.53,25.53,48.25,48.25,0,0,1-11,16.88,43.76,43.76,0,0,1-7.46,5.89,41.36,41.36,0,0,1-11.78,5.11c-1.28.31-3.6.6-8.24,1.18a60.44,60.44,0,0,1-9.43.78,42.82,42.82,0,0,1-8.25-1.18c-1.11-.24-3.11-.82-7.06-2-3.77-1.08-5.65-1.63-6.68-2a74.14,74.14,0,0,1-9-3.54c-5.84-2.94-9.26-7.35-11.78-10.6a50.13,50.13,0,0,1-9-19.24,49.58,49.58,0,0,1-1.57-16.89c1.27-13.76,8.87-23.39,12.57-27.49l-1.18-3.14a43.27,43.27,0,0,0,3.54-5.49c5.25-9.74,5.45-19.2,5.49-24.35a63.55,63.55,0,0,0-.78-10.6l2-1.18C1262,279.05,1287.13,279.4,1289,279.23Z"/><path class="cls-6" d="M1258.88,238a33.87,33.87,0,0,1,15.06,4.18,34.57,34.57,0,0,1,14.23,15.07,36.54,36.54,0,0,1,3.34,14.64,42.25,42.25,0,0,1-.42,6.27c-1.18,7.83-12.89,23.12-32.21,38.91a105.79,105.79,0,0,1-9.83-6.9c-9.46-7.49-22.39-17.73-24.68-33.05a34.79,34.79,0,0,1,10-29.71,42.29,42.29,0,0,1,5.44-4.18,31.71,31.71,0,0,1,4.6-2.51A33,33,0,0,1,1258.88,238Z"/><path class="cls-7" d="M1257.54,314.18a30.9,30.9,0,0,1,11-9.42c3-1.51,4.09-1.37,4.71-1.18,4.65,1.44,6.46,13.13,2.75,15.71-.58.4-1.61.8-6.28-.4A54.34,54.34,0,0,1,1257.54,314.18Z"/><path class="cls-7" d="M1258.6,314.12a31.06,31.06,0,0,0-11-9.43c-3-1.5-4.08-1.37-4.71-1.18-4.64,1.45-6.45,13.13-2.75,15.71.58.41,1.61.8,6.29-.39A54.91,54.91,0,0,0,1258.6,314.12Z"/><path class="cls-7" d="M1259.9,314.18q1.23,5.58,2.75,11.39c2.59,9.86,5.53,19,8.64,27.49L1267,350.7c.26,3.1.26,4.67,0,4.72q-1.11.18-8.64-37.31Z"/><path class="cls-7" d="M1256.76,314.18q-1.23,5.58-2.75,11.39c-2.58,9.86-5.53,19-8.64,27.49l4.32-2.36c-.26,3.1-.26,4.67,0,4.72q1.13.18,8.64-37.31Z"/><circle class="cls-7" cx="1257.94" cy="315.75" r="3.14"/><circle class="cls-8" cx="1257.77" cy="271.97" r="24.94"/><path class="cls-9" d="M1281.37,261.32l-.13-.27a31,31,0,0,0-4.56-6.5,28.67,28.67,0,0,0-14.06-7.81,25.71,25.71,0,0,0-11.45.52s-7.55,2.09-12.5,7.81a34.86,34.86,0,0,0-4.17,6.25l-.52,1,17.19,1,1.56-4.16,1.56,4.16h9.9c.34-1.73.69-3.47,1-5.2l2.08,4.68c2.93,0,6.07-.17,9.37-.52,1.44-.15,2.83-.32,4.17-.52h1"/><path class="cls-10" d="M1260.63,286.86a2.2,2.2,0,0,0,.16-1.68,1.53,1.53,0,0,0-1-.94,1.9,1.9,0,0,0-1.92,1.65,2.23,2.23,0,0,0-.34-.95c-.08-.13-.69-1.06-1.6-.93a1.62,1.62,0,0,0-1.25,1.29,1.94,1.94,0,0,0,.23,1.29,6.91,6.91,0,0,0,3.25,2.85A5.32,5.32,0,0,0,1260.63,286.86Z"/><path d="M1273.2,270.89a3,3,0,0,0,2.06-1.43,2.14,2.14,0,0,0,.23-.75,4.17,4.17,0,0,1-.36.51,5.05,5.05,0,0,1-.6.64,4.46,4.46,0,0,1-1.47.79"/><path d="M1272.82,270.23a2.68,2.68,0,0,0,1.86-1.28,2.2,2.2,0,0,0,.21-.68c-.08.12-.19.28-.33.46a3.22,3.22,0,0,1-.54.57,3.93,3.93,0,0,1-1.31.71"/><path d="M1272.25,269.9a2.23,2.23,0,0,0,1.57-1.09,1.78,1.78,0,0,0,.18-.57c-.07.1-.16.24-.28.39a3.44,3.44,0,0,1-.45.48,3.89,3.89,0,0,1-1.12.61"/><path d="M1271.67,269.57a1.88,1.88,0,0,0,1.3-.89,1.64,1.64,0,0,0,.14-.47l-.23.32a2.9,2.9,0,0,1-.37.39,2.83,2.83,0,0,1-.92.5"/><path class="cls-11" d="M1262.85,271.18c-.25-.89,2.23-2.89,4.72-3.14,3-.29,6.09,1.93,5.89,3.14s-3.82,1.48-5.11,1.57a10.51,10.51,0,0,1-5.1-1.17A.71.71,0,0,1,1262.85,271.18Z"/><path d="M1263.2,271.66a.77.77,0,0,1-.44-.45h0a1,1,0,0,1,.24-.83,7,7,0,0,1,4.56-2.44,7.11,7.11,0,0,1,5.42,2,1.58,1.58,0,0,1,.57,1.28c-.22,1.3-3.83,1.56-5.19,1.65h-.29A10.87,10.87,0,0,1,1263.2,271.66Zm4.38-3.52a6.89,6.89,0,0,0-4.42,2.35.84.84,0,0,0-.21.67c0,.17.24.27.34.33a10.66,10.66,0,0,0,5,1.17c1.2-.09,4.82-.34,5-1.49a1.47,1.47,0,0,0-.52-1.12,7,7,0,0,0-4.73-1.94A4.58,4.58,0,0,0,1267.58,268.14Z"/><path d="M1241.9,271.16a3,3,0,0,1-2.07-1.43,2.46,2.46,0,0,1-.22-.76,4.3,4.3,0,0,0,.35.51,4.1,4.1,0,0,0,.61.64,4.46,4.46,0,0,0,1.46.79"/><path d="M1242.27,270.5a2.72,2.72,0,0,1-1.86-1.29,2.46,2.46,0,0,1-.2-.68,3.94,3.94,0,0,0,.32.46,4.82,4.82,0,0,0,.54.58,4.53,4.53,0,0,0,1.32.71"/><path d="M1242.85,270.17a2.31,2.31,0,0,1-1.58-1.09,1.79,1.79,0,0,1-.17-.58l.27.39a5.54,5.54,0,0,0,.46.49,3.48,3.48,0,0,0,1.12.6"/><path d="M1243.42,269.84a1.88,1.88,0,0,1-1.29-.9,1.55,1.55,0,0,1-.14-.47,3.13,3.13,0,0,0,.22.32,2.54,2.54,0,0,0,.38.4,2.72,2.72,0,0,0,.92.49"/><path class="cls-11" d="M1252.24,271.58c.25-.89-2.22-2.9-4.71-3.15-3-.29-6.1,1.93-5.89,3.15s3.82,1.48,5.11,1.57a10.59,10.59,0,0,0,5.1-1.18A.71.71,0,0,0,1252.24,271.58Z"/><path d="M1246.74,273.24c-1.36-.09-5-.34-5.2-1.65a1.63,1.63,0,0,1,.58-1.28,7.14,7.14,0,0,1,5.42-2,7,7,0,0,1,4.56,2.43,1.06,1.06,0,0,1,.24.83h0a.77.77,0,0,1-.44.45,10.87,10.87,0,0,1-4.87,1.2Zm5.41-1.69a.88.88,0,0,0-.21-.67,6.51,6.51,0,0,0-9.68-.43,1.45,1.45,0,0,0-.52,1.11c.19,1.15,3.82,1.4,5,1.49a10.53,10.53,0,0,0,5.06-1.17.6.6,0,0,0,.34-.33Z"/><circle class="cls-12" cx="1270.5" cy="279.63" r="3.93"/><circle class="cls-12" cx="1244.98" cy="279.63" r="3.93"/><path class="cls-13" d="M1258,395.08a37.77,37.77,0,0,1-18.62-4.26c-2.74-1.47-10.23-5.61-14.36-14.36a30.8,30.8,0,0,1-2.66-9.57,31.48,31.48,0,0,1,1.07-12.24,28.79,28.79,0,0,1,11.17,10.64,36.7,36.7,0,0,1,2.66-4.79,37.19,37.19,0,0,1,4.78-5.85,33.56,33.56,0,0,1,3.73,3.73,33,33,0,0,1,4.25,6.38,26.52,26.52,0,0,1,8-10.11,18.22,18.22,0,0,1,3.19,2.66,18.46,18.46,0,0,1,4.26,7.45,29.25,29.25,0,0,1,2.12-3.72,29.62,29.62,0,0,1,5.85-6.39,24.7,24.7,0,0,1,3.2,3.2,25,25,0,0,1,4.25,7.44,26.4,26.4,0,0,1,2.13-3.19,27.38,27.38,0,0,1,9-7.45,26,26,0,0,1,1.06,3.73,31.37,31.37,0,0,1-7.44,26.59C1276.64,395,1263.9,395.05,1258,395.08Z"/><path class="cls-14" d="M1258,394.55c-6.42-.28-13-2.65-16-3.73a27.16,27.16,0,0,1-2.66-1.06c-.93-.45-8.84-4.4-10.63-12.23-.36-1.56-.94-4.11.53-5.86a5.21,5.21,0,0,1,3.72-1.59,6.48,6.48,0,0,1,5.85,3.72,5.45,5.45,0,0,1,0-2.66A6.65,6.65,0,0,1,1249,368a6.07,6.07,0,0,1,2.12,3.72,5.62,5.62,0,0,1,.54-2.65,6.86,6.86,0,0,1,8-3.2,7.07,7.07,0,0,1,4.78,6.39,7,7,0,0,1,2.13-3.19,6.61,6.61,0,0,1,5.32-1.6c3.17.58,4.52,3.6,4.79,4.25a7.36,7.36,0,0,1,.53,2.66,5.66,5.66,0,0,1,1.06-2.12,5,5,0,0,1,8.51.53,6.11,6.11,0,0,1,.53,4.25c-.63,3.91-3.31,6.75-5.32,8.51A37.2,37.2,0,0,1,1258,394.55Z"/><path class="cls-15" d="M1258,390.29c-1.6.24-3.53-4.82-3.72-5.32a17.33,17.33,0,0,1-1.07-9c.45-2.75,1.32-3.5,1.6-3.72a4.93,4.93,0,0,1,4.25-.54,5.89,5.89,0,0,1,3.19,2.66c2.77,4.37-.82,10.77-1.06,11.17a21.52,21.52,0,0,1-2.13,3.73C1258.46,390.11,1258.26,390.26,1258,390.29Z"/><path class="cls-15" d="M1252.19,388.78c-.57,1-4.32-.1-4.69-.2a12.48,12.48,0,0,1-5.65-3.37c-1.38-1.46-1.43-2.29-1.43-2.55A3.58,3.58,0,0,1,1242,380a4.31,4.31,0,0,1,2.93-.66c3.72.33,5.81,5.2,5.94,5.51a16.53,16.53,0,0,1,1.2,2.86C1252.28,388.45,1252.27,388.63,1252.19,388.78Z"/><path class="cls-15" d="M1263.87,388.78c.57,1,4.32-.1,4.69-.2a12.48,12.48,0,0,0,5.65-3.37c1.38-1.46,1.43-2.29,1.43-2.55a3.58,3.58,0,0,0-1.56-2.67,4.3,4.3,0,0,0-2.93-.66c-3.71.33-5.8,5.2-5.93,5.51a15.78,15.78,0,0,0-1.2,2.86C1263.78,388.45,1263.79,388.63,1263.87,388.78Z"/><path class="cls-9" d="M1240.07,266.08c-.06-.13.9-.78,2-1.18a6.87,6.87,0,0,1,1.57-.39,12.47,12.47,0,0,1,4.72,0c1.79.36,4,1.15,3.92,1.57s-1.17.44-2.16.19-1.12-.76-2-1.17c-1.63-.81-3.81-.17-7.07.78C1240.62,266,1240.11,266.17,1240.07,266.08Z"/><path class="cls-9" d="M1274.23,266.47c.06-.13-.9-.78-2-1.18a7.94,7.94,0,0,0-1.57-.39,12.63,12.63,0,0,0-4.71,0c-1.8.36-4,1.15-3.93,1.57s1.17.45,2.16.2,1.12-.77,2-1.18c1.63-.8,3.82-.17,7.07.78C1273.68,266.4,1274.19,266.56,1274.23,266.47Z"/><circle class="cls-16" cx="1268.04" cy="270.4" r="2.04"/><circle class="cls-17" cx="1268.04" cy="270.4" r="1.52"/><circle cx="1268.04" cy="270.4" r="1.01"/><circle class="cls-11" cx="1267.36" cy="269.81" r="0.39"/><circle class="cls-16" cx="1246.83" cy="270.79" r="2.04"/><circle class="cls-17" cx="1246.83" cy="270.79" r="1.52"/><circle cx="1246.83" cy="270.79" r="1.01"/><circle class="cls-11" cx="1247.5" cy="270.2" r="0.39"/><circle cx="1255.97" cy="278.84" r="0.39"/><circle cx="1259.12" cy="278.84" r="0.39"/><circle class="cls-4" cx="1108.75" cy="257.38" r="52.62"/><circle class="cls-5" cx="1108.98" cy="173.23" r="31.65"/><path class="cls-4" d="M1140.16,179.23c.2,0,1.13-.13,1.57.4s.1,1.67,0,2c-1,3-.35,6.3-.78,9.42-.82,5.91,1.29,12.42,2.35,15.71a48.41,48.41,0,0,0,7.07,13.75l-1.18,2.35c.49.65,1.19,1.59,2,2.75A55.47,55.47,0,0,1,1161,250.7a53.3,53.3,0,0,1-3.53,25.53,48.25,48.25,0,0,1-11,16.88A43.76,43.76,0,0,1,1139,299a41.36,41.36,0,0,1-11.78,5.11c-1.28.31-3.6.6-8.24,1.18a60.44,60.44,0,0,1-9.43.78,42.82,42.82,0,0,1-8.25-1.18c-1.11-.24-3.11-.82-7.06-2-3.77-1.08-5.65-1.63-6.68-2a74.14,74.14,0,0,1-9-3.54c-5.84-2.94-9.26-7.35-11.78-10.6a49.91,49.91,0,0,1-9-19.24,49.26,49.26,0,0,1-1.58-16.89c1.27-13.76,8.87-23.39,12.57-27.49l-1.18-3.14a43.27,43.27,0,0,0,3.54-5.49c5.25-9.74,5.45-19.2,5.49-24.35a63.55,63.55,0,0,0-.78-10.6l2-1.18C1113.23,179.05,1138.33,179.4,1140.16,179.23Z"/><path class="cls-6" d="M1110.08,138a33.83,33.83,0,0,1,15.06,4.18,34.57,34.57,0,0,1,14.23,15.07,36.54,36.54,0,0,1,3.34,14.64,40.73,40.73,0,0,1-.42,6.27c-1.18,7.83-12.89,23.12-32.21,38.91a105.79,105.79,0,0,1-9.83-6.9c-9.46-7.49-22.39-17.73-24.68-33.05a34.87,34.87,0,0,1,10-29.71,43.06,43.06,0,0,1,5.44-4.18,31.71,31.71,0,0,1,4.6-2.51A33,33,0,0,1,1110.08,138Z"/><path class="cls-7" d="M1108.75,214.18a30.81,30.81,0,0,1,11-9.42c3-1.51,4.09-1.37,4.71-1.18,4.65,1.44,6.46,13.13,2.75,15.71-.58.4-1.6.8-6.28-.4A54,54,0,0,1,1108.75,214.18Z"/><path class="cls-7" d="M1109.8,214.12a31,31,0,0,0-11-9.43c-3-1.5-4.08-1.37-4.71-1.18-4.64,1.45-6.45,13.13-2.75,15.71.59.41,1.61.8,6.29-.39A54.71,54.71,0,0,0,1109.8,214.12Z"/><path class="cls-7" d="M1111.1,214.18q1.23,5.58,2.75,11.39c2.59,9.86,5.53,19,8.64,27.49l-4.32-2.36c.26,3.1.26,4.67,0,4.72q-1.11.18-8.64-37.31Z"/><path class="cls-7" d="M1108,214.18q-1.23,5.58-2.75,11.39c-2.58,9.86-5.53,19-8.64,27.49l4.32-2.36c-.26,3.1-.26,4.67,0,4.72q1.13.18,8.64-37.31Z"/><circle class="cls-7" cx="1109.14" cy="215.75" r="3.14"/><circle class="cls-8" cx="1108.97" cy="171.97" r="24.94"/><path class="cls-9" d="M1132.57,161.32l-.13-.27a31.15,31.15,0,0,0-4.55-6.5,28.71,28.71,0,0,0-14.06-7.81,25.75,25.75,0,0,0-11.46.52s-7.55,2.09-12.5,7.81a34.41,34.41,0,0,0-4.16,6.25c-.23.44-.41.8-.53,1l17.19,1,1.56-4.16,1.56,4.16h9.9c.34-1.73.69-3.47,1-5.2l2.08,4.68c2.93,0,6.07-.17,9.38-.52,1.43-.15,2.82-.32,4.16-.52h1"/><path class="cls-10" d="M1111.83,186.86a2.2,2.2,0,0,0,.16-1.68,1.53,1.53,0,0,0-1-.94,1.9,1.9,0,0,0-1.92,1.65,2.23,2.23,0,0,0-.34-.95c-.08-.13-.69-1.06-1.6-.93a1.64,1.64,0,0,0-1.25,1.29,1.94,1.94,0,0,0,.23,1.29,6.89,6.89,0,0,0,3.26,2.85A5.35,5.35,0,0,0,1111.83,186.86Z"/><path d="M1124.4,170.89a3,3,0,0,0,2.07-1.43,2.34,2.34,0,0,0,.22-.75,4.17,4.17,0,0,1-.36.51,4.39,4.39,0,0,1-.6.64,4.56,4.56,0,0,1-1.46.79"/><path d="M1124,170.23a2.67,2.67,0,0,0,1.85-1.28,2.2,2.2,0,0,0,.21-.68l-.32.46a3.84,3.84,0,0,1-.55.57,3.93,3.93,0,0,1-1.31.71"/><path d="M1123.45,169.9a2.26,2.26,0,0,0,1.58-1.09,1.74,1.74,0,0,0,.17-.57l-.27.39a4.53,4.53,0,0,1-.46.48,3.89,3.89,0,0,1-1.12.61"/><path d="M1122.88,169.57a1.89,1.89,0,0,0,1.29-.89,1.64,1.64,0,0,0,.14-.47l-.22.32a4.16,4.16,0,0,1-.38.39,2.83,2.83,0,0,1-.92.5"/><path class="cls-11" d="M1114.05,171.18c-.24-.89,2.23-2.89,4.72-3.14,3-.29,6.09,1.93,5.89,3.14s-3.82,1.48-5.11,1.57a10.51,10.51,0,0,1-5.1-1.17A.71.71,0,0,1,1114.05,171.18Z"/><path d="M1114.4,171.66a.77.77,0,0,1-.44-.45h0a1,1,0,0,1,.24-.83,7,7,0,0,1,4.56-2.44,7.11,7.11,0,0,1,5.42,2,1.58,1.58,0,0,1,.57,1.28c-.22,1.3-3.83,1.56-5.19,1.65h-.29A10.87,10.87,0,0,1,1114.4,171.66Zm4.38-3.52a6.89,6.89,0,0,0-4.42,2.35.88.88,0,0,0-.21.67c0,.17.24.27.34.33a10.67,10.67,0,0,0,5.06,1.17c1.19-.09,4.82-.34,5-1.49a1.47,1.47,0,0,0-.52-1.12,7,7,0,0,0-4.73-1.94A4.58,4.58,0,0,0,1118.78,168.14Z"/><path d="M1093.1,171.16a3,3,0,0,1-2.07-1.43,2.46,2.46,0,0,1-.22-.76,5.43,5.43,0,0,0,1,1.15,4.56,4.56,0,0,0,1.46.79"/><path d="M1093.47,170.5a2.69,2.69,0,0,1-1.85-1.29,2.2,2.2,0,0,1-.21-.68,3.94,3.94,0,0,0,.32.46,4.82,4.82,0,0,0,.54.58,4.53,4.53,0,0,0,1.32.71"/><path d="M1094.05,170.17a2.33,2.33,0,0,1-1.58-1.09,1.79,1.79,0,0,1-.17-.58l.27.39a5.54,5.54,0,0,0,.46.49,3.48,3.48,0,0,0,1.12.6"/><path d="M1094.62,169.84a1.88,1.88,0,0,1-1.29-.9,1.55,1.55,0,0,1-.14-.47,3,3,0,0,0,.6.72,2.92,2.92,0,0,0,.92.49"/><path class="cls-11" d="M1103.44,171.58c.25-.89-2.22-2.9-4.71-3.15-3-.29-6.09,1.93-5.89,3.15s3.82,1.48,5.11,1.57a10.59,10.59,0,0,0,5.1-1.18A.71.71,0,0,0,1103.44,171.58Z"/><path d="M1097.94,173.24c-1.36-.09-5-.34-5.2-1.65a1.63,1.63,0,0,1,.58-1.28,7.14,7.14,0,0,1,5.42-2,7,7,0,0,1,4.56,2.43,1.06,1.06,0,0,1,.24.83h0a.77.77,0,0,1-.44.45,10.87,10.87,0,0,1-4.87,1.2Zm5.41-1.69a.88.88,0,0,0-.21-.67,6.51,6.51,0,0,0-9.68-.43,1.45,1.45,0,0,0-.52,1.11c.19,1.15,3.82,1.4,5,1.49a10.53,10.53,0,0,0,5.06-1.17.6.6,0,0,0,.34-.33Z"/><circle class="cls-12" cx="1121.7" cy="179.63" r="3.93"/><circle class="cls-12" cx="1096.18" cy="179.63" r="3.93"/><path class="cls-13" d="M1109.23,295.08a37.77,37.77,0,0,1-18.62-4.26c-2.74-1.47-10.23-5.61-14.36-14.36a31.1,31.1,0,0,1-2.66-9.57,31.48,31.48,0,0,1,1.07-12.24,28.79,28.79,0,0,1,11.17,10.64,36.7,36.7,0,0,1,2.66-4.79,37.19,37.19,0,0,1,4.78-5.85,33.56,33.56,0,0,1,3.73,3.73,33,33,0,0,1,4.25,6.38,26.52,26.52,0,0,1,8-10.11,17.86,17.86,0,0,1,3.19,2.66,18.46,18.46,0,0,1,4.26,7.45,29.25,29.25,0,0,1,2.12-3.72,29.62,29.62,0,0,1,5.85-6.39,24.7,24.7,0,0,1,3.2,3.2,25,25,0,0,1,4.25,7.44,26.4,26.4,0,0,1,2.13-3.19,27.38,27.38,0,0,1,9-7.45,26,26,0,0,1,1.06,3.73,31.37,31.37,0,0,1-7.44,26.59C1127.84,295,1115.1,295.05,1109.23,295.08Z"/><path class="cls-14" d="M1109.23,294.55c-6.42-.28-13-2.65-16-3.73a28.22,28.22,0,0,1-2.66-1.06c-.92-.45-8.84-4.4-10.63-12.23-.36-1.56-.94-4.11.53-5.86a5.21,5.21,0,0,1,3.72-1.59,6.48,6.48,0,0,1,5.85,3.72,5.45,5.45,0,0,1,0-2.66,6.65,6.65,0,0,1,10.11-3.19,6.15,6.15,0,0,1,2.13,3.72,5.47,5.47,0,0,1,.53-2.65,6.86,6.86,0,0,1,8-3.2,7.06,7.06,0,0,1,4.78,6.39,7.2,7.2,0,0,1,2.13-3.19,6.61,6.61,0,0,1,5.32-1.6c3.17.58,4.52,3.6,4.79,4.25a7.36,7.36,0,0,1,.53,2.66,5.66,5.66,0,0,1,1.06-2.12,5,5,0,0,1,8.51.53,6.11,6.11,0,0,1,.53,4.25c-.63,3.91-3.31,6.75-5.31,8.51A37.24,37.24,0,0,1,1109.23,294.55Z"/><path class="cls-15" d="M1109.23,290.29c-1.6.24-3.53-4.82-3.72-5.32a17.33,17.33,0,0,1-1.07-9c.45-2.75,1.32-3.5,1.6-3.72a4.93,4.93,0,0,1,4.25-.54,6,6,0,0,1,3.2,2.66c2.76,4.37-.83,10.77-1.07,11.17a21.52,21.52,0,0,1-2.13,3.73C1109.66,290.11,1109.46,290.26,1109.23,290.29Z"/><path class="cls-15" d="M1103.39,288.78c-.57,1-4.32-.1-4.68-.2a12.47,12.47,0,0,1-5.66-3.37c-1.38-1.46-1.43-2.29-1.43-2.55a3.58,3.58,0,0,1,1.56-2.67,4.31,4.31,0,0,1,2.93-.66c3.72.33,5.81,5.2,5.94,5.51a15.78,15.78,0,0,1,1.2,2.86C1103.48,288.45,1103.47,288.63,1103.39,288.78Z"/><path class="cls-15" d="M1115.07,288.78c.57,1,4.32-.1,4.69-.2a12.48,12.48,0,0,0,5.65-3.37c1.38-1.46,1.43-2.29,1.43-2.55a3.58,3.58,0,0,0-1.56-2.67,4.3,4.3,0,0,0-2.93-.66c-3.71.33-5.8,5.2-5.93,5.51a15.78,15.78,0,0,0-1.2,2.86C1115,288.45,1115,288.63,1115.07,288.78Z"/><path class="cls-9" d="M1091.27,166.08c-.06-.13.9-.78,2-1.18a6.93,6.93,0,0,1,1.58-.39,12.41,12.41,0,0,1,4.71,0c1.8.36,4,1.15,3.92,1.57s-1.17.44-2.16.19-1.12-.76-2-1.17c-1.63-.81-3.81-.17-7.07.78C1091.83,166,1091.31,166.17,1091.27,166.08Z"/><path class="cls-9" d="M1125.43,166.47c.06-.13-.89-.78-2-1.18a7.94,7.94,0,0,0-1.57-.39,12.63,12.63,0,0,0-4.71,0c-1.8.36-4,1.15-3.93,1.57s1.18.45,2.16.2,1.13-.77,2-1.18c1.63-.8,3.82-.17,7.07.78C1124.88,166.4,1125.39,166.56,1125.43,166.47Z"/><circle class="cls-16" cx="1119.24" cy="170.4" r="2.04"/><circle class="cls-17" cx="1119.24" cy="170.4" r="1.52"/><circle cx="1119.24" cy="170.4" r="1.01"/><circle class="cls-11" cx="1118.56" cy="169.81" r="0.39"/><circle class="cls-16" cx="1098.03" cy="170.79" r="2.04"/><circle class="cls-17" cx="1098.03" cy="170.79" r="1.52"/><circle cx="1098.03" cy="170.79" r="1.01"/><circle class="cls-11" cx="1098.71" cy="170.2" r="0.39"/><circle cx="1107.18" cy="178.84" r="0.39"/><circle cx="1110.32" cy="178.84" r="0.39"/><circle class="cls-4" cx="1768.02" cy="597.22" r="115.58"/><circle class="cls-5" cx="1767.5" cy="412.39" r="69.53"/><path class="cls-4" d="M1699,425.57c-.42,0-2.48-.3-3.45.86s-.22,3.68,0,4.32c2.26,6.54.77,13.84,1.73,20.7,1.8,13-2.84,27.27-5.18,34.5a106.2,106.2,0,0,1-15.53,30.19l2.59,5.18c-1.08,1.42-2.59,3.48-4.31,6-6,8.94-18.42,27.85-21.57,55.21a117.35,117.35,0,0,0,7.77,56.07,105.85,105.85,0,0,0,24.15,37.09,97.87,97.87,0,0,0,16.39,12.93,91.38,91.38,0,0,0,25.88,11.22c2.81.69,7.91,1.32,18.11,2.59s15.5,1.9,20.7,1.72a94.41,94.41,0,0,0,18.12-2.59c2.45-.54,6.84-1.8,15.52-4.31,8.27-2.39,12.41-3.58,14.67-4.31a162.73,162.73,0,0,0,19.84-7.77c12.81-6.45,20.33-16.14,25.87-23.28a109.91,109.91,0,0,0,19.84-42.27c1.74-7,5-20.45,3.45-37.09-2.77-30.24-19.47-51.39-27.6-60.38q1.29-3.45,2.59-6.9a93.88,93.88,0,0,1-7.77-12.08c-11.54-21.38-12-42.16-12.07-53.48a141,141,0,0,1,1.72-23.29l-4.31-2.58C1758.16,425.16,1703,425.94,1699,425.57Z"/><path class="cls-6" d="M1765.08,335.05a74.28,74.28,0,0,0-33.08,9.18,75.88,75.88,0,0,0-31.24,33.09,80.39,80.39,0,0,0-7.35,32.16,92.52,92.52,0,0,0,.91,13.78c2.6,17.2,28.33,50.78,70.76,85.46a227.13,227.13,0,0,0,21.6-15.16c20.78-16.45,49.19-38.94,54.22-72.59a76.19,76.19,0,0,0-.92-26.65c-3.71-17.47-13-31-21.14-38.6a95.09,95.09,0,0,0-11.95-9.19,69.28,69.28,0,0,0-10.1-5.51A72.82,72.82,0,0,0,1765.08,335.05Z"/><path class="cls-7" d="M1768,502.34a67.89,67.89,0,0,0-24.16-20.7c-6.6-3.31-9-3-10.35-2.59-10.2,3.17-14.17,28.84-6,34.5,1.27.89,3.53,1.76,13.8-.86A120.25,120.25,0,0,0,1768,502.34Z"/><path class="cls-7" d="M1765.7,502.19a68.18,68.18,0,0,1,24.15-20.7c6.61-3.3,9-3,10.36-2.59,10.2,3.17,14.17,28.84,6,34.51-1.28.89-3.53,1.75-13.8-.87A119.76,119.76,0,0,1,1765.7,502.19Z"/><path class="cls-7" d="M1762.84,502.34q-2.7,12.24-6,25c-5.68,21.66-12.14,41.81-19,60.38l9.49-5.17q-.85,10.2,0,10.35,2.45.42,19-81.95Z"/><path class="cls-7" d="M1769.74,502.34q2.7,12.24,6,25c5.68,21.66,12.14,41.81,19,60.38l-9.49-5.17q.86,10.2,0,10.35-2.46.42-19-81.95Z"/><circle class="cls-7" cx="1767.15" cy="505.79" r="6.9"/><circle class="cls-8" cx="1767.53" cy="409.61" r="54.77"/><path class="cls-9" d="M1715.68,386.23c.06-.13.17-.34.29-.6a68.12,68.12,0,0,1,10-14.27c13.06-13.84,30.88-17.16,30.88-17.16a56.52,56.52,0,0,1,25.16,1.14s16.59,4.58,27.46,17.16a75,75,0,0,1,9.15,13.73c.5,1,.89,1.76,1.14,2.28L1782,390.8q-1.71-4.57-3.43-9.15-1.71,4.58-3.43,9.15h-21.73q-1.14-5.71-2.29-11.44-2.28,5.16-4.57,10.3c-6.44-.05-13.33-.39-20.59-1.15-3.15-.32-6.2-.71-9.15-1.14h-2.29"/><path class="cls-10" d="M1761.25,442.32a4.77,4.77,0,0,1-.35-3.69,3.34,3.34,0,0,1,2.28-2.07c1.6-.29,3.59,1.13,4.22,3.63a4.69,4.69,0,0,1,.73-2.09c.18-.28,1.52-2.32,3.52-2a3.58,3.58,0,0,1,2.75,2.84,4.27,4.27,0,0,1-.5,2.84c-1.68,3.46-5.54,5.49-7.16,6.25A11.7,11.7,0,0,1,1761.25,442.32Z"/><path d="M1733.64,407.25a6.57,6.57,0,0,1-4.54-3.14,5,5,0,0,1-.5-1.65,12.65,12.65,0,0,0,.78,1.11,10.13,10.13,0,0,0,1.33,1.41,9.72,9.72,0,0,0,3.22,1.73"/><path d="M1734.45,405.8a5.91,5.91,0,0,1-4.08-2.82,4.77,4.77,0,0,1-.44-1.49,9.53,9.53,0,0,0,.7,1,9.29,9.29,0,0,0,1.19,1.27,9,9,0,0,0,2.89,1.55"/><path d="M1735.72,405.07a4.94,4.94,0,0,1-3.46-2.39,4,4,0,0,1-.38-1.26,8.84,8.84,0,0,0,.6.85,7.17,7.17,0,0,0,1,1.07,7.41,7.41,0,0,0,2.46,1.32"/><path d="M1737,404.35a4.09,4.09,0,0,1-2.84-2,3.29,3.29,0,0,1-.31-1c.12.19.28.43.49.7a6.57,6.57,0,0,0,.83.88,6.07,6.07,0,0,0,2,1.08"/><path class="cls-11" d="M1756.36,407.89c.54-2-4.9-6.36-10.36-6.9-6.53-.65-13.39,4.22-12.93,6.9s8.38,3.25,11.21,3.45a23.1,23.1,0,0,0,11.21-2.59A1.62,1.62,0,0,0,1756.36,407.89Z"/><path d="M1744.9,411.57c-.4,0-.62,0-.64,0-3-.21-10.92-.76-11.41-3.63a3.59,3.59,0,0,1,1.26-2.81,15.66,15.66,0,0,1,11.92-4.34c4.21.42,8.48,3.1,10,5.35a2.29,2.29,0,0,1,.52,1.83h0a1.73,1.73,0,0,1-1,1A23.83,23.83,0,0,1,1744.9,411.57Zm-.09-10.43a15.31,15.31,0,0,0-10.38,4.27,3.2,3.2,0,0,0-1.15,2.44c.43,2.53,8.4,3.09,11,3.27a23,23,0,0,0,11.1-2.56c.23-.12.65-.34.76-.73a1.94,1.94,0,0,0-.46-1.47c-1.49-2.17-5.75-4.77-9.71-5.16A11.46,11.46,0,0,0,1744.81,401.14Z"/><path d="M1802.38,407.83a6.57,6.57,0,0,0,4.54-3.14,5.3,5.3,0,0,0,.5-1.65,13.07,13.07,0,0,1-.79,1.11,8.64,8.64,0,0,1-4.54,3.14"/><path d="M1801.56,406.38a5.91,5.91,0,0,0,4.08-2.82,4.81,4.81,0,0,0,.45-1.49,9.83,9.83,0,0,1-.71,1,8.48,8.48,0,0,1-1.18,1.27,9,9,0,0,1-2.9,1.56"/><path d="M1800.3,405.65a5,5,0,0,0,3.46-2.39,4,4,0,0,0,.38-1.26,7.75,7.75,0,0,1-.6.85,6.68,6.68,0,0,1-3.46,2.39"/><path d="M1799,404.93a4.06,4.06,0,0,0,2.83-2,3,3,0,0,0,.31-1,5.44,5.44,0,0,1-.49.7,5.76,5.76,0,0,1-.82.88,6.07,6.07,0,0,1-2,1.08"/><path class="cls-11" d="M1779.66,408.75c-.55-1.95,4.9-6.36,10.35-6.9,6.53-.65,13.39,4.23,12.94,6.9s-8.38,3.25-11.21,3.45a23.13,23.13,0,0,1-11.22-2.59A1.54,1.54,0,0,1,1779.66,408.75Z"/><path d="M1791.12,412.43a23.89,23.89,0,0,1-10.7-2.63,1.73,1.73,0,0,1-1-1h0A2.37,2.37,0,0,1,1780,407c1.54-2.25,5.81-4.93,10-5.35a15.7,15.7,0,0,1,11.92,4.35,3.54,3.54,0,0,1,1.25,2.81c-.48,2.86-8.42,3.42-11.41,3.63Zm-11.25-3.74c.11.39.53.61.75.73a23.28,23.28,0,0,0,11.1,2.57c2.62-.19,10.59-.75,11-3.28a3.24,3.24,0,0,0-1.15-2.44,15.19,15.19,0,0,0-11.56-4.21c-4,.39-8.21,3-9.7,5.17a1.92,1.92,0,0,0-.46,1.46Z"/><circle class="cls-12" cx="1739.55" cy="426.43" r="8.63"/><circle class="cls-12" cx="1795.62" cy="426.43" r="8.63"/><path class="cls-13" d="M1767,680c7.58,0,23.59-.08,40.89-9.35,6-3.23,22.48-12.33,31.55-31.54a67.49,67.49,0,0,0,5.84-21,68.93,68.93,0,0,0-2.34-26.87,61.93,61.93,0,0,0-10.51,7,63.06,63.06,0,0,0-14,16.35A80.16,80.16,0,0,0,1802,591.24a71.53,71.53,0,0,0-8.18,8.18,72.33,72.33,0,0,0-9.34,14,59,59,0,0,0-7-11.68A58.09,58.09,0,0,0,1767,591.24a39,39,0,0,0-7,5.84,40.27,40.27,0,0,0-9.34,16.35,64.31,64.31,0,0,0-17.53-22.19,54.16,54.16,0,0,0-16.35,23.36,58.91,58.91,0,0,0-4.68-7,60,60,0,0,0-19.86-16.35,57.47,57.47,0,0,0-2.34,8.18c-4,19.28,1.78,42.26,16.36,58.41C1726.08,679.83,1754.07,680,1767,680Z"/><path class="cls-14" d="M1767,678.86c14.1-.59,28.49-5.8,35-8.18a57.38,57.38,0,0,0,5.84-2.33c2-1,19.44-9.67,23.37-26.88.78-3.4,2.06-9-1.17-12.85-2.75-3.27-7.25-3.46-8.18-3.5-5.78-.24-9.64,3.72-10.51,4.67a13.91,13.91,0,0,0-2.34,3.51,11.94,11.94,0,0,0,0-5.85c-1.36-5.19-6.26-8.37-10.51-9.34-1-.24-6.84-1.56-11.69,2.33a13.49,13.49,0,0,0-4.67,8.18,12.1,12.1,0,0,0-1.17-5.84c-2.78-5.65-10.56-9.2-17.52-7a15.53,15.53,0,0,0-10.52,14,15.6,15.6,0,0,0-4.67-7c-1.41-1.19-5.9-4.57-11.68-3.5-7,1.27-9.93,7.9-10.52,9.34a16.15,16.15,0,0,0-1.17,5.84,12.51,12.51,0,0,0-2.33-4.67c-.55-.68-3.9-4.85-9.35-4.67-6,.19-9.1,5.41-9.35,5.84-.55,1-2,3.9-1.16,9.35,1.39,8.57,7.28,14.82,11.68,18.69A81.64,81.64,0,0,0,1767,678.86Z"/><path class="cls-15" d="M1767,669.51c3.52.53,7.76-10.58,8.18-11.68a38.1,38.1,0,0,0,2.34-19.86c-1-6-2.89-7.69-3.51-8.18-3.63-2.84-8.62-1.39-9.34-1.17a13,13,0,0,0-7,5.84c-6.08,9.59,1.81,23.64,2.33,24.54a48.09,48.09,0,0,0,4.68,8.18C1766,669.13,1766.45,669.44,1767,669.51Z"/><path class="cls-15" d="M1779.78,666.19c1.24,2.25,9.48-.2,10.29-.44a27.48,27.48,0,0,0,12.41-7.39c3-3.21,3.15-5,3.15-5.6,0-3.33-3-5.55-3.43-5.87a9.39,9.39,0,0,0-6.43-1.45c-8.16.72-12.75,11.42-13,12.11a35.11,35.11,0,0,0-2.63,6.27C1779.59,665.47,1779.6,665.86,1779.78,666.19Z"/><path class="cls-15" d="M1754.12,666.19c-1.25,2.25-9.48-.2-10.29-.44a27.59,27.59,0,0,1-12.42-7.39c-3-3.21-3.14-5-3.15-5.6,0-3.33,3-5.55,3.44-5.87a9.39,9.39,0,0,1,6.43-1.45c8.16.72,12.75,11.42,13,12.11a35.11,35.11,0,0,1,2.63,6.27C1754.31,665.47,1754.29,665.86,1754.12,666.19Z"/><path class="cls-9" d="M1806.4,396.67c.13-.28-2-1.71-4.31-2.58a16.39,16.39,0,0,0-3.45-.87,28.06,28.06,0,0,0-10.35,0c-4,.8-8.79,2.53-8.63,3.45.11.64,2.58,1,4.75.44s2.47-1.68,4.31-2.59c3.58-1.77,8.38-.36,15.53,1.72C1805.18,396.52,1806.31,396.87,1806.4,396.67Z"/><path class="cls-9" d="M1731.36,397.54c-.13-.29,2-1.72,4.31-2.59a15.84,15.84,0,0,1,3.45-.86,27.85,27.85,0,0,1,10.35,0c4,.8,8.79,2.53,8.63,3.45-.11.63-2.58,1-4.74.43s-2.48-1.68-4.32-2.59c-3.57-1.76-8.38-.36-15.52,1.73C1732.58,397.38,1731.45,397.73,1731.36,397.54Z"/><circle class="cls-16" cx="1744.97" cy="406.16" r="4.48"/><circle class="cls-17" cx="1744.97" cy="406.16" r="3.35"/><circle cx="1744.97" cy="406.16" r="2.22"/><circle class="cls-11" cx="1746.45" cy="404.87" r="0.86"/><circle class="cls-16" cx="1791.55" cy="407.03" r="4.48"/><circle class="cls-17" cx="1791.55" cy="407.03" r="3.35"/><circle cx="1791.55" cy="407.03" r="2.22"/><circle class="cls-11" cx="1790.07" cy="405.73" r="0.86"/><circle cx="1771.47" cy="424.71" r="0.86"/><circle cx="1764.57" cy="424.71" r="0.86"/><circle class="cls-4" cx="151.02" cy="597.22" r="115.58"/><circle class="cls-5" cx="150.5" cy="412.39" r="69.53"/><path class="cls-4" d="M82,425.57c-.42,0-2.48-.3-3.45.86s-.22,3.68,0,4.32c2.26,6.54.77,13.84,1.73,20.7,1.8,13-2.84,27.27-5.18,34.5a106.2,106.2,0,0,1-15.53,30.19l2.59,5.18c-1.08,1.42-2.59,3.48-4.31,6-6,8.94-18.42,27.85-21.57,55.21a117.35,117.35,0,0,0,7.77,56.07,105.85,105.85,0,0,0,24.15,37.09A97.87,97.87,0,0,0,84.6,688.65a91.38,91.38,0,0,0,25.88,11.22c2.81.69,7.91,1.32,18.11,2.59s15.5,1.9,20.7,1.72a94.41,94.41,0,0,0,18.12-2.59c2.45-.54,6.84-1.8,15.52-4.31,8.27-2.39,12.41-3.58,14.67-4.31a162.73,162.73,0,0,0,19.84-7.77c12.81-6.45,20.33-16.14,25.87-23.28a109.91,109.91,0,0,0,19.84-42.27c1.74-7,5-20.45,3.45-37.09-2.77-30.24-19.47-51.39-27.6-60.38q1.29-3.45,2.59-6.9a93.88,93.88,0,0,1-7.77-12.08c-11.54-21.38-12-42.16-12.07-53.48a141,141,0,0,1,1.72-23.29l-4.31-2.58C141.16,425.16,86,425.94,82,425.57Z"/><path class="cls-6" d="M148.08,335.05A74.28,74.28,0,0,0,115,344.23a75.88,75.88,0,0,0-31.24,33.09,80.39,80.39,0,0,0-7.35,32.16,92.52,92.52,0,0,0,.91,13.78c2.6,17.2,28.33,50.78,70.76,85.46a227.13,227.13,0,0,0,21.6-15.16c20.78-16.45,49.19-38.94,54.22-72.59a76.19,76.19,0,0,0-.92-26.65c-3.71-17.47-13-31-21.14-38.6a95.09,95.09,0,0,0-12-9.19,69.28,69.28,0,0,0-10.1-5.51A72.82,72.82,0,0,0,148.08,335.05Z"/><path class="cls-7" d="M151,502.34a67.89,67.89,0,0,0-24.16-20.7c-6.6-3.31-9-3-10.35-2.59-10.2,3.17-14.17,28.84-6,34.5,1.27.89,3.53,1.76,13.8-.86A120.25,120.25,0,0,0,151,502.34Z"/><path class="cls-7" d="M148.7,502.19a68.18,68.18,0,0,1,24.15-20.7c6.61-3.3,9-3,10.36-2.59,10.2,3.17,14.17,28.84,6,34.51-1.28.89-3.53,1.75-13.8-.87A119.76,119.76,0,0,1,148.7,502.19Z"/><path class="cls-7" d="M145.84,502.34q-2.7,12.24-6,25c-5.68,21.66-12.14,41.81-19,60.38l9.49-5.17q-.85,10.2,0,10.35,2.44.42,19-81.95Z"/><path class="cls-7" d="M152.74,502.34q2.7,12.24,6,25c5.68,21.66,12.14,41.81,19,60.38l-9.49-5.17q.85,10.2,0,10.35-2.46.42-19-81.95Z"/><circle class="cls-7" cx="150.15" cy="505.79" r="6.9"/><circle class="cls-8" cx="150.53" cy="409.61" r="54.77"/><path class="cls-9" d="M98.68,386.23c.06-.13.17-.34.29-.6a68.12,68.12,0,0,1,10-14.27c13.06-13.84,30.88-17.16,30.88-17.16A56.52,56.52,0,0,1,165,355.34s16.59,4.58,27.46,17.16a75,75,0,0,1,9.15,13.73c.5,1,.89,1.76,1.14,2.28L165,390.8q-1.71-4.57-3.43-9.15-1.71,4.58-3.43,9.15H136.43q-1.14-5.71-2.29-11.44-2.28,5.16-4.57,10.3c-6.44-.05-13.33-.39-20.59-1.15-3.15-.32-6.2-.71-9.15-1.14H97.54"/><path class="cls-10" d="M144.25,442.32a4.77,4.77,0,0,1-.35-3.69,3.34,3.34,0,0,1,2.28-2.07c1.6-.29,3.59,1.13,4.22,3.63a4.69,4.69,0,0,1,.73-2.09c.18-.28,1.52-2.32,3.52-2a3.58,3.58,0,0,1,2.75,2.84,4.27,4.27,0,0,1-.5,2.84c-1.68,3.46-5.54,5.49-7.16,6.25A11.7,11.7,0,0,1,144.25,442.32Z"/><path d="M116.64,407.25a6.57,6.57,0,0,1-4.54-3.14,5,5,0,0,1-.5-1.65,12.65,12.65,0,0,0,.78,1.11,10.13,10.13,0,0,0,1.33,1.41,9.72,9.72,0,0,0,3.22,1.73"/><path d="M117.45,405.8a5.91,5.91,0,0,1-4.08-2.82,4.77,4.77,0,0,1-.44-1.49,9.53,9.53,0,0,0,.7,1,9.29,9.29,0,0,0,1.19,1.27,9,9,0,0,0,2.89,1.55"/><path d="M118.72,405.07a4.94,4.94,0,0,1-3.46-2.39,4,4,0,0,1-.38-1.26,8.84,8.84,0,0,0,.6.85,7.17,7.17,0,0,0,1,1.07,7.41,7.41,0,0,0,2.46,1.32"/><path d="M120,404.35a4.09,4.09,0,0,1-2.84-2,3.29,3.29,0,0,1-.31-1c.12.19.28.43.49.7a6.57,6.57,0,0,0,.83.88,6.07,6.07,0,0,0,2,1.08"/><path class="cls-11" d="M139.36,407.89c.54-2-4.9-6.36-10.36-6.9-6.53-.65-13.39,4.22-12.93,6.9s8.38,3.25,11.21,3.45a23.1,23.1,0,0,0,11.21-2.59A1.62,1.62,0,0,0,139.36,407.89Z"/><path d="M127.9,411.57c-.4,0-.62,0-.64,0-3-.21-10.92-.76-11.41-3.63a3.59,3.59,0,0,1,1.26-2.81A15.66,15.66,0,0,1,129,400.77c4.21.42,8.48,3.1,10,5.35a2.29,2.29,0,0,1,.52,1.83h0a1.73,1.73,0,0,1-1,1A23.83,23.83,0,0,1,127.9,411.57Zm-.09-10.43a15.31,15.31,0,0,0-10.38,4.27,3.2,3.2,0,0,0-1.15,2.44c.43,2.53,8.4,3.09,11,3.27a23,23,0,0,0,11.1-2.56c.23-.12.65-.34.76-.73a1.94,1.94,0,0,0-.46-1.47c-1.49-2.17-5.75-4.77-9.71-5.16A11.46,11.46,0,0,0,127.81,401.14Z"/><path d="M185.38,407.83a6.57,6.57,0,0,0,4.54-3.14,5.3,5.3,0,0,0,.5-1.65,13.07,13.07,0,0,1-.79,1.11,8.64,8.64,0,0,1-4.54,3.14"/><path d="M184.56,406.38a5.91,5.91,0,0,0,4.08-2.82,4.81,4.81,0,0,0,.45-1.49,9.83,9.83,0,0,1-.71,1,8.48,8.48,0,0,1-1.18,1.27,9,9,0,0,1-2.9,1.56"/><path d="M183.3,405.65a5,5,0,0,0,3.46-2.39,4,4,0,0,0,.38-1.26,7.75,7.75,0,0,1-.6.85,6.68,6.68,0,0,1-3.46,2.39"/><path d="M182,404.93a4.06,4.06,0,0,0,2.83-2,3,3,0,0,0,.31-1,5.44,5.44,0,0,1-.49.7,5.76,5.76,0,0,1-.82.88,6.07,6.07,0,0,1-2,1.08"/><path class="cls-11" d="M162.66,408.75c-.55-1.95,4.9-6.36,10.35-6.9,6.53-.65,13.39,4.23,12.94,6.9s-8.38,3.25-11.21,3.45a23.13,23.13,0,0,1-11.22-2.59A1.54,1.54,0,0,1,162.66,408.75Z"/><path d="M174.12,412.43a23.89,23.89,0,0,1-10.7-2.63,1.73,1.73,0,0,1-1-1h0A2.37,2.37,0,0,1,163,407c1.54-2.25,5.81-4.93,10-5.35A15.7,15.7,0,0,1,184.91,406a3.54,3.54,0,0,1,1.25,2.81c-.48,2.86-8.42,3.42-11.41,3.63Zm-11.25-3.74c.11.39.53.61.75.73a23.28,23.28,0,0,0,11.1,2.57c2.62-.19,10.59-.75,11-3.28a3.24,3.24,0,0,0-1.15-2.44A15.19,15.19,0,0,0,173,402.06c-4,.39-8.21,3-9.7,5.17a1.92,1.92,0,0,0-.46,1.46Z"/><circle class="cls-12" cx="122.55" cy="426.43" r="8.63"/><circle class="cls-12" cx="178.62" cy="426.43" r="8.63"/><path class="cls-13" d="M150,680c7.58,0,23.59-.08,40.89-9.35,6-3.23,22.48-12.33,31.55-31.54a67.49,67.49,0,0,0,5.84-21,68.93,68.93,0,0,0-2.34-26.87,61.93,61.93,0,0,0-10.51,7,63.06,63.06,0,0,0-14,16.35A80.16,80.16,0,0,0,185,591.24a71.53,71.53,0,0,0-8.18,8.18,72.33,72.33,0,0,0-9.34,14,59,59,0,0,0-7-11.68A58.09,58.09,0,0,0,150,591.24a39,39,0,0,0-7,5.84,40.27,40.27,0,0,0-9.34,16.35,64.31,64.31,0,0,0-17.53-22.19A54.16,54.16,0,0,0,99.72,614.6a58.91,58.91,0,0,0-4.68-7,60,60,0,0,0-19.86-16.35,57.47,57.47,0,0,0-2.34,8.18c-4,19.28,1.78,42.26,16.36,58.41C109.08,679.83,137.07,680,150,680Z"/><path class="cls-14" d="M150,678.86c14.1-.59,28.49-5.8,35.05-8.18a57.38,57.38,0,0,0,5.84-2.33c2-1,19.44-9.67,23.37-26.88.78-3.4,2.06-9-1.17-12.85-2.75-3.27-7.25-3.46-8.18-3.5-5.78-.24-9.64,3.72-10.51,4.67A13.91,13.91,0,0,0,192,633.3a11.94,11.94,0,0,0,0-5.85c-1.36-5.19-6.26-8.37-10.51-9.34-1-.24-6.84-1.56-11.69,2.33a13.49,13.49,0,0,0-4.67,8.18,12.1,12.1,0,0,0-1.17-5.84c-2.78-5.65-10.56-9.2-17.52-7a15.53,15.53,0,0,0-10.52,14,15.6,15.6,0,0,0-4.67-7c-1.41-1.19-5.9-4.57-11.68-3.5-7,1.27-9.93,7.9-10.52,9.34a16.15,16.15,0,0,0-1.17,5.84,12.51,12.51,0,0,0-2.33-4.67c-.55-.68-3.9-4.85-9.35-4.67-6,.19-9.1,5.41-9.35,5.84-.55,1-2,3.9-1.16,9.35C87.09,648.88,93,655.13,97.38,659A81.64,81.64,0,0,0,150,678.86Z"/><path class="cls-15" d="M150,669.51c3.52.53,7.76-10.58,8.18-11.68A38.1,38.1,0,0,0,160.47,638c-1-6-2.89-7.69-3.51-8.18-3.63-2.84-8.62-1.39-9.34-1.17a13,13,0,0,0-7,5.84c-6.08,9.59,1.81,23.64,2.33,24.54a48.09,48.09,0,0,0,4.68,8.18C149,669.13,149.45,669.44,150,669.51Z"/><path class="cls-15" d="M162.78,666.19c1.24,2.25,9.48-.2,10.29-.44a27.48,27.48,0,0,0,12.41-7.39c3-3.21,3.15-5,3.15-5.6,0-3.33-3-5.55-3.43-5.87a9.39,9.39,0,0,0-6.43-1.45c-8.16.72-12.75,11.42-13,12.11a35.11,35.11,0,0,0-2.63,6.27C162.59,665.47,162.6,665.86,162.78,666.19Z"/><path class="cls-15" d="M137.12,666.19c-1.25,2.25-9.48-.2-10.29-.44a27.59,27.59,0,0,1-12.42-7.39c-3-3.21-3.14-5-3.15-5.6,0-3.33,3-5.55,3.44-5.87a9.39,9.39,0,0,1,6.43-1.45c8.16.72,12.75,11.42,13,12.11a35.11,35.11,0,0,1,2.63,6.27C137.31,665.47,137.29,665.86,137.12,666.19Z"/><path class="cls-9" d="M189.4,396.67c.13-.28-2-1.71-4.31-2.58a16.39,16.39,0,0,0-3.45-.87,28.06,28.06,0,0,0-10.35,0c-3.95.8-8.79,2.53-8.63,3.45.11.64,2.58,1,4.75.44s2.47-1.68,4.31-2.59c3.58-1.77,8.38-.36,15.53,1.72C188.18,396.52,189.31,396.87,189.4,396.67Z"/><path class="cls-9" d="M114.36,397.54c-.13-.29,2-1.72,4.31-2.59a15.84,15.84,0,0,1,3.45-.86,27.85,27.85,0,0,1,10.35,0c3.95.8,8.79,2.53,8.63,3.45-.11.63-2.58,1-4.74.43s-2.48-1.68-4.32-2.59c-3.57-1.76-8.38-.36-15.52,1.73C115.58,397.38,114.45,397.73,114.36,397.54Z"/><circle class="cls-16" cx="127.97" cy="406.16" r="4.48"/><circle class="cls-17" cx="127.97" cy="406.16" r="3.35"/><circle cx="127.97" cy="406.16" r="2.22"/><circle class="cls-11" cx="129.45" cy="404.87" r="0.86"/><circle class="cls-16" cx="174.55" cy="407.03" r="4.48"/><circle class="cls-17" cx="174.55" cy="407.03" r="3.35"/><circle cx="174.55" cy="407.03" r="2.22"/><circle class="cls-11" cx="173.07" cy="405.73" r="0.86"/><circle cx="154.47" cy="424.71" r="0.86"/><circle cx="147.57" cy="424.71" r="0.86"/><text class="cls-18" transform="translate(741.39 461.13)">BISTRO <tspan class="cls-19"><tspan x="-205.58" y="192">BABUSH</tspan><tspan class="cls-20" x="421.77" y="192">K</tspan><tspan x="532.01" y="192">A</tspan></tspan></text><rect class="cls-11" y="756" width="1918" height="28"/><rect class="cls-1" y="784" width="1918" height="28"/><rect class="cls-21" y="812" width="1918" height="28"/></g></svg>
