<svg xmlns="http://www.w3.org/2000/svg" viewBox="0 0 1920 531"><defs><style>.cls-1{fill:#2a0dfc;}.cls-2{fill:#ce6a6a;}.cls-3{fill:#894619;}.cls-4{fill:#93549e;}.cls-5{fill:#d7574d;}.cls-6{fill:#efaf84;}.cls-7{fill:#513e31;}.cls-8{fill:#c60c35;}.cls-18,.cls-9{fill:#fff;}.cls-10{fill:#ea9b9b;}.cls-11{fill:#c675c4;}.cls-12{fill:#b79cb7;}.cls-13{fill:#daff15;}.cls-14{fill:#7f1800;}.cls-15{fill:#916860;}.cls-16{font-size:105.42px;fill:#fcdb0d;}.cls-16,.cls-18{font-family:Beograd-Regular, Beograd;}.cls-17{letter-spacing:0.05em;}.cls-18{font-size:44.67px;}.cls-19{letter-spacing:-0.05em;}.cls-20{fill:#d00;}</style></defs><g id="Layer_11" data-name="Layer 11"><rect class="cls-1" x="-1" width="1920" height="447"/></g><g id="Layer_7" data-name="Layer 7"><circle class="cls-2" cx="409.56" cy="147.38" r="52.62"/><circle class="cls-3" cx="409.33" cy="63.23" r="31.65"/><path class="cls-2" d="M378.15,69.23c-.19,0-1.13-.13-1.57.4s-.1,1.67,0,2c1,3,.35,6.3.78,9.42.82,5.91-1.29,12.42-2.35,15.71a48.41,48.41,0,0,1-7.07,13.75l1.18,2.35c-.49.65-1.18,1.59-2,2.75a55.47,55.47,0,0,0-9.81,25.13,53.3,53.3,0,0,0,3.53,25.53,48.25,48.25,0,0,0,11,16.88,43.76,43.76,0,0,0,7.46,5.89,41.36,41.36,0,0,0,11.78,5.11c1.28.31,3.6.6,8.24,1.18a60.44,60.44,0,0,0,9.43.78,42.82,42.82,0,0,0,8.25-1.18c1.11-.24,3.11-.82,7.06-2,3.77-1.08,5.65-1.63,6.68-2a74.14,74.14,0,0,0,9-3.54c5.84-2.94,9.26-7.35,11.78-10.6a49.91,49.91,0,0,0,9-19.24,49.26,49.26,0,0,0,1.58-16.89c-1.27-13.76-8.87-23.39-12.57-27.49l1.18-3.14a43.27,43.27,0,0,1-3.54-5.49c-5.25-9.74-5.45-19.2-5.49-24.35a63.55,63.55,0,0,1,.78-10.6l-2-1.18C405.08,69.05,380,69.4,378.15,69.23Z"/><path class="cls-4" d="M408.23,28a33.83,33.83,0,0,0-15.06,4.18,34.57,34.57,0,0,0-14.23,15.07,36.54,36.54,0,0,0-3.34,14.64,42.25,42.25,0,0,0,.42,6.27c1.18,7.83,12.89,23.12,32.21,38.91a105.79,105.79,0,0,0,9.83-6.9c9.46-7.49,22.39-17.73,24.68-33a34.87,34.87,0,0,0-10-29.71,43.06,43.06,0,0,0-5.44-4.18,31.71,31.71,0,0,0-4.6-2.51A33,33,0,0,0,408.23,28Z"/><path class="cls-5" d="M409.56,104.18a30.81,30.81,0,0,0-11-9.42c-3-1.51-4.09-1.37-4.71-1.18-4.65,1.44-6.46,13.13-2.75,15.71.58.4,1.61.8,6.28-.4A54,54,0,0,0,409.56,104.18Z"/><path class="cls-5" d="M408.51,104.12a31,31,0,0,1,11-9.43c3-1.5,4.08-1.37,4.71-1.18,4.64,1.45,6.45,13.13,2.75,15.71-.58.41-1.61.8-6.29-.39A54.71,54.71,0,0,1,408.51,104.12Z"/><path class="cls-5" d="M407.21,104.18q-1.23,5.58-2.75,11.39c-2.59,9.86-5.53,19-8.64,27.49l4.32-2.36c-.26,3.1-.26,4.67,0,4.72q1.11.18,8.64-37.31Z"/><path class="cls-5" d="M410.35,104.18q1.23,5.58,2.75,11.39c2.58,9.86,5.53,19,8.64,27.49l-4.32-2.36c.26,3.1.26,4.67,0,4.72q-1.12.18-8.64-37.31Z"/><circle class="cls-5" cx="409.17" cy="105.75" r="3.14"/><circle class="cls-6" cx="409.34" cy="61.97" r="24.94"/><path class="cls-7" d="M385.74,51.32l.13-.27a31,31,0,0,1,4.56-6.5,28.67,28.67,0,0,1,14.06-7.81,25.71,25.71,0,0,1,11.45.52s7.55,2.09,12.5,7.81a34.86,34.86,0,0,1,4.17,6.25l.52,1-17.19,1-1.56-4.16-1.56,4.16h-9.9c-.34-1.73-.69-3.47-1-5.2l-2.08,4.68c-2.93,0-6.07-.17-9.37-.52-1.44-.15-2.83-.32-4.17-.52h-1"/><path class="cls-8" d="M406.48,76.86a2.2,2.2,0,0,1-.16-1.68,1.53,1.53,0,0,1,1-.94,1.9,1.9,0,0,1,1.92,1.65,2.23,2.23,0,0,1,.34-1c.08-.13.69-1.06,1.6-.93a1.64,1.64,0,0,1,1.25,1.29,1.94,1.94,0,0,1-.23,1.29A6.91,6.91,0,0,1,409,79.44,5.32,5.32,0,0,1,406.48,76.86Z"/><path d="M393.91,60.89a3,3,0,0,1-2.06-1.43,2.14,2.14,0,0,1-.23-.75,4.17,4.17,0,0,0,.36.51,5.05,5.05,0,0,0,.6.64,4.46,4.46,0,0,0,1.47.79"/><path d="M394.28,60.23A2.67,2.67,0,0,1,392.43,59a2.2,2.2,0,0,1-.21-.68c.08.12.19.28.33.46a3.22,3.22,0,0,0,.54.57,3.93,3.93,0,0,0,1.31.71"/><path d="M394.86,59.9a2.26,2.26,0,0,1-1.58-1.09,2,2,0,0,1-.17-.57c.07.1.16.24.28.39a3.44,3.44,0,0,0,.45.48,3.89,3.89,0,0,0,1.12.61"/><path d="M395.44,59.57a1.88,1.88,0,0,1-1.3-.89,1.64,1.64,0,0,1-.14-.47c.05.08.13.19.23.32a2.9,2.9,0,0,0,.37.39,2.83,2.83,0,0,0,.92.5"/><path class="cls-9" d="M404.26,61.18c.24-.89-2.23-2.89-4.72-3.14-3-.29-6.09,1.93-5.89,3.14s3.82,1.48,5.11,1.57a10.51,10.51,0,0,0,5.1-1.17A.71.71,0,0,0,404.26,61.18Z"/><path d="M399,62.86h-.29c-1.36-.09-5-.35-5.19-1.65a1.58,1.58,0,0,1,.57-1.28,7.11,7.11,0,0,1,5.42-2,7,7,0,0,1,4.56,2.44,1,1,0,0,1,.24.83h0a.77.77,0,0,1-.44.45A10.87,10.87,0,0,1,399,62.86Zm0-4.75a7,7,0,0,0-4.73,1.94,1.47,1.47,0,0,0-.52,1.12c.2,1.15,3.82,1.4,5,1.49a10.67,10.67,0,0,0,5.06-1.17c.1-.06.29-.16.34-.33a.84.84,0,0,0-.21-.67,6.89,6.89,0,0,0-4.42-2.35A4.58,4.58,0,0,0,399,58.11Z"/><path d="M425.21,61.16a3,3,0,0,0,2.07-1.43,2.46,2.46,0,0,0,.22-.76,5.43,5.43,0,0,1-1,1.15,4.56,4.56,0,0,1-1.46.79"/><path d="M424.84,60.5a2.69,2.69,0,0,0,1.85-1.29,2.2,2.2,0,0,0,.21-.68,3.94,3.94,0,0,1-.32.46,4.82,4.82,0,0,1-.54.58,4.53,4.53,0,0,1-1.32.71"/><path d="M424.26,60.17a2.31,2.31,0,0,0,1.58-1.09,1.79,1.79,0,0,0,.17-.58l-.27.39a5.54,5.54,0,0,1-.46.49,3.48,3.48,0,0,1-1.12.6"/><path d="M423.69,59.84a1.88,1.88,0,0,0,1.29-.9,1.55,1.55,0,0,0,.14-.47,3,3,0,0,1-.6.72,2.72,2.72,0,0,1-.92.49"/><path class="cls-9" d="M414.87,61.58c-.25-.89,2.22-2.9,4.71-3.15,3-.29,6.1,1.93,5.89,3.15s-3.82,1.48-5.11,1.57a10.59,10.59,0,0,1-5.1-1.18A.71.71,0,0,1,414.87,61.58Z"/><path d="M420.08,63.25a10.87,10.87,0,0,1-4.87-1.2.77.77,0,0,1-.44-.45h0a1.06,1.06,0,0,1,.24-.83,7,7,0,0,1,4.56-2.43,7.14,7.14,0,0,1,5.42,2,1.63,1.63,0,0,1,.58,1.28c-.23,1.31-3.84,1.56-5.2,1.65ZM415,61.55a.6.6,0,0,0,.34.33,10.53,10.53,0,0,0,5.06,1.17c1.19-.09,4.82-.34,5-1.49a1.45,1.45,0,0,0-.52-1.11,6.51,6.51,0,0,0-9.68.43.88.88,0,0,0-.21.67Z"/><circle class="cls-10" cx="396.61" cy="69.63" r="3.93"/><circle class="cls-10" cx="422.13" cy="69.63" r="3.93"/><path class="cls-11" d="M409.08,185.08a37.77,37.77,0,0,0,18.62-4.26c2.74-1.47,10.23-5.61,14.36-14.36a31.1,31.1,0,0,0,2.66-9.57,31.48,31.48,0,0,0-1.07-12.24,28.79,28.79,0,0,0-11.17,10.64,36.7,36.7,0,0,0-2.66-4.79,37.19,37.19,0,0,0-4.78-5.85,33.56,33.56,0,0,0-3.73,3.73,33,33,0,0,0-4.25,6.38,26.52,26.52,0,0,0-8-10.11,17.86,17.86,0,0,0-3.19,2.66,18.46,18.46,0,0,0-4.26,7.45,29.25,29.25,0,0,0-2.12-3.72,29.62,29.62,0,0,0-5.85-6.39,24.7,24.7,0,0,0-3.2,3.2,25,25,0,0,0-4.25,7.44,26.4,26.4,0,0,0-2.13-3.19,27.38,27.38,0,0,0-9-7.45,26,26,0,0,0-1.06,3.73A31.37,31.37,0,0,0,381.42,175C390.47,185,403.21,185.05,409.08,185.08Z"/><path class="cls-12" d="M409.08,184.55c6.42-.28,13-2.65,16-3.73a27.16,27.16,0,0,0,2.66-1.06c.92-.45,8.84-4.4,10.63-12.23.36-1.56.94-4.11-.53-5.86a5.21,5.21,0,0,0-3.72-1.59,6.48,6.48,0,0,0-5.85,3.72,5.45,5.45,0,0,0,0-2.66A6.65,6.65,0,0,0,418.12,158a6.15,6.15,0,0,0-2.13,3.72,5.47,5.47,0,0,0-.53-2.65,6.86,6.86,0,0,0-8-3.2,7.07,7.07,0,0,0-4.78,6.39,7.11,7.11,0,0,0-2.13-3.19,6.61,6.61,0,0,0-5.32-1.6c-3.17.58-4.52,3.6-4.79,4.25a7.36,7.36,0,0,0-.53,2.66,5.66,5.66,0,0,0-1.06-2.12,5,5,0,0,0-8.51.53,6.11,6.11,0,0,0-.53,4.25c.63,3.91,3.31,6.75,5.32,8.51A37.2,37.2,0,0,0,409.08,184.55Z"/><path class="cls-13" d="M409.08,180.29c1.6.24,3.53-4.82,3.72-5.32a17.33,17.33,0,0,0,1.07-9c-.45-2.75-1.32-3.5-1.6-3.72a4.93,4.93,0,0,0-4.25-.54,5.89,5.89,0,0,0-3.19,2.66c-2.77,4.37.82,10.77,1.06,11.17a21.52,21.52,0,0,0,2.13,3.73C408.65,180.11,408.85,180.26,409.08,180.29Z"/><path class="cls-13" d="M414.92,178.78c.57,1,4.32-.1,4.69-.2a12.48,12.48,0,0,0,5.65-3.37c1.38-1.46,1.43-2.29,1.43-2.55a3.58,3.58,0,0,0-1.56-2.67,4.31,4.31,0,0,0-2.93-.66c-3.72.33-5.81,5.2-5.94,5.51a16.53,16.53,0,0,0-1.2,2.86C414.83,178.45,414.84,178.63,414.92,178.78Z"/><path class="cls-13" d="M403.24,178.78c-.57,1-4.32-.1-4.69-.2a12.48,12.48,0,0,1-5.65-3.37c-1.38-1.46-1.43-2.29-1.43-2.55A3.58,3.58,0,0,1,393,170a4.3,4.3,0,0,1,2.93-.66c3.71.33,5.8,5.2,5.93,5.51a15.78,15.78,0,0,1,1.2,2.86C403.32,178.45,403.32,178.63,403.24,178.78Z"/><path class="cls-7" d="M427,56.08c.06-.13-.9-.78-2-1.18a7,7,0,0,0-1.57-.39,12.47,12.47,0,0,0-4.72,0c-1.8.36-4,1.15-3.92,1.57s1.17.44,2.16.19,1.12-.76,2-1.17c1.63-.81,3.81-.17,7.07.78C426.49,56,427,56.17,427,56.08Z"/><path class="cls-7" d="M392.88,56.47c-.06-.13.89-.78,2-1.18a7.94,7.94,0,0,1,1.57-.39,12.63,12.63,0,0,1,4.71,0c1.8.36,4,1.15,3.93,1.57s-1.17.45-2.16.2-1.13-.77-2-1.18c-1.63-.8-3.82-.17-7.07.78C393.43,56.4,392.92,56.56,392.88,56.47Z"/><circle class="cls-14" cx="399.07" cy="60.4" r="2.04"/><circle class="cls-15" cx="399.07" cy="60.4" r="1.52"/><circle cx="399.07" cy="60.4" r="1.01"/><circle class="cls-9" cx="399.75" cy="59.81" r="0.39"/><circle class="cls-14" cx="420.28" cy="60.79" r="2.04"/><circle class="cls-15" cx="420.28" cy="60.79" r="1.52"/><circle cx="420.28" cy="60.79" r="1.01"/><circle class="cls-9" cx="419.61" cy="60.2" r="0.39"/><circle cx="411.14" cy="68.84" r="0.39"/><circle cx="407.99" cy="68.84" r="0.39"/><circle class="cls-2" cx="552.11" cy="147.38" r="52.62"/><circle class="cls-3" cx="551.87" cy="63.23" r="31.65"/><path class="cls-2" d="M520.7,69.23c-.2,0-1.13-.13-1.57.4s-.1,1.67,0,2c1,3,.35,6.3.78,9.42.82,5.91-1.29,12.42-2.35,15.71a48.41,48.41,0,0,1-7.07,13.75l1.18,2.35c-.5.65-1.19,1.59-2,2.75a55.33,55.33,0,0,0-9.82,25.13,53.48,53.48,0,0,0,3.54,25.53,48,48,0,0,0,11,16.88,44.1,44.1,0,0,0,7.47,5.89,41.36,41.36,0,0,0,11.78,5.11c1.28.31,3.6.6,8.24,1.18a60.36,60.36,0,0,0,9.43.78,42.7,42.7,0,0,0,8.24-1.18c1.12-.24,3.12-.82,7.07-2,3.77-1.08,5.65-1.63,6.68-2a74.79,74.79,0,0,0,9-3.54c5.84-2.94,9.26-7.35,11.78-10.6a49.91,49.91,0,0,0,9-19.24,49.07,49.07,0,0,0,1.57-16.89c-1.26-13.76-8.86-23.39-12.56-27.49l1.18-3.14a42.19,42.19,0,0,1-3.54-5.49c-5.25-9.74-5.45-19.2-5.5-24.35a64.84,64.84,0,0,1,.79-10.6l-2-1.18C547.63,69.05,522.52,69.4,520.7,69.23Z"/><path class="cls-4" d="M550.78,28a33.83,33.83,0,0,0-15.06,4.18,34.57,34.57,0,0,0-14.23,15.07,36.54,36.54,0,0,0-3.34,14.64,41.45,41.45,0,0,0,.41,6.27c1.19,7.83,12.9,23.12,32.22,38.91a105.79,105.79,0,0,0,9.83-6.9c9.46-7.49,22.39-17.73,24.68-33a34.87,34.87,0,0,0-10-29.71,43.06,43.06,0,0,0-5.44-4.18,31.71,31.71,0,0,0-4.6-2.51A33.12,33.12,0,0,0,550.78,28Z"/><path class="cls-5" d="M552.11,104.18a30.89,30.89,0,0,0-11-9.42c-3-1.51-4.09-1.37-4.72-1.18-4.64,1.44-6.45,13.13-2.74,15.71.58.4,1.6.8,6.28-.4A54,54,0,0,0,552.11,104.18Z"/><path class="cls-5" d="M551.06,104.12a31,31,0,0,1,11-9.43c3-1.5,4.09-1.37,4.72-1.18,4.64,1.45,6.45,13.13,2.75,15.71-.59.41-1.61.8-6.29-.39A54.71,54.71,0,0,1,551.06,104.12Z"/><path class="cls-5" d="M549.76,104.18q-1.23,5.58-2.75,11.39c-2.59,9.86-5.53,19-8.64,27.49l4.32-2.36c-.26,3.1-.26,4.67,0,4.72q1.11.18,8.64-37.31C550.8,106.8,550.28,105.49,549.76,104.18Z"/><path class="cls-5" d="M552.9,104.18q1.23,5.58,2.75,11.39c2.58,9.86,5.52,19,8.64,27.49L560,140.7c.26,3.1.26,4.67,0,4.72q-1.12.18-8.64-37.31C551.85,106.8,552.37,105.49,552.9,104.18Z"/><circle class="cls-5" cx="551.72" cy="105.75" r="3.14"/><circle class="cls-6" cx="551.89" cy="61.97" r="24.94"/><path class="cls-7" d="M528.29,51.32a2.9,2.9,0,0,1,.13-.27,31.15,31.15,0,0,1,4.55-6.5A28.71,28.71,0,0,1,547,36.74a25.75,25.75,0,0,1,11.46.52S566,39.35,571,45.07a34.41,34.41,0,0,1,4.16,6.25c.23.44.41.8.52,1l-17.18,1-1.56-4.16-1.56,4.16h-9.9c-.35-1.73-.69-3.47-1-5.2l-2.08,4.68c-2.93,0-6.07-.17-9.38-.52-1.43-.15-2.82-.32-4.16-.52h-1"/><path class="cls-8" d="M549,76.86a2.2,2.2,0,0,1-.16-1.68,1.51,1.51,0,0,1,1-.94,1.9,1.9,0,0,1,1.92,1.65,2.07,2.07,0,0,1,.33-1c.09-.13.7-1.06,1.61-.93A1.64,1.64,0,0,1,555,75.3a1.94,1.94,0,0,1-.23,1.29,6.89,6.89,0,0,1-3.26,2.85A5.35,5.35,0,0,1,549,76.86Z"/><path d="M536.46,60.89a3,3,0,0,1-2.07-1.43,2.34,2.34,0,0,1-.22-.75,5.31,5.31,0,0,0,.35.51,4.61,4.61,0,0,0,.61.64,4.46,4.46,0,0,0,1.46.79"/><path d="M536.83,60.23A2.7,2.7,0,0,1,535,59a2.46,2.46,0,0,1-.2-.68c.08.12.18.28.32.46a4.21,4.21,0,0,0,.54.57A4,4,0,0,0,537,60"/><path d="M537.41,59.9a2.24,2.24,0,0,1-1.58-1.09,1.74,1.74,0,0,1-.17-.57l.27.39a4.53,4.53,0,0,0,.46.48,3.76,3.76,0,0,0,1.12.61"/><path d="M538,59.57a1.89,1.89,0,0,1-1.29-.89,1.64,1.64,0,0,1-.14-.47l.22.32a3.16,3.16,0,0,0,.38.39,2.64,2.64,0,0,0,.92.5"/><path class="cls-9" d="M546.8,61.18c.25-.89-2.22-2.89-4.71-3.14-3-.29-6.1,1.93-5.89,3.14s3.82,1.48,5.11,1.57a10.51,10.51,0,0,0,5.1-1.17A.7.7,0,0,0,546.8,61.18Z"/><path d="M541.59,62.86h-.29c-1.36-.09-5-.35-5.2-1.65a1.63,1.63,0,0,1,.58-1.28,7.15,7.15,0,0,1,5.42-2,7,7,0,0,1,4.56,2.44,1,1,0,0,1,.24.83h0a.77.77,0,0,1-.44.45A10.87,10.87,0,0,1,541.59,62.86Zm0-4.75a7,7,0,0,0-4.73,1.94,1.47,1.47,0,0,0-.52,1.12c.19,1.15,3.82,1.4,5,1.49a10.67,10.67,0,0,0,5.06-1.17c.1-.06.29-.16.34-.33h0a.88.88,0,0,0-.21-.67,6.89,6.89,0,0,0-4.42-2.35A4.71,4.71,0,0,0,541.55,58.11Z"/><path d="M567.76,61.16a3,3,0,0,0,2.06-1.43,2.25,2.25,0,0,0,.23-.76,3.52,3.52,0,0,1-.36.51,3.95,3.95,0,0,1-2.07,1.43"/><path d="M567.38,60.5a2.7,2.7,0,0,0,1.86-1.29,2.2,2.2,0,0,0,.21-.68,4.17,4.17,0,0,1-.33.46,3.56,3.56,0,0,1-.54.58,4.42,4.42,0,0,1-1.31.71"/><path d="M566.81,60.17a2.3,2.3,0,0,0,1.57-1.09,1.83,1.83,0,0,0,.18-.58,4.41,4.41,0,0,1-.28.39,4,4,0,0,1-.45.49,3.48,3.48,0,0,1-1.12.6"/><path d="M566.23,59.84a1.87,1.87,0,0,0,1.3-.9,1.55,1.55,0,0,0,.14-.47,3.43,3.43,0,0,1-.23.32,2.38,2.38,0,0,1-1.29.89"/><path class="cls-9" d="M557.41,61.58c-.25-.89,2.23-2.9,4.72-3.15,3-.29,6.09,1.93,5.89,3.15s-3.82,1.48-5.11,1.57a10.59,10.59,0,0,1-5.1-1.18A.72.72,0,0,1,557.41,61.58Z"/><path d="M562.63,63.25a10.87,10.87,0,0,1-4.87-1.2.77.77,0,0,1-.44-.45,1.06,1.06,0,0,1,.24-.83,7,7,0,0,1,4.56-2.43,7.16,7.16,0,0,1,5.42,2,1.58,1.58,0,0,1,.57,1.28c-.22,1.31-3.83,1.56-5.19,1.65Zm0-4.74a4.61,4.61,0,0,0-.53,0,6.89,6.89,0,0,0-4.42,2.35.84.84,0,0,0-.21.67h0a.6.6,0,0,0,.34.33,10.52,10.52,0,0,0,5,1.17c1.2-.09,4.82-.34,5-1.49a1.45,1.45,0,0,0-.52-1.11A7,7,0,0,0,562.67,58.51Z"/><circle class="cls-10" cx="539.15" cy="69.63" r="3.93"/><circle class="cls-10" cx="564.68" cy="69.63" r="3.93"/><path class="cls-11" d="M551.63,185.08a37.74,37.74,0,0,0,18.61-4.26c2.75-1.47,10.24-5.61,14.36-14.36a30.52,30.52,0,0,0,2.66-9.57,31.32,31.32,0,0,0-1.06-12.24A28.61,28.61,0,0,0,575,155.29a36.44,36.44,0,0,0-7.45-10.64,34.42,34.42,0,0,0-3.72,3.73,32.09,32.09,0,0,0-4.25,6.38,26.52,26.52,0,0,0-8-10.11,17.86,17.86,0,0,0-3.19,2.66,18.46,18.46,0,0,0-4.26,7.45,28.22,28.22,0,0,0-2.13-3.72,29.37,29.37,0,0,0-5.85-6.39,24.68,24.68,0,0,0-3.19,3.2,25,25,0,0,0-4.25,7.44,26.4,26.4,0,0,0-2.13-3.19,27.38,27.38,0,0,0-9-7.45,27.2,27.2,0,0,0-1.07,3.73A31.41,31.41,0,0,0,524,175C533,185,545.76,185.05,551.63,185.08Z"/><path class="cls-12" d="M551.63,184.55c6.42-.28,13-2.65,16-3.73a26.18,26.18,0,0,0,2.66-1.06c.93-.45,8.85-4.4,10.64-12.23.36-1.56.94-4.11-.53-5.86a5.21,5.21,0,0,0-3.72-1.59,6.48,6.48,0,0,0-5.85,3.72,5.58,5.58,0,0,0,0-2.66A6.65,6.65,0,0,0,560.67,158a6.15,6.15,0,0,0-2.13,3.72A5.47,5.47,0,0,0,558,159a6.87,6.87,0,0,0-8-3.2,7.06,7.06,0,0,0-4.78,6.39,7.2,7.2,0,0,0-2.13-3.19,6.61,6.61,0,0,0-5.32-1.6c-3.17.58-4.52,3.6-4.79,4.25a7.36,7.36,0,0,0-.53,2.66,5.82,5.82,0,0,0-1.06-2.12,5,5,0,0,0-8.51.53,6.15,6.15,0,0,0-.54,4.25c.64,3.91,3.32,6.75,5.32,8.51A37.24,37.24,0,0,0,551.63,184.55Z"/><path class="cls-13" d="M551.63,180.29c1.6.24,3.53-4.82,3.72-5.32a17.44,17.44,0,0,0,1.07-9c-.45-2.75-1.32-3.5-1.6-3.72a5,5,0,0,0-4.26-.54,6,6,0,0,0-3.19,2.66c-2.76,4.37.83,10.77,1.07,11.17a21.42,21.42,0,0,0,2.12,3.73C551.2,180.11,551.4,180.26,551.63,180.29Z"/><path class="cls-13" d="M557.47,178.78c.56,1,4.31-.1,4.68-.2a12.36,12.36,0,0,0,5.65-3.37c1.39-1.46,1.44-2.29,1.44-2.55a3.56,3.56,0,0,0-1.57-2.67,4.29,4.29,0,0,0-2.92-.66c-3.72.33-5.81,5.2-5.94,5.51a15.78,15.78,0,0,0-1.2,2.86C557.38,178.45,557.39,178.63,557.47,178.78Z"/><path class="cls-13" d="M545.78,178.78c-.56,1-4.31-.1-4.68-.2a12.42,12.42,0,0,1-5.65-3.37c-1.38-1.46-1.43-2.29-1.44-2.55a3.61,3.61,0,0,1,1.57-2.67,4.29,4.29,0,0,1,2.92-.66c3.72.33,5.81,5.2,5.94,5.51a15.78,15.78,0,0,1,1.2,2.86C545.87,178.45,545.87,178.63,545.78,178.78Z"/><path class="cls-7" d="M569.59,56.08a4.46,4.46,0,0,0-2-1.18,6.75,6.75,0,0,0-1.57-.39,12.42,12.42,0,0,0-4.71,0c-1.8.36-4,1.15-3.93,1.57s1.18.44,2.16.19,1.13-.76,2-1.17c1.63-.81,3.81-.17,7.07.78C569,56,569.55,56.17,569.59,56.08Z"/><path class="cls-7" d="M535.42,56.47a4.46,4.46,0,0,1,2-1.18A7.94,7.94,0,0,1,539,54.9a12.63,12.63,0,0,1,4.71,0c1.8.36,4,1.15,3.93,1.57s-1.18.45-2.16.2-1.13-.77-2-1.18c-1.62-.8-3.81-.17-7.06.78C536,56.4,535.47,56.56,535.42,56.47Z"/><circle class="cls-14" cx="541.62" cy="60.4" r="2.04"/><circle class="cls-15" cx="541.62" cy="60.4" r="1.52"/><circle cx="541.62" cy="60.4" r="1.01"/><circle class="cls-9" cx="542.3" cy="59.81" r="0.39"/><circle class="cls-14" cx="562.83" cy="60.79" r="2.04"/><circle class="cls-15" cx="562.83" cy="60.79" r="1.52"/><circle cx="562.83" cy="60.79" r="1.01"/><circle class="cls-9" cx="562.15" cy="60.2" r="0.39"/><circle cx="553.68" cy="68.84" r="0.39"/><circle cx="550.54" cy="68.84" r="0.39"/><circle class="cls-2" cx="692.7" cy="147.38" r="52.62"/><circle class="cls-3" cx="692.46" cy="63.23" r="31.65"/><path class="cls-2" d="M661.28,69.23c-.19,0-1.13-.13-1.57.4s-.1,1.67,0,2c1,3,.35,6.3.79,9.42.82,5.91-1.29,12.42-2.36,15.71a48.41,48.41,0,0,1-7.07,13.75l1.18,2.35c-.49.65-1.18,1.59-2,2.75a55.33,55.33,0,0,0-9.82,25.13A53.43,53.43,0,0,0,644,166.23a48.25,48.25,0,0,0,11,16.88,44.16,44.16,0,0,0,7.46,5.89,41.36,41.36,0,0,0,11.78,5.11c1.28.31,3.6.6,8.25,1.18a60.25,60.25,0,0,0,9.42.78,42.7,42.7,0,0,0,8.25-1.18c1.11-.24,3.11-.82,7.07-2,3.76-1.08,5.64-1.63,6.67-2a74.14,74.14,0,0,0,9-3.54c5.84-2.94,9.26-7.35,11.79-10.6a50.22,50.22,0,0,0,9-19.24,49.58,49.58,0,0,0,1.57-16.89c-1.27-13.76-8.87-23.39-12.57-27.49l1.18-3.14a42.31,42.31,0,0,1-3.53-5.49c-5.26-9.74-5.45-19.2-5.5-24.35a63.55,63.55,0,0,1,.78-10.6l-2-1.18C688.21,69.05,663.11,69.4,661.28,69.23Z"/><path class="cls-4" d="M691.36,28A33.92,33.92,0,0,0,676.3,32.2a34.51,34.51,0,0,0-14.22,15.07,36.66,36.66,0,0,0-3.35,14.64,42.25,42.25,0,0,0,.42,6.27C660.33,76,672,91.3,691.36,107.09a105.79,105.79,0,0,0,9.83-6.9c9.46-7.49,22.4-17.73,24.69-33A35.13,35.13,0,0,0,725.46,55a34.56,34.56,0,0,0-9.62-17.57,43.06,43.06,0,0,0-5.44-4.18,32.45,32.45,0,0,0-4.61-2.51A33,33,0,0,0,691.36,28Z"/><path class="cls-5" d="M692.7,104.18a30.9,30.9,0,0,0-11-9.42c-3-1.51-4.08-1.37-4.71-1.18-4.65,1.44-6.45,13.13-2.75,15.71.58.4,1.61.8,6.28-.4A54.34,54.34,0,0,0,692.7,104.18Z"/><path class="cls-5" d="M691.64,104.12a31.06,31.06,0,0,1,11-9.43c3-1.5,4.08-1.37,4.71-1.18,4.65,1.45,6.45,13.13,2.75,15.71-.58.41-1.61.8-6.28-.39A54.82,54.82,0,0,1,691.64,104.12Z"/><path class="cls-5" d="M690.34,104.18q-1.23,5.58-2.75,11.39c-2.58,9.86-5.53,19-8.64,27.49l4.32-2.36c-.26,3.1-.26,4.67,0,4.72q1.13.18,8.64-37.31Z"/><path class="cls-5" d="M693.48,104.18q1.23,5.58,2.75,11.39c2.59,9.86,5.53,19,8.64,27.49l-4.32-2.36c.26,3.1.26,4.67,0,4.72q-1.11.18-8.64-37.31C692.44,106.8,693,105.49,693.48,104.18Z"/><circle class="cls-5" cx="692.3" cy="105.75" r="3.14"/><circle class="cls-6" cx="692.47" cy="61.97" r="24.94"/><path class="cls-7" d="M668.87,51.32c0-.06.08-.15.13-.27a31,31,0,0,1,4.56-6.5,28.71,28.71,0,0,1,14.06-7.81,25.71,25.71,0,0,1,11.45.52s7.55,2.09,12.5,7.81a34.32,34.32,0,0,1,4.17,6.25c.23.44.4.8.52,1l-17.19,1-1.56-4.16L696,53.4h-9.89l-1-5.2q-1,2.34-2.08,4.68c-2.93,0-6.06-.17-9.37-.52-1.43-.15-2.82-.32-4.17-.52h-1"/><path class="cls-8" d="M689.62,76.86a2.16,2.16,0,0,1-.16-1.68,1.49,1.49,0,0,1,1-.94,1.91,1.91,0,0,1,1.92,1.65,2.07,2.07,0,0,1,.33-1c.08-.13.69-1.06,1.6-.93a1.62,1.62,0,0,1,1.25,1.29,1.88,1.88,0,0,1-.23,1.29,6.87,6.87,0,0,1-3.25,2.85A5.3,5.3,0,0,1,689.62,76.86Z"/><path d="M677.05,60.89A3,3,0,0,1,675,59.46a2.37,2.37,0,0,1-.23-.75,5.69,5.69,0,0,0,.36.51,5.05,5.05,0,0,0,.6.64,4.56,4.56,0,0,0,1.47.79"/><path d="M677.42,60.23A2.7,2.7,0,0,1,675.56,59a1.92,1.92,0,0,1-.2-.68,4.45,4.45,0,0,0,.32.46,3.65,3.65,0,0,0,.54.57,3.84,3.84,0,0,0,1.32.71"/><path d="M678,59.9a2.23,2.23,0,0,1-1.57-1.09,1.74,1.74,0,0,1-.17-.57,3.55,3.55,0,0,0,.27.39,3.09,3.09,0,0,0,.46.48,3.77,3.77,0,0,0,1.11.61"/><path d="M678.57,59.57a1.85,1.85,0,0,1-1.29-.89,1.41,1.41,0,0,1-.15-.47l.23.32a3.76,3.76,0,0,0,.37.39,2.83,2.83,0,0,0,.92.5"/><path class="cls-9" d="M687.39,61.18c.25-.89-2.23-2.89-4.71-3.14-3-.29-6.1,1.93-5.89,3.14s3.81,1.48,5.1,1.57A10.56,10.56,0,0,0,687,61.58.73.73,0,0,0,687.39,61.18Z"/><path d="M682.17,62.86h-.29c-1.36-.09-5-.35-5.19-1.65a1.62,1.62,0,0,1,.57-1.28,7.15,7.15,0,0,1,5.43-2,7,7,0,0,1,4.56,2.44,1,1,0,0,1,.23.83h0a.77.77,0,0,1-.44.45A10.85,10.85,0,0,1,682.17,62.86Zm0-4.75a7,7,0,0,0-4.73,1.94,1.5,1.5,0,0,0-.52,1.12c.2,1.15,3.82,1.4,5,1.49A10.66,10.66,0,0,0,687,61.49c.1-.06.29-.16.34-.33h0a.84.84,0,0,0-.21-.67,6.86,6.86,0,0,0-4.41-2.35A4.89,4.89,0,0,0,682.13,58.11Z"/><path d="M708.34,61.16a3,3,0,0,0,2.07-1.43,2.22,2.22,0,0,0,.22-.76,4.3,4.3,0,0,1-.35.51,4.45,4.45,0,0,1-.6.64,4.56,4.56,0,0,1-1.47.79"/><path d="M708,60.5a2.72,2.72,0,0,0,1.86-1.29,2.16,2.16,0,0,0,.2-.68,3.94,3.94,0,0,1-.32.46,4.82,4.82,0,0,1-.54.58,4.41,4.41,0,0,1-1.32.71"/><path d="M707.39,60.17A2.31,2.31,0,0,0,709,59.08a1.79,1.79,0,0,0,.17-.58,2.8,2.8,0,0,1-.27.39,4.33,4.33,0,0,1-.46.49,3.37,3.37,0,0,1-1.12.6"/><path d="M706.82,59.84a1.86,1.86,0,0,0,1.29-.9,1.55,1.55,0,0,0,.14-.47,2.06,2.06,0,0,1-.22.32,2.54,2.54,0,0,1-.38.4,2.82,2.82,0,0,1-.91.49"/><path class="cls-9" d="M698,61.58c-.25-.89,2.23-2.9,4.71-3.15,3-.29,6.1,1.93,5.89,3.15s-3.82,1.48-5.1,1.57A10.64,10.64,0,0,1,698.39,62,.71.71,0,0,1,698,61.58Z"/><path d="M703.21,63.25a10.81,10.81,0,0,1-4.86-1.2.81.81,0,0,1-.45-.45,1.06,1.06,0,0,1,.24-.83,7,7,0,0,1,4.56-2.43,7.16,7.16,0,0,1,5.43,2,1.65,1.65,0,0,1,.57,1.28c-.22,1.31-3.84,1.56-5.2,1.65Zm0-4.74a4.78,4.78,0,0,0-.53,0,6.91,6.91,0,0,0-4.42,2.35.92.92,0,0,0-.21.67h0a.59.59,0,0,0,.35.33,10.5,10.5,0,0,0,5,1.17c1.19-.09,4.82-.34,5-1.49a1.42,1.42,0,0,0-.52-1.11A7,7,0,0,0,703.25,58.51Z"/><circle class="cls-10" cx="679.74" cy="69.63" r="3.93"/><circle class="cls-10" cx="705.26" cy="69.63" r="3.93"/><path class="cls-11" d="M692.21,185.08a37.77,37.77,0,0,0,18.62-4.26c2.74-1.47,10.23-5.61,14.36-14.36a30.52,30.52,0,0,0,2.66-9.57,31.48,31.48,0,0,0-1.07-12.24,28.7,28.7,0,0,0-11.16,10.64,36.44,36.44,0,0,0-7.45-10.64,33.18,33.18,0,0,0-8,10.11,26.52,26.52,0,0,0-8-10.11,17.94,17.94,0,0,0-7.44,10.11,29.34,29.34,0,0,0-8-10.11,24.07,24.07,0,0,0-3.19,3.2,24.83,24.83,0,0,0-4.26,7.44,26.4,26.4,0,0,0-2.13-3.19,27.28,27.28,0,0,0-9-7.45,26,26,0,0,0-1.06,3.73A31.4,31.4,0,0,0,664.55,175C673.6,185,686.35,185.05,692.21,185.08Z"/><path class="cls-12" d="M692.21,184.55c6.42-.28,13-2.65,16-3.73a26.18,26.18,0,0,0,2.66-1.06c.93-.45,8.85-4.4,10.64-12.23.35-1.56.93-4.11-.54-5.86a5.21,5.21,0,0,0-3.72-1.59,6.37,6.37,0,0,0-4.79,2.13,6.57,6.57,0,0,0-1.06,1.59,5.45,5.45,0,0,0,0-2.66A6.65,6.65,0,0,0,701.25,158a6.07,6.07,0,0,0-2.12,3.72,5.59,5.59,0,0,0-.53-2.65,6.88,6.88,0,0,0-8-3.2,7.07,7.07,0,0,0-4.79,6.39A7,7,0,0,0,683.7,159a6.61,6.61,0,0,0-5.32-1.6c-3.16.58-4.51,3.6-4.78,4.25a7.41,7.41,0,0,0-.54,2.66,5.66,5.66,0,0,0-1.06-2.12,5,5,0,0,0-8.51.53A6.23,6.23,0,0,0,663,167c.63,3.91,3.31,6.75,5.32,8.51A37.22,37.22,0,0,0,692.21,184.55Z"/><path class="cls-13" d="M692.21,180.29c1.61.24,3.54-4.82,3.73-5.32a17.41,17.41,0,0,0,1.06-9c-.44-2.75-1.31-3.5-1.6-3.72a4.93,4.93,0,0,0-4.25-.54,5.89,5.89,0,0,0-3.19,2.66c-2.77,4.37.83,10.77,1.06,11.17a21.52,21.52,0,0,0,2.13,3.73C691.78,180.11,692,180.26,692.21,180.29Z"/><path class="cls-13" d="M698.05,178.78c.57,1,4.32-.1,4.69-.2a12.48,12.48,0,0,0,5.65-3.37c1.38-1.46,1.43-2.29,1.43-2.55a3.58,3.58,0,0,0-1.56-2.67,4.3,4.3,0,0,0-2.93-.66c-3.71.33-5.8,5.2-5.93,5.51a15.78,15.78,0,0,0-1.2,2.86C698,178.45,698,178.63,698.05,178.78Z"/><path class="cls-13" d="M686.37,178.78c-.57,1-4.32-.1-4.69-.2a12.48,12.48,0,0,1-5.65-3.37c-1.38-1.46-1.43-2.29-1.43-2.55a3.58,3.58,0,0,1,1.56-2.67,4.31,4.31,0,0,1,2.93-.66c3.71.33,5.81,5.2,5.94,5.51a16.53,16.53,0,0,1,1.2,2.86C686.46,178.45,686.45,178.63,686.37,178.78Z"/><path class="cls-7" d="M710.17,56.08c.06-.13-.9-.78-2-1.18a6.87,6.87,0,0,0-1.57-.39,12.42,12.42,0,0,0-4.71,0c-1.8.36-4,1.15-3.93,1.57s1.17.44,2.16.19,1.12-.76,2-1.17c1.63-.81,3.82-.17,7.07.78C709.62,56,710.13,56.17,710.17,56.08Z"/><path class="cls-7" d="M676,56.47c-.06-.13.9-.78,2-1.18a8.11,8.11,0,0,1,1.57-.39,12.68,12.68,0,0,1,4.72,0c1.79.36,4,1.15,3.92,1.57s-1.17.45-2.16.2-1.12-.77-2-1.18c-1.63-.8-3.82-.17-7.07.78C676.56,56.4,676.05,56.56,676,56.47Z"/><circle class="cls-14" cx="682.21" cy="60.4" r="2.04"/><circle class="cls-15" cx="682.21" cy="60.4" r="1.52"/><circle cx="682.21" cy="60.4" r="1.01"/><circle class="cls-9" cx="682.88" cy="59.81" r="0.39"/><circle class="cls-14" cx="703.41" cy="60.79" r="2.04"/><circle class="cls-15" cx="703.41" cy="60.79" r="1.52"/><circle cx="703.41" cy="60.79" r="1.01"/><circle class="cls-9" cx="702.74" cy="60.2" r="0.39"/><circle cx="694.27" cy="68.84" r="0.39"/><circle cx="691.13" cy="68.84" r="0.39"/><circle class="cls-2" cx="828.25" cy="147.38" r="52.62"/><circle class="cls-3" cx="828.02" cy="63.23" r="31.65"/><path class="cls-2" d="M796.84,69.23c-.2,0-1.13-.13-1.57.4s-.1,1.67,0,2c1,3,.35,6.3.78,9.42.82,5.91-1.29,12.42-2.35,15.71a48.41,48.41,0,0,1-7.07,13.75l1.18,2.35c-.49.65-1.19,1.59-2,2.75A55.47,55.47,0,0,0,776,140.7a53.3,53.3,0,0,0,3.53,25.53,48.25,48.25,0,0,0,11,16.88A43.76,43.76,0,0,0,798,189a41.36,41.36,0,0,0,11.78,5.11c1.28.31,3.6.6,8.24,1.18a60.44,60.44,0,0,0,9.43.78,42.82,42.82,0,0,0,8.25-1.18c1.11-.24,3.11-.82,7.06-2,3.77-1.08,5.65-1.63,6.68-2a74.14,74.14,0,0,0,9-3.54c5.84-2.94,9.26-7.35,11.78-10.6a49.91,49.91,0,0,0,9-19.24,49.26,49.26,0,0,0,1.58-16.89c-1.27-13.76-8.87-23.39-12.57-27.49l1.18-3.14a43.27,43.27,0,0,1-3.54-5.49c-5.25-9.74-5.45-19.2-5.49-24.35a63.55,63.55,0,0,1,.78-10.6l-2-1.18C823.77,69.05,798.67,69.4,796.84,69.23Z"/><path class="cls-4" d="M826.92,28a33.83,33.83,0,0,0-15.06,4.18,34.57,34.57,0,0,0-14.23,15.07,36.54,36.54,0,0,0-3.34,14.64,40.73,40.73,0,0,0,.42,6.27c1.18,7.83,12.89,23.12,32.21,38.91a105.79,105.79,0,0,0,9.83-6.9c9.46-7.49,22.39-17.73,24.68-33a34.87,34.87,0,0,0-10-29.71A43.06,43.06,0,0,0,846,33.25a31.71,31.71,0,0,0-4.6-2.51A33,33,0,0,0,826.92,28Z"/><path class="cls-5" d="M828.25,104.18a30.81,30.81,0,0,0-11-9.42c-3-1.51-4.09-1.37-4.71-1.18-4.65,1.44-6.46,13.13-2.75,15.71.58.4,1.6.8,6.28-.4A54,54,0,0,0,828.25,104.18Z"/><path class="cls-5" d="M827.2,104.12a31,31,0,0,1,11-9.43c3-1.5,4.08-1.37,4.71-1.18,4.64,1.45,6.45,13.13,2.75,15.71-.59.41-1.61.8-6.29-.39A54.71,54.71,0,0,1,827.2,104.12Z"/><path class="cls-5" d="M825.9,104.18q-1.23,5.58-2.75,11.39c-2.59,9.86-5.53,19-8.64,27.49l4.32-2.36c-.26,3.1-.26,4.67,0,4.72q1.11.18,8.64-37.31Z"/><path class="cls-5" d="M829,104.18q1.23,5.58,2.75,11.39c2.58,9.86,5.53,19,8.64,27.49l-4.32-2.36c.26,3.1.26,4.67,0,4.72q-1.12.18-8.64-37.31Z"/><circle class="cls-5" cx="827.86" cy="105.75" r="3.14"/><circle class="cls-6" cx="828.03" cy="61.97" r="24.94"/><path class="cls-7" d="M804.43,51.32l.13-.27a31.15,31.15,0,0,1,4.55-6.5,28.71,28.71,0,0,1,14.06-7.81,25.75,25.75,0,0,1,11.46.52s7.55,2.09,12.5,7.81a34.41,34.41,0,0,1,4.16,6.25c.23.44.41.8.53,1l-17.19,1-1.56-4.16-1.56,4.16h-9.9c-.34-1.73-.69-3.47-1-5.2l-2.08,4.68c-2.93,0-6.07-.17-9.38-.52-1.43-.15-2.82-.32-4.16-.52h-1"/><path class="cls-8" d="M825.17,76.86a2.2,2.2,0,0,1-.16-1.68,1.53,1.53,0,0,1,1-.94A1.9,1.9,0,0,1,828,75.89a2.23,2.23,0,0,1,.34-1c.08-.13.69-1.06,1.6-.93a1.64,1.64,0,0,1,1.25,1.29,1.94,1.94,0,0,1-.23,1.29,6.89,6.89,0,0,1-3.26,2.85A5.35,5.35,0,0,1,825.17,76.86Z"/><path d="M812.6,60.89a3,3,0,0,1-2.07-1.43,2.34,2.34,0,0,1-.22-.75,4.17,4.17,0,0,0,.36.51,4.39,4.39,0,0,0,.6.64,4.56,4.56,0,0,0,1.46.79"/><path d="M813,60.23A2.67,2.67,0,0,1,811.12,59a2.2,2.2,0,0,1-.21-.68l.32.46a3.84,3.84,0,0,0,.55.57,3.93,3.93,0,0,0,1.31.71"/><path d="M813.55,59.9A2.26,2.26,0,0,1,812,58.81a1.74,1.74,0,0,1-.17-.57l.27.39a4.53,4.53,0,0,0,.46.48,3.89,3.89,0,0,0,1.12.61"/><path d="M814.12,59.57a1.89,1.89,0,0,1-1.29-.89,1.64,1.64,0,0,1-.14-.47l.22.32a4.16,4.16,0,0,0,.38.39,2.83,2.83,0,0,0,.92.5"/><path class="cls-9" d="M823,61.18c.24-.89-2.23-2.89-4.72-3.14-3-.29-6.09,1.93-5.89,3.14s3.82,1.48,5.11,1.57a10.51,10.51,0,0,0,5.1-1.17A.71.71,0,0,0,823,61.18Z"/><path d="M817.73,62.86h-.29c-1.36-.09-5-.35-5.19-1.65a1.58,1.58,0,0,1,.57-1.28,7.11,7.11,0,0,1,5.42-2,7,7,0,0,1,4.56,2.44,1,1,0,0,1,.24.83h0a.77.77,0,0,1-.44.45A10.87,10.87,0,0,1,817.73,62.86Zm0-4.75A7,7,0,0,0,813,60.05a1.47,1.47,0,0,0-.52,1.12c.19,1.15,3.82,1.4,5,1.49a10.67,10.67,0,0,0,5.06-1.17c.1-.06.29-.16.34-.33a.88.88,0,0,0-.21-.67,6.89,6.89,0,0,0-4.42-2.35A4.58,4.58,0,0,0,817.69,58.11Z"/><path d="M843.9,61.16A3,3,0,0,0,846,59.73a2.46,2.46,0,0,0,.22-.76,5.43,5.43,0,0,1-1,1.15,4.56,4.56,0,0,1-1.46.79"/><path d="M843.53,60.5a2.69,2.69,0,0,0,1.85-1.29,2.2,2.2,0,0,0,.21-.68,3.94,3.94,0,0,1-.32.46,4.82,4.82,0,0,1-.54.58,4.53,4.53,0,0,1-1.32.71"/><path d="M843,60.17a2.33,2.33,0,0,0,1.58-1.09,1.79,1.79,0,0,0,.17-.58l-.27.39a5.54,5.54,0,0,1-.46.49,3.48,3.48,0,0,1-1.12.6"/><path d="M842.38,59.84a1.88,1.88,0,0,0,1.29-.9,1.55,1.55,0,0,0,.14-.47,3,3,0,0,1-.6.72,2.92,2.92,0,0,1-.92.49"/><path class="cls-9" d="M833.56,61.58c-.25-.89,2.22-2.9,4.71-3.15,3-.29,6.09,1.93,5.89,3.15s-3.82,1.48-5.11,1.57A10.59,10.59,0,0,1,834,62,.71.71,0,0,1,833.56,61.58Z"/><path d="M838.77,63.25a10.87,10.87,0,0,1-4.87-1.2.77.77,0,0,1-.44-.45h0a1.06,1.06,0,0,1,.24-.83,7,7,0,0,1,4.56-2.43,7.14,7.14,0,0,1,5.42,2,1.63,1.63,0,0,1,.58,1.28c-.23,1.31-3.84,1.56-5.2,1.65Zm-5.12-1.7a.6.6,0,0,0,.34.33,10.53,10.53,0,0,0,5.06,1.17c1.19-.09,4.82-.34,5-1.49a1.45,1.45,0,0,0-.52-1.11,6.51,6.51,0,0,0-9.68.43.88.88,0,0,0-.21.67Z"/><circle class="cls-10" cx="815.3" cy="69.63" r="3.93"/><circle class="cls-10" cx="840.82" cy="69.63" r="3.93"/><path class="cls-11" d="M827.77,185.08a37.77,37.77,0,0,0,18.62-4.26c2.74-1.47,10.23-5.61,14.36-14.36a31.1,31.1,0,0,0,2.66-9.57,31.48,31.48,0,0,0-1.07-12.24,28.79,28.79,0,0,0-11.17,10.64,36.7,36.7,0,0,0-2.66-4.79,37.19,37.19,0,0,0-4.78-5.85,33.56,33.56,0,0,0-3.73,3.73,33,33,0,0,0-4.25,6.38,26.52,26.52,0,0,0-8-10.11,17.86,17.86,0,0,0-3.19,2.66,18.46,18.46,0,0,0-4.26,7.45A29.25,29.25,0,0,0,818.2,151a29.62,29.62,0,0,0-5.85-6.39,24.7,24.7,0,0,0-3.2,3.2,25,25,0,0,0-4.25,7.44,26.4,26.4,0,0,0-2.13-3.19,27.38,27.38,0,0,0-9-7.45,26,26,0,0,0-1.06,3.73A31.37,31.37,0,0,0,800.11,175C809.16,185,821.9,185.05,827.77,185.08Z"/><path class="cls-12" d="M827.77,184.55c6.42-.28,13-2.65,16-3.73a28.22,28.22,0,0,0,2.66-1.06c.92-.45,8.84-4.4,10.63-12.23.36-1.56.94-4.11-.53-5.86a5.21,5.21,0,0,0-3.72-1.59,6.48,6.48,0,0,0-5.85,3.72,5.45,5.45,0,0,0,0-2.66A6.65,6.65,0,0,0,836.81,158a6.15,6.15,0,0,0-2.13,3.72,5.47,5.47,0,0,0-.53-2.65,6.86,6.86,0,0,0-8-3.2,7.06,7.06,0,0,0-4.78,6.39,7.2,7.2,0,0,0-2.13-3.19,6.61,6.61,0,0,0-5.32-1.6c-3.17.58-4.52,3.6-4.79,4.25a7.36,7.36,0,0,0-.53,2.66,5.66,5.66,0,0,0-1.06-2.12,5,5,0,0,0-8.51.53,6.11,6.11,0,0,0-.53,4.25c.63,3.91,3.31,6.75,5.31,8.51A37.24,37.24,0,0,0,827.77,184.55Z"/><path class="cls-13" d="M827.77,180.29c1.6.24,3.53-4.82,3.72-5.32a17.33,17.33,0,0,0,1.07-9c-.45-2.75-1.32-3.5-1.6-3.72a4.93,4.93,0,0,0-4.25-.54,6,6,0,0,0-3.2,2.66c-2.76,4.37.83,10.77,1.07,11.17a21.52,21.52,0,0,0,2.13,3.73C827.34,180.11,827.54,180.26,827.77,180.29Z"/><path class="cls-13" d="M833.61,178.78c.57,1,4.32-.1,4.68-.2a12.47,12.47,0,0,0,5.66-3.37c1.38-1.46,1.43-2.29,1.43-2.55a3.58,3.58,0,0,0-1.56-2.67,4.31,4.31,0,0,0-2.93-.66c-3.72.33-5.81,5.2-5.94,5.51a15.78,15.78,0,0,0-1.2,2.86C833.52,178.45,833.53,178.63,833.61,178.78Z"/><path class="cls-13" d="M821.93,178.78c-.57,1-4.32-.1-4.69-.2a12.48,12.48,0,0,1-5.65-3.37c-1.38-1.46-1.43-2.29-1.43-2.55a3.58,3.58,0,0,1,1.56-2.67,4.3,4.3,0,0,1,2.93-.66c3.71.33,5.8,5.2,5.93,5.51a15.78,15.78,0,0,1,1.2,2.86C822,178.45,822,178.63,821.93,178.78Z"/><path class="cls-7" d="M845.73,56.08c.06-.13-.9-.78-2-1.18a6.93,6.93,0,0,0-1.58-.39,12.41,12.41,0,0,0-4.71,0c-1.8.36-4,1.15-3.92,1.57s1.17.44,2.16.19,1.12-.76,2-1.17c1.63-.81,3.81-.17,7.07.78C845.17,56,845.69,56.17,845.73,56.08Z"/><path class="cls-7" d="M811.57,56.47c-.06-.13.89-.78,2-1.18a7.94,7.94,0,0,1,1.57-.39,12.63,12.63,0,0,1,4.71,0c1.8.36,4,1.15,3.93,1.57s-1.18.45-2.16.2-1.13-.77-2-1.18c-1.63-.8-3.82-.17-7.07.78C812.12,56.4,811.61,56.56,811.57,56.47Z"/><circle class="cls-14" cx="817.76" cy="60.4" r="2.04"/><circle class="cls-15" cx="817.76" cy="60.4" r="1.52"/><circle cx="817.76" cy="60.4" r="1.01"/><circle class="cls-9" cx="818.44" cy="59.81" r="0.39"/><circle class="cls-14" cx="838.97" cy="60.79" r="2.04"/><circle class="cls-15" cx="838.97" cy="60.79" r="1.52"/><circle cx="838.97" cy="60.79" r="1.01"/><circle class="cls-9" cx="838.29" cy="60.2" r="0.39"/><circle cx="829.82" cy="68.84" r="0.39"/><circle cx="826.68" cy="68.84" r="0.39"/><circle class="cls-2" cx="968.05" cy="147.38" r="52.62"/><circle class="cls-3" cx="967.82" cy="63.23" r="31.65"/><path class="cls-2" d="M936.64,69.23c-.2,0-1.13-.13-1.57.4s-.1,1.67,0,2c1,3,.35,6.3.78,9.42.82,5.91-1.29,12.42-2.35,15.71a48.41,48.41,0,0,1-7.07,13.75l1.18,2.35c-.5.65-1.19,1.59-2,2.75a55.45,55.45,0,0,0-9.82,25.13,53.48,53.48,0,0,0,3.54,25.53,48.18,48.18,0,0,0,11,16.88,44.1,44.1,0,0,0,7.47,5.89,41.36,41.36,0,0,0,11.78,5.11c1.28.31,3.6.6,8.24,1.18a60.44,60.44,0,0,0,9.43.78,42.7,42.7,0,0,0,8.24-1.18c1.12-.24,3.12-.82,7.07-2,3.77-1.08,5.65-1.63,6.68-2a74.79,74.79,0,0,0,9-3.54c5.84-2.94,9.26-7.35,11.78-10.6a49.91,49.91,0,0,0,9-19.24,49.07,49.07,0,0,0,1.57-16.89c-1.26-13.76-8.86-23.39-12.56-27.49l1.18-3.14a43.27,43.27,0,0,1-3.54-5.49c-5.25-9.74-5.45-19.2-5.5-24.35a64.84,64.84,0,0,1,.79-10.6l-2-1.18C963.57,69.05,938.46,69.4,936.64,69.23Z"/><path class="cls-4" d="M966.72,28a33.83,33.83,0,0,0-15.06,4.18,34.57,34.57,0,0,0-14.23,15.07,36.54,36.54,0,0,0-3.34,14.64,41.45,41.45,0,0,0,.41,6.27c1.19,7.83,12.9,23.12,32.22,38.91a105.79,105.79,0,0,0,9.83-6.9c9.46-7.49,22.39-17.73,24.68-33a34.87,34.87,0,0,0-10-29.71,43.06,43.06,0,0,0-5.44-4.18,31.71,31.71,0,0,0-4.6-2.51A33.09,33.09,0,0,0,966.72,28Z"/><path class="cls-5" d="M968.05,104.18a30.89,30.89,0,0,0-11-9.42c-3-1.51-4.09-1.37-4.71-1.18-4.65,1.44-6.46,13.13-2.75,15.71.58.4,1.6.8,6.28-.4A54,54,0,0,0,968.05,104.18Z"/><path class="cls-5" d="M967,104.12a31,31,0,0,1,11-9.43c3-1.5,4.09-1.37,4.72-1.18,4.64,1.45,6.45,13.13,2.75,15.71-.59.41-1.61.8-6.29-.39A54.71,54.71,0,0,1,967,104.12Z"/><path class="cls-5" d="M965.7,104.18q-1.23,5.58-2.75,11.39c-2.59,9.86-5.53,19-8.64,27.49l4.32-2.36c-.26,3.1-.26,4.67,0,4.72q1.11.18,8.64-37.31C966.74,106.8,966.22,105.49,965.7,104.18Z"/><path class="cls-5" d="M968.84,104.18q1.23,5.58,2.75,11.39c2.58,9.86,5.53,19,8.64,27.49l-4.32-2.36c.26,3.1.26,4.67,0,4.72q-1.12.18-8.64-37.31C967.79,106.8,968.31,105.49,968.84,104.18Z"/><circle class="cls-5" cx="967.66" cy="105.75" r="3.14"/><circle class="cls-6" cx="967.83" cy="61.97" r="24.94"/><path class="cls-7" d="M944.23,51.32l.13-.27a31.15,31.15,0,0,1,4.55-6.5A28.71,28.71,0,0,1,963,36.74a25.75,25.75,0,0,1,11.46.52s7.55,2.09,12.5,7.81a34.41,34.41,0,0,1,4.16,6.25c.23.44.41.8.52,1l-17.18,1-1.56-4.16-1.56,4.16h-9.9c-.35-1.73-.69-3.47-1-5.2l-2.08,4.68c-2.93,0-6.07-.17-9.38-.52-1.43-.15-2.82-.32-4.16-.52h-1"/><path class="cls-8" d="M965,76.86a2.2,2.2,0,0,1-.16-1.68,1.51,1.51,0,0,1,1-.94,1.9,1.9,0,0,1,1.92,1.65,2.07,2.07,0,0,1,.33-1c.09-.13.7-1.06,1.61-.93A1.64,1.64,0,0,1,971,75.3a1.94,1.94,0,0,1-.23,1.29,6.89,6.89,0,0,1-3.26,2.85A5.35,5.35,0,0,1,965,76.86Z"/><path d="M952.4,60.89a3,3,0,0,1-2.07-1.43,2.34,2.34,0,0,1-.22-.75,4.17,4.17,0,0,0,.36.51,3.88,3.88,0,0,0,.6.64,4.56,4.56,0,0,0,1.46.79"/><path d="M952.77,60.23A2.67,2.67,0,0,1,950.92,59a2.2,2.2,0,0,1-.21-.68c.08.12.18.28.32.46a4.21,4.21,0,0,0,.54.57,4,4,0,0,0,1.32.71"/><path d="M953.35,59.9a2.24,2.24,0,0,1-1.58-1.09,1.74,1.74,0,0,1-.17-.57l.27.39a4.53,4.53,0,0,0,.46.48,3.89,3.89,0,0,0,1.12.61"/><path d="M953.92,59.57a1.89,1.89,0,0,1-1.29-.89,1.64,1.64,0,0,1-.14-.47l.22.32a4.16,4.16,0,0,0,.38.39,2.64,2.64,0,0,0,.92.5"/><path class="cls-9" d="M962.74,61.18c.25-.89-2.22-2.89-4.71-3.14-3-.29-6.1,1.93-5.89,3.14s3.82,1.48,5.11,1.57a10.51,10.51,0,0,0,5.1-1.17A.7.7,0,0,0,962.74,61.18Z"/><path d="M957.53,62.86h-.29c-1.36-.09-5-.35-5.2-1.65a1.63,1.63,0,0,1,.58-1.28,7.11,7.11,0,0,1,5.42-2,7,7,0,0,1,4.56,2.44,1,1,0,0,1,.24.83h0a.77.77,0,0,1-.44.45A10.87,10.87,0,0,1,957.53,62.86Zm0-4.75a7,7,0,0,0-4.73,1.94,1.47,1.47,0,0,0-.52,1.12c.19,1.15,3.82,1.4,5,1.49a10.67,10.67,0,0,0,5.06-1.17c.1-.06.29-.16.34-.33a.88.88,0,0,0-.21-.67A6.89,6.89,0,0,0,958,58.14,4.58,4.58,0,0,0,957.49,58.11Z"/><path d="M983.7,61.16a3,3,0,0,0,2.06-1.43A2.25,2.25,0,0,0,986,59a3.52,3.52,0,0,1-.36.51,4.45,4.45,0,0,1-.6.64,4.56,4.56,0,0,1-1.46.79"/><path d="M983.33,60.5a2.69,2.69,0,0,0,1.85-1.29,2.2,2.2,0,0,0,.21-.68,4.17,4.17,0,0,1-.33.46,3.56,3.56,0,0,1-.54.58,4.42,4.42,0,0,1-1.31.71"/><path d="M982.75,60.17a2.33,2.33,0,0,0,1.58-1.09,2.08,2.08,0,0,0,.17-.58,4.41,4.41,0,0,1-.28.39,4,4,0,0,1-.45.49,3.48,3.48,0,0,1-1.12.6"/><path d="M982.17,59.84a1.87,1.87,0,0,0,1.3-.9,1.55,1.55,0,0,0,.14-.47,2.22,2.22,0,0,1-.23.32,2.37,2.37,0,0,1-.37.4,2.92,2.92,0,0,1-.92.49"/><path class="cls-9" d="M973.35,61.58c-.24-.89,2.23-2.9,4.72-3.15,3-.29,6.09,1.93,5.89,3.15s-3.82,1.48-5.11,1.57a10.59,10.59,0,0,1-5.1-1.18A.72.72,0,0,1,973.35,61.58Z"/><path d="M978.57,63.25a10.87,10.87,0,0,1-4.87-1.2.77.77,0,0,1-.44-.45h0a1.06,1.06,0,0,1,.24-.83,7,7,0,0,1,4.56-2.43,7.14,7.14,0,0,1,5.42,2,1.58,1.58,0,0,1,.57,1.28c-.22,1.31-3.83,1.56-5.19,1.65Zm-5.12-1.7a.6.6,0,0,0,.34.33,10.53,10.53,0,0,0,5.06,1.17c1.19-.09,4.82-.34,5-1.49a1.45,1.45,0,0,0-.52-1.11,6.51,6.51,0,0,0-9.68.43.84.84,0,0,0-.21.67Z"/><circle class="cls-10" cx="955.09" cy="69.63" r="3.93"/><circle class="cls-10" cx="980.62" cy="69.63" r="3.93"/><path class="cls-11" d="M967.57,185.08a37.72,37.72,0,0,0,18.61-4.26c2.75-1.47,10.24-5.61,14.37-14.36a30.89,30.89,0,0,0,2.65-9.57,31.32,31.32,0,0,0-1.06-12.24,29.07,29.07,0,0,0-4.79,3.2,28.68,28.68,0,0,0-6.38,7.44,36.7,36.7,0,0,0-2.66-4.79,37.19,37.19,0,0,0-4.78-5.85,33.56,33.56,0,0,0-3.73,3.73,32.54,32.54,0,0,0-4.25,6.38,26.52,26.52,0,0,0-8-10.11,17.86,17.86,0,0,0-3.19,2.66,18.46,18.46,0,0,0-4.26,7.45A28.22,28.22,0,0,0,958,151a29.12,29.12,0,0,0-5.85-6.39,24.68,24.68,0,0,0-3.19,3.2,25,25,0,0,0-4.25,7.44,26.4,26.4,0,0,0-2.13-3.19,27.38,27.38,0,0,0-9-7.45,27.2,27.2,0,0,0-1.07,3.73A31.41,31.41,0,0,0,939.91,175C949,185,961.7,185.05,967.57,185.08Z"/><path class="cls-12" d="M967.57,184.55c6.42-.28,13-2.65,16-3.73a26.86,26.86,0,0,0,2.65-1.06c.93-.45,8.85-4.4,10.64-12.23.36-1.56.94-4.11-.53-5.86a5.21,5.21,0,0,0-3.72-1.59,6.48,6.48,0,0,0-5.85,3.72,5.45,5.45,0,0,0,0-2.66A6.65,6.65,0,0,0,976.61,158a6.15,6.15,0,0,0-2.13,3.72A5.47,5.47,0,0,0,974,159a6.87,6.87,0,0,0-8-3.2,7.06,7.06,0,0,0-4.78,6.39,7.2,7.2,0,0,0-2.13-3.19,6.61,6.61,0,0,0-5.32-1.6c-3.17.58-4.52,3.6-4.79,4.25a7.36,7.36,0,0,0-.53,2.66,5.66,5.66,0,0,0-1.06-2.12,5,5,0,0,0-8.51.53,6.11,6.11,0,0,0-.53,4.25c.63,3.91,3.31,6.75,5.31,8.51A37.24,37.24,0,0,0,967.57,184.55Z"/><path class="cls-13" d="M967.57,180.29c1.6.24,3.53-4.82,3.72-5.32a17.33,17.33,0,0,0,1.07-9c-.45-2.75-1.32-3.5-1.6-3.72a5,5,0,0,0-4.26-.54,6,6,0,0,0-3.19,2.66c-2.76,4.37.83,10.77,1.07,11.17a22.09,22.09,0,0,0,2.12,3.73C967.14,180.11,967.34,180.26,967.57,180.29Z"/><path class="cls-13" d="M973.41,178.78c.57,1,4.31-.1,4.68-.2a12.36,12.36,0,0,0,5.65-3.37c1.39-1.46,1.44-2.29,1.44-2.55a3.58,3.58,0,0,0-1.56-2.67,4.32,4.32,0,0,0-2.93-.66c-3.72.33-5.81,5.2-5.94,5.51a15.78,15.78,0,0,0-1.2,2.86C973.32,178.45,973.33,178.63,973.41,178.78Z"/><path class="cls-13" d="M961.72,178.78c-.56,1-4.31-.1-4.68-.2a12.42,12.42,0,0,1-5.65-3.37c-1.38-1.46-1.43-2.29-1.43-2.55a3.58,3.58,0,0,1,1.56-2.67,4.29,4.29,0,0,1,2.92-.66c3.72.33,5.81,5.2,5.94,5.51a15.78,15.78,0,0,1,1.2,2.86C961.81,178.45,961.81,178.63,961.72,178.78Z"/><path class="cls-7" d="M985.53,56.08a4.46,4.46,0,0,0-2-1.18,6.75,6.75,0,0,0-1.57-.39,12.42,12.42,0,0,0-4.71,0c-1.8.36-4,1.15-3.93,1.57s1.18.44,2.16.19,1.13-.76,2-1.17c1.63-.81,3.81-.17,7.07.78C985,56,985.49,56.17,985.53,56.08Z"/><path class="cls-7" d="M951.36,56.47a4.46,4.46,0,0,1,2-1.18,7.94,7.94,0,0,1,1.57-.39,12.63,12.63,0,0,1,4.71,0c1.8.36,4,1.15,3.93,1.57s-1.18.45-2.16.2-1.13-.77-2-1.18c-1.62-.8-3.81-.17-7.06.78C951.92,56.4,951.41,56.56,951.36,56.47Z"/><circle class="cls-14" cx="957.56" cy="60.4" r="2.04"/><circle class="cls-15" cx="957.56" cy="60.4" r="1.52"/><circle cx="957.56" cy="60.4" r="1.01"/><circle class="cls-9" cx="958.24" cy="59.81" r="0.39"/><circle class="cls-14" cx="978.77" cy="60.79" r="2.04"/><circle class="cls-15" cx="978.77" cy="60.79" r="1.52"/><circle cx="978.77" cy="60.79" r="1.01"/><circle class="cls-9" cx="978.09" cy="60.2" r="0.39"/><circle cx="969.62" cy="68.84" r="0.39"/><circle cx="966.48" cy="68.84" r="0.39"/><circle class="cls-2" cx="1112.56" cy="147.38" r="52.62"/><circle class="cls-3" cx="1112.33" cy="63.23" r="31.65"/><path class="cls-2" d="M1081.15,69.23c-.19,0-1.13-.13-1.57.4s-.1,1.67,0,2c1,3,.35,6.3.78,9.42.82,5.91-1.29,12.42-2.35,15.71a48.41,48.41,0,0,1-7.07,13.75l1.18,2.35c-.49.65-1.18,1.59-2,2.75a55.47,55.47,0,0,0-9.81,25.13,53.3,53.3,0,0,0,3.53,25.53,48.25,48.25,0,0,0,11,16.88,43.76,43.76,0,0,0,7.46,5.89,41.36,41.36,0,0,0,11.78,5.11c1.28.31,3.6.6,8.24,1.18a60.44,60.44,0,0,0,9.43.78,42.82,42.82,0,0,0,8.25-1.18c1.11-.24,3.11-.82,7.06-2,3.77-1.08,5.65-1.63,6.68-2a74.14,74.14,0,0,0,9-3.54c5.84-2.94,9.26-7.35,11.78-10.6a49.91,49.91,0,0,0,9-19.24,49.26,49.26,0,0,0,1.58-16.89c-1.27-13.76-8.87-23.39-12.57-27.49l1.18-3.14a43.27,43.27,0,0,1-3.54-5.49c-5.25-9.74-5.45-19.2-5.49-24.35a63.55,63.55,0,0,1,.78-10.6l-2-1.18C1108.08,69.05,1083,69.4,1081.15,69.23Z"/><path class="cls-4" d="M1111.23,28a33.83,33.83,0,0,0-15.06,4.18,34.57,34.57,0,0,0-14.23,15.07,36.54,36.54,0,0,0-3.34,14.64,42.25,42.25,0,0,0,.42,6.27c1.18,7.83,12.89,23.12,32.21,38.91a105.79,105.79,0,0,0,9.83-6.9c9.46-7.49,22.39-17.73,24.68-33a34.87,34.87,0,0,0-10-29.71,43.06,43.06,0,0,0-5.44-4.18,31.71,31.71,0,0,0-4.6-2.51A33,33,0,0,0,1111.23,28Z"/><path class="cls-5" d="M1112.56,104.18a30.81,30.81,0,0,0-11-9.42c-3-1.51-4.09-1.37-4.71-1.18-4.65,1.44-6.46,13.13-2.75,15.71.58.4,1.61.8,6.28-.4A54,54,0,0,0,1112.56,104.18Z"/><path class="cls-5" d="M1111.51,104.12a31,31,0,0,1,11-9.43c3-1.5,4.08-1.37,4.71-1.18,4.64,1.45,6.45,13.13,2.75,15.71-.58.41-1.61.8-6.29-.39A54.71,54.71,0,0,1,1111.51,104.12Z"/><path class="cls-5" d="M1110.21,104.18q-1.23,5.58-2.75,11.39c-2.59,9.86-5.53,19-8.64,27.49l4.32-2.36c-.26,3.1-.26,4.67,0,4.72q1.11.18,8.64-37.31Z"/><path class="cls-5" d="M1113.35,104.18q1.23,5.58,2.75,11.39c2.58,9.86,5.53,19,8.64,27.49l-4.32-2.36c.26,3.1.26,4.67,0,4.72q-1.12.18-8.64-37.31Z"/><circle class="cls-5" cx="1112.17" cy="105.75" r="3.14"/><circle class="cls-6" cx="1112.34" cy="61.97" r="24.94"/><path class="cls-7" d="M1088.74,51.32l.13-.27a31,31,0,0,1,4.56-6.5,28.67,28.67,0,0,1,14.06-7.81,25.71,25.71,0,0,1,11.45.52s7.55,2.09,12.5,7.81a34.86,34.86,0,0,1,4.17,6.25l.52,1-17.19,1-1.56-4.16-1.56,4.16h-9.9c-.34-1.73-.69-3.47-1-5.2l-2.08,4.68c-2.93,0-6.07-.17-9.37-.52-1.44-.15-2.83-.32-4.17-.52h-1"/><path class="cls-8" d="M1109.48,76.86a2.2,2.2,0,0,1-.16-1.68,1.53,1.53,0,0,1,1-.94,1.9,1.9,0,0,1,1.92,1.65,2.23,2.23,0,0,1,.34-1c.08-.13.69-1.06,1.6-.93a1.64,1.64,0,0,1,1.25,1.29,1.94,1.94,0,0,1-.23,1.29,6.91,6.91,0,0,1-3.25,2.85A5.32,5.32,0,0,1,1109.48,76.86Z"/><path d="M1096.91,60.89a3,3,0,0,1-2.06-1.43,2.14,2.14,0,0,1-.23-.75,4.17,4.17,0,0,0,.36.51,5.05,5.05,0,0,0,.6.64,4.46,4.46,0,0,0,1.47.79"/><path d="M1097.28,60.23a2.67,2.67,0,0,1-1.85-1.28,2.2,2.2,0,0,1-.21-.68c.08.12.19.28.33.46a3.22,3.22,0,0,0,.54.57,3.93,3.93,0,0,0,1.31.71"/><path d="M1097.86,59.9a2.26,2.26,0,0,1-1.58-1.09,2,2,0,0,1-.17-.57c.07.1.16.24.28.39a3.44,3.44,0,0,0,.45.48,3.89,3.89,0,0,0,1.12.61"/><path d="M1098.44,59.57a1.88,1.88,0,0,1-1.3-.89,1.64,1.64,0,0,1-.14-.47c0,.08.13.19.23.32a2.9,2.9,0,0,0,.37.39,2.83,2.83,0,0,0,.92.5"/><path class="cls-9" d="M1107.26,61.18c.24-.89-2.23-2.89-4.72-3.14-3-.29-6.09,1.93-5.89,3.14s3.82,1.48,5.11,1.57a10.51,10.51,0,0,0,5.1-1.17A.71.71,0,0,0,1107.26,61.18Z"/><path d="M1102,62.86h-.29c-1.36-.09-5-.35-5.19-1.65a1.58,1.58,0,0,1,.57-1.28,7.11,7.11,0,0,1,5.42-2,7,7,0,0,1,4.56,2.44,1,1,0,0,1,.24.83h0a.77.77,0,0,1-.44.45A10.87,10.87,0,0,1,1102,62.86Zm0-4.75a7,7,0,0,0-4.73,1.94,1.47,1.47,0,0,0-.52,1.12c.2,1.15,3.82,1.4,5,1.49a10.67,10.67,0,0,0,5.06-1.17c.1-.06.29-.16.34-.33a.84.84,0,0,0-.21-.67,6.89,6.89,0,0,0-4.42-2.35A4.58,4.58,0,0,0,1102,58.11Z"/><path d="M1128.21,61.16a3,3,0,0,0,2.07-1.43,2.46,2.46,0,0,0,.22-.76,5.43,5.43,0,0,1-1,1.15,4.56,4.56,0,0,1-1.46.79"/><path d="M1127.84,60.5a2.69,2.69,0,0,0,1.85-1.29,2.2,2.2,0,0,0,.21-.68,3.94,3.94,0,0,1-.32.46,4.82,4.82,0,0,1-.54.58,4.53,4.53,0,0,1-1.32.71"/><path d="M1127.26,60.17a2.31,2.31,0,0,0,1.58-1.09,1.79,1.79,0,0,0,.17-.58l-.27.39a5.54,5.54,0,0,1-.46.49,3.48,3.48,0,0,1-1.12.6"/><path d="M1126.69,59.84a1.88,1.88,0,0,0,1.29-.9,1.55,1.55,0,0,0,.14-.47,3,3,0,0,1-.6.72,2.72,2.72,0,0,1-.92.49"/><path class="cls-9" d="M1117.87,61.58c-.25-.89,2.22-2.9,4.71-3.15,3-.29,6.1,1.93,5.89,3.15s-3.82,1.48-5.11,1.57a10.59,10.59,0,0,1-5.1-1.18A.71.71,0,0,1,1117.87,61.58Z"/><path d="M1123.08,63.25a10.87,10.87,0,0,1-4.87-1.2.77.77,0,0,1-.44-.45h0a1.06,1.06,0,0,1,.24-.83,7,7,0,0,1,4.56-2.43,7.14,7.14,0,0,1,5.42,2,1.63,1.63,0,0,1,.58,1.28c-.23,1.31-3.84,1.56-5.2,1.65Zm-5.12-1.7a.6.6,0,0,0,.34.33,10.53,10.53,0,0,0,5.06,1.17c1.19-.09,4.82-.34,5-1.49a1.45,1.45,0,0,0-.52-1.11,6.51,6.51,0,0,0-9.68.43.88.88,0,0,0-.21.67Z"/><circle class="cls-10" cx="1099.61" cy="69.63" r="3.93"/><circle class="cls-10" cx="1125.13" cy="69.63" r="3.93"/><path class="cls-11" d="M1112.08,185.08a37.77,37.77,0,0,0,18.62-4.26c2.74-1.47,10.23-5.61,14.36-14.36a31.1,31.1,0,0,0,2.66-9.57,31.48,31.48,0,0,0-1.07-12.24,28.79,28.79,0,0,0-11.17,10.64,36.7,36.7,0,0,0-2.66-4.79,37.19,37.19,0,0,0-4.78-5.85,33.56,33.56,0,0,0-3.73,3.73,33,33,0,0,0-4.25,6.38,26.52,26.52,0,0,0-8-10.11,17.86,17.86,0,0,0-3.19,2.66,18.46,18.46,0,0,0-4.26,7.45,29.25,29.25,0,0,0-2.12-3.72,29.62,29.62,0,0,0-5.85-6.39,24.7,24.7,0,0,0-3.2,3.2,25,25,0,0,0-4.25,7.44,26.4,26.4,0,0,0-2.13-3.19,27.38,27.38,0,0,0-9-7.45,26,26,0,0,0-1.06,3.73,31.37,31.37,0,0,0,7.44,26.59C1093.47,185,1106.21,185.05,1112.08,185.08Z"/><path class="cls-12" d="M1112.08,184.55c6.42-.28,13-2.65,16-3.73a27.16,27.16,0,0,0,2.66-1.06c.92-.45,8.84-4.4,10.63-12.23.36-1.56.94-4.11-.53-5.86a5.21,5.21,0,0,0-3.72-1.59,6.48,6.48,0,0,0-5.85,3.72,5.45,5.45,0,0,0,0-2.66,6.65,6.65,0,0,0-10.11-3.19,6.15,6.15,0,0,0-2.13,3.72,5.47,5.47,0,0,0-.53-2.65,6.86,6.86,0,0,0-8-3.2,7.07,7.07,0,0,0-4.78,6.39,7.11,7.11,0,0,0-2.13-3.19,6.61,6.61,0,0,0-5.32-1.6c-3.17.58-4.52,3.6-4.79,4.25a7.36,7.36,0,0,0-.53,2.66,5.66,5.66,0,0,0-1.06-2.12,5,5,0,0,0-8.51.53,6.11,6.11,0,0,0-.53,4.25c.63,3.91,3.31,6.75,5.32,8.51A37.2,37.2,0,0,0,1112.08,184.55Z"/><path class="cls-13" d="M1112.08,180.29c1.6.24,3.53-4.82,3.72-5.32a17.33,17.33,0,0,0,1.07-9c-.45-2.75-1.32-3.5-1.6-3.72a4.93,4.93,0,0,0-4.25-.54,5.89,5.89,0,0,0-3.19,2.66c-2.77,4.37.82,10.77,1.06,11.17a21.52,21.52,0,0,0,2.13,3.73C1111.65,180.11,1111.85,180.26,1112.08,180.29Z"/><path class="cls-13" d="M1117.92,178.78c.57,1,4.32-.1,4.69-.2a12.48,12.48,0,0,0,5.65-3.37c1.38-1.46,1.43-2.29,1.43-2.55a3.58,3.58,0,0,0-1.56-2.67,4.31,4.31,0,0,0-2.93-.66c-3.72.33-5.81,5.2-5.94,5.51a16.53,16.53,0,0,0-1.2,2.86C1117.83,178.45,1117.84,178.63,1117.92,178.78Z"/><path class="cls-13" d="M1106.24,178.78c-.57,1-4.32-.1-4.69-.2a12.48,12.48,0,0,1-5.65-3.37c-1.38-1.46-1.43-2.29-1.43-2.55A3.58,3.58,0,0,1,1096,170a4.3,4.3,0,0,1,2.93-.66c3.71.33,5.8,5.2,5.93,5.51a15.78,15.78,0,0,1,1.2,2.86C1106.32,178.45,1106.32,178.63,1106.24,178.78Z"/><path class="cls-7" d="M1130,56.08c.06-.13-.9-.78-2-1.18a7,7,0,0,0-1.57-.39,12.47,12.47,0,0,0-4.72,0c-1.8.36-4,1.15-3.92,1.57s1.17.44,2.16.19,1.12-.76,2-1.17c1.63-.81,3.81-.17,7.07.78C1129.49,56,1130,56.17,1130,56.08Z"/><path class="cls-7" d="M1095.88,56.47c-.06-.13.89-.78,2-1.18a7.94,7.94,0,0,1,1.57-.39,12.63,12.63,0,0,1,4.71,0c1.8.36,4,1.15,3.93,1.57s-1.17.45-2.16.2-1.13-.77-2-1.18c-1.63-.8-3.82-.17-7.07.78C1096.43,56.4,1095.92,56.56,1095.88,56.47Z"/><circle class="cls-14" cx="1102.07" cy="60.4" r="2.04"/><circle class="cls-15" cx="1102.07" cy="60.4" r="1.52"/><circle cx="1102.07" cy="60.4" r="1.01"/><circle class="cls-9" cx="1102.75" cy="59.81" r="0.39"/><circle class="cls-14" cx="1123.28" cy="60.79" r="2.04"/><circle class="cls-15" cx="1123.28" cy="60.79" r="1.52"/><circle cx="1123.28" cy="60.79" r="1.01"/><circle class="cls-9" cx="1122.61" cy="60.2" r="0.39"/><circle cx="1114.14" cy="68.84" r="0.39"/><circle cx="1110.99" cy="68.84" r="0.39"/><circle class="cls-2" cx="1255.11" cy="147.38" r="52.62"/><circle class="cls-3" cx="1254.87" cy="63.23" r="31.65"/><path class="cls-2" d="M1223.7,69.23c-.2,0-1.13-.13-1.57.4s-.1,1.67,0,2c1,3,.35,6.3.78,9.42.82,5.91-1.29,12.42-2.35,15.71a48.41,48.41,0,0,1-7.07,13.75l1.18,2.35c-.5.65-1.19,1.59-2,2.75a55.33,55.33,0,0,0-9.82,25.13,53.48,53.48,0,0,0,3.54,25.53,48,48,0,0,0,11,16.88,44.1,44.1,0,0,0,7.47,5.89,41.36,41.36,0,0,0,11.78,5.11c1.28.31,3.6.6,8.24,1.18a60.36,60.36,0,0,0,9.43.78,42.7,42.7,0,0,0,8.24-1.18c1.12-.24,3.12-.82,7.07-2,3.77-1.08,5.65-1.63,6.68-2a74.79,74.79,0,0,0,9-3.54c5.84-2.94,9.26-7.35,11.78-10.6a49.91,49.91,0,0,0,9-19.24,49.07,49.07,0,0,0,1.57-16.89c-1.26-13.76-8.86-23.39-12.56-27.49l1.18-3.14a42.19,42.19,0,0,1-3.54-5.49c-5.25-9.74-5.45-19.2-5.5-24.35a64.84,64.84,0,0,1,.79-10.6l-2-1.18C1250.63,69.05,1225.52,69.4,1223.7,69.23Z"/><path class="cls-4" d="M1253.78,28a33.83,33.83,0,0,0-15.06,4.18,34.57,34.57,0,0,0-14.23,15.07,36.54,36.54,0,0,0-3.34,14.64,41.45,41.45,0,0,0,.41,6.27c1.19,7.83,12.9,23.12,32.22,38.91a105.79,105.79,0,0,0,9.83-6.9c9.46-7.49,22.39-17.73,24.68-33a34.87,34.87,0,0,0-10-29.71,43.06,43.06,0,0,0-5.44-4.18,31.71,31.71,0,0,0-4.6-2.51A33.12,33.12,0,0,0,1253.78,28Z"/><path class="cls-5" d="M1255.11,104.18a30.89,30.89,0,0,0-11-9.42c-3-1.51-4.09-1.37-4.72-1.18-4.64,1.44-6.45,13.13-2.74,15.71.58.4,1.6.8,6.28-.4A54,54,0,0,0,1255.11,104.18Z"/><path class="cls-5" d="M1254.06,104.12a31,31,0,0,1,11-9.43c3-1.5,4.09-1.37,4.72-1.18,4.64,1.45,6.45,13.13,2.75,15.71-.59.41-1.61.8-6.29-.39A54.71,54.71,0,0,1,1254.06,104.12Z"/><path class="cls-5" d="M1252.76,104.18q-1.23,5.58-2.75,11.39c-2.59,9.86-5.53,19-8.64,27.49l4.32-2.36c-.26,3.1-.26,4.67,0,4.72q1.11.18,8.64-37.31C1253.8,106.8,1253.28,105.49,1252.76,104.18Z"/><path class="cls-5" d="M1255.9,104.18q1.23,5.58,2.75,11.39c2.58,9.86,5.52,19,8.64,27.49L1263,140.7c.26,3.1.26,4.67,0,4.72q-1.12.18-8.64-37.31C1254.85,106.8,1255.37,105.49,1255.9,104.18Z"/><circle class="cls-5" cx="1254.72" cy="105.75" r="3.14"/><circle class="cls-6" cx="1254.89" cy="61.97" r="24.94"/><path class="cls-7" d="M1231.29,51.32a2.9,2.9,0,0,1,.13-.27,31.15,31.15,0,0,1,4.55-6.5A28.71,28.71,0,0,1,1250,36.74a25.75,25.75,0,0,1,11.46.52s7.55,2.09,12.5,7.81a34.41,34.41,0,0,1,4.16,6.25c.23.44.41.8.52,1l-17.18,1-1.56-4.16-1.56,4.16h-9.9c-.35-1.73-.69-3.47-1-5.2l-2.08,4.68c-2.93,0-6.07-.17-9.38-.52-1.43-.15-2.82-.32-4.16-.52h-1"/><path class="cls-8" d="M1252,76.86a2.2,2.2,0,0,1-.16-1.68,1.51,1.51,0,0,1,1-.94,1.9,1.9,0,0,1,1.92,1.65,2.07,2.07,0,0,1,.33-1c.09-.13.7-1.06,1.61-.93A1.64,1.64,0,0,1,1258,75.3a1.94,1.94,0,0,1-.23,1.29,6.89,6.89,0,0,1-3.26,2.85A5.35,5.35,0,0,1,1252,76.86Z"/><path d="M1239.46,60.89a3,3,0,0,1-2.07-1.43,2.34,2.34,0,0,1-.22-.75,5.31,5.31,0,0,0,.35.51,4.61,4.61,0,0,0,.61.64,4.46,4.46,0,0,0,1.46.79"/><path d="M1239.83,60.23A2.7,2.7,0,0,1,1238,59a2.46,2.46,0,0,1-.2-.68c.08.12.18.28.32.46a4.21,4.21,0,0,0,.54.57A4,4,0,0,0,1240,60"/><path d="M1240.41,59.9a2.24,2.24,0,0,1-1.58-1.09,1.74,1.74,0,0,1-.17-.57l.27.39a4.53,4.53,0,0,0,.46.48,3.76,3.76,0,0,0,1.12.61"/><path d="M1241,59.57a1.89,1.89,0,0,1-1.29-.89,1.64,1.64,0,0,1-.14-.47l.22.32a3.16,3.16,0,0,0,.38.39,2.64,2.64,0,0,0,.92.5"/><path class="cls-9" d="M1249.8,61.18c.25-.89-2.22-2.89-4.71-3.14-3-.29-6.1,1.93-5.89,3.14s3.82,1.48,5.11,1.57a10.51,10.51,0,0,0,5.1-1.17A.7.7,0,0,0,1249.8,61.18Z"/><path d="M1244.59,62.86h-.29c-1.36-.09-5-.35-5.2-1.65a1.63,1.63,0,0,1,.58-1.28,7.15,7.15,0,0,1,5.42-2,7,7,0,0,1,4.56,2.44,1,1,0,0,1,.24.83h0a.77.77,0,0,1-.44.45A10.87,10.87,0,0,1,1244.59,62.86Zm0-4.75a7,7,0,0,0-4.73,1.94,1.47,1.47,0,0,0-.52,1.12c.19,1.15,3.82,1.4,5,1.49a10.67,10.67,0,0,0,5.06-1.17c.1-.06.29-.16.34-.33h0a.88.88,0,0,0-.21-.67,6.89,6.89,0,0,0-4.42-2.35A4.71,4.71,0,0,0,1244.55,58.11Z"/><path d="M1270.76,61.16a3,3,0,0,0,2.06-1.43,2.25,2.25,0,0,0,.23-.76,3.52,3.52,0,0,1-.36.51,3.95,3.95,0,0,1-2.07,1.43"/><path d="M1270.38,60.5a2.7,2.7,0,0,0,1.86-1.29,2.2,2.2,0,0,0,.21-.68,4.17,4.17,0,0,1-.33.46,3.56,3.56,0,0,1-.54.58,4.42,4.42,0,0,1-1.31.71"/><path d="M1269.81,60.17a2.3,2.3,0,0,0,1.57-1.09,1.83,1.83,0,0,0,.18-.58,4.41,4.41,0,0,1-.28.39,4,4,0,0,1-.45.49,3.48,3.48,0,0,1-1.12.6"/><path d="M1269.23,59.84a1.87,1.87,0,0,0,1.3-.9,1.55,1.55,0,0,0,.14-.47,3.43,3.43,0,0,1-.23.32,2.38,2.38,0,0,1-1.29.89"/><path class="cls-9" d="M1260.41,61.58c-.25-.89,2.23-2.9,4.72-3.15,3-.29,6.09,1.93,5.89,3.15s-3.82,1.48-5.11,1.57a10.59,10.59,0,0,1-5.1-1.18A.72.72,0,0,1,1260.41,61.58Z"/><path d="M1265.63,63.25a10.87,10.87,0,0,1-4.87-1.2.77.77,0,0,1-.44-.45,1.06,1.06,0,0,1,.24-.83,7,7,0,0,1,4.56-2.43,7.16,7.16,0,0,1,5.42,2,1.58,1.58,0,0,1,.57,1.28c-.22,1.31-3.83,1.56-5.19,1.65Zm0-4.74a4.61,4.61,0,0,0-.53,0,6.89,6.89,0,0,0-4.42,2.35.84.84,0,0,0-.21.67h0a.6.6,0,0,0,.34.33,10.52,10.52,0,0,0,5.05,1.17c1.2-.09,4.82-.34,5-1.49a1.45,1.45,0,0,0-.52-1.11A7,7,0,0,0,1265.67,58.51Z"/><circle class="cls-10" cx="1242.15" cy="69.63" r="3.93"/><circle class="cls-10" cx="1267.68" cy="69.63" r="3.93"/><path class="cls-11" d="M1254.63,185.08a37.74,37.74,0,0,0,18.61-4.26c2.75-1.47,10.24-5.61,14.36-14.36a30.52,30.52,0,0,0,2.66-9.57,31.32,31.32,0,0,0-1.06-12.24A28.61,28.61,0,0,0,1278,155.29a36.44,36.44,0,0,0-7.45-10.64,34.42,34.42,0,0,0-3.72,3.73,32.09,32.09,0,0,0-4.25,6.38,26.52,26.52,0,0,0-8-10.11,17.86,17.86,0,0,0-3.19,2.66,18.46,18.46,0,0,0-4.26,7.45,28.22,28.22,0,0,0-2.13-3.72,29.37,29.37,0,0,0-5.85-6.39,24.68,24.68,0,0,0-3.19,3.2,25,25,0,0,0-4.25,7.44,26.4,26.4,0,0,0-2.13-3.19,27.38,27.38,0,0,0-9-7.45,27.2,27.2,0,0,0-1.07,3.73A31.41,31.41,0,0,0,1227,175C1236,185,1248.76,185.05,1254.63,185.08Z"/><path class="cls-12" d="M1254.63,184.55c6.42-.28,13-2.65,15.95-3.73a26.18,26.18,0,0,0,2.66-1.06c.93-.45,8.85-4.4,10.64-12.23.36-1.56.94-4.11-.53-5.86a5.21,5.21,0,0,0-3.72-1.59,6.48,6.48,0,0,0-5.85,3.72,5.58,5.58,0,0,0,0-2.66,6.65,6.65,0,0,0-10.11-3.19,6.15,6.15,0,0,0-2.13,3.72A5.47,5.47,0,0,0,1261,159a6.87,6.87,0,0,0-8-3.2,7.06,7.06,0,0,0-4.78,6.39,7.2,7.2,0,0,0-2.13-3.19,6.61,6.61,0,0,0-5.32-1.6c-3.17.58-4.52,3.6-4.79,4.25a7.36,7.36,0,0,0-.53,2.66,5.82,5.82,0,0,0-1.06-2.12,5,5,0,0,0-8.51.53,6.15,6.15,0,0,0-.54,4.25c.64,3.91,3.32,6.75,5.32,8.51A37.24,37.24,0,0,0,1254.63,184.55Z"/><path class="cls-13" d="M1254.63,180.29c1.6.24,3.53-4.82,3.72-5.32a17.44,17.44,0,0,0,1.07-9c-.45-2.75-1.32-3.5-1.6-3.72a5,5,0,0,0-4.26-.54,6,6,0,0,0-3.19,2.66c-2.76,4.37.83,10.77,1.07,11.17a21.42,21.42,0,0,0,2.12,3.73C1254.2,180.11,1254.4,180.26,1254.63,180.29Z"/><path class="cls-13" d="M1260.47,178.78c.56,1,4.31-.1,4.68-.2a12.36,12.36,0,0,0,5.65-3.37c1.39-1.46,1.44-2.29,1.44-2.55a3.56,3.56,0,0,0-1.57-2.67,4.29,4.29,0,0,0-2.92-.66c-3.72.33-5.81,5.2-5.94,5.51a15.78,15.78,0,0,0-1.2,2.86C1260.38,178.45,1260.39,178.63,1260.47,178.78Z"/><path class="cls-13" d="M1248.78,178.78c-.56,1-4.31-.1-4.68-.2a12.42,12.42,0,0,1-5.65-3.37c-1.38-1.46-1.43-2.29-1.44-2.55a3.61,3.61,0,0,1,1.57-2.67,4.29,4.29,0,0,1,2.92-.66c3.72.33,5.81,5.2,5.94,5.51a15.78,15.78,0,0,1,1.2,2.86C1248.87,178.45,1248.87,178.63,1248.78,178.78Z"/><path class="cls-7" d="M1272.59,56.08a4.46,4.46,0,0,0-2-1.18,6.75,6.75,0,0,0-1.57-.39,12.42,12.42,0,0,0-4.71,0c-1.8.36-4,1.15-3.93,1.57s1.18.44,2.16.19,1.13-.76,2-1.17c1.63-.81,3.81-.17,7.07.78C1272,56,1272.55,56.17,1272.59,56.08Z"/><path class="cls-7" d="M1238.42,56.47a4.46,4.46,0,0,1,2-1.18,7.94,7.94,0,0,1,1.57-.39,12.63,12.63,0,0,1,4.71,0c1.8.36,4,1.15,3.93,1.57s-1.18.45-2.16.2-1.13-.77-2-1.18c-1.62-.8-3.81-.17-7.06.78C1239,56.4,1238.47,56.56,1238.42,56.47Z"/><circle class="cls-14" cx="1244.62" cy="60.4" r="2.04"/><circle class="cls-15" cx="1244.62" cy="60.4" r="1.52"/><circle cx="1244.62" cy="60.4" r="1.01"/><circle class="cls-9" cx="1245.3" cy="59.81" r="0.39"/><circle class="cls-14" cx="1265.83" cy="60.79" r="2.04"/><circle class="cls-15" cx="1265.83" cy="60.79" r="1.52"/><circle cx="1265.83" cy="60.79" r="1.01"/><circle class="cls-9" cx="1265.15" cy="60.2" r="0.39"/><circle cx="1256.68" cy="68.84" r="0.39"/><circle cx="1253.54" cy="68.84" r="0.39"/><circle class="cls-2" cx="1395.7" cy="147.38" r="52.62"/><circle class="cls-3" cx="1395.46" cy="63.23" r="31.65"/><path class="cls-2" d="M1364.28,69.23c-.19,0-1.13-.13-1.57.4s-.1,1.67,0,2c1,3,.35,6.3.79,9.42.82,5.91-1.29,12.42-2.36,15.71a48.41,48.41,0,0,1-7.07,13.75l1.18,2.35c-.49.65-1.18,1.59-2,2.75a55.33,55.33,0,0,0-9.82,25.13,53.43,53.43,0,0,0,3.53,25.53,48.25,48.25,0,0,0,11,16.88,44.16,44.16,0,0,0,7.46,5.89,41.36,41.36,0,0,0,11.78,5.11c1.28.31,3.6.6,8.25,1.18a60.25,60.25,0,0,0,9.42.78,42.7,42.7,0,0,0,8.25-1.18c1.11-.24,3.11-.82,7.07-2,3.76-1.08,5.64-1.63,6.67-2a74.14,74.14,0,0,0,9-3.54c5.84-2.94,9.26-7.35,11.79-10.6a50.22,50.22,0,0,0,9-19.24,49.58,49.58,0,0,0,1.57-16.89c-1.27-13.76-8.87-23.39-12.57-27.49l1.18-3.14a42.31,42.31,0,0,1-3.53-5.49c-5.26-9.74-5.45-19.2-5.5-24.35a63.55,63.55,0,0,1,.78-10.6l-2-1.18C1391.21,69.05,1366.11,69.4,1364.28,69.23Z"/><path class="cls-4" d="M1394.36,28a33.92,33.92,0,0,0-15.06,4.18,34.51,34.51,0,0,0-14.22,15.07,36.66,36.66,0,0,0-3.35,14.64,42.25,42.25,0,0,0,.42,6.27c1.18,7.83,12.89,23.12,32.21,38.91a105.79,105.79,0,0,0,9.83-6.9c9.46-7.49,22.4-17.73,24.69-33a35.13,35.13,0,0,0-.42-12.14,34.56,34.56,0,0,0-9.62-17.57,43.06,43.06,0,0,0-5.44-4.18,32.45,32.45,0,0,0-4.61-2.51A33,33,0,0,0,1394.36,28Z"/><path class="cls-5" d="M1395.7,104.18a30.9,30.9,0,0,0-11-9.42c-3-1.51-4.08-1.37-4.71-1.18-4.65,1.44-6.45,13.13-2.75,15.71.58.4,1.61.8,6.28-.4A54.34,54.34,0,0,0,1395.7,104.18Z"/><path class="cls-5" d="M1394.64,104.12a31.06,31.06,0,0,1,11-9.43c3-1.5,4.08-1.37,4.71-1.18,4.65,1.45,6.45,13.13,2.75,15.71-.58.41-1.61.8-6.28-.39A54.82,54.82,0,0,1,1394.64,104.12Z"/><path class="cls-5" d="M1393.34,104.18q-1.23,5.58-2.75,11.39c-2.58,9.86-5.53,19-8.64,27.49l4.32-2.36c-.26,3.1-.26,4.67,0,4.72q1.13.18,8.64-37.31Z"/><path class="cls-5" d="M1396.48,104.18q1.23,5.58,2.75,11.39c2.59,9.86,5.53,19,8.64,27.49l-4.32-2.36c.26,3.1.26,4.67,0,4.72q-1.11.18-8.64-37.31C1395.44,106.8,1396,105.49,1396.48,104.18Z"/><circle class="cls-5" cx="1395.3" cy="105.75" r="3.14"/><circle class="cls-6" cx="1395.47" cy="61.97" r="24.94"/><path class="cls-7" d="M1371.87,51.32c0-.06.08-.15.13-.27a31,31,0,0,1,4.56-6.5,28.71,28.71,0,0,1,14.06-7.81,25.71,25.71,0,0,1,11.45.52s7.55,2.09,12.5,7.81a34.32,34.32,0,0,1,4.17,6.25c.23.44.4.8.52,1l-17.19,1-1.56-4.16L1399,53.4h-9.89l-1-5.2q-1,2.34-2.08,4.68c-2.93,0-6.06-.17-9.37-.52-1.43-.15-2.82-.32-4.17-.52h-1"/><path class="cls-8" d="M1392.62,76.86a2.16,2.16,0,0,1-.16-1.68,1.49,1.49,0,0,1,1-.94,1.91,1.91,0,0,1,1.92,1.65,2.07,2.07,0,0,1,.33-1c.08-.13.69-1.06,1.6-.93a1.62,1.62,0,0,1,1.25,1.29,1.88,1.88,0,0,1-.23,1.29,6.87,6.87,0,0,1-3.25,2.85A5.3,5.3,0,0,1,1392.62,76.86Z"/><path d="M1380.05,60.89a3,3,0,0,1-2.07-1.43,2.37,2.37,0,0,1-.23-.75,5.69,5.69,0,0,0,.36.51,5.05,5.05,0,0,0,.6.64,4.56,4.56,0,0,0,1.47.79"/><path d="M1380.42,60.23a2.7,2.7,0,0,1-1.86-1.28,1.92,1.92,0,0,1-.2-.68,4.45,4.45,0,0,0,.32.46,3.65,3.65,0,0,0,.54.57,3.84,3.84,0,0,0,1.32.71"/><path d="M1381,59.9a2.23,2.23,0,0,1-1.57-1.09,1.74,1.74,0,0,1-.17-.57,3.55,3.55,0,0,0,.27.39,3.09,3.09,0,0,0,.46.48,3.77,3.77,0,0,0,1.11.61"/><path d="M1381.57,59.57a1.85,1.85,0,0,1-1.29-.89,1.41,1.41,0,0,1-.15-.47l.23.32a3.76,3.76,0,0,0,.37.39,2.83,2.83,0,0,0,.92.5"/><path class="cls-9" d="M1390.39,61.18c.25-.89-2.23-2.89-4.71-3.14-3-.29-6.1,1.93-5.89,3.14s3.81,1.48,5.1,1.57a10.56,10.56,0,0,0,5.11-1.17A.73.73,0,0,0,1390.39,61.18Z"/><path d="M1385.17,62.86h-.29c-1.36-.09-5-.35-5.19-1.65a1.62,1.62,0,0,1,.57-1.28,7.15,7.15,0,0,1,5.43-2,7,7,0,0,1,4.56,2.44,1,1,0,0,1,.23.83h0a.77.77,0,0,1-.44.45A10.85,10.85,0,0,1,1385.17,62.86Zm0-4.75a7,7,0,0,0-4.73,1.94,1.5,1.5,0,0,0-.52,1.12c.2,1.15,3.82,1.4,5,1.49a10.66,10.66,0,0,0,5-1.17c.1-.06.29-.16.34-.33h0a.84.84,0,0,0-.21-.67,6.86,6.86,0,0,0-4.41-2.35Z"/><path d="M1411.34,61.16a3,3,0,0,0,2.07-1.43,2.22,2.22,0,0,0,.22-.76,4.3,4.3,0,0,1-.35.51,4.45,4.45,0,0,1-.6.64,4.56,4.56,0,0,1-1.47.79"/><path d="M1411,60.5a2.72,2.72,0,0,0,1.86-1.29,2.16,2.16,0,0,0,.2-.68,3.94,3.94,0,0,1-.32.46,4.82,4.82,0,0,1-.54.58,4.41,4.41,0,0,1-1.32.71"/><path d="M1410.39,60.17a2.31,2.31,0,0,0,1.58-1.09,1.79,1.79,0,0,0,.17-.58,2.8,2.8,0,0,1-.27.39,4.33,4.33,0,0,1-.46.49,3.37,3.37,0,0,1-1.12.6"/><path d="M1409.82,59.84a1.86,1.86,0,0,0,1.29-.9,1.55,1.55,0,0,0,.14-.47,2.06,2.06,0,0,1-.22.32,2.54,2.54,0,0,1-.38.4,2.82,2.82,0,0,1-.91.49"/><path class="cls-9" d="M1401,61.58c-.25-.89,2.23-2.9,4.71-3.15,3-.29,6.1,1.93,5.89,3.15s-3.82,1.48-5.1,1.57a10.64,10.64,0,0,1-5.11-1.18A.71.71,0,0,1,1401,61.58Z"/><path d="M1406.21,63.25a10.81,10.81,0,0,1-4.86-1.2.81.81,0,0,1-.45-.45,1.06,1.06,0,0,1,.24-.83,7,7,0,0,1,4.56-2.43,7.16,7.16,0,0,1,5.43,2,1.65,1.65,0,0,1,.57,1.28c-.22,1.31-3.84,1.56-5.2,1.65Zm0-4.74a4.78,4.78,0,0,0-.53,0,6.91,6.91,0,0,0-4.42,2.35.92.92,0,0,0-.21.67h0a.59.59,0,0,0,.35.33,10.5,10.5,0,0,0,5,1.17c1.19-.09,4.82-.34,5-1.49a1.42,1.42,0,0,0-.52-1.11A7,7,0,0,0,1406.25,58.51Z"/><circle class="cls-10" cx="1382.74" cy="69.63" r="3.93"/><circle class="cls-10" cx="1408.26" cy="69.63" r="3.93"/><path class="cls-11" d="M1395.21,185.08a37.77,37.77,0,0,0,18.62-4.26c2.74-1.47,10.23-5.61,14.36-14.36a30.52,30.52,0,0,0,2.66-9.57,31.48,31.48,0,0,0-1.07-12.24,28.7,28.7,0,0,0-11.16,10.64,36.44,36.44,0,0,0-7.45-10.64,33.18,33.18,0,0,0-8,10.11,26.52,26.52,0,0,0-8-10.11,17.94,17.94,0,0,0-7.44,10.11,29.34,29.34,0,0,0-8-10.11,24.07,24.07,0,0,0-3.19,3.2,24.83,24.83,0,0,0-4.26,7.44,26.4,26.4,0,0,0-2.13-3.19,27.28,27.28,0,0,0-9-7.45,26,26,0,0,0-1.06,3.73,31.4,31.4,0,0,0,7.44,26.59C1376.6,185,1389.35,185.05,1395.21,185.08Z"/><path class="cls-12" d="M1395.21,184.55c6.42-.28,13-2.65,16-3.73a26.18,26.18,0,0,0,2.66-1.06c.93-.45,8.85-4.4,10.64-12.23.35-1.56.93-4.11-.54-5.86a5.21,5.21,0,0,0-3.72-1.59,6.37,6.37,0,0,0-4.79,2.13,6.57,6.57,0,0,0-1.06,1.59,5.45,5.45,0,0,0,0-2.66,6.65,6.65,0,0,0-10.11-3.19,6.07,6.07,0,0,0-2.12,3.72,5.59,5.59,0,0,0-.53-2.65,6.88,6.88,0,0,0-8-3.2,7.07,7.07,0,0,0-4.79,6.39,7,7,0,0,0-2.13-3.19,6.61,6.61,0,0,0-5.32-1.6c-3.16.58-4.51,3.6-4.78,4.25a7.41,7.41,0,0,0-.54,2.66,5.66,5.66,0,0,0-1.06-2.12,5,5,0,0,0-8.51.53A6.23,6.23,0,0,0,1366,167c.63,3.91,3.31,6.75,5.32,8.51A37.22,37.22,0,0,0,1395.21,184.55Z"/><path class="cls-13" d="M1395.21,180.29c1.61.24,3.54-4.82,3.73-5.32a17.41,17.41,0,0,0,1.06-9c-.44-2.75-1.31-3.5-1.6-3.72a4.93,4.93,0,0,0-4.25-.54,5.89,5.89,0,0,0-3.19,2.66c-2.77,4.37.83,10.77,1.06,11.17a21.52,21.52,0,0,0,2.13,3.73C1394.78,180.11,1395,180.26,1395.21,180.29Z"/><path class="cls-13" d="M1401.05,178.78c.57,1,4.32-.1,4.69-.2a12.48,12.48,0,0,0,5.65-3.37c1.38-1.46,1.43-2.29,1.43-2.55a3.58,3.58,0,0,0-1.56-2.67,4.3,4.3,0,0,0-2.93-.66c-3.71.33-5.8,5.2-5.93,5.51a15.78,15.78,0,0,0-1.2,2.86C1401,178.45,1401,178.63,1401.05,178.78Z"/><path class="cls-13" d="M1389.37,178.78c-.57,1-4.32-.1-4.69-.2a12.48,12.48,0,0,1-5.65-3.37c-1.38-1.46-1.43-2.29-1.43-2.55a3.58,3.58,0,0,1,1.56-2.67,4.31,4.31,0,0,1,2.93-.66c3.71.33,5.81,5.2,5.94,5.51a16.53,16.53,0,0,1,1.2,2.86C1389.46,178.45,1389.45,178.63,1389.37,178.78Z"/><path class="cls-7" d="M1413.17,56.08c.06-.13-.9-.78-2-1.18a6.87,6.87,0,0,0-1.57-.39,12.42,12.42,0,0,0-4.71,0c-1.8.36-4,1.15-3.93,1.57s1.17.44,2.16.19,1.12-.76,2-1.17c1.63-.81,3.82-.17,7.07.78C1412.62,56,1413.13,56.17,1413.17,56.08Z"/><path class="cls-7" d="M1379,56.47c-.06-.13.9-.78,2-1.18a8.11,8.11,0,0,1,1.57-.39,12.68,12.68,0,0,1,4.72,0c1.79.36,4,1.15,3.92,1.57s-1.17.45-2.16.2-1.12-.77-2-1.18c-1.63-.8-3.82-.17-7.07.78C1379.56,56.4,1379.05,56.56,1379,56.47Z"/><circle class="cls-14" cx="1385.21" cy="60.4" r="2.04"/><circle class="cls-15" cx="1385.21" cy="60.4" r="1.52"/><circle cx="1385.21" cy="60.4" r="1.01"/><circle class="cls-9" cx="1385.88" cy="59.81" r="0.39"/><circle class="cls-14" cx="1406.41" cy="60.79" r="2.04"/><circle class="cls-15" cx="1406.41" cy="60.79" r="1.52"/><circle cx="1406.41" cy="60.79" r="1.01"/><circle class="cls-9" cx="1405.74" cy="60.2" r="0.39"/><circle cx="1397.27" cy="68.84" r="0.39"/><circle cx="1394.13" cy="68.84" r="0.39"/><circle class="cls-2" cx="1530.25" cy="147.38" r="52.62"/><circle class="cls-3" cx="1530.02" cy="63.23" r="31.65"/><path class="cls-2" d="M1498.84,69.23c-.2,0-1.13-.13-1.57.4s-.1,1.67,0,2c1,3,.35,6.3.78,9.42.82,5.91-1.29,12.42-2.35,15.71a48.41,48.41,0,0,1-7.07,13.75l1.18,2.35c-.49.65-1.19,1.59-2,2.75A55.47,55.47,0,0,0,1478,140.7a53.3,53.3,0,0,0,3.53,25.53,48.25,48.25,0,0,0,11,16.88A43.76,43.76,0,0,0,1500,189a41.36,41.36,0,0,0,11.78,5.11c1.28.31,3.6.6,8.24,1.18a60.44,60.44,0,0,0,9.43.78,42.82,42.82,0,0,0,8.25-1.18c1.11-.24,3.11-.82,7.06-2,3.77-1.08,5.65-1.63,6.68-2a74.14,74.14,0,0,0,9-3.54c5.84-2.94,9.26-7.35,11.78-10.6a49.91,49.91,0,0,0,9-19.24,49.26,49.26,0,0,0,1.58-16.89c-1.27-13.76-8.87-23.39-12.57-27.49l1.18-3.14a43.27,43.27,0,0,1-3.54-5.49c-5.25-9.74-5.45-19.2-5.49-24.35a63.55,63.55,0,0,1,.78-10.6l-2-1.18C1525.77,69.05,1500.67,69.4,1498.84,69.23Z"/><path class="cls-4" d="M1528.92,28a33.83,33.83,0,0,0-15.06,4.18,34.57,34.57,0,0,0-14.23,15.07,36.54,36.54,0,0,0-3.34,14.64,40.73,40.73,0,0,0,.42,6.27c1.18,7.83,12.89,23.12,32.21,38.91a105.79,105.79,0,0,0,9.83-6.9c9.46-7.49,22.39-17.73,24.68-33a34.87,34.87,0,0,0-10-29.71,43.06,43.06,0,0,0-5.44-4.18,31.71,31.71,0,0,0-4.6-2.51A33,33,0,0,0,1528.92,28Z"/><path class="cls-5" d="M1530.25,104.18a30.81,30.81,0,0,0-11-9.42c-3-1.51-4.09-1.37-4.71-1.18-4.65,1.44-6.46,13.13-2.75,15.71.58.4,1.6.8,6.28-.4A54,54,0,0,0,1530.25,104.18Z"/><path class="cls-5" d="M1529.2,104.12a31,31,0,0,1,11-9.43c3-1.5,4.08-1.37,4.71-1.18,4.64,1.45,6.45,13.13,2.75,15.71-.59.41-1.61.8-6.29-.39A54.71,54.71,0,0,1,1529.2,104.12Z"/><path class="cls-5" d="M1527.9,104.18q-1.23,5.58-2.75,11.39c-2.59,9.86-5.53,19-8.64,27.49l4.32-2.36c-.26,3.1-.26,4.67,0,4.72q1.11.18,8.64-37.31Z"/><path class="cls-5" d="M1531,104.18q1.23,5.58,2.75,11.39c2.58,9.86,5.53,19,8.64,27.49l-4.32-2.36c.26,3.1.26,4.67,0,4.72q-1.12.18-8.64-37.31Z"/><circle class="cls-5" cx="1529.86" cy="105.75" r="3.14"/><circle class="cls-6" cx="1530.03" cy="61.97" r="24.94"/><path class="cls-7" d="M1506.43,51.32l.13-.27a31.15,31.15,0,0,1,4.55-6.5,28.71,28.71,0,0,1,14.06-7.81,25.75,25.75,0,0,1,11.46.52s7.55,2.09,12.5,7.81a34.41,34.41,0,0,1,4.16,6.25c.23.44.41.8.53,1l-17.19,1-1.56-4.16-1.56,4.16h-9.9c-.34-1.73-.69-3.47-1-5.2l-2.08,4.68c-2.93,0-6.07-.17-9.38-.52-1.43-.15-2.82-.32-4.16-.52h-1"/><path class="cls-8" d="M1527.17,76.86a2.2,2.2,0,0,1-.16-1.68,1.53,1.53,0,0,1,1-.94,1.9,1.9,0,0,1,1.92,1.65,2.23,2.23,0,0,1,.34-1c.08-.13.69-1.06,1.6-.93a1.64,1.64,0,0,1,1.25,1.29,1.94,1.94,0,0,1-.23,1.29,6.89,6.89,0,0,1-3.26,2.85A5.35,5.35,0,0,1,1527.17,76.86Z"/><path d="M1514.6,60.89a3,3,0,0,1-2.07-1.43,2.34,2.34,0,0,1-.22-.75,4.17,4.17,0,0,0,.36.51,4.39,4.39,0,0,0,.6.64,4.56,4.56,0,0,0,1.46.79"/><path d="M1515,60.23a2.67,2.67,0,0,1-1.85-1.28,2.2,2.2,0,0,1-.21-.68l.32.46a3.84,3.84,0,0,0,.55.57,3.93,3.93,0,0,0,1.31.71"/><path d="M1515.55,59.9a2.26,2.26,0,0,1-1.58-1.09,1.74,1.74,0,0,1-.17-.57l.27.39a4.53,4.53,0,0,0,.46.48,3.89,3.89,0,0,0,1.12.61"/><path d="M1516.12,59.57a1.89,1.89,0,0,1-1.29-.89,1.64,1.64,0,0,1-.14-.47l.22.32a4.16,4.16,0,0,0,.38.39,2.83,2.83,0,0,0,.92.5"/><path class="cls-9" d="M1525,61.18c.24-.89-2.23-2.89-4.72-3.14-3-.29-6.09,1.93-5.89,3.14s3.82,1.48,5.11,1.57a10.51,10.51,0,0,0,5.1-1.17A.71.71,0,0,0,1525,61.18Z"/><path d="M1519.73,62.86h-.29c-1.36-.09-5-.35-5.19-1.65a1.58,1.58,0,0,1,.57-1.28,7.11,7.11,0,0,1,5.42-2,7,7,0,0,1,4.56,2.44,1,1,0,0,1,.24.83h0a.77.77,0,0,1-.44.45A10.87,10.87,0,0,1,1519.73,62.86Zm0-4.75a7,7,0,0,0-4.73,1.94,1.47,1.47,0,0,0-.52,1.12c.19,1.15,3.82,1.4,5,1.49a10.67,10.67,0,0,0,5.06-1.17c.1-.06.29-.16.34-.33a.88.88,0,0,0-.21-.67,6.89,6.89,0,0,0-4.42-2.35A4.58,4.58,0,0,0,1519.69,58.11Z"/><path d="M1545.9,61.16a3,3,0,0,0,2.07-1.43,2.46,2.46,0,0,0,.22-.76,5.43,5.43,0,0,1-1,1.15,4.56,4.56,0,0,1-1.46.79"/><path d="M1545.53,60.5a2.69,2.69,0,0,0,1.85-1.29,2.2,2.2,0,0,0,.21-.68,3.94,3.94,0,0,1-.32.46,4.82,4.82,0,0,1-.54.58,4.53,4.53,0,0,1-1.32.71"/><path d="M1545,60.17a2.33,2.33,0,0,0,1.58-1.09,1.79,1.79,0,0,0,.17-.58l-.27.39a5.54,5.54,0,0,1-.46.49,3.48,3.48,0,0,1-1.12.6"/><path d="M1544.38,59.84a1.88,1.88,0,0,0,1.29-.9,1.55,1.55,0,0,0,.14-.47,3,3,0,0,1-.6.72,2.92,2.92,0,0,1-.92.49"/><path class="cls-9" d="M1535.56,61.58c-.25-.89,2.22-2.9,4.71-3.15,3-.29,6.09,1.93,5.89,3.15s-3.82,1.48-5.11,1.57A10.59,10.59,0,0,1,1536,62,.71.71,0,0,1,1535.56,61.58Z"/><path d="M1540.77,63.25a10.87,10.87,0,0,1-4.87-1.2.77.77,0,0,1-.44-.45h0a1.06,1.06,0,0,1,.24-.83,7,7,0,0,1,4.56-2.43,7.14,7.14,0,0,1,5.42,2,1.63,1.63,0,0,1,.58,1.28c-.23,1.31-3.84,1.56-5.2,1.65Zm-5.12-1.7a.6.6,0,0,0,.34.33,10.53,10.53,0,0,0,5.06,1.17c1.19-.09,4.82-.34,5-1.49a1.45,1.45,0,0,0-.52-1.11,6.51,6.51,0,0,0-9.68.43.88.88,0,0,0-.21.67Z"/><circle class="cls-10" cx="1517.3" cy="69.63" r="3.93"/><circle class="cls-10" cx="1542.82" cy="69.63" r="3.93"/><path class="cls-11" d="M1529.77,185.08a37.77,37.77,0,0,0,18.62-4.26c2.74-1.47,10.23-5.61,14.36-14.36a31.1,31.1,0,0,0,2.66-9.57,31.48,31.48,0,0,0-1.07-12.24,28.79,28.79,0,0,0-11.17,10.64,36.7,36.7,0,0,0-2.66-4.79,37.19,37.19,0,0,0-4.78-5.85,33.56,33.56,0,0,0-3.73,3.73,33,33,0,0,0-4.25,6.38,26.52,26.52,0,0,0-8-10.11,17.86,17.86,0,0,0-3.19,2.66,18.46,18.46,0,0,0-4.26,7.45,29.25,29.25,0,0,0-2.12-3.72,29.62,29.62,0,0,0-5.85-6.39,24.7,24.7,0,0,0-3.2,3.2,25,25,0,0,0-4.25,7.44,26.4,26.4,0,0,0-2.13-3.19,27.38,27.38,0,0,0-9-7.45,26,26,0,0,0-1.06,3.73,31.37,31.37,0,0,0,7.44,26.59C1511.16,185,1523.9,185.05,1529.77,185.08Z"/><path class="cls-12" d="M1529.77,184.55c6.42-.28,13-2.65,16-3.73a28.22,28.22,0,0,0,2.66-1.06c.92-.45,8.84-4.4,10.63-12.23.36-1.56.94-4.11-.53-5.86a5.21,5.21,0,0,0-3.72-1.59,6.48,6.48,0,0,0-5.85,3.72,5.45,5.45,0,0,0,0-2.66,6.65,6.65,0,0,0-10.11-3.19,6.15,6.15,0,0,0-2.13,3.72,5.47,5.47,0,0,0-.53-2.65,6.86,6.86,0,0,0-8-3.2,7.06,7.06,0,0,0-4.78,6.39,7.2,7.2,0,0,0-2.13-3.19,6.61,6.61,0,0,0-5.32-1.6c-3.17.58-4.52,3.6-4.79,4.25a7.36,7.36,0,0,0-.53,2.66,5.66,5.66,0,0,0-1.06-2.12,5,5,0,0,0-8.51.53,6.11,6.11,0,0,0-.53,4.25c.63,3.91,3.31,6.75,5.31,8.51A37.24,37.24,0,0,0,1529.77,184.55Z"/><path class="cls-13" d="M1529.77,180.29c1.6.24,3.53-4.82,3.72-5.32a17.33,17.33,0,0,0,1.07-9c-.45-2.75-1.32-3.5-1.6-3.72a4.93,4.93,0,0,0-4.25-.54,6,6,0,0,0-3.2,2.66c-2.76,4.37.83,10.77,1.07,11.17a21.52,21.52,0,0,0,2.13,3.73C1529.34,180.11,1529.54,180.26,1529.77,180.29Z"/><path class="cls-13" d="M1535.61,178.78c.57,1,4.32-.1,4.68-.2a12.47,12.47,0,0,0,5.66-3.37c1.38-1.46,1.43-2.29,1.43-2.55a3.58,3.58,0,0,0-1.56-2.67,4.31,4.31,0,0,0-2.93-.66c-3.72.33-5.81,5.2-5.94,5.51a15.78,15.78,0,0,0-1.2,2.86C1535.52,178.45,1535.53,178.63,1535.61,178.78Z"/><path class="cls-13" d="M1523.93,178.78c-.57,1-4.32-.1-4.69-.2a12.48,12.48,0,0,1-5.65-3.37c-1.38-1.46-1.43-2.29-1.43-2.55a3.58,3.58,0,0,1,1.56-2.67,4.3,4.3,0,0,1,2.93-.66c3.71.33,5.8,5.2,5.93,5.51a15.78,15.78,0,0,1,1.2,2.86C1524,178.45,1524,178.63,1523.93,178.78Z"/><path class="cls-7" d="M1547.73,56.08c.06-.13-.9-.78-2-1.18a6.93,6.93,0,0,0-1.58-.39,12.41,12.41,0,0,0-4.71,0c-1.8.36-4,1.15-3.92,1.57s1.17.44,2.16.19,1.12-.76,2-1.17c1.63-.81,3.81-.17,7.07.78C1547.17,56,1547.69,56.17,1547.73,56.08Z"/><path class="cls-7" d="M1513.57,56.47c-.06-.13.89-.78,2-1.18a7.94,7.94,0,0,1,1.57-.39,12.63,12.63,0,0,1,4.71,0c1.8.36,4,1.15,3.93,1.57s-1.18.45-2.16.2-1.13-.77-2-1.18c-1.63-.8-3.82-.17-7.07.78C1514.12,56.4,1513.61,56.56,1513.57,56.47Z"/><circle class="cls-14" cx="1519.76" cy="60.4" r="2.04"/><circle class="cls-15" cx="1519.76" cy="60.4" r="1.52"/><circle cx="1519.76" cy="60.4" r="1.01"/><circle class="cls-9" cx="1520.44" cy="59.81" r="0.39"/><circle class="cls-14" cx="1540.97" cy="60.79" r="2.04"/><circle class="cls-15" cx="1540.97" cy="60.79" r="1.52"/><circle cx="1540.97" cy="60.79" r="1.01"/><circle class="cls-9" cx="1540.29" cy="60.2" r="0.39"/><circle cx="1531.82" cy="68.84" r="0.39"/><circle cx="1528.68" cy="68.84" r="0.39"/><circle class="cls-2" cx="1733.02" cy="305.22" r="115.58"/><circle class="cls-3" cx="1732.5" cy="120.39" r="69.53"/><path class="cls-2" d="M1664,133.57c-.42,0-2.48-.3-3.45.86-1.09,1.31-.22,3.68,0,4.32,2.26,6.54.77,13.84,1.73,20.7,1.8,13-2.84,27.27-5.18,34.5a106.2,106.2,0,0,1-15.53,30.19l2.59,5.18c-1.08,1.42-2.59,3.48-4.31,6-6,8.94-18.42,27.85-21.57,55.21a117.35,117.35,0,0,0,7.77,56.07,105.85,105.85,0,0,0,24.15,37.09,97.87,97.87,0,0,0,16.39,12.93,91.38,91.38,0,0,0,25.88,11.22c2.81.69,7.91,1.32,18.11,2.59s15.5,1.9,20.7,1.72a94.41,94.41,0,0,0,18.12-2.59c2.45-.54,6.84-1.8,15.52-4.31,8.27-2.39,12.41-3.58,14.67-4.31a162.73,162.73,0,0,0,19.84-7.77c12.81-6.45,20.33-16.14,25.87-23.28a109.91,109.91,0,0,0,19.84-42.27c1.74-7,5-20.45,3.45-37.09-2.77-30.24-19.47-51.39-27.6-60.38q1.29-3.45,2.59-6.9a93.88,93.88,0,0,1-7.77-12.08c-11.54-21.38-12-42.16-12.07-53.48a141,141,0,0,1,1.72-23.29l-4.31-2.58C1723.16,133.16,1668,133.94,1664,133.57Z"/><path class="cls-4" d="M1730.08,43.05A74.28,74.28,0,0,0,1697,52.23a75.88,75.88,0,0,0-31.24,33.09,80.39,80.39,0,0,0-7.35,32.16,92.52,92.52,0,0,0,.91,13.78c2.6,17.2,28.33,50.78,70.76,85.46a227.13,227.13,0,0,0,21.6-15.16c20.78-16.45,49.19-38.94,54.22-72.59a76.19,76.19,0,0,0-.92-26.65c-3.71-17.47-13-31-21.14-38.6a95.09,95.09,0,0,0-11.95-9.19,69.28,69.28,0,0,0-10.1-5.51A72.82,72.82,0,0,0,1730.08,43.05Z"/><path class="cls-5" d="M1733,210.34a67.89,67.89,0,0,0-24.16-20.7c-6.6-3.31-9-3-10.35-2.59-10.2,3.17-14.17,28.84-6,34.5,1.27.89,3.53,1.76,13.8-.86A120.25,120.25,0,0,0,1733,210.34Z"/><path class="cls-5" d="M1730.7,210.19a68.18,68.18,0,0,1,24.15-20.7c6.61-3.3,9-3,10.36-2.59,10.2,3.17,14.17,28.84,6,34.51-1.28.89-3.53,1.75-13.8-.87A119.76,119.76,0,0,1,1730.7,210.19Z"/><path class="cls-5" d="M1727.84,210.34q-2.7,12.24-6,25c-5.68,21.66-12.14,41.81-19,60.38l9.49-5.17q-.85,10.2,0,10.35,2.45.42,19-82Z"/><path class="cls-5" d="M1734.74,210.34q2.7,12.24,6,25c5.68,21.66,12.14,41.81,19,60.38l-9.49-5.17q.86,10.2,0,10.35-2.46.42-19-82Z"/><circle class="cls-5" cx="1732.15" cy="213.79" r="6.9"/><circle class="cls-6" cx="1732.53" cy="117.61" r="54.77"/><path class="cls-7" d="M1680.68,94.23c.06-.13.17-.34.29-.6a68.12,68.12,0,0,1,10-14.27c13.06-13.84,30.88-17.16,30.88-17.16A56.52,56.52,0,0,1,1747,63.34s16.59,4.58,27.46,17.16a75,75,0,0,1,9.15,13.73c.5,1,.89,1.76,1.14,2.28L1747,98.8q-1.71-4.58-3.43-9.15-1.71,4.57-3.43,9.15h-21.73q-1.14-5.72-2.29-11.44-2.28,5.16-4.57,10.3c-6.44,0-13.33-.39-20.59-1.15-3.15-.32-6.2-.71-9.15-1.14h-2.29"/><path class="cls-8" d="M1726.25,150.32a4.77,4.77,0,0,1-.35-3.69,3.34,3.34,0,0,1,2.28-2.07c1.6-.29,3.59,1.13,4.22,3.63a4.69,4.69,0,0,1,.73-2.09c.18-.28,1.52-2.32,3.52-2a3.58,3.58,0,0,1,2.75,2.84,4.27,4.27,0,0,1-.5,2.84c-1.68,3.46-5.54,5.49-7.16,6.25A11.7,11.7,0,0,1,1726.25,150.32Z"/><path d="M1698.64,115.25a6.57,6.57,0,0,1-4.54-3.14,5,5,0,0,1-.5-1.65,12.65,12.65,0,0,0,.78,1.11,10.13,10.13,0,0,0,1.33,1.41,9.72,9.72,0,0,0,3.22,1.73"/><path d="M1699.45,113.8a5.91,5.91,0,0,1-4.08-2.82,4.77,4.77,0,0,1-.44-1.49,9.53,9.53,0,0,0,.7,1,9.29,9.29,0,0,0,1.19,1.27,9,9,0,0,0,2.89,1.55"/><path d="M1700.72,113.07a4.94,4.94,0,0,1-3.46-2.39,4,4,0,0,1-.38-1.26,8.84,8.84,0,0,0,.6.85,7.17,7.17,0,0,0,1,1.07,7.41,7.41,0,0,0,2.46,1.32"/><path d="M1702,112.35a4.09,4.09,0,0,1-2.84-2,3.29,3.29,0,0,1-.31-1c.12.19.28.43.49.7a6.57,6.57,0,0,0,.83.88,6.07,6.07,0,0,0,2,1.08"/><path class="cls-9" d="M1721.36,115.89c.54-2-4.9-6.36-10.36-6.9-6.53-.65-13.39,4.22-12.93,6.9s8.38,3.25,11.21,3.45a23.1,23.1,0,0,0,11.21-2.59A1.62,1.62,0,0,0,1721.36,115.89Z"/><path d="M1709.9,119.57c-.4,0-.62,0-.64,0-3-.21-10.92-.76-11.41-3.63a3.59,3.59,0,0,1,1.26-2.81,15.66,15.66,0,0,1,11.92-4.34c4.21.42,8.48,3.1,10,5.35a2.29,2.29,0,0,1,.52,1.83h0a1.73,1.73,0,0,1-1,1A23.83,23.83,0,0,1,1709.9,119.57Zm-.09-10.43a15.31,15.31,0,0,0-10.38,4.27,3.2,3.2,0,0,0-1.15,2.44c.43,2.53,8.4,3.09,11,3.27a23,23,0,0,0,11.1-2.56c.23-.12.65-.34.76-.73a1.94,1.94,0,0,0-.46-1.47c-1.49-2.17-5.75-4.77-9.71-5.16A11.46,11.46,0,0,0,1709.81,109.14Z"/><path d="M1767.38,115.83a6.57,6.57,0,0,0,4.54-3.14,5.3,5.3,0,0,0,.5-1.65,13.07,13.07,0,0,1-.79,1.11,8.64,8.64,0,0,1-4.54,3.14"/><path d="M1766.56,114.38a5.91,5.91,0,0,0,4.08-2.82,4.81,4.81,0,0,0,.45-1.49,9.83,9.83,0,0,1-.71,1,8.48,8.48,0,0,1-1.18,1.27,9,9,0,0,1-2.9,1.56"/><path d="M1765.3,113.65a5,5,0,0,0,3.46-2.39,4,4,0,0,0,.38-1.26,7.75,7.75,0,0,1-.6.85,6.68,6.68,0,0,1-3.46,2.39"/><path d="M1764,112.93a4.06,4.06,0,0,0,2.83-2,3,3,0,0,0,.31-1,5.44,5.44,0,0,1-.49.7,5.76,5.76,0,0,1-.82.88,6.07,6.07,0,0,1-2,1.08"/><path class="cls-9" d="M1744.66,116.75c-.55-2,4.9-6.36,10.35-6.9,6.53-.65,13.39,4.23,12.94,6.9s-8.38,3.25-11.21,3.45a23.13,23.13,0,0,1-11.22-2.59A1.54,1.54,0,0,1,1744.66,116.75Z"/><path d="M1756.12,120.43a23.89,23.89,0,0,1-10.7-2.63,1.73,1.73,0,0,1-1-1h0A2.37,2.37,0,0,1,1745,115c1.54-2.25,5.81-4.93,10-5.35a15.7,15.7,0,0,1,11.92,4.35,3.54,3.54,0,0,1,1.25,2.81c-.48,2.86-8.42,3.42-11.41,3.63Zm-11.25-3.74c.11.39.53.61.75.73a23.28,23.28,0,0,0,11.1,2.57c2.62-.19,10.59-.75,11-3.28a3.24,3.24,0,0,0-1.15-2.44,15.19,15.19,0,0,0-11.56-4.21c-4,.39-8.21,3-9.7,5.17a1.92,1.92,0,0,0-.46,1.46Z"/><circle class="cls-10" cx="1704.55" cy="134.43" r="8.63"/><circle class="cls-10" cx="1760.62" cy="134.43" r="8.63"/><path class="cls-11" d="M1732,388c7.58,0,23.59-.08,40.89-9.35,6-3.23,22.48-12.33,31.55-31.54a67.49,67.49,0,0,0,5.84-21,68.93,68.93,0,0,0-2.34-26.87,61.93,61.93,0,0,0-10.51,7,63.06,63.06,0,0,0-14,16.35A80.16,80.16,0,0,0,1767,299.24a71.53,71.53,0,0,0-8.18,8.18,72.33,72.33,0,0,0-9.34,14,59,59,0,0,0-7-11.68A58.09,58.09,0,0,0,1732,299.24a39,39,0,0,0-7,5.84,40.27,40.27,0,0,0-9.34,16.35,64.31,64.31,0,0,0-17.53-22.19,54.16,54.16,0,0,0-16.35,23.36,58.91,58.91,0,0,0-4.68-7,60,60,0,0,0-19.86-16.35,57.47,57.47,0,0,0-2.34,8.18c-4,19.28,1.78,42.26,16.36,58.41C1691.08,387.83,1719.07,388,1732,388Z"/><path class="cls-12" d="M1732,386.86c14.1-.59,28.49-5.8,35-8.18a57.38,57.38,0,0,0,5.84-2.33c2-1,19.44-9.67,23.37-26.88.78-3.4,2.06-9-1.17-12.85-2.75-3.27-7.25-3.46-8.18-3.5-5.78-.24-9.64,3.72-10.51,4.67a13.91,13.91,0,0,0-2.34,3.51,11.94,11.94,0,0,0,0-5.85c-1.36-5.19-6.26-8.37-10.51-9.34-1-.24-6.84-1.56-11.69,2.33a13.49,13.49,0,0,0-4.67,8.18,12.1,12.1,0,0,0-1.17-5.84c-2.78-5.65-10.56-9.2-17.52-7a15.53,15.53,0,0,0-10.52,14,15.6,15.6,0,0,0-4.67-7c-1.41-1.19-5.9-4.57-11.68-3.5-7,1.27-9.93,7.9-10.52,9.34a16.15,16.15,0,0,0-1.17,5.84,12.51,12.51,0,0,0-2.33-4.67c-.55-.68-3.9-4.85-9.35-4.67-6,.19-9.1,5.41-9.35,5.84-.55,1-2,3.9-1.16,9.35,1.39,8.57,7.28,14.82,11.68,18.69A81.64,81.64,0,0,0,1732,386.86Z"/><path class="cls-13" d="M1732,377.51c3.52.53,7.76-10.58,8.18-11.68a38.1,38.1,0,0,0,2.34-19.86c-1-6-2.89-7.69-3.51-8.18-3.63-2.84-8.62-1.39-9.34-1.17a13,13,0,0,0-7,5.84c-6.08,9.59,1.81,23.64,2.33,24.54a48.09,48.09,0,0,0,4.68,8.18C1731,377.13,1731.45,377.44,1732,377.51Z"/><path class="cls-13" d="M1744.78,374.19c1.24,2.25,9.48-.2,10.29-.44a27.48,27.48,0,0,0,12.41-7.39c3-3.21,3.15-5,3.15-5.6,0-3.33-3-5.55-3.43-5.87a9.39,9.39,0,0,0-6.43-1.45c-8.16.72-12.75,11.42-13,12.11a35.11,35.11,0,0,0-2.63,6.27C1744.59,373.47,1744.6,373.86,1744.78,374.19Z"/><path class="cls-13" d="M1719.12,374.19c-1.25,2.25-9.48-.2-10.29-.44a27.59,27.59,0,0,1-12.42-7.39c-3-3.21-3.14-5-3.15-5.6,0-3.33,3-5.55,3.44-5.87a9.39,9.39,0,0,1,6.43-1.45c8.16.72,12.75,11.42,13,12.11a35.11,35.11,0,0,1,2.63,6.27C1719.31,373.47,1719.29,373.86,1719.12,374.19Z"/><path class="cls-7" d="M1771.4,104.67c.13-.28-2-1.71-4.31-2.58a16.39,16.39,0,0,0-3.45-.87,28.06,28.06,0,0,0-10.35,0c-4,.8-8.79,2.53-8.63,3.45.11.64,2.58,1,4.75.44s2.47-1.68,4.31-2.59c3.58-1.77,8.38-.36,15.53,1.72C1770.18,104.52,1771.31,104.87,1771.4,104.67Z"/><path class="cls-7" d="M1696.36,105.54c-.13-.29,2-1.72,4.31-2.59a15.84,15.84,0,0,1,3.45-.86,27.85,27.85,0,0,1,10.35,0c4,.8,8.79,2.53,8.63,3.45-.11.63-2.58,1-4.74.43s-2.48-1.68-4.32-2.59c-3.57-1.76-8.38-.36-15.52,1.73C1697.58,105.38,1696.45,105.73,1696.36,105.54Z"/><circle class="cls-14" cx="1709.97" cy="114.16" r="4.48"/><circle class="cls-15" cx="1709.97" cy="114.16" r="3.35"/><circle cx="1709.97" cy="114.16" r="2.22"/><circle class="cls-9" cx="1711.45" cy="112.87" r="0.86"/><circle class="cls-14" cx="1756.55" cy="115.03" r="4.48"/><circle class="cls-15" cx="1756.55" cy="115.03" r="3.35"/><circle cx="1756.55" cy="115.03" r="2.22"/><circle class="cls-9" cx="1755.07" cy="113.73" r="0.86"/><circle cx="1736.47" cy="132.71" r="0.86"/><circle cx="1729.57" cy="132.71" r="0.86"/><circle class="cls-2" cx="189.02" cy="305.22" r="115.58"/><circle class="cls-3" cx="188.5" cy="120.39" r="69.53"/><path class="cls-2" d="M120,133.57c-.42,0-2.48-.3-3.45.86-1.09,1.31-.22,3.68,0,4.32,2.26,6.54.77,13.84,1.73,20.7,1.8,13-2.84,27.27-5.18,34.5a106.2,106.2,0,0,1-15.53,30.19l2.59,5.18c-1.08,1.42-2.59,3.48-4.31,6-6,8.94-18.42,27.85-21.57,55.21a117.35,117.35,0,0,0,7.77,56.07,105.85,105.85,0,0,0,24.15,37.09,97.87,97.87,0,0,0,16.39,12.93,91.38,91.38,0,0,0,25.88,11.22c2.81.69,7.91,1.32,18.11,2.59s15.5,1.9,20.7,1.72a94.41,94.41,0,0,0,18.12-2.59c2.45-.54,6.84-1.8,15.52-4.31,8.27-2.39,12.41-3.58,14.67-4.31a162.73,162.73,0,0,0,19.84-7.77c12.81-6.45,20.33-16.14,25.87-23.28a109.91,109.91,0,0,0,19.84-42.27c1.74-7,5-20.45,3.45-37.09-2.77-30.24-19.47-51.39-27.6-60.38q1.29-3.45,2.59-6.9a93.88,93.88,0,0,1-7.77-12.08c-11.54-21.38-12-42.16-12.07-53.48a141,141,0,0,1,1.72-23.29l-4.31-2.58C179.16,133.16,124,133.94,120,133.57Z"/><path class="cls-4" d="M186.08,43.05A74.28,74.28,0,0,0,153,52.23a75.88,75.88,0,0,0-31.24,33.09,80.39,80.39,0,0,0-7.35,32.16,92.52,92.52,0,0,0,.91,13.78c2.6,17.2,28.33,50.78,70.76,85.46a227.13,227.13,0,0,0,21.6-15.16c20.78-16.45,49.19-38.94,54.22-72.59a76.19,76.19,0,0,0-.92-26.65c-3.71-17.47-13-31-21.14-38.6a95.09,95.09,0,0,0-12-9.19A69.28,69.28,0,0,0,217.79,49,72.82,72.82,0,0,0,186.08,43.05Z"/><path class="cls-5" d="M189,210.34a67.89,67.89,0,0,0-24.16-20.7c-6.6-3.31-9-3-10.35-2.59-10.2,3.17-14.17,28.84-6,34.5,1.27.89,3.53,1.76,13.8-.86A120.25,120.25,0,0,0,189,210.34Z"/><path class="cls-5" d="M186.7,210.19a68.18,68.18,0,0,1,24.15-20.7c6.61-3.3,9-3,10.36-2.59,10.2,3.17,14.17,28.84,6,34.51-1.28.89-3.53,1.75-13.8-.87A119.76,119.76,0,0,1,186.7,210.19Z"/><path class="cls-5" d="M183.84,210.34q-2.7,12.24-6,25c-5.68,21.66-12.14,41.81-19,60.38l9.49-5.17q-.85,10.2,0,10.35,2.44.42,19-82Z"/><path class="cls-5" d="M190.74,210.34q2.7,12.24,6,25c5.68,21.66,12.14,41.81,19,60.38l-9.49-5.17q.85,10.2,0,10.35-2.46.42-19-82Z"/><circle class="cls-5" cx="188.15" cy="213.79" r="6.9"/><circle class="cls-6" cx="188.53" cy="117.61" r="54.77"/><path class="cls-7" d="M136.68,94.23c.06-.13.17-.34.29-.6a68.12,68.12,0,0,1,10-14.27C160,65.52,177.86,62.2,177.86,62.2A56.52,56.52,0,0,1,203,63.34s16.59,4.58,27.46,17.16a75,75,0,0,1,9.15,13.73c.5,1,.89,1.76,1.14,2.28L203,98.8q-1.71-4.58-3.43-9.15-1.71,4.57-3.43,9.15H174.43q-1.14-5.72-2.29-11.44-2.28,5.16-4.57,10.3c-6.44,0-13.33-.39-20.59-1.15-3.15-.32-6.2-.71-9.15-1.14h-2.29"/><path class="cls-8" d="M182.25,150.32a4.77,4.77,0,0,1-.35-3.69,3.34,3.34,0,0,1,2.28-2.07c1.6-.29,3.59,1.13,4.22,3.63a4.69,4.69,0,0,1,.73-2.09c.18-.28,1.52-2.32,3.52-2a3.58,3.58,0,0,1,2.75,2.84,4.27,4.27,0,0,1-.5,2.84c-1.68,3.46-5.54,5.49-7.16,6.25A11.7,11.7,0,0,1,182.25,150.32Z"/><path d="M154.64,115.25a6.57,6.57,0,0,1-4.54-3.14,5,5,0,0,1-.5-1.65,12.65,12.65,0,0,0,.78,1.11,10.13,10.13,0,0,0,1.33,1.41,9.72,9.72,0,0,0,3.22,1.73"/><path d="M155.45,113.8a5.91,5.91,0,0,1-4.08-2.82,4.77,4.77,0,0,1-.44-1.49,9.53,9.53,0,0,0,.7,1,9.29,9.29,0,0,0,1.19,1.27,9,9,0,0,0,2.89,1.55"/><path d="M156.72,113.07a4.94,4.94,0,0,1-3.46-2.39,4,4,0,0,1-.38-1.26,8.84,8.84,0,0,0,.6.85,7.17,7.17,0,0,0,1,1.07,7.41,7.41,0,0,0,2.46,1.32"/><path d="M158,112.35a4.09,4.09,0,0,1-2.84-2,3.29,3.29,0,0,1-.31-1c.12.19.28.43.49.7a6.57,6.57,0,0,0,.83.88,6.07,6.07,0,0,0,2,1.08"/><path class="cls-9" d="M177.36,115.89c.54-2-4.9-6.36-10.36-6.9-6.53-.65-13.39,4.22-12.93,6.9s8.38,3.25,11.21,3.45a23.1,23.1,0,0,0,11.21-2.59A1.62,1.62,0,0,0,177.36,115.89Z"/><path d="M165.9,119.57c-.4,0-.62,0-.64,0-3-.21-10.92-.76-11.41-3.63a3.59,3.59,0,0,1,1.26-2.81A15.66,15.66,0,0,1,167,108.77c4.21.42,8.48,3.1,10,5.35a2.29,2.29,0,0,1,.52,1.83h0a1.73,1.73,0,0,1-1,1A23.83,23.83,0,0,1,165.9,119.57Zm-.09-10.43a15.31,15.31,0,0,0-10.38,4.27,3.2,3.2,0,0,0-1.15,2.44c.43,2.53,8.4,3.09,11,3.27a23,23,0,0,0,11.1-2.56c.23-.12.65-.34.76-.73a1.94,1.94,0,0,0-.46-1.47c-1.49-2.17-5.75-4.77-9.71-5.16A11.46,11.46,0,0,0,165.81,109.14Z"/><path d="M223.38,115.83a6.57,6.57,0,0,0,4.54-3.14,5.3,5.3,0,0,0,.5-1.65,13.07,13.07,0,0,1-.79,1.11,8.64,8.64,0,0,1-4.54,3.14"/><path d="M222.56,114.38a5.91,5.91,0,0,0,4.08-2.82,4.81,4.81,0,0,0,.45-1.49,9.83,9.83,0,0,1-.71,1,8.48,8.48,0,0,1-1.18,1.27,9,9,0,0,1-2.9,1.56"/><path d="M221.3,113.65a5,5,0,0,0,3.46-2.39,4,4,0,0,0,.38-1.26,7.75,7.75,0,0,1-.6.85,6.68,6.68,0,0,1-3.46,2.39"/><path d="M220,112.93a4.06,4.06,0,0,0,2.83-2,3,3,0,0,0,.31-1,5.44,5.44,0,0,1-.49.7,5.76,5.76,0,0,1-.82.88,6.07,6.07,0,0,1-2,1.08"/><path class="cls-9" d="M200.66,116.75c-.55-2,4.9-6.36,10.35-6.9,6.53-.65,13.39,4.23,12.94,6.9s-8.38,3.25-11.21,3.45a23.13,23.13,0,0,1-11.22-2.59A1.54,1.54,0,0,1,200.66,116.75Z"/><path d="M212.12,120.43a23.89,23.89,0,0,1-10.7-2.63,1.73,1.73,0,0,1-1-1h0A2.37,2.37,0,0,1,201,115c1.54-2.25,5.81-4.93,10-5.35A15.7,15.7,0,0,1,222.91,114a3.54,3.54,0,0,1,1.25,2.81c-.48,2.86-8.42,3.42-11.41,3.63Zm-11.25-3.74c.11.39.53.61.75.73a23.28,23.28,0,0,0,11.1,2.57c2.62-.19,10.59-.75,11-3.28a3.24,3.24,0,0,0-1.15-2.44A15.19,15.19,0,0,0,211,110.06c-4,.39-8.21,3-9.7,5.17a1.92,1.92,0,0,0-.46,1.46Z"/><circle class="cls-10" cx="160.55" cy="134.43" r="8.63"/><circle class="cls-10" cx="216.62" cy="134.43" r="8.63"/><path class="cls-11" d="M188,388c7.58,0,23.59-.08,40.89-9.35,6-3.23,22.48-12.33,31.55-31.54a67.49,67.49,0,0,0,5.84-21,68.93,68.93,0,0,0-2.34-26.87,61.93,61.93,0,0,0-10.51,7,63.06,63.06,0,0,0-14,16.35A80.16,80.16,0,0,0,223,299.24a71.53,71.53,0,0,0-8.18,8.18,72.33,72.33,0,0,0-9.34,14,59,59,0,0,0-7-11.68A58.09,58.09,0,0,0,188,299.24a39,39,0,0,0-7,5.84,40.27,40.27,0,0,0-9.34,16.35,64.31,64.31,0,0,0-17.53-22.19,54.16,54.16,0,0,0-16.35,23.36,58.91,58.91,0,0,0-4.68-7,60,60,0,0,0-19.86-16.35,57.47,57.47,0,0,0-2.34,8.18c-4,19.28,1.78,42.26,16.36,58.41C147.08,387.83,175.07,388,188,388Z"/><path class="cls-12" d="M188,386.86c14.1-.59,28.49-5.8,35.05-8.18a57.38,57.38,0,0,0,5.84-2.33c2-1,19.44-9.67,23.37-26.88.78-3.4,2.06-9-1.17-12.85-2.75-3.27-7.25-3.46-8.18-3.5-5.78-.24-9.64,3.72-10.51,4.67A13.91,13.91,0,0,0,230,341.3a11.94,11.94,0,0,0,0-5.85c-1.36-5.19-6.26-8.37-10.51-9.34-1-.24-6.84-1.56-11.69,2.33a13.49,13.49,0,0,0-4.67,8.18,12.1,12.1,0,0,0-1.17-5.84c-2.78-5.65-10.56-9.2-17.52-7a15.53,15.53,0,0,0-10.52,14,15.6,15.6,0,0,0-4.67-7c-1.41-1.19-5.9-4.57-11.68-3.5-7,1.27-9.93,7.9-10.52,9.34a16.15,16.15,0,0,0-1.17,5.84,12.51,12.51,0,0,0-2.33-4.67c-.55-.68-3.9-4.85-9.35-4.67-6,.19-9.1,5.41-9.35,5.84-.55,1-2,3.9-1.16,9.35,1.39,8.57,7.28,14.82,11.68,18.69A81.64,81.64,0,0,0,188,386.86Z"/><path class="cls-13" d="M188,377.51c3.52.53,7.76-10.58,8.18-11.68A38.1,38.1,0,0,0,198.47,346c-1-6-2.89-7.69-3.51-8.18-3.63-2.84-8.62-1.39-9.34-1.17a13,13,0,0,0-7,5.84c-6.08,9.59,1.81,23.64,2.33,24.54a48.09,48.09,0,0,0,4.68,8.18C187,377.13,187.45,377.44,188,377.51Z"/><path class="cls-13" d="M200.78,374.19c1.24,2.25,9.48-.2,10.29-.44a27.48,27.48,0,0,0,12.41-7.39c3-3.21,3.15-5,3.15-5.6,0-3.33-3-5.55-3.43-5.87a9.39,9.39,0,0,0-6.43-1.45c-8.16.72-12.75,11.42-13,12.11a35.11,35.11,0,0,0-2.63,6.27C200.59,373.47,200.6,373.86,200.78,374.19Z"/><path class="cls-13" d="M175.12,374.19c-1.25,2.25-9.48-.2-10.29-.44a27.59,27.59,0,0,1-12.42-7.39c-3-3.21-3.14-5-3.15-5.6,0-3.33,3-5.55,3.44-5.87a9.39,9.39,0,0,1,6.43-1.45c8.16.72,12.75,11.42,13,12.11a35.11,35.11,0,0,1,2.63,6.27C175.31,373.47,175.29,373.86,175.12,374.19Z"/><path class="cls-7" d="M227.4,104.67c.13-.28-2-1.71-4.31-2.58a16.39,16.39,0,0,0-3.45-.87,28.06,28.06,0,0,0-10.35,0c-3.95.8-8.79,2.53-8.63,3.45.11.64,2.58,1,4.75.44s2.47-1.68,4.31-2.59c3.58-1.77,8.38-.36,15.53,1.72C226.18,104.52,227.31,104.87,227.4,104.67Z"/><path class="cls-7" d="M152.36,105.54c-.13-.29,2-1.72,4.31-2.59a15.84,15.84,0,0,1,3.45-.86,27.85,27.85,0,0,1,10.35,0c3.95.8,8.79,2.53,8.63,3.45-.11.63-2.58,1-4.74.43s-2.48-1.68-4.32-2.59c-3.57-1.76-8.38-.36-15.52,1.73C153.58,105.38,152.45,105.73,152.36,105.54Z"/><circle class="cls-14" cx="165.97" cy="114.16" r="4.48"/><circle class="cls-15" cx="165.97" cy="114.16" r="3.35"/><circle cx="165.97" cy="114.16" r="2.22"/><circle class="cls-9" cx="167.45" cy="112.87" r="0.86"/><circle class="cls-14" cx="212.55" cy="115.03" r="4.48"/><circle class="cls-15" cx="212.55" cy="115.03" r="3.35"/><circle cx="212.55" cy="115.03" r="2.22"/><circle class="cls-9" cx="211.07" cy="113.73" r="0.86"/><circle cx="192.47" cy="132.71" r="0.86"/><circle cx="185.57" cy="132.71" r="0.86"/><text class="cls-16" transform="translate(497.55 319.56)">BISTRO BABUSH<tspan class="cls-17" x="793.14" y="0">K</tspan><tspan x="865.77" y="0">A</tspan></text><text class="cls-18" transform="translate(770.36 385.93)">russian KI<tspan class="cls-19" x="248.07" y="0">T</tspan><tspan x="268.12" y="0">CHEN</tspan></text><rect class="cls-9" x="-1" y="447" width="1921" height="28"/><rect class="cls-1" x="1" y="475" width="1921" height="28"/><rect class="cls-20" x="1" y="503" width="1921" height="28"/></g></svg>
