<svg xmlns="http://www.w3.org/2000/svg" viewBox="0 0 2061 1073"><defs><style>.cls-1{fill:#2a0dfc;}.cls-2{font-size:44.67px;}.cls-11,.cls-2{fill:#fff;}.cls-18,.cls-2{font-family:Beograd-Regular, Beograd;}.cls-3{letter-spacing:-0.05em;}.cls-4{fill:#ce6a6a;}.cls-5{fill:#894619;}.cls-6{fill:#93549e;}.cls-7{fill:#d7574d;}.cls-8{fill:#efaf84;}.cls-9{fill:#513e31;}.cls-10{fill:#c60c35;}.cls-12{fill:#ea9b9b;}.cls-13{fill:#c675c4;}.cls-14{fill:#b79cb7;}.cls-15{fill:#daff15;}.cls-16{fill:#7f1800;}.cls-17{fill:#916860;}.cls-18{font-size:120px;fill:#fcdb0d;}.cls-19{font-size:160px;}.cls-20{letter-spacing:0.05em;}.cls-21{fill:#d00;}</style></defs><g id="Layer_11" data-name="Layer 11"><rect class="cls-1" x="27.07" y="-1" width="1918" height="756"/></g><g id="Layer_7" data-name="Layer 7"><text class="cls-2" transform="translate(764.79 713.93)">russian KI<tspan class="cls-3" x="248.07" y="0">T</tspan><tspan x="268.12" y="0">CHEN</tspan></text><circle class="cls-4" cx="390.56" cy="556.38" r="52.62"/><circle class="cls-5" cx="390.33" cy="472.23" r="31.65"/><path class="cls-4" d="M359.15,478.23c-.19,0-1.13-.13-1.57.4s-.1,1.67,0,2c1,3,.35,6.3.78,9.42.82,5.91-1.29,12.42-2.35,15.71a48.41,48.41,0,0,1-7.07,13.75l1.18,2.35c-.49.65-1.18,1.59-2,2.75a55.47,55.47,0,0,0-9.81,25.13,53.3,53.3,0,0,0,3.53,25.53,48.25,48.25,0,0,0,11,16.88,43.76,43.76,0,0,0,7.46,5.89,41.36,41.36,0,0,0,11.78,5.11c1.28.31,3.6.6,8.24,1.18a60.44,60.44,0,0,0,9.43.78,42.82,42.82,0,0,0,8.25-1.18c1.11-.24,3.11-.82,7.06-2,3.77-1.08,5.65-1.63,6.68-2a74.14,74.14,0,0,0,9-3.54c5.84-2.94,9.26-7.35,11.78-10.6a49.91,49.91,0,0,0,9-19.24,49.26,49.26,0,0,0,1.58-16.89c-1.27-13.76-8.87-23.39-12.57-27.49l1.18-3.14a43.27,43.27,0,0,1-3.54-5.49c-5.25-9.74-5.45-19.2-5.49-24.35a63.55,63.55,0,0,1,.78-10.6l-2-1.18C386.08,478.05,361,478.4,359.15,478.23Z"/><path class="cls-6" d="M389.23,437a33.83,33.83,0,0,0-15.06,4.18,34.57,34.57,0,0,0-14.23,15.07,36.54,36.54,0,0,0-3.34,14.64,42.25,42.25,0,0,0,.42,6.27c1.18,7.83,12.89,23.12,32.21,38.91a105.79,105.79,0,0,0,9.83-6.9c9.46-7.49,22.39-17.73,24.68-33.05a34.87,34.87,0,0,0-10-29.71,43.06,43.06,0,0,0-5.44-4.18,31.71,31.71,0,0,0-4.6-2.51A33,33,0,0,0,389.23,437Z"/><path class="cls-7" d="M390.56,513.18a30.81,30.81,0,0,0-11-9.42c-3-1.51-4.09-1.37-4.71-1.18-4.65,1.44-6.46,13.13-2.75,15.71.58.4,1.61.8,6.28-.4A54,54,0,0,0,390.56,513.18Z"/><path class="cls-7" d="M389.51,513.12a31,31,0,0,1,11-9.43c3-1.5,4.08-1.37,4.71-1.18,4.64,1.45,6.45,13.13,2.75,15.71-.58.41-1.61.8-6.29-.39A54.71,54.71,0,0,1,389.51,513.12Z"/><path class="cls-7" d="M388.21,513.18q-1.23,5.58-2.75,11.39c-2.59,9.86-5.53,19-8.64,27.49l4.32-2.36c-.26,3.1-.26,4.67,0,4.72q1.11.18,8.64-37.31Z"/><path class="cls-7" d="M391.35,513.18q1.23,5.58,2.75,11.39c2.58,9.86,5.53,19,8.64,27.49l-4.32-2.36c.26,3.1.26,4.67,0,4.72q-1.12.18-8.64-37.31Z"/><circle class="cls-7" cx="390.17" cy="514.75" r="3.14"/><circle class="cls-8" cx="390.34" cy="470.97" r="24.94"/><path class="cls-9" d="M366.74,460.32l.13-.27a31,31,0,0,1,4.56-6.5,28.67,28.67,0,0,1,14.06-7.81,25.71,25.71,0,0,1,11.45.52s7.55,2.09,12.5,7.81a34.86,34.86,0,0,1,4.17,6.25l.52,1-17.19,1-1.56-4.16-1.56,4.16h-9.9c-.34-1.73-.69-3.47-1-5.2l-2.08,4.68c-2.93,0-6.07-.17-9.37-.52-1.44-.15-2.83-.32-4.17-.52h-1"/><path class="cls-10" d="M387.48,485.86a2.2,2.2,0,0,1-.16-1.68,1.53,1.53,0,0,1,1-.94,1.9,1.9,0,0,1,1.92,1.65,2.23,2.23,0,0,1,.34-.95c.08-.13.69-1.06,1.6-.93a1.64,1.64,0,0,1,1.25,1.29,1.94,1.94,0,0,1-.23,1.29,6.91,6.91,0,0,1-3.25,2.85A5.32,5.32,0,0,1,387.48,485.86Z"/><path d="M374.91,469.89a3,3,0,0,1-2.06-1.43,2.14,2.14,0,0,1-.23-.75,4.17,4.17,0,0,0,.36.51,5.05,5.05,0,0,0,.6.64,4.46,4.46,0,0,0,1.47.79"/><path d="M375.28,469.23a2.67,2.67,0,0,1-1.85-1.28,2.2,2.2,0,0,1-.21-.68c.08.12.19.28.33.46a3.22,3.22,0,0,0,.54.57,3.93,3.93,0,0,0,1.31.71"/><path d="M375.86,468.9a2.26,2.26,0,0,1-1.58-1.09,2,2,0,0,1-.17-.57c.07.1.16.24.28.39a3.44,3.44,0,0,0,.45.48,3.89,3.89,0,0,0,1.12.61"/><path d="M376.44,468.57a1.88,1.88,0,0,1-1.3-.89,1.64,1.64,0,0,1-.14-.47c.05.08.13.19.23.32a2.9,2.9,0,0,0,.37.39,2.83,2.83,0,0,0,.92.5"/><path class="cls-11" d="M385.26,470.18c.24-.89-2.23-2.89-4.72-3.14-3-.29-6.09,1.93-5.89,3.14s3.82,1.48,5.11,1.57a10.51,10.51,0,0,0,5.1-1.17A.71.71,0,0,0,385.26,470.18Z"/><path d="M380,471.86h-.29c-1.36-.09-5-.35-5.19-1.65a1.58,1.58,0,0,1,.57-1.28,7.11,7.11,0,0,1,5.42-2,7,7,0,0,1,4.56,2.44,1,1,0,0,1,.24.83h0a.77.77,0,0,1-.44.45A10.87,10.87,0,0,1,380,471.86Zm0-4.75a7,7,0,0,0-4.73,1.94,1.47,1.47,0,0,0-.52,1.12c.2,1.15,3.82,1.4,5,1.49a10.67,10.67,0,0,0,5.06-1.17c.1-.06.29-.16.34-.33a.84.84,0,0,0-.21-.67,6.89,6.89,0,0,0-4.42-2.35A4.58,4.58,0,0,0,380,467.11Z"/><path d="M406.21,470.16a3,3,0,0,0,2.07-1.43,2.46,2.46,0,0,0,.22-.76,5.43,5.43,0,0,1-1,1.15,4.56,4.56,0,0,1-1.46.79"/><path d="M405.84,469.5a2.69,2.69,0,0,0,1.85-1.29,2.2,2.2,0,0,0,.21-.68,3.94,3.94,0,0,1-.32.46,4.82,4.82,0,0,1-.54.58,4.53,4.53,0,0,1-1.32.71"/><path d="M405.26,469.17a2.31,2.31,0,0,0,1.58-1.09,1.79,1.79,0,0,0,.17-.58l-.27.39a5.54,5.54,0,0,1-.46.49,3.48,3.48,0,0,1-1.12.6"/><path d="M404.69,468.84a1.88,1.88,0,0,0,1.29-.9,1.55,1.55,0,0,0,.14-.47,3,3,0,0,1-.6.72,2.72,2.72,0,0,1-.92.49"/><path class="cls-11" d="M395.87,470.58c-.25-.89,2.22-2.9,4.71-3.15,3-.29,6.1,1.93,5.89,3.15s-3.82,1.48-5.11,1.57a10.59,10.59,0,0,1-5.1-1.18A.71.71,0,0,1,395.87,470.58Z"/><path d="M401.08,472.25a10.87,10.87,0,0,1-4.87-1.2.77.77,0,0,1-.44-.45h0a1.06,1.06,0,0,1,.24-.83,7,7,0,0,1,4.56-2.43,7.14,7.14,0,0,1,5.42,2,1.63,1.63,0,0,1,.58,1.28c-.23,1.31-3.84,1.56-5.2,1.65Zm-5.12-1.7a.6.6,0,0,0,.34.33,10.53,10.53,0,0,0,5.06,1.17c1.19-.09,4.82-.34,5-1.49a1.45,1.45,0,0,0-.52-1.11,6.51,6.51,0,0,0-9.68.43.88.88,0,0,0-.21.67Z"/><circle class="cls-12" cx="377.61" cy="478.63" r="3.93"/><circle class="cls-12" cx="403.13" cy="478.63" r="3.93"/><path class="cls-13" d="M390.08,594.08a37.77,37.77,0,0,0,18.62-4.26c2.74-1.47,10.23-5.61,14.36-14.36a31.1,31.1,0,0,0,2.66-9.57,31.48,31.48,0,0,0-1.07-12.24,28.79,28.79,0,0,0-11.17,10.64,36.7,36.7,0,0,0-2.66-4.79,37.19,37.19,0,0,0-4.78-5.85,33.56,33.56,0,0,0-3.73,3.73,33,33,0,0,0-4.25,6.38,26.52,26.52,0,0,0-8-10.11,17.86,17.86,0,0,0-3.19,2.66,18.46,18.46,0,0,0-4.26,7.45,29.25,29.25,0,0,0-2.12-3.72,29.62,29.62,0,0,0-5.85-6.39,24.7,24.7,0,0,0-3.2,3.2,25,25,0,0,0-4.25,7.44,26.4,26.4,0,0,0-2.13-3.19,27.38,27.38,0,0,0-9-7.45,26,26,0,0,0-1.06,3.73A31.37,31.37,0,0,0,362.42,584C371.47,594,384.21,594.05,390.08,594.08Z"/><path class="cls-14" d="M390.08,593.55c6.42-.28,13-2.65,16-3.73a27.16,27.16,0,0,0,2.66-1.06c.92-.45,8.84-4.4,10.63-12.23.36-1.56.94-4.11-.53-5.86a5.21,5.21,0,0,0-3.72-1.59,6.48,6.48,0,0,0-5.85,3.72,5.45,5.45,0,0,0,0-2.66A6.65,6.65,0,0,0,399.12,567a6.15,6.15,0,0,0-2.13,3.72,5.47,5.47,0,0,0-.53-2.65,6.86,6.86,0,0,0-8-3.2,7.07,7.07,0,0,0-4.78,6.39,7.11,7.11,0,0,0-2.13-3.19,6.61,6.61,0,0,0-5.32-1.6c-3.17.58-4.52,3.6-4.79,4.25a7.36,7.36,0,0,0-.53,2.66,5.66,5.66,0,0,0-1.06-2.12,5,5,0,0,0-8.51.53,6.11,6.11,0,0,0-.53,4.25c.63,3.91,3.31,6.75,5.32,8.51A37.2,37.2,0,0,0,390.08,593.55Z"/><path class="cls-15" d="M390.08,589.29c1.6.24,3.53-4.82,3.72-5.32a17.33,17.33,0,0,0,1.07-9c-.45-2.75-1.32-3.5-1.6-3.72a4.93,4.93,0,0,0-4.25-.54,5.89,5.89,0,0,0-3.19,2.66c-2.77,4.37.82,10.77,1.06,11.17a21.52,21.52,0,0,0,2.13,3.73C389.65,589.11,389.85,589.26,390.08,589.29Z"/><path class="cls-15" d="M395.92,587.78c.57,1,4.32-.1,4.69-.2a12.48,12.48,0,0,0,5.65-3.37c1.38-1.46,1.43-2.29,1.43-2.55a3.58,3.58,0,0,0-1.56-2.67,4.31,4.31,0,0,0-2.93-.66c-3.72.33-5.81,5.2-5.94,5.51a16.53,16.53,0,0,0-1.2,2.86C395.83,587.45,395.84,587.63,395.92,587.78Z"/><path class="cls-15" d="M384.24,587.78c-.57,1-4.32-.1-4.69-.2a12.48,12.48,0,0,1-5.65-3.37c-1.38-1.46-1.43-2.29-1.43-2.55A3.58,3.58,0,0,1,374,579a4.3,4.3,0,0,1,2.93-.66c3.71.33,5.8,5.2,5.93,5.51a15.78,15.78,0,0,1,1.2,2.86C384.32,587.45,384.32,587.63,384.24,587.78Z"/><path class="cls-9" d="M408,465.08c.06-.13-.9-.78-2-1.18a7,7,0,0,0-1.57-.39,12.47,12.47,0,0,0-4.72,0c-1.8.36-4,1.15-3.92,1.57s1.17.44,2.16.19,1.12-.76,2-1.17c1.63-.81,3.81-.17,7.07.78C407.49,465,408,465.17,408,465.08Z"/><path class="cls-9" d="M373.88,465.47c-.06-.13.89-.78,2-1.18a7.94,7.94,0,0,1,1.57-.39,12.63,12.63,0,0,1,4.71,0c1.8.36,4,1.15,3.93,1.57s-1.17.45-2.16.2-1.13-.77-2-1.18c-1.63-.8-3.82-.17-7.07.78C374.43,465.4,373.92,465.56,373.88,465.47Z"/><circle class="cls-16" cx="380.07" cy="469.4" r="2.04"/><circle class="cls-17" cx="380.07" cy="469.4" r="1.52"/><circle cx="380.07" cy="469.4" r="1.01"/><circle class="cls-11" cx="380.75" cy="468.81" r="0.39"/><circle class="cls-16" cx="401.28" cy="469.79" r="2.04"/><circle class="cls-17" cx="401.28" cy="469.79" r="1.52"/><circle cx="401.28" cy="469.79" r="1.01"/><circle class="cls-11" cx="400.61" cy="469.2" r="0.39"/><circle cx="392.14" cy="477.84" r="0.39"/><circle cx="388.99" cy="477.84" r="0.39"/><circle class="cls-4" cx="540.11" cy="458.38" r="52.62"/><circle class="cls-5" cx="539.87" cy="374.23" r="31.65"/><path class="cls-4" d="M508.7,380.23c-.2,0-1.13-.13-1.57.4s-.1,1.67,0,2c1,3,.35,6.3.78,9.42.82,5.91-1.29,12.42-2.35,15.71a48.41,48.41,0,0,1-7.07,13.75l1.18,2.35c-.5.65-1.19,1.59-2,2.75a55.33,55.33,0,0,0-9.82,25.13,53.48,53.48,0,0,0,3.54,25.53,48,48,0,0,0,11,16.88,44.1,44.1,0,0,0,7.47,5.89,41.36,41.36,0,0,0,11.78,5.11c1.28.31,3.6.6,8.24,1.18a60.36,60.36,0,0,0,9.43.78,42.7,42.7,0,0,0,8.24-1.18c1.12-.24,3.12-.82,7.07-2,3.77-1.08,5.65-1.63,6.68-2a74.79,74.79,0,0,0,9-3.54c5.84-2.94,9.26-7.35,11.78-10.6a49.91,49.91,0,0,0,9-19.24,49.07,49.07,0,0,0,1.57-16.89c-1.26-13.76-8.86-23.39-12.56-27.49l1.18-3.14a42.19,42.19,0,0,1-3.54-5.49c-5.25-9.74-5.45-19.2-5.5-24.35a64.84,64.84,0,0,1,.79-10.6l-2-1.18C535.63,380.05,510.52,380.4,508.7,380.23Z"/><path class="cls-6" d="M538.78,339a33.83,33.83,0,0,0-15.06,4.18,34.57,34.57,0,0,0-14.23,15.07,36.54,36.54,0,0,0-3.34,14.64,41.45,41.45,0,0,0,.41,6.27c1.19,7.83,12.9,23.12,32.22,38.91a105.79,105.79,0,0,0,9.83-6.9c9.46-7.49,22.39-17.73,24.68-33.05a34.87,34.87,0,0,0-10-29.71,43.06,43.06,0,0,0-5.44-4.18,31.71,31.71,0,0,0-4.6-2.51A33.12,33.12,0,0,0,538.78,339Z"/><path class="cls-7" d="M540.11,415.18a30.89,30.89,0,0,0-11-9.42c-3-1.51-4.09-1.37-4.72-1.18-4.64,1.44-6.45,13.13-2.74,15.71.58.4,1.6.8,6.28-.4A54,54,0,0,0,540.11,415.18Z"/><path class="cls-7" d="M539.06,415.12a31,31,0,0,1,11-9.43c3-1.5,4.09-1.37,4.72-1.18,4.64,1.45,6.45,13.13,2.75,15.71-.59.41-1.61.8-6.29-.39A54.71,54.71,0,0,1,539.06,415.12Z"/><path class="cls-7" d="M537.76,415.18q-1.23,5.58-2.75,11.39c-2.59,9.86-5.53,19-8.64,27.49l4.32-2.36c-.26,3.1-.26,4.67,0,4.72q1.11.18,8.64-37.31C538.8,417.8,538.28,416.49,537.76,415.18Z"/><path class="cls-7" d="M540.9,415.18q1.23,5.58,2.75,11.39c2.58,9.86,5.52,19,8.64,27.49L548,451.7c.26,3.1.26,4.67,0,4.72q-1.12.18-8.64-37.31C539.85,417.8,540.37,416.49,540.9,415.18Z"/><circle class="cls-7" cx="539.72" cy="416.75" r="3.14"/><circle class="cls-8" cx="539.89" cy="372.97" r="24.94"/><path class="cls-9" d="M516.29,362.32a2.9,2.9,0,0,1,.13-.27,31.15,31.15,0,0,1,4.55-6.5A28.71,28.71,0,0,1,535,347.74a25.75,25.75,0,0,1,11.46.52s7.55,2.09,12.5,7.81a34.41,34.41,0,0,1,4.16,6.25c.23.44.41.8.52,1l-17.18,1-1.56-4.16-1.56,4.16h-9.9c-.35-1.73-.69-3.47-1-5.2l-2.08,4.68c-2.93,0-6.07-.17-9.38-.52-1.43-.15-2.82-.32-4.16-.52h-1"/><path class="cls-10" d="M537,387.86a2.2,2.2,0,0,1-.16-1.68,1.51,1.51,0,0,1,1-.94,1.9,1.9,0,0,1,1.92,1.65,2.07,2.07,0,0,1,.33-.95c.09-.13.7-1.06,1.61-.93A1.64,1.64,0,0,1,543,386.3a1.94,1.94,0,0,1-.23,1.29,6.89,6.89,0,0,1-3.26,2.85A5.35,5.35,0,0,1,537,387.86Z"/><path d="M524.46,371.89a3,3,0,0,1-2.07-1.43,2.34,2.34,0,0,1-.22-.75,5.31,5.31,0,0,0,.35.51,4.61,4.61,0,0,0,.61.64,4.46,4.46,0,0,0,1.46.79"/><path d="M524.83,371.23A2.7,2.7,0,0,1,523,370a2.46,2.46,0,0,1-.2-.68c.08.12.18.28.32.46a4.21,4.21,0,0,0,.54.57A4,4,0,0,0,525,371"/><path d="M525.41,370.9a2.24,2.24,0,0,1-1.58-1.09,1.74,1.74,0,0,1-.17-.57l.27.39a4.53,4.53,0,0,0,.46.48,3.76,3.76,0,0,0,1.12.61"/><path d="M526,370.57a1.89,1.89,0,0,1-1.29-.89,1.64,1.64,0,0,1-.14-.47l.22.32a3.16,3.16,0,0,0,.38.39,2.64,2.64,0,0,0,.92.5"/><path class="cls-11" d="M534.8,372.18c.25-.89-2.22-2.89-4.71-3.14-3-.29-6.1,1.93-5.89,3.14s3.82,1.48,5.11,1.57a10.51,10.51,0,0,0,5.1-1.17A.7.7,0,0,0,534.8,372.18Z"/><path d="M529.59,373.86h-.29c-1.36-.09-5-.35-5.2-1.65a1.63,1.63,0,0,1,.58-1.28,7.15,7.15,0,0,1,5.42-2,7,7,0,0,1,4.56,2.44,1,1,0,0,1,.24.83h0a.77.77,0,0,1-.44.45A10.87,10.87,0,0,1,529.59,373.86Zm0-4.75a7,7,0,0,0-4.73,1.94,1.47,1.47,0,0,0-.52,1.12c.19,1.15,3.82,1.4,5,1.49a10.67,10.67,0,0,0,5.06-1.17c.1-.06.29-.16.34-.33h0a.88.88,0,0,0-.21-.67,6.89,6.89,0,0,0-4.42-2.35A4.71,4.71,0,0,0,529.55,369.11Z"/><path d="M555.76,372.16a3,3,0,0,0,2.06-1.43,2.25,2.25,0,0,0,.23-.76,3.52,3.52,0,0,1-.36.51,3.95,3.95,0,0,1-2.07,1.43"/><path d="M555.38,371.5a2.7,2.7,0,0,0,1.86-1.29,2.2,2.2,0,0,0,.21-.68,4.17,4.17,0,0,1-.33.46,3.56,3.56,0,0,1-.54.58,4.42,4.42,0,0,1-1.31.71"/><path d="M554.81,371.17a2.3,2.3,0,0,0,1.57-1.09,1.83,1.83,0,0,0,.18-.58,4.41,4.41,0,0,1-.28.39,4,4,0,0,1-.45.49,3.48,3.48,0,0,1-1.12.6"/><path d="M554.23,370.84a1.87,1.87,0,0,0,1.3-.9,1.55,1.55,0,0,0,.14-.47,3.43,3.43,0,0,1-.23.32,2.38,2.38,0,0,1-1.29.89"/><path class="cls-11" d="M545.41,372.58c-.25-.89,2.23-2.9,4.72-3.15,3-.29,6.09,1.93,5.89,3.15s-3.82,1.48-5.11,1.57a10.59,10.59,0,0,1-5.1-1.18A.72.72,0,0,1,545.41,372.58Z"/><path d="M550.63,374.25a10.87,10.87,0,0,1-4.87-1.2.77.77,0,0,1-.44-.45,1.06,1.06,0,0,1,.24-.83,7,7,0,0,1,4.56-2.43,7.16,7.16,0,0,1,5.42,2,1.58,1.58,0,0,1,.57,1.28c-.22,1.31-3.83,1.56-5.19,1.65Zm0-4.74a4.61,4.61,0,0,0-.53,0,6.89,6.89,0,0,0-4.42,2.35.84.84,0,0,0-.21.67h0a.6.6,0,0,0,.34.33,10.52,10.52,0,0,0,5,1.17c1.2-.09,4.82-.34,5-1.49a1.45,1.45,0,0,0-.52-1.11A7,7,0,0,0,550.67,369.51Z"/><circle class="cls-12" cx="527.15" cy="380.63" r="3.93"/><circle class="cls-12" cx="552.68" cy="380.63" r="3.93"/><path class="cls-13" d="M539.63,496.08a37.74,37.74,0,0,0,18.61-4.26c2.75-1.47,10.24-5.61,14.36-14.36a30.52,30.52,0,0,0,2.66-9.57,31.32,31.32,0,0,0-1.06-12.24A28.61,28.61,0,0,0,563,466.29a36.44,36.44,0,0,0-7.45-10.64,34.42,34.42,0,0,0-3.72,3.73,32.09,32.09,0,0,0-4.25,6.38,26.52,26.52,0,0,0-8-10.11,17.86,17.86,0,0,0-3.19,2.66,18.46,18.46,0,0,0-4.26,7.45,28.22,28.22,0,0,0-2.13-3.72,29.37,29.37,0,0,0-5.85-6.39,24.68,24.68,0,0,0-3.19,3.2,25,25,0,0,0-4.25,7.44,26.4,26.4,0,0,0-2.13-3.19,27.38,27.38,0,0,0-9-7.45,27.2,27.2,0,0,0-1.07,3.73A31.41,31.41,0,0,0,512,486C521,496,533.76,496.05,539.63,496.08Z"/><path class="cls-14" d="M539.63,495.55c6.42-.28,13-2.65,16-3.73a26.18,26.18,0,0,0,2.66-1.06c.93-.45,8.85-4.4,10.64-12.23.36-1.56.94-4.11-.53-5.86a5.21,5.21,0,0,0-3.72-1.59,6.48,6.48,0,0,0-5.85,3.72,5.58,5.58,0,0,0,0-2.66A6.65,6.65,0,0,0,548.67,469a6.15,6.15,0,0,0-2.13,3.72A5.47,5.47,0,0,0,546,470a6.87,6.87,0,0,0-8-3.2,7.06,7.06,0,0,0-4.78,6.39,7.2,7.2,0,0,0-2.13-3.19,6.61,6.61,0,0,0-5.32-1.6c-3.17.58-4.52,3.6-4.79,4.25a7.36,7.36,0,0,0-.53,2.66,5.82,5.82,0,0,0-1.06-2.12,5,5,0,0,0-8.51.53,6.15,6.15,0,0,0-.54,4.25c.64,3.91,3.32,6.75,5.32,8.51A37.24,37.24,0,0,0,539.63,495.55Z"/><path class="cls-15" d="M539.63,491.29c1.6.24,3.53-4.82,3.72-5.32a17.44,17.44,0,0,0,1.07-9c-.45-2.75-1.32-3.5-1.6-3.72a5,5,0,0,0-4.26-.54,6,6,0,0,0-3.19,2.66c-2.76,4.37.83,10.77,1.07,11.17a21.42,21.42,0,0,0,2.12,3.73C539.2,491.11,539.4,491.26,539.63,491.29Z"/><path class="cls-15" d="M545.47,489.78c.56,1,4.31-.1,4.68-.2a12.36,12.36,0,0,0,5.65-3.37c1.39-1.46,1.44-2.29,1.44-2.55a3.56,3.56,0,0,0-1.57-2.67,4.29,4.29,0,0,0-2.92-.66c-3.72.33-5.81,5.2-5.94,5.51a15.78,15.78,0,0,0-1.2,2.86C545.38,489.45,545.39,489.63,545.47,489.78Z"/><path class="cls-15" d="M533.78,489.78c-.56,1-4.31-.1-4.68-.2a12.42,12.42,0,0,1-5.65-3.37c-1.38-1.46-1.43-2.29-1.44-2.55a3.61,3.61,0,0,1,1.57-2.67,4.29,4.29,0,0,1,2.92-.66c3.72.33,5.81,5.2,5.94,5.51a15.78,15.78,0,0,1,1.2,2.86C533.87,489.45,533.87,489.63,533.78,489.78Z"/><path class="cls-9" d="M557.59,367.08a4.46,4.46,0,0,0-2-1.18,6.75,6.75,0,0,0-1.57-.39,12.42,12.42,0,0,0-4.71,0c-1.8.36-4,1.15-3.93,1.57s1.18.44,2.16.19,1.13-.76,2-1.17c1.63-.81,3.81-.17,7.07.78C557,367,557.55,367.17,557.59,367.08Z"/><path class="cls-9" d="M523.42,367.47a4.46,4.46,0,0,1,2-1.18,7.94,7.94,0,0,1,1.57-.39,12.63,12.63,0,0,1,4.71,0c1.8.36,4,1.15,3.93,1.57s-1.18.45-2.16.2-1.13-.77-2-1.18c-1.62-.8-3.81-.17-7.06.78C524,367.4,523.47,367.56,523.42,367.47Z"/><circle class="cls-16" cx="529.62" cy="371.4" r="2.04"/><circle class="cls-17" cx="529.62" cy="371.4" r="1.52"/><circle cx="529.62" cy="371.4" r="1.01"/><circle class="cls-11" cx="530.3" cy="370.81" r="0.39"/><circle class="cls-16" cx="550.83" cy="371.79" r="2.04"/><circle class="cls-17" cx="550.83" cy="371.79" r="1.52"/><circle cx="550.83" cy="371.79" r="1.01"/><circle class="cls-11" cx="550.15" cy="371.2" r="0.39"/><circle cx="541.68" cy="379.84" r="0.39"/><circle cx="538.54" cy="379.84" r="0.39"/><circle class="cls-4" cx="689.7" cy="355.38" r="52.62"/><circle class="cls-5" cx="689.46" cy="271.23" r="31.65"/><path class="cls-4" d="M658.28,277.23c-.19,0-1.13-.13-1.57.4s-.1,1.67,0,2c1,3,.35,6.3.79,9.42.82,5.91-1.29,12.42-2.36,15.71a48.41,48.41,0,0,1-7.07,13.75l1.18,2.35c-.49.65-1.18,1.59-2,2.75a55.33,55.33,0,0,0-9.82,25.13A53.43,53.43,0,0,0,641,374.23a48.25,48.25,0,0,0,11,16.88,44.16,44.16,0,0,0,7.46,5.89,41.36,41.36,0,0,0,11.78,5.11c1.28.31,3.6.6,8.25,1.18a60.25,60.25,0,0,0,9.42.78,42.7,42.7,0,0,0,8.25-1.18c1.11-.24,3.11-.82,7.07-2,3.76-1.08,5.64-1.63,6.67-2a74.14,74.14,0,0,0,9-3.54c5.84-2.94,9.26-7.35,11.79-10.6a50.22,50.22,0,0,0,9-19.24,49.58,49.58,0,0,0,1.57-16.89c-1.27-13.76-8.87-23.39-12.57-27.49l1.18-3.14a42.31,42.31,0,0,1-3.53-5.49c-5.26-9.74-5.45-19.2-5.5-24.35a63.55,63.55,0,0,1,.78-10.6l-2-1.18C685.21,277.05,660.11,277.4,658.28,277.23Z"/><path class="cls-6" d="M688.36,236a33.92,33.92,0,0,0-15.06,4.18,34.51,34.51,0,0,0-14.22,15.07,36.66,36.66,0,0,0-3.35,14.64,42.25,42.25,0,0,0,.42,6.27c1.18,7.83,12.89,23.12,32.21,38.91a105.79,105.79,0,0,0,9.83-6.9c9.46-7.49,22.4-17.73,24.69-33.05a35.13,35.13,0,0,0-.42-12.14,34.56,34.56,0,0,0-9.62-17.57,43.06,43.06,0,0,0-5.44-4.18,32.45,32.45,0,0,0-4.61-2.51A33,33,0,0,0,688.36,236Z"/><path class="cls-7" d="M689.7,312.18a30.9,30.9,0,0,0-11-9.42c-3-1.51-4.08-1.37-4.71-1.18-4.65,1.44-6.45,13.13-2.75,15.71.58.4,1.61.8,6.28-.4A54.34,54.34,0,0,0,689.7,312.18Z"/><path class="cls-7" d="M688.64,312.12a31.06,31.06,0,0,1,11-9.43c3-1.5,4.08-1.37,4.71-1.18,4.65,1.45,6.45,13.13,2.75,15.71-.58.41-1.61.8-6.28-.39A54.82,54.82,0,0,1,688.64,312.12Z"/><path class="cls-7" d="M687.34,312.18q-1.23,5.58-2.75,11.39c-2.58,9.86-5.53,19-8.64,27.49l4.32-2.36c-.26,3.1-.26,4.67,0,4.72q1.13.18,8.64-37.31Z"/><path class="cls-7" d="M690.48,312.18q1.23,5.58,2.75,11.39c2.59,9.86,5.53,19,8.64,27.49l-4.32-2.36c.26,3.1.26,4.67,0,4.72q-1.11.18-8.64-37.31C689.44,314.8,690,313.49,690.48,312.18Z"/><circle class="cls-7" cx="689.3" cy="313.75" r="3.14"/><circle class="cls-8" cx="689.47" cy="269.97" r="24.94"/><path class="cls-9" d="M665.87,259.32c0-.06.08-.15.13-.27a31,31,0,0,1,4.56-6.5,28.71,28.71,0,0,1,14.06-7.81,25.71,25.71,0,0,1,11.45.52s7.55,2.09,12.5,7.81a34.32,34.32,0,0,1,4.17,6.25c.23.44.4.8.52,1l-17.19,1-1.56-4.16L693,261.4h-9.89l-1-5.2q-1,2.34-2.08,4.68c-2.93,0-6.06-.17-9.37-.52-1.43-.15-2.82-.32-4.17-.52h-1"/><path class="cls-10" d="M686.62,284.86a2.16,2.16,0,0,1-.16-1.68,1.49,1.49,0,0,1,1-.94,1.91,1.91,0,0,1,1.92,1.65,2.07,2.07,0,0,1,.33-.95c.08-.13.69-1.06,1.6-.93a1.62,1.62,0,0,1,1.25,1.29,1.88,1.88,0,0,1-.23,1.29,6.87,6.87,0,0,1-3.25,2.85A5.3,5.3,0,0,1,686.62,284.86Z"/><path d="M674.05,268.89a3,3,0,0,1-2.07-1.43,2.37,2.37,0,0,1-.23-.75,5.69,5.69,0,0,0,.36.51,5.05,5.05,0,0,0,.6.64,4.56,4.56,0,0,0,1.47.79"/><path d="M674.42,268.23a2.7,2.7,0,0,1-1.86-1.28,1.92,1.92,0,0,1-.2-.68,4.45,4.45,0,0,0,.32.46,3.65,3.65,0,0,0,.54.57,3.84,3.84,0,0,0,1.32.71"/><path d="M675,267.9a2.23,2.23,0,0,1-1.57-1.09,1.74,1.74,0,0,1-.17-.57,3.55,3.55,0,0,0,.27.39,3.09,3.09,0,0,0,.46.48,3.77,3.77,0,0,0,1.11.61"/><path d="M675.57,267.57a1.85,1.85,0,0,1-1.29-.89,1.41,1.41,0,0,1-.15-.47l.23.32a3.76,3.76,0,0,0,.37.39,2.83,2.83,0,0,0,.92.5"/><path class="cls-11" d="M684.39,269.18c.25-.89-2.23-2.89-4.71-3.14-3-.29-6.1,1.93-5.89,3.14s3.81,1.48,5.1,1.57a10.56,10.56,0,0,0,5.11-1.17A.73.73,0,0,0,684.39,269.18Z"/><path d="M679.17,270.86h-.29c-1.36-.09-5-.35-5.19-1.65a1.62,1.62,0,0,1,.57-1.28,7.15,7.15,0,0,1,5.43-2,7,7,0,0,1,4.56,2.44,1,1,0,0,1,.23.83h0a.77.77,0,0,1-.44.45A10.85,10.85,0,0,1,679.17,270.86Zm0-4.75a7,7,0,0,0-4.73,1.94,1.5,1.5,0,0,0-.52,1.12c.2,1.15,3.82,1.4,5,1.49a10.66,10.66,0,0,0,5.05-1.17c.1-.06.29-.16.34-.33h0a.84.84,0,0,0-.21-.67,6.86,6.86,0,0,0-4.41-2.35Z"/><path d="M705.34,269.16a3,3,0,0,0,2.07-1.43,2.22,2.22,0,0,0,.22-.76,4.3,4.3,0,0,1-.35.51,4.45,4.45,0,0,1-.6.64,4.56,4.56,0,0,1-1.47.79"/><path d="M705,268.5a2.72,2.72,0,0,0,1.86-1.29,2.16,2.16,0,0,0,.2-.68,3.94,3.94,0,0,1-.32.46,4.82,4.82,0,0,1-.54.58,4.41,4.41,0,0,1-1.32.71"/><path d="M704.39,268.17a2.31,2.31,0,0,0,1.58-1.09,1.79,1.79,0,0,0,.17-.58,2.8,2.8,0,0,1-.27.39,4.33,4.33,0,0,1-.46.49,3.37,3.37,0,0,1-1.12.6"/><path d="M703.82,267.84a1.86,1.86,0,0,0,1.29-.9,1.55,1.55,0,0,0,.14-.47,2.06,2.06,0,0,1-.22.32,2.54,2.54,0,0,1-.38.4,2.82,2.82,0,0,1-.91.49"/><path class="cls-11" d="M695,269.58c-.25-.89,2.23-2.9,4.71-3.15,3-.29,6.1,1.93,5.89,3.15s-3.82,1.48-5.1,1.57a10.64,10.64,0,0,1-5.11-1.18A.71.71,0,0,1,695,269.58Z"/><path d="M700.21,271.25a10.81,10.81,0,0,1-4.86-1.2.81.81,0,0,1-.45-.45,1.06,1.06,0,0,1,.24-.83,7,7,0,0,1,4.56-2.43,7.16,7.16,0,0,1,5.43,2,1.65,1.65,0,0,1,.57,1.28c-.22,1.31-3.84,1.56-5.2,1.65Zm0-4.74a4.78,4.78,0,0,0-.53,0,6.91,6.91,0,0,0-4.42,2.35.92.92,0,0,0-.21.67h0a.59.59,0,0,0,.35.33,10.5,10.5,0,0,0,5,1.17c1.19-.09,4.82-.34,5-1.49a1.42,1.42,0,0,0-.52-1.11A7,7,0,0,0,700.25,266.51Z"/><circle class="cls-12" cx="676.74" cy="277.63" r="3.93"/><circle class="cls-12" cx="702.26" cy="277.63" r="3.93"/><path class="cls-13" d="M689.21,393.08a37.77,37.77,0,0,0,18.62-4.26c2.74-1.47,10.23-5.61,14.36-14.36a30.52,30.52,0,0,0,2.66-9.57,31.48,31.48,0,0,0-1.07-12.24,28.7,28.7,0,0,0-11.16,10.64,36.44,36.44,0,0,0-7.45-10.64,33.18,33.18,0,0,0-8,10.11,26.52,26.52,0,0,0-8-10.11,17.94,17.94,0,0,0-7.44,10.11,29.34,29.34,0,0,0-8-10.11,24.07,24.07,0,0,0-3.19,3.2,24.83,24.83,0,0,0-4.26,7.44,26.4,26.4,0,0,0-2.13-3.19,27.28,27.28,0,0,0-9-7.45,26,26,0,0,0-1.06,3.73A31.4,31.4,0,0,0,661.55,383C670.6,393,683.35,393.05,689.21,393.08Z"/><path class="cls-14" d="M689.21,392.55c6.42-.28,13-2.65,16-3.73a26.18,26.18,0,0,0,2.66-1.06c.93-.45,8.85-4.4,10.64-12.23.35-1.56.93-4.11-.54-5.86a5.21,5.21,0,0,0-3.72-1.59,6.37,6.37,0,0,0-4.79,2.13,6.57,6.57,0,0,0-1.06,1.59,5.45,5.45,0,0,0,0-2.66A6.65,6.65,0,0,0,698.25,366a6.07,6.07,0,0,0-2.12,3.72,5.59,5.59,0,0,0-.53-2.65,6.88,6.88,0,0,0-8-3.2,7.07,7.07,0,0,0-4.79,6.39A7,7,0,0,0,680.7,367a6.61,6.61,0,0,0-5.32-1.6c-3.16.58-4.51,3.6-4.78,4.25a7.41,7.41,0,0,0-.54,2.66,5.66,5.66,0,0,0-1.06-2.12,5,5,0,0,0-8.51.53A6.23,6.23,0,0,0,660,375c.63,3.91,3.31,6.75,5.32,8.51A37.22,37.22,0,0,0,689.21,392.55Z"/><path class="cls-15" d="M689.21,388.29c1.61.24,3.54-4.82,3.73-5.32a17.41,17.41,0,0,0,1.06-9c-.44-2.75-1.31-3.5-1.6-3.72a4.93,4.93,0,0,0-4.25-.54,5.89,5.89,0,0,0-3.19,2.66c-2.77,4.37.83,10.77,1.06,11.17a21.52,21.52,0,0,0,2.13,3.73C688.78,388.11,689,388.26,689.21,388.29Z"/><path class="cls-15" d="M695.05,386.78c.57,1,4.32-.1,4.69-.2a12.48,12.48,0,0,0,5.65-3.37c1.38-1.46,1.43-2.29,1.43-2.55a3.58,3.58,0,0,0-1.56-2.67,4.3,4.3,0,0,0-2.93-.66c-3.71.33-5.8,5.2-5.93,5.51a15.78,15.78,0,0,0-1.2,2.86C695,386.45,695,386.63,695.05,386.78Z"/><path class="cls-15" d="M683.37,386.78c-.57,1-4.32-.1-4.69-.2a12.48,12.48,0,0,1-5.65-3.37c-1.38-1.46-1.43-2.29-1.43-2.55a3.58,3.58,0,0,1,1.56-2.67,4.31,4.31,0,0,1,2.93-.66c3.71.33,5.81,5.2,5.94,5.51a16.53,16.53,0,0,1,1.2,2.86C683.46,386.45,683.45,386.63,683.37,386.78Z"/><path class="cls-9" d="M707.17,264.08c.06-.13-.9-.78-2-1.18a6.87,6.87,0,0,0-1.57-.39,12.42,12.42,0,0,0-4.71,0c-1.8.36-4,1.15-3.93,1.57s1.17.44,2.16.19,1.12-.76,2-1.17c1.63-.81,3.82-.17,7.07.78C706.62,264,707.13,264.17,707.17,264.08Z"/><path class="cls-9" d="M673,264.47c-.06-.13.9-.78,2-1.18a8.11,8.11,0,0,1,1.57-.39,12.68,12.68,0,0,1,4.72,0c1.79.36,4,1.15,3.92,1.57s-1.17.45-2.16.2-1.12-.77-2-1.18c-1.63-.8-3.82-.17-7.07.78C673.56,264.4,673.05,264.56,673,264.47Z"/><circle class="cls-16" cx="679.21" cy="268.4" r="2.04"/><circle class="cls-17" cx="679.21" cy="268.4" r="1.52"/><circle cx="679.21" cy="268.4" r="1.01"/><circle class="cls-11" cx="679.88" cy="267.81" r="0.39"/><circle class="cls-16" cx="700.41" cy="268.79" r="2.04"/><circle class="cls-17" cx="700.41" cy="268.79" r="1.52"/><circle cx="700.41" cy="268.79" r="1.01"/><circle class="cls-11" cx="699.74" cy="268.2" r="0.39"/><circle cx="691.27" cy="276.84" r="0.39"/><circle cx="688.13" cy="276.84" r="0.39"/><circle class="cls-4" cx="837.25" cy="255.38" r="52.62"/><circle class="cls-5" cx="837.02" cy="171.23" r="31.65"/><path class="cls-4" d="M805.84,177.23c-.2,0-1.13-.13-1.57.4s-.1,1.67,0,2c1,3,.35,6.3.78,9.42.82,5.91-1.29,12.42-2.35,15.71a48.41,48.41,0,0,1-7.07,13.75l1.18,2.35c-.49.65-1.19,1.59-2,2.75A55.47,55.47,0,0,0,785,248.7a53.3,53.3,0,0,0,3.53,25.53,48.25,48.25,0,0,0,11,16.88A43.76,43.76,0,0,0,807,297a41.36,41.36,0,0,0,11.78,5.11c1.28.31,3.6.6,8.24,1.18a60.44,60.44,0,0,0,9.43.78,42.82,42.82,0,0,0,8.25-1.18c1.11-.24,3.11-.82,7.06-2,3.77-1.08,5.65-1.63,6.68-2a74.14,74.14,0,0,0,9-3.54c5.84-2.94,9.26-7.35,11.78-10.6a49.91,49.91,0,0,0,9-19.24,49.26,49.26,0,0,0,1.58-16.89c-1.27-13.76-8.87-23.39-12.57-27.49l1.18-3.14a43.27,43.27,0,0,1-3.54-5.49c-5.25-9.74-5.45-19.2-5.49-24.35a63.55,63.55,0,0,1,.78-10.6l-2-1.18C832.77,177.05,807.67,177.4,805.84,177.23Z"/><path class="cls-6" d="M835.92,136a33.83,33.83,0,0,0-15.06,4.18,34.57,34.57,0,0,0-14.23,15.07,36.54,36.54,0,0,0-3.34,14.64,40.73,40.73,0,0,0,.42,6.27c1.18,7.83,12.89,23.12,32.21,38.91a105.79,105.79,0,0,0,9.83-6.9c9.46-7.49,22.39-17.73,24.68-33.05a34.87,34.87,0,0,0-10-29.71,43.06,43.06,0,0,0-5.44-4.18,31.71,31.71,0,0,0-4.6-2.51A33,33,0,0,0,835.92,136Z"/><path class="cls-7" d="M837.25,212.18a30.81,30.81,0,0,0-11-9.42c-3-1.51-4.09-1.37-4.71-1.18-4.65,1.44-6.46,13.13-2.75,15.71.58.4,1.6.8,6.28-.4A54,54,0,0,0,837.25,212.18Z"/><path class="cls-7" d="M836.2,212.12a31,31,0,0,1,11-9.43c3-1.5,4.08-1.37,4.71-1.18,4.64,1.45,6.45,13.13,2.75,15.71-.59.41-1.61.8-6.29-.39A54.71,54.71,0,0,1,836.2,212.12Z"/><path class="cls-7" d="M834.9,212.18q-1.23,5.58-2.75,11.39c-2.59,9.86-5.53,19-8.64,27.49l4.32-2.36c-.26,3.1-.26,4.67,0,4.72q1.11.18,8.64-37.31Z"/><path class="cls-7" d="M838,212.18q1.23,5.58,2.75,11.39c2.58,9.86,5.53,19,8.64,27.49l-4.32-2.36c.26,3.1.26,4.67,0,4.72q-1.12.18-8.64-37.31Z"/><circle class="cls-7" cx="836.86" cy="213.75" r="3.14"/><circle class="cls-8" cx="837.03" cy="169.97" r="24.94"/><path class="cls-9" d="M813.43,159.32l.13-.27a31.15,31.15,0,0,1,4.55-6.5,28.71,28.71,0,0,1,14.06-7.81,25.75,25.75,0,0,1,11.46.52s7.55,2.09,12.5,7.81a34.41,34.41,0,0,1,4.16,6.25c.23.44.41.8.53,1l-17.19,1-1.56-4.16-1.56,4.16h-9.9c-.34-1.73-.69-3.47-1-5.2l-2.08,4.68c-2.93,0-6.07-.17-9.38-.52-1.43-.15-2.82-.32-4.16-.52h-1"/><path class="cls-10" d="M834.17,184.86a2.2,2.2,0,0,1-.16-1.68,1.53,1.53,0,0,1,1-.94,1.9,1.9,0,0,1,1.92,1.65,2.23,2.23,0,0,1,.34-.95c.08-.13.69-1.06,1.6-.93a1.64,1.64,0,0,1,1.25,1.29,1.94,1.94,0,0,1-.23,1.29,6.89,6.89,0,0,1-3.26,2.85A5.35,5.35,0,0,1,834.17,184.86Z"/><path d="M821.6,168.89a3,3,0,0,1-2.07-1.43,2.34,2.34,0,0,1-.22-.75,4.17,4.17,0,0,0,.36.51,4.39,4.39,0,0,0,.6.64,4.56,4.56,0,0,0,1.46.79"/><path d="M822,168.23a2.67,2.67,0,0,1-1.85-1.28,2.2,2.2,0,0,1-.21-.68l.32.46a3.84,3.84,0,0,0,.55.57,3.93,3.93,0,0,0,1.31.71"/><path d="M822.55,167.9a2.26,2.26,0,0,1-1.58-1.09,1.74,1.74,0,0,1-.17-.57l.27.39a4.53,4.53,0,0,0,.46.48,3.89,3.89,0,0,0,1.12.61"/><path d="M823.12,167.57a1.89,1.89,0,0,1-1.29-.89,1.64,1.64,0,0,1-.14-.47l.22.32a4.16,4.16,0,0,0,.38.39,2.83,2.83,0,0,0,.92.5"/><path class="cls-11" d="M832,169.18c.24-.89-2.23-2.89-4.72-3.14-3-.29-6.09,1.93-5.89,3.14s3.82,1.48,5.11,1.57a10.51,10.51,0,0,0,5.1-1.17A.71.71,0,0,0,832,169.18Z"/><path d="M826.73,170.86h-.29c-1.36-.09-5-.35-5.19-1.65a1.58,1.58,0,0,1,.57-1.28,7.11,7.11,0,0,1,5.42-2,7,7,0,0,1,4.56,2.44,1,1,0,0,1,.24.83h0a.77.77,0,0,1-.44.45A10.87,10.87,0,0,1,826.73,170.86Zm0-4.75a7,7,0,0,0-4.73,1.94,1.47,1.47,0,0,0-.52,1.12c.19,1.15,3.82,1.4,5,1.49a10.67,10.67,0,0,0,5.06-1.17c.1-.06.29-.16.34-.33a.88.88,0,0,0-.21-.67,6.89,6.89,0,0,0-4.42-2.35A4.58,4.58,0,0,0,826.69,166.11Z"/><path d="M852.9,169.16a3,3,0,0,0,2.07-1.43,2.46,2.46,0,0,0,.22-.76,5.43,5.43,0,0,1-1,1.15,4.56,4.56,0,0,1-1.46.79"/><path d="M852.53,168.5a2.69,2.69,0,0,0,1.85-1.29,2.2,2.2,0,0,0,.21-.68,3.94,3.94,0,0,1-.32.46,4.82,4.82,0,0,1-.54.58,4.53,4.53,0,0,1-1.32.71"/><path d="M852,168.17a2.33,2.33,0,0,0,1.58-1.09,1.79,1.79,0,0,0,.17-.58l-.27.39a5.54,5.54,0,0,1-.46.49,3.48,3.48,0,0,1-1.12.6"/><path d="M851.38,167.84a1.88,1.88,0,0,0,1.29-.9,1.55,1.55,0,0,0,.14-.47,3,3,0,0,1-.6.72,2.92,2.92,0,0,1-.92.49"/><path class="cls-11" d="M842.56,169.58c-.25-.89,2.22-2.9,4.71-3.15,3-.29,6.09,1.93,5.89,3.15s-3.82,1.48-5.11,1.57A10.59,10.59,0,0,1,843,170,.71.71,0,0,1,842.56,169.58Z"/><path d="M847.77,171.25a10.87,10.87,0,0,1-4.87-1.2.77.77,0,0,1-.44-.45h0a1.06,1.06,0,0,1,.24-.83,7,7,0,0,1,4.56-2.43,7.14,7.14,0,0,1,5.42,2,1.63,1.63,0,0,1,.58,1.28c-.23,1.31-3.84,1.56-5.2,1.65Zm-5.12-1.7a.6.6,0,0,0,.34.33,10.53,10.53,0,0,0,5.06,1.17c1.19-.09,4.82-.34,5-1.49a1.45,1.45,0,0,0-.52-1.11,6.51,6.51,0,0,0-9.68.43.88.88,0,0,0-.21.67Z"/><circle class="cls-12" cx="824.3" cy="177.63" r="3.93"/><circle class="cls-12" cx="849.82" cy="177.63" r="3.93"/><path class="cls-13" d="M836.77,293.08a37.77,37.77,0,0,0,18.62-4.26c2.74-1.47,10.23-5.61,14.36-14.36a31.1,31.1,0,0,0,2.66-9.57,31.48,31.48,0,0,0-1.07-12.24,28.79,28.79,0,0,0-11.17,10.64,36.7,36.7,0,0,0-2.66-4.79,37.19,37.19,0,0,0-4.78-5.85,33.56,33.56,0,0,0-3.73,3.73,33,33,0,0,0-4.25,6.38,26.52,26.52,0,0,0-8-10.11,17.86,17.86,0,0,0-3.19,2.66,18.46,18.46,0,0,0-4.26,7.45A29.25,29.25,0,0,0,827.2,259a29.62,29.62,0,0,0-5.85-6.39,24.7,24.7,0,0,0-3.2,3.2,25,25,0,0,0-4.25,7.44,26.4,26.4,0,0,0-2.13-3.19,27.38,27.38,0,0,0-9-7.45,26,26,0,0,0-1.06,3.73A31.37,31.37,0,0,0,809.11,283C818.16,293,830.9,293.05,836.77,293.08Z"/><path class="cls-14" d="M836.77,292.55c6.42-.28,13-2.65,16-3.73a28.22,28.22,0,0,0,2.66-1.06c.92-.45,8.84-4.4,10.63-12.23.36-1.56.94-4.11-.53-5.86a5.21,5.21,0,0,0-3.72-1.59,6.48,6.48,0,0,0-5.85,3.72,5.45,5.45,0,0,0,0-2.66A6.65,6.65,0,0,0,845.81,266a6.15,6.15,0,0,0-2.13,3.72,5.47,5.47,0,0,0-.53-2.65,6.86,6.86,0,0,0-8-3.2,7.06,7.06,0,0,0-4.78,6.39,7.2,7.2,0,0,0-2.13-3.19,6.61,6.61,0,0,0-5.32-1.6c-3.17.58-4.52,3.6-4.79,4.25a7.36,7.36,0,0,0-.53,2.66,5.66,5.66,0,0,0-1.06-2.12,5,5,0,0,0-8.51.53,6.11,6.11,0,0,0-.53,4.25c.63,3.91,3.31,6.75,5.31,8.51A37.24,37.24,0,0,0,836.77,292.55Z"/><path class="cls-15" d="M836.77,288.29c1.6.24,3.53-4.82,3.72-5.32a17.33,17.33,0,0,0,1.07-9c-.45-2.75-1.32-3.5-1.6-3.72a4.93,4.93,0,0,0-4.25-.54,6,6,0,0,0-3.2,2.66c-2.76,4.37.83,10.77,1.07,11.17a21.52,21.52,0,0,0,2.13,3.73C836.34,288.11,836.54,288.26,836.77,288.29Z"/><path class="cls-15" d="M842.61,286.78c.57,1,4.32-.1,4.68-.2a12.47,12.47,0,0,0,5.66-3.37c1.38-1.46,1.43-2.29,1.43-2.55a3.58,3.58,0,0,0-1.56-2.67,4.31,4.31,0,0,0-2.93-.66c-3.72.33-5.81,5.2-5.94,5.51a15.78,15.78,0,0,0-1.2,2.86C842.52,286.45,842.53,286.63,842.61,286.78Z"/><path class="cls-15" d="M830.93,286.78c-.57,1-4.32-.1-4.69-.2a12.48,12.48,0,0,1-5.65-3.37c-1.38-1.46-1.43-2.29-1.43-2.55a3.58,3.58,0,0,1,1.56-2.67,4.3,4.3,0,0,1,2.93-.66c3.71.33,5.8,5.2,5.93,5.51a15.78,15.78,0,0,1,1.2,2.86C831,286.45,831,286.63,830.93,286.78Z"/><path class="cls-9" d="M854.73,164.08c.06-.13-.9-.78-2-1.18a6.93,6.93,0,0,0-1.58-.39,12.41,12.41,0,0,0-4.71,0c-1.8.36-4,1.15-3.92,1.57s1.17.44,2.16.19,1.12-.76,2-1.17c1.63-.81,3.81-.17,7.07.78C854.17,164,854.69,164.17,854.73,164.08Z"/><path class="cls-9" d="M820.57,164.47c-.06-.13.89-.78,2-1.18a7.94,7.94,0,0,1,1.57-.39,12.63,12.63,0,0,1,4.71,0c1.8.36,4,1.15,3.93,1.57s-1.18.45-2.16.2-1.13-.77-2-1.18c-1.63-.8-3.82-.17-7.07.78C821.12,164.4,820.61,164.56,820.57,164.47Z"/><circle class="cls-16" cx="826.76" cy="168.4" r="2.04"/><circle class="cls-17" cx="826.76" cy="168.4" r="1.52"/><circle cx="826.76" cy="168.4" r="1.01"/><circle class="cls-11" cx="827.44" cy="167.81" r="0.39"/><circle class="cls-16" cx="847.97" cy="168.79" r="2.04"/><circle class="cls-17" cx="847.97" cy="168.79" r="1.52"/><circle cx="847.97" cy="168.79" r="1.01"/><circle class="cls-11" cx="847.29" cy="168.2" r="0.39"/><circle cx="838.82" cy="176.84" r="0.39"/><circle cx="835.68" cy="176.84" r="0.39"/><circle class="cls-4" cx="985.98" cy="157.38" r="52.62"/><circle class="cls-5" cx="985.74" cy="73.23" r="31.65"/><path class="cls-4" d="M954.57,79.23a1.91,1.91,0,0,0-1.58.4c-.49.59-.09,1.67,0,2,1,3,.36,6.3.79,9.42.82,5.91-1.29,12.42-2.36,15.71a48.16,48.16,0,0,1-7.06,13.75l1.17,2.35c-.49.65-1.18,1.59-2,2.75a55.33,55.33,0,0,0-9.82,25.13,53.48,53.48,0,0,0,3.54,25.53,48,48,0,0,0,11,16.88,44.57,44.57,0,0,0,7.46,5.89,41.6,41.6,0,0,0,11.78,5.11c1.29.31,3.61.6,8.25,1.18a60.36,60.36,0,0,0,9.43.78,42.7,42.7,0,0,0,8.24-1.18c1.12-.24,3.12-.82,7.07-2,3.77-1.08,5.65-1.63,6.68-2a74.79,74.79,0,0,0,9-3.54c5.83-2.94,9.26-7.35,11.78-10.6a49.91,49.91,0,0,0,9-19.24,49.32,49.32,0,0,0,1.57-16.89c-1.26-13.76-8.86-23.39-12.56-27.49l1.17-3.14a43.41,43.41,0,0,1-3.53-5.49c-5.26-9.74-5.45-19.2-5.5-24.35a64.84,64.84,0,0,1,.79-10.6l-2-1.18C981.49,79.05,956.39,79.4,954.57,79.23Z"/><path class="cls-6" d="M984.65,38a33.92,33.92,0,0,0-15.07,4.18,34.62,34.62,0,0,0-14.22,15.07A36.66,36.66,0,0,0,952,71.91a42.25,42.25,0,0,0,.42,6.27c1.19,7.83,12.9,23.12,32.22,38.91a105.79,105.79,0,0,0,9.83-6.9c9.46-7.49,22.39-17.73,24.68-33a34.87,34.87,0,0,0-10-29.71,43.06,43.06,0,0,0-5.44-4.18,31.71,31.71,0,0,0-4.6-2.51A33.12,33.12,0,0,0,984.65,38Z"/><path class="cls-7" d="M986,114.18a30.89,30.89,0,0,0-11-9.42c-3-1.51-4.09-1.37-4.72-1.18-4.64,1.44-6.45,13.13-2.75,15.71.59.4,1.61.8,6.29-.4A54.23,54.23,0,0,0,986,114.18Z"/><path class="cls-7" d="M984.93,114.12a31,31,0,0,1,11-9.43c3-1.5,4.09-1.37,4.72-1.18,4.64,1.45,6.45,13.13,2.74,15.71-.58.41-1.6.8-6.28-.39A54.51,54.51,0,0,1,984.93,114.12Z"/><path class="cls-7" d="M983.63,114.18q-1.25,5.58-2.75,11.39c-2.59,9.86-5.53,19-8.64,27.49l4.32-2.36c-.26,3.1-.26,4.67,0,4.72q1.11.18,8.64-37.31C984.67,116.8,984.15,115.49,983.63,114.18Z"/><path class="cls-7" d="M986.77,114.18q1.23,5.58,2.75,11.39c2.58,9.86,5.52,19,8.63,27.49l-4.31-2.36c.25,3.1.25,4.67,0,4.72q-1.12.18-8.64-37.31C985.72,116.8,986.24,115.49,986.77,114.18Z"/><circle class="cls-7" cx="985.59" cy="115.75" r="3.14"/><circle class="cls-8" cx="985.76" cy="71.97" r="24.94"/><path class="cls-9" d="M962.15,61.32l.14-.27a31.15,31.15,0,0,1,4.55-6.5,28.71,28.71,0,0,1,14.06-7.81,25.75,25.75,0,0,1,11.46.52s7.55,2.09,12.5,7.81a35,35,0,0,1,4.16,6.25c.23.44.41.8.52,1l-17.18,1-1.56-4.16-1.57,4.16h-9.89c-.35-1.73-.69-3.47-1-5.2q-1,2.34-2.08,4.68c-2.94,0-6.07-.17-9.38-.52-1.43-.15-2.82-.32-4.16-.52h-1"/><path class="cls-10" d="M982.9,86.86a2.2,2.2,0,0,1-.16-1.68,1.49,1.49,0,0,1,1-.94c.73-.14,1.63.51,1.92,1.65a2.07,2.07,0,0,1,.33-1c.09-.13.7-1.06,1.61-.93a1.64,1.64,0,0,1,1.25,1.29,1.94,1.94,0,0,1-.23,1.29,6.89,6.89,0,0,1-3.26,2.85A5.35,5.35,0,0,1,982.9,86.86Z"/><path d="M970.33,70.89a3,3,0,0,1-2.07-1.43,2.34,2.34,0,0,1-.22-.75,5.31,5.31,0,0,0,.35.51,4.61,4.61,0,0,0,.61.64,4.46,4.46,0,0,0,1.46.79"/><path d="M970.7,70.23A2.7,2.7,0,0,1,968.84,69a2.46,2.46,0,0,1-.2-.68c.08.12.18.28.32.46a4.21,4.21,0,0,0,.54.57,3.93,3.93,0,0,0,1.32.71"/><path d="M971.28,69.9a2.24,2.24,0,0,1-1.58-1.09,1.74,1.74,0,0,1-.17-.57,3.55,3.55,0,0,0,.27.39,3.68,3.68,0,0,0,.46.48,3.76,3.76,0,0,0,1.12.61"/><path d="M971.85,69.57a1.89,1.89,0,0,1-1.29-.89,1.64,1.64,0,0,1-.14-.47l.22.32a3.16,3.16,0,0,0,.38.39,2.73,2.73,0,0,0,.91.5"/><path class="cls-11" d="M980.67,71.18c.25-.89-2.23-2.89-4.71-3.14-3-.29-6.1,1.93-5.89,3.14s3.82,1.48,5.1,1.57a10.56,10.56,0,0,0,5.11-1.17A.7.7,0,0,0,980.67,71.18Z"/><path d="M975.46,72.86h-.29c-1.36-.09-5-.35-5.2-1.65a1.63,1.63,0,0,1,.58-1.28,7.11,7.11,0,0,1,5.42-2,7,7,0,0,1,4.56,2.44,1,1,0,0,1,.24.83h0a.83.83,0,0,1-.44.45A10.87,10.87,0,0,1,975.46,72.86Zm0-4.75a7,7,0,0,0-4.73,1.94,1.47,1.47,0,0,0-.52,1.12c.19,1.15,3.82,1.4,5,1.49a10.64,10.64,0,0,0,5.05-1.17c.11-.06.3-.16.35-.33a.92.92,0,0,0-.21-.67A6.91,6.91,0,0,0,976,68.14,4.71,4.71,0,0,0,975.42,68.11Z"/><path d="M1001.62,71.16a3,3,0,0,0,2.07-1.43,2.5,2.5,0,0,0,.23-.76,4.54,4.54,0,0,1-.36.51,3.95,3.95,0,0,1-2.07,1.43"/><path d="M1001.25,70.5a2.72,2.72,0,0,0,1.86-1.29,1.92,1.92,0,0,0,.2-.68,3,3,0,0,1-.32.46,4.1,4.1,0,0,1-.54.58,4.42,4.42,0,0,1-1.31.71"/><path d="M1000.68,70.17a2.3,2.3,0,0,0,1.57-1.09,2.12,2.12,0,0,0,.18-.58,4.41,4.41,0,0,1-.28.39,3.55,3.55,0,0,1-.46.49,3.38,3.38,0,0,1-1.11.6"/><path d="M1000.1,69.84a1.87,1.87,0,0,0,1.3-.9,1.55,1.55,0,0,0,.14-.47,3.43,3.43,0,0,1-.23.32,2.38,2.38,0,0,1-1.29.89"/><path class="cls-11" d="M991.28,71.58c-.25-.89,2.23-2.9,4.71-3.15,3-.29,6.1,1.93,5.9,3.15s-3.82,1.48-5.11,1.57a10.59,10.59,0,0,1-5.1-1.18A.72.72,0,0,1,991.28,71.58Z"/><path d="M996.5,73.25a10.87,10.87,0,0,1-4.87-1.2.77.77,0,0,1-.44-.45h0a1.08,1.08,0,0,1,.23-.83A7,7,0,0,1,996,68.34a7.16,7.16,0,0,1,5.42,2,1.62,1.62,0,0,1,.57,1.28c-.22,1.31-3.83,1.56-5.19,1.65Zm-5.12-1.7a.6.6,0,0,0,.34.33,10.52,10.52,0,0,0,5,1.17c1.2-.09,4.82-.34,5-1.49a1.49,1.49,0,0,0-.52-1.11A7,7,0,0,0,996,68.53a6.86,6.86,0,0,0-4.41,2.35.84.84,0,0,0-.21.67Z"/><circle class="cls-12" cx="973.02" cy="79.63" r="3.93"/><circle class="cls-12" cx="998.55" cy="79.63" r="3.93"/><path class="cls-13" d="M985.5,195.08a37.74,37.74,0,0,0,18.61-4.26c2.75-1.47,10.23-5.61,14.36-14.36a30.52,30.52,0,0,0,2.66-9.57,31.32,31.32,0,0,0-1.06-12.24,28.61,28.61,0,0,0-11.17,10.64,36.7,36.7,0,0,0-2.66-4.79,37.2,37.2,0,0,0-4.79-5.85,33.54,33.54,0,0,0-3.72,3.73,32.09,32.09,0,0,0-4.25,6.38,26.78,26.78,0,0,0-8-10.11,17.86,17.86,0,0,0-3.19,2.66,18.46,18.46,0,0,0-4.26,7.45,28.22,28.22,0,0,0-2.13-3.72,29.37,29.37,0,0,0-5.85-6.39,24.07,24.07,0,0,0-3.19,3.2,25,25,0,0,0-4.25,7.44,26.4,26.4,0,0,0-2.13-3.19,27.38,27.38,0,0,0-9-7.45,25.84,25.84,0,0,0-1.07,3.73A31.41,31.41,0,0,0,957.84,185C966.89,195,979.63,195.05,985.5,195.08Z"/><path class="cls-14" d="M985.5,194.55c6.42-.28,13-2.65,16-3.73a26.18,26.18,0,0,0,2.66-1.06c.93-.45,8.85-4.4,10.64-12.23.35-1.56.94-4.11-.53-5.86a5.21,5.21,0,0,0-3.72-1.59,6.32,6.32,0,0,0-4.79,2.13,6.66,6.66,0,0,0-1.07,1.59,5.33,5.33,0,0,0,0-2.66,6.64,6.64,0,0,0-10.1-3.19,6.15,6.15,0,0,0-2.13,3.72,5.47,5.47,0,0,0-.53-2.65,6.88,6.88,0,0,0-8-3.2,7.08,7.08,0,0,0-4.79,6.39A7.07,7.07,0,0,0,977,169a6.61,6.61,0,0,0-5.32-1.6c-3.17.58-4.52,3.6-4.79,4.25a7.36,7.36,0,0,0-.53,2.66,5.82,5.82,0,0,0-1.06-2.12,5,5,0,0,0-8.51.53,6.15,6.15,0,0,0-.54,4.25c.64,3.91,3.32,6.75,5.32,8.51A37.24,37.24,0,0,0,985.5,194.55Z"/><path class="cls-15" d="M985.5,190.29c1.6.24,3.53-4.82,3.72-5.32a17.3,17.3,0,0,0,1.06-9c-.44-2.75-1.31-3.5-1.59-3.72a5,5,0,0,0-4.26-.54,5.93,5.93,0,0,0-3.19,2.66c-2.77,4.37.83,10.77,1.07,11.17a21.42,21.42,0,0,0,2.12,3.73C985.06,190.11,985.27,190.26,985.5,190.29Z"/><path class="cls-15" d="M991.34,188.78c.56,1,4.31-.1,4.68-.2a12.36,12.36,0,0,0,5.65-3.37c1.38-1.46,1.43-2.29,1.44-2.55a3.59,3.59,0,0,0-1.57-2.67,4.29,4.29,0,0,0-2.92-.66c-3.72.33-5.81,5.2-5.94,5.51a15.78,15.78,0,0,0-1.2,2.86C991.25,188.45,991.26,188.63,991.34,188.78Z"/><path class="cls-15" d="M979.65,188.78c-.56,1-4.31-.1-4.68-.2a12.36,12.36,0,0,1-5.65-3.37c-1.38-1.46-1.43-2.29-1.44-2.55a3.61,3.61,0,0,1,1.57-2.67,4.29,4.29,0,0,1,2.92-.66c3.72.33,5.81,5.2,5.94,5.51a15.78,15.78,0,0,1,1.2,2.86C979.74,188.45,979.73,188.63,979.65,188.78Z"/><path class="cls-9" d="M1003.46,66.08a4.46,4.46,0,0,0-2-1.18,6.75,6.75,0,0,0-1.57-.39,12.42,12.42,0,0,0-4.71,0c-1.8.36-4,1.15-3.93,1.57s1.18.44,2.16.19,1.13-.76,2-1.17c1.62-.81,3.81-.17,7.06.78C1002.9,66,1003.41,66.17,1003.46,66.08Z"/><path class="cls-9" d="M969.29,66.47a4.46,4.46,0,0,1,2-1.18,7.94,7.94,0,0,1,1.57-.39,12.63,12.63,0,0,1,4.71,0c1.8.36,4,1.15,3.93,1.57s-1.18.45-2.16.2-1.13-.77-2-1.18c-1.63-.8-3.81-.17-7.07.78C969.85,66.4,969.33,66.56,969.29,66.47Z"/><circle class="cls-16" cx="975.49" cy="70.4" r="2.04"/><circle class="cls-17" cx="975.49" cy="70.4" r="1.52"/><circle cx="975.49" cy="70.4" r="1.01"/><circle class="cls-11" cx="976.16" cy="69.81" r="0.39"/><circle class="cls-16" cx="996.7" cy="70.79" r="2.04"/><circle class="cls-17" cx="996.7" cy="70.79" r="1.52"/><circle cx="996.7" cy="70.79" r="1.01"/><circle class="cls-11" cx="996.02" cy="70.2" r="0.39"/><circle cx="987.55" cy="78.84" r="0.39"/><circle cx="984.41" cy="78.84" r="0.39"/><circle class="cls-4" cx="1582.69" cy="556.38" r="52.62"/><circle class="cls-5" cx="1582.92" cy="472.23" r="31.65"/><path class="cls-4" d="M1614.1,478.23c.2,0,1.13-.13,1.57.4s.1,1.67,0,2c-1,3-.35,6.3-.78,9.42-.82,5.91,1.29,12.42,2.35,15.71a48.41,48.41,0,0,0,7.07,13.75l-1.18,2.35c.49.65,1.19,1.59,2,2.75a55.35,55.35,0,0,1,9.81,25.13,53.3,53.3,0,0,1-3.53,25.53,48.18,48.18,0,0,1-11,16.88,44.1,44.1,0,0,1-7.47,5.89,41.36,41.36,0,0,1-11.78,5.11c-1.28.31-3.6.6-8.24,1.18a60.44,60.44,0,0,1-9.43.78,42.58,42.58,0,0,1-8.24-1.18c-1.12-.24-3.12-.82-7.07-2-3.77-1.08-5.65-1.63-6.68-2a74.79,74.79,0,0,1-9-3.54c-5.84-2.94-9.26-7.35-11.78-10.6a49.91,49.91,0,0,1-9-19.24,49.07,49.07,0,0,1-1.57-16.89c1.26-13.76,8.86-23.39,12.56-27.49l-1.18-3.14a43.27,43.27,0,0,0,3.54-5.49c5.25-9.74,5.45-19.2,5.5-24.35a64.84,64.84,0,0,0-.79-10.6l2-1.18C1587.17,478.05,1612.28,478.4,1614.1,478.23Z"/><path class="cls-6" d="M1584,437a33.83,33.83,0,0,1,15.06,4.18,34.57,34.57,0,0,1,14.23,15.07,36.54,36.54,0,0,1,3.34,14.64,41.45,41.45,0,0,1-.41,6.27c-1.19,7.83-12.9,23.12-32.22,38.91a105.79,105.79,0,0,1-9.83-6.9c-9.46-7.49-22.39-17.73-24.68-33.05a34.87,34.87,0,0,1,10-29.71,43.06,43.06,0,0,1,5.44-4.18,31.71,31.71,0,0,1,4.6-2.51A33.09,33.09,0,0,1,1584,437Z"/><path class="cls-7" d="M1582.69,513.18a30.89,30.89,0,0,1,11-9.42c3-1.51,4.09-1.37,4.71-1.18,4.65,1.44,6.46,13.13,2.75,15.71-.58.4-1.6.8-6.28-.4A54,54,0,0,1,1582.69,513.18Z"/><path class="cls-7" d="M1583.74,513.12a31,31,0,0,0-11-9.43c-3-1.5-4.08-1.37-4.71-1.18-4.64,1.45-6.45,13.13-2.75,15.71.59.41,1.61.8,6.29-.39A54.71,54.71,0,0,0,1583.74,513.12Z"/><path class="cls-7" d="M1585,513.18q1.23,5.58,2.75,11.39c2.59,9.86,5.53,19,8.64,27.49l-4.32-2.36c.26,3.1.26,4.67,0,4.72q-1.11.18-8.64-37.31C1584,515.8,1584.52,514.49,1585,513.18Z"/><path class="cls-7" d="M1581.9,513.18q-1.23,5.58-2.75,11.39c-2.58,9.86-5.53,19-8.64,27.49l4.32-2.36c-.26,3.1-.26,4.67,0,4.72q1.13.18,8.64-37.31Z"/><circle class="cls-7" cx="1583.08" cy="514.75" r="3.14"/><circle class="cls-8" cx="1582.91" cy="470.97" r="24.94"/><path class="cls-9" d="M1606.51,460.32l-.13-.27a31.15,31.15,0,0,0-4.55-6.5,28.71,28.71,0,0,0-14.06-7.81,25.75,25.75,0,0,0-11.46.52s-7.55,2.09-12.5,7.81a34.41,34.41,0,0,0-4.16,6.25c-.23.44-.41.8-.53,1l17.19,1,1.56-4.16,1.56,4.16h9.9c.35-1.73.69-3.47,1-5.2l2.08,4.68c2.93,0,6.07-.17,9.38-.52,1.43-.15,2.82-.32,4.16-.52h1"/><path class="cls-10" d="M1585.77,485.86a2.2,2.2,0,0,0,.16-1.68,1.51,1.51,0,0,0-1-.94,1.9,1.9,0,0,0-1.92,1.65,2.33,2.33,0,0,0-.33-.95c-.09-.13-.7-1.06-1.61-.93a1.64,1.64,0,0,0-1.25,1.29,1.94,1.94,0,0,0,.23,1.29,6.89,6.89,0,0,0,3.26,2.85A5.35,5.35,0,0,0,1585.77,485.86Z"/><path d="M1598.34,469.89a3,3,0,0,0,2.07-1.43,2.34,2.34,0,0,0,.22-.75,4.17,4.17,0,0,1-.36.51,3.88,3.88,0,0,1-.6.64,4.56,4.56,0,0,1-1.46.79"/><path d="M1598,469.23a2.67,2.67,0,0,0,1.85-1.28,2.2,2.2,0,0,0,.21-.68c-.08.12-.18.28-.32.46a4.21,4.21,0,0,1-.54.57,4,4,0,0,1-1.32.71"/><path d="M1597.39,468.9a2.26,2.26,0,0,0,1.58-1.09,1.74,1.74,0,0,0,.17-.57l-.27.39a4.53,4.53,0,0,1-.46.48,3.89,3.89,0,0,1-1.12.61"/><path d="M1596.82,468.57a1.89,1.89,0,0,0,1.29-.89,1.64,1.64,0,0,0,.14-.47l-.22.32a4.16,4.16,0,0,1-.38.39,2.73,2.73,0,0,1-.92.5"/><path class="cls-11" d="M1588,470.18c-.25-.89,2.22-2.89,4.71-3.14,3-.29,6.09,1.93,5.89,3.14s-3.82,1.48-5.11,1.57a10.51,10.51,0,0,1-5.1-1.17A.7.7,0,0,1,1588,470.18Z"/><path d="M1588.34,470.66a.77.77,0,0,1-.44-.45h0a1,1,0,0,1,.24-.83,7,7,0,0,1,4.56-2.44,7.15,7.15,0,0,1,5.42,2,1.58,1.58,0,0,1,.57,1.28c-.22,1.3-3.83,1.56-5.19,1.65h-.29A10.87,10.87,0,0,1,1588.34,470.66Zm4.38-3.52a6.89,6.89,0,0,0-4.42,2.35.88.88,0,0,0-.21.67h0c.05.17.24.27.34.33a10.67,10.67,0,0,0,5.06,1.17c1.19-.09,4.82-.34,5-1.49a1.47,1.47,0,0,0-.52-1.12,7,7,0,0,0-4.73-1.94A4.58,4.58,0,0,0,1592.72,467.14Z"/><path d="M1567,470.16a3,3,0,0,1-2.07-1.43,2.46,2.46,0,0,1-.22-.76,3.52,3.52,0,0,0,.36.51,3.93,3.93,0,0,0,.6.64,4.56,4.56,0,0,0,1.46.79"/><path d="M1567.41,469.5a2.69,2.69,0,0,1-1.85-1.29,2.2,2.2,0,0,1-.21-.68c.08.13.19.29.32.46a4.33,4.33,0,0,0,.55.58,4.42,4.42,0,0,0,1.31.71"/><path d="M1568,469.17a2.33,2.33,0,0,1-1.58-1.09,1.79,1.79,0,0,1-.17-.58l.27.39a5.54,5.54,0,0,0,.46.49,3.48,3.48,0,0,0,1.12.6"/><path d="M1568.56,468.84a1.88,1.88,0,0,1-1.29-.9,1.55,1.55,0,0,1-.14-.47,3,3,0,0,0,.6.72,2.92,2.92,0,0,0,.92.49"/><path class="cls-11" d="M1577.39,470.58c.24-.89-2.23-2.9-4.72-3.15-3-.29-6.09,1.93-5.89,3.15s3.82,1.48,5.11,1.57A10.59,10.59,0,0,0,1577,471,.72.72,0,0,0,1577.39,470.58Z"/><path d="M1571.88,472.24c-1.36-.09-5-.34-5.19-1.65a1.58,1.58,0,0,1,.57-1.28,7.14,7.14,0,0,1,5.42-2,7,7,0,0,1,4.56,2.43,1.06,1.06,0,0,1,.24.83.77.77,0,0,1-.44.45,10.87,10.87,0,0,1-4.87,1.2Zm-4.48-2.79a1.45,1.45,0,0,0-.52,1.11c.19,1.15,3.82,1.4,5,1.49a10.53,10.53,0,0,0,5.06-1.17.6.6,0,0,0,.34-.33h0a.84.84,0,0,0-.21-.67,6.89,6.89,0,0,0-4.42-2.35,4.61,4.61,0,0,0-.53,0A7,7,0,0,0,1567.4,469.45Z"/><circle class="cls-12" cx="1595.65" cy="478.63" r="3.93"/><circle class="cls-12" cx="1570.12" cy="478.63" r="3.93"/><path class="cls-13" d="M1583.17,594.08a37.72,37.72,0,0,1-18.61-4.26c-2.75-1.47-10.24-5.61-14.37-14.36a31.1,31.1,0,0,1-2.66-9.57,31.48,31.48,0,0,1,1.07-12.24,29.07,29.07,0,0,1,4.79,3.2,28.68,28.68,0,0,1,6.38,7.44,36.7,36.7,0,0,1,2.66-4.79,37.19,37.19,0,0,1,4.78-5.85,33.56,33.56,0,0,1,3.73,3.73,32.54,32.54,0,0,1,4.25,6.38,26.52,26.52,0,0,1,8-10.11,17.86,17.86,0,0,1,3.19,2.66,18.46,18.46,0,0,1,4.26,7.45,29,29,0,0,1,8-10.11,24.68,24.68,0,0,1,3.19,3.2,25,25,0,0,1,4.25,7.44,26.4,26.4,0,0,1,2.13-3.19,27.38,27.38,0,0,1,9-7.45,27.2,27.2,0,0,1,1.07,3.73,31.41,31.41,0,0,1-7.45,26.59C1601.78,594,1589,594.05,1583.17,594.08Z"/><path class="cls-14" d="M1583.17,593.55c-6.42-.28-13-2.65-16-3.73a26.86,26.86,0,0,1-2.65-1.06c-.93-.45-8.85-4.4-10.64-12.23-.36-1.56-.94-4.11.53-5.86a5.21,5.21,0,0,1,3.72-1.59,6.48,6.48,0,0,1,5.85,3.72,5.45,5.45,0,0,1,0-2.66,6.65,6.65,0,0,1,10.11-3.19,6.15,6.15,0,0,1,2.13,3.72,5.47,5.47,0,0,1,.53-2.65,6.87,6.87,0,0,1,8-3.2,7.06,7.06,0,0,1,4.78,6.39,7.2,7.2,0,0,1,2.13-3.19,6.61,6.61,0,0,1,5.32-1.6c3.17.58,4.52,3.6,4.79,4.25a7.36,7.36,0,0,1,.53,2.66,5.66,5.66,0,0,1,1.06-2.12,5,5,0,0,1,8.51.53,6.11,6.11,0,0,1,.53,4.25c-.63,3.91-3.31,6.75-5.31,8.51A37.24,37.24,0,0,1,1583.17,593.55Z"/><path class="cls-15" d="M1583.17,589.29c-1.6.24-3.53-4.82-3.72-5.32a17.33,17.33,0,0,1-1.07-9c.45-2.75,1.32-3.5,1.6-3.72a4.93,4.93,0,0,1,4.25-.54,6,6,0,0,1,3.2,2.66c2.76,4.37-.83,10.77-1.07,11.17a21.52,21.52,0,0,1-2.13,3.73C1583.6,589.11,1583.4,589.26,1583.17,589.29Z"/><path class="cls-15" d="M1577.33,587.78c-.57,1-4.31-.1-4.68-.2a12.47,12.47,0,0,1-5.66-3.37c-1.38-1.46-1.43-2.29-1.43-2.55a3.58,3.58,0,0,1,1.56-2.67,4.32,4.32,0,0,1,2.93-.66c3.72.33,5.81,5.2,5.94,5.51a15.78,15.78,0,0,1,1.2,2.86C1577.42,587.45,1577.41,587.63,1577.33,587.78Z"/><path class="cls-15" d="M1589,587.78c.56,1,4.31-.1,4.68-.2a12.48,12.48,0,0,0,5.65-3.37c1.38-1.46,1.43-2.29,1.43-2.55a3.58,3.58,0,0,0-1.56-2.67,4.3,4.3,0,0,0-2.93-.66c-3.71.33-5.8,5.2-5.93,5.51a15.78,15.78,0,0,0-1.2,2.86C1588.93,587.45,1588.93,587.63,1589,587.78Z"/><path class="cls-9" d="M1565.21,465.08a4.46,4.46,0,0,1,2-1.18,6.75,6.75,0,0,1,1.57-.39,12.42,12.42,0,0,1,4.71,0c1.8.36,4,1.15,3.93,1.57s-1.18.44-2.16.19-1.13-.76-2-1.17c-1.63-.81-3.81-.17-7.07.78C1565.77,465,1565.25,465.17,1565.21,465.08Z"/><path class="cls-9" d="M1599.38,465.47a4.46,4.46,0,0,0-2-1.18,7.94,7.94,0,0,0-1.57-.39,12.63,12.63,0,0,0-4.71,0c-1.8.36-4,1.15-3.93,1.57s1.18.45,2.16.2,1.13-.77,2-1.18c1.63-.8,3.82-.17,7.07.78C1598.82,465.4,1599.33,465.56,1599.38,465.47Z"/><circle class="cls-16" cx="1593.18" cy="469.4" r="2.04"/><circle class="cls-17" cx="1593.18" cy="469.4" r="1.52"/><circle cx="1593.18" cy="469.4" r="1.01"/><circle class="cls-11" cx="1592.5" cy="468.81" r="0.39"/><circle class="cls-16" cx="1571.97" cy="469.79" r="2.04"/><circle class="cls-17" cx="1571.97" cy="469.79" r="1.52"/><circle cx="1571.97" cy="469.79" r="1.01"/><circle class="cls-11" cx="1572.65" cy="469.2" r="0.39"/><circle cx="1581.12" cy="477.84" r="0.39"/><circle cx="1584.26" cy="477.84" r="0.39"/><circle class="cls-4" cx="1433.1" cy="458.38" r="52.62"/><circle class="cls-5" cx="1433.34" cy="374.23" r="31.65"/><path class="cls-4" d="M1464.52,380.23c.19,0,1.13-.13,1.57.4s.1,1.67,0,2c-1,3-.35,6.3-.79,9.42-.82,5.91,1.29,12.42,2.36,15.71a48.41,48.41,0,0,0,7.07,13.75l-1.18,2.35c.49.65,1.18,1.59,2,2.75a55.33,55.33,0,0,1,9.82,25.13,53.43,53.43,0,0,1-3.53,25.53,48.25,48.25,0,0,1-11,16.88,44.16,44.16,0,0,1-7.46,5.89,41.48,41.48,0,0,1-11.78,5.11c-1.28.31-3.61.6-8.25,1.18a60.25,60.25,0,0,1-9.42.78,42.7,42.7,0,0,1-8.25-1.18c-1.12-.24-3.11-.82-7.07-2-3.76-1.08-5.64-1.63-6.67-2a74.8,74.8,0,0,1-9-3.54c-5.83-2.94-9.25-7.35-11.78-10.6a50.22,50.22,0,0,1-9-19.24,49.58,49.58,0,0,1-1.57-16.89c1.26-13.76,8.86-23.39,12.57-27.49l-1.18-3.14a43.41,43.41,0,0,0,3.53-5.49c5.26-9.74,5.45-19.2,5.5-24.35a63.55,63.55,0,0,0-.78-10.6l2-1.18C1437.59,380.05,1462.69,380.4,1464.52,380.23Z"/><path class="cls-6" d="M1434.44,339a33.92,33.92,0,0,1,15.06,4.18,34.51,34.51,0,0,1,14.22,15.07,36.66,36.66,0,0,1,3.35,14.64,42.25,42.25,0,0,1-.42,6.27c-1.18,7.83-12.89,23.12-32.21,38.91a104.45,104.45,0,0,1-9.83-6.9c-9.46-7.49-22.4-17.73-24.69-33.05a34.87,34.87,0,0,1,10-29.71,43.06,43.06,0,0,1,5.44-4.18,32,32,0,0,1,19-5.23Z"/><path class="cls-7" d="M1433.1,415.18a30.9,30.9,0,0,1,11-9.42c3-1.51,4.08-1.37,4.71-1.18,4.65,1.44,6.45,13.13,2.75,15.71-.58.4-1.61.8-6.28-.4A54.34,54.34,0,0,1,1433.1,415.18Z"/><path class="cls-7" d="M1434.16,415.12a31.06,31.06,0,0,0-11-9.43c-3-1.5-4.09-1.37-4.71-1.18-4.65,1.45-6.45,13.13-2.75,15.71.58.41,1.61.8,6.28-.39A54.82,54.82,0,0,0,1434.16,415.12Z"/><path class="cls-7" d="M1435.46,415.18q1.23,5.58,2.75,11.39c2.58,9.86,5.53,19,8.64,27.49l-4.32-2.36c.26,3.1.26,4.67,0,4.72q-1.12.18-8.64-37.31C1434.41,417.8,1434.93,416.49,1435.46,415.18Z"/><path class="cls-7" d="M1432.32,415.18q-1.23,5.58-2.75,11.39c-2.59,9.86-5.53,19-8.64,27.49l4.32-2.36c-.26,3.1-.26,4.67,0,4.72q1.11.18,8.64-37.31C1433.36,417.8,1432.84,416.49,1432.32,415.18Z"/><circle class="cls-7" cx="1433.49" cy="416.75" r="3.14"/><circle class="cls-8" cx="1433.32" cy="372.97" r="24.94"/><path class="cls-9" d="M1456.93,362.32l-.14-.27a30.71,30.71,0,0,0-4.55-6.5,28.71,28.71,0,0,0-14.06-7.81,25.71,25.71,0,0,0-11.45.52s-7.55,2.09-12.5,7.81a34.32,34.32,0,0,0-4.17,6.25c-.23.44-.4.8-.52,1l17.19,1,1.56-4.16,1.56,4.16h9.89l1-5.2q1,2.34,2.08,4.68c2.93,0,6.06-.17,9.37-.52,1.43-.15,2.82-.32,4.17-.52h1"/><path class="cls-10" d="M1436.18,387.86a2.16,2.16,0,0,0,.16-1.68,1.49,1.49,0,0,0-1-.94,1.91,1.91,0,0,0-1.92,1.65,2.07,2.07,0,0,0-.33-.95c-.08-.13-.69-1.06-1.6-.93a1.62,1.62,0,0,0-1.25,1.29,1.88,1.88,0,0,0,.23,1.29,6.87,6.87,0,0,0,3.25,2.85A5.3,5.3,0,0,0,1436.18,387.86Z"/><path d="M1448.75,371.89a3,3,0,0,0,2.07-1.43,2.37,2.37,0,0,0,.23-.75q-.13.21-.36.51a5.05,5.05,0,0,1-.6.64,4.56,4.56,0,0,1-1.47.79"/><path d="M1448.38,371.23a2.7,2.7,0,0,0,1.86-1.28,1.92,1.92,0,0,0,.2-.68,4.45,4.45,0,0,1-.32.46,3.65,3.65,0,0,1-.54.57,3.84,3.84,0,0,1-1.32.71"/><path d="M1447.81,370.9a2.25,2.25,0,0,0,1.57-1.09,1.74,1.74,0,0,0,.17-.57,3.55,3.55,0,0,1-.27.39,3.09,3.09,0,0,1-.46.48,3.77,3.77,0,0,1-1.11.61"/><path d="M1447.23,370.57a1.85,1.85,0,0,0,1.29-.89,1.18,1.18,0,0,0,.14-.47,3.84,3.84,0,0,1-.22.32,3.76,3.76,0,0,1-.37.39,2.83,2.83,0,0,1-.92.5"/><path class="cls-11" d="M1438.41,372.18c-.25-.89,2.23-2.89,4.71-3.14,3-.29,6.1,1.93,5.89,3.14s-3.81,1.48-5.1,1.57a10.56,10.56,0,0,1-5.11-1.17A.73.73,0,0,1,1438.41,372.18Z"/><path d="M1438.76,372.66a.77.77,0,0,1-.44-.45h0a1,1,0,0,1,.23-.83,7,7,0,0,1,4.56-2.44,7.15,7.15,0,0,1,5.43,2,1.62,1.62,0,0,1,.57,1.28c-.22,1.3-3.83,1.56-5.19,1.65h-.29A10.82,10.82,0,0,1,1438.76,372.66Zm4.37-3.52a6.86,6.86,0,0,0-4.41,2.35.84.84,0,0,0-.21.67h0c0,.17.24.27.34.33a10.66,10.66,0,0,0,5.05,1.17c1.19-.09,4.82-.34,5-1.49a1.48,1.48,0,0,0-.53-1.12,7,7,0,0,0-4.72-1.94Z"/><path d="M1417.46,372.16a3,3,0,0,1-2.07-1.43,2.5,2.5,0,0,1-.23-.76c.09.14.21.32.36.51a4.45,4.45,0,0,0,.6.64,4.56,4.56,0,0,0,1.47.79"/><path d="M1417.83,371.5a2.72,2.72,0,0,1-1.86-1.29,2.16,2.16,0,0,1-.2-.68,3.94,3.94,0,0,0,.32.46,4.82,4.82,0,0,0,.54.58,4.41,4.41,0,0,0,1.32.71"/><path d="M1418.41,371.17a2.31,2.31,0,0,1-1.58-1.09,1.79,1.79,0,0,1-.17-.58,2.8,2.8,0,0,0,.27.39,4.33,4.33,0,0,0,.46.49,3.28,3.28,0,0,0,1.12.6"/><path d="M1419,370.84a1.84,1.84,0,0,1-1.29-.9,1.55,1.55,0,0,1-.14-.47,2.06,2.06,0,0,0,.22.32,2.54,2.54,0,0,0,.38.4,2.82,2.82,0,0,0,.91.49"/><path class="cls-11" d="M1427.8,372.58c.25-.89-2.23-2.9-4.71-3.15-3-.29-6.1,1.93-5.89,3.15s3.81,1.48,5.1,1.57a10.64,10.64,0,0,0,5.11-1.18A.71.71,0,0,0,1427.8,372.58Z"/><path d="M1422.3,374.24c-1.36-.09-5-.34-5.2-1.65a1.65,1.65,0,0,1,.57-1.28,7.16,7.16,0,0,1,5.43-2,7,7,0,0,1,4.56,2.43,1.06,1.06,0,0,1,.24.83.81.81,0,0,1-.45.45,10.81,10.81,0,0,1-4.86,1.2Zm-4.48-2.79a1.47,1.47,0,0,0-.53,1.11c.2,1.15,3.83,1.4,5,1.49a10.5,10.5,0,0,0,5-1.17.59.59,0,0,0,.35-.33h0a.92.92,0,0,0-.21-.67,6.91,6.91,0,0,0-4.42-2.35,4.78,4.78,0,0,0-.53,0A7,7,0,0,0,1417.82,371.45Z"/><circle class="cls-12" cx="1446.06" cy="380.63" r="3.93"/><circle class="cls-12" cx="1420.54" cy="380.63" r="3.93"/><path class="cls-13" d="M1433.59,496.08a37.77,37.77,0,0,1-18.62-4.26c-2.74-1.47-10.23-5.61-14.36-14.36a30.52,30.52,0,0,1-2.66-9.57,31.71,31.71,0,0,1,1.06-12.24,28.61,28.61,0,0,1,11.17,10.64,36.44,36.44,0,0,1,7.45-10.64,33.18,33.18,0,0,1,8,10.11,26.07,26.07,0,0,1,3.19-5.32,26.84,26.84,0,0,1,4.79-4.79,17.94,17.94,0,0,1,7.44,10.11,29.34,29.34,0,0,1,8-10.11,24.07,24.07,0,0,1,3.19,3.2,24.83,24.83,0,0,1,4.26,7.44,26.49,26.49,0,0,1,11.17-10.64,26,26,0,0,1,1.06,3.73,31.41,31.41,0,0,1-7.45,26.59C1452.2,496,1439.45,496.05,1433.59,496.08Z"/><path class="cls-14" d="M1433.59,495.55c-6.42-.28-13-2.65-16-3.73a26.18,26.18,0,0,1-2.66-1.06c-.93-.45-8.85-4.4-10.64-12.23-.35-1.56-.93-4.11.53-5.86a5.24,5.24,0,0,1,3.73-1.59,6.37,6.37,0,0,1,4.79,2.13,6.88,6.88,0,0,1,1.06,1.59,5.45,5.45,0,0,1,0-2.66,6.64,6.64,0,0,1,10.1-3.19,6.1,6.1,0,0,1,2.13,3.72,5.59,5.59,0,0,1,.53-2.65,6.88,6.88,0,0,1,8-3.2,4,4,0,1,0,6.92,3.2,6.59,6.59,0,0,1,5.32-1.6c3.16.58,4.51,3.6,4.78,4.25a7.15,7.15,0,0,1,.53,2.66,5.88,5.88,0,0,1,1.07-2.12,5,5,0,0,1,8.51.53,6.23,6.23,0,0,1,.53,4.25c-.63,3.91-3.32,6.75-5.32,8.51A37.22,37.22,0,0,1,1433.59,495.55Z"/><path class="cls-15" d="M1433.59,491.29c-1.61.24-3.54-4.82-3.73-5.32a17.41,17.41,0,0,1-1.06-9c.44-2.75,1.31-3.5,1.6-3.72a4.93,4.93,0,0,1,4.25-.54,5.89,5.89,0,0,1,3.19,2.66c2.77,4.37-.83,10.77-1.06,11.17a21.52,21.52,0,0,1-2.13,3.73C1434,491.11,1433.82,491.26,1433.59,491.29Z"/><path class="cls-15" d="M1427.75,489.78c-.57,1-4.32-.1-4.69-.2a12.48,12.48,0,0,1-5.65-3.37c-1.38-1.46-1.43-2.29-1.43-2.55a3.58,3.58,0,0,1,1.56-2.67,4.3,4.3,0,0,1,2.93-.66c3.71.33,5.8,5.2,5.93,5.51a15.78,15.78,0,0,1,1.2,2.86C1427.83,489.45,1427.83,489.63,1427.75,489.78Z"/><path class="cls-15" d="M1439.43,489.78c.57,1,4.32-.1,4.69-.2a12.48,12.48,0,0,0,5.65-3.37c1.38-1.46,1.43-2.29,1.43-2.55a3.58,3.58,0,0,0-1.56-2.67,4.31,4.31,0,0,0-2.93-.66c-3.72.33-5.81,5.2-5.94,5.51a15.78,15.78,0,0,0-1.2,2.86C1439.34,489.45,1439.35,489.63,1439.43,489.78Z"/><path class="cls-9" d="M1415.63,367.08c-.06-.13.9-.78,2-1.18a6.75,6.75,0,0,1,1.57-.39,12.42,12.42,0,0,1,4.71,0c1.8.36,4,1.15,3.93,1.57s-1.17.44-2.16.19-1.12-.76-2-1.17c-1.63-.81-3.82-.17-7.07.78C1416.18,367,1415.67,367.17,1415.63,367.08Z"/><path class="cls-9" d="M1449.79,367.47c.06-.13-.9-.78-2-1.18a8.11,8.11,0,0,0-1.57-.39,12.68,12.68,0,0,0-4.72,0c-1.79.36-4,1.15-3.92,1.57s1.17.45,2.16.2,1.12-.77,2-1.18c1.63-.8,3.81-.17,7.07.78C1449.24,367.4,1449.75,367.56,1449.79,367.47Z"/><circle class="cls-16" cx="1443.59" cy="371.4" r="2.04"/><circle class="cls-17" cx="1443.59" cy="371.4" r="1.52"/><circle cx="1443.59" cy="371.4" r="1.01"/><circle class="cls-11" cx="1442.92" cy="370.81" r="0.39"/><circle class="cls-16" cx="1422.39" cy="371.79" r="2.04"/><circle class="cls-17" cx="1422.39" cy="371.79" r="1.52"/><circle cx="1422.39" cy="371.79" r="1.01"/><circle class="cls-11" cx="1423.06" cy="371.2" r="0.39"/><circle cx="1431.53" cy="379.84" r="0.39"/><circle cx="1434.67" cy="379.84" r="0.39"/><circle class="cls-4" cx="1284.54" cy="356.38" r="52.62"/><circle class="cls-5" cx="1284.78" cy="272.23" r="31.65"/><path class="cls-4" d="M1316,278.23c.19,0,1.13-.13,1.57.4s.1,1.67,0,2c-1,3-.35,6.3-.78,9.42-.82,5.91,1.29,12.42,2.35,15.71a48.41,48.41,0,0,0,7.07,13.75l-1.18,2.35c.49.65,1.18,1.59,2,2.75a55.47,55.47,0,0,1,9.81,25.13,53.43,53.43,0,0,1-3.53,25.53,48.25,48.25,0,0,1-11,16.88,43.76,43.76,0,0,1-7.46,5.89,41.36,41.36,0,0,1-11.78,5.11c-1.28.31-3.6.6-8.24,1.18a60.44,60.44,0,0,1-9.43.78,42.82,42.82,0,0,1-8.25-1.18c-1.11-.24-3.11-.82-7.06-2-3.77-1.08-5.65-1.63-6.68-2a74.14,74.14,0,0,1-9-3.54c-5.84-2.94-9.26-7.35-11.78-10.6a50.13,50.13,0,0,1-9-19.24,49.58,49.58,0,0,1-1.57-16.89c1.27-13.76,8.87-23.39,12.57-27.49l-1.18-3.14a43.27,43.27,0,0,0,3.54-5.49c5.25-9.74,5.45-19.2,5.49-24.35a63.55,63.55,0,0,0-.78-10.6l2-1.18C1289,278.05,1314.13,278.4,1316,278.23Z"/><path class="cls-6" d="M1285.88,237a33.87,33.87,0,0,1,15.06,4.18,34.57,34.57,0,0,1,14.23,15.07,36.54,36.54,0,0,1,3.34,14.64,42.25,42.25,0,0,1-.42,6.27c-1.18,7.83-12.89,23.12-32.21,38.91a105.79,105.79,0,0,1-9.83-6.9c-9.46-7.49-22.39-17.73-24.68-33.05a34.79,34.79,0,0,1,10-29.71,42.29,42.29,0,0,1,5.44-4.18,31.71,31.71,0,0,1,4.6-2.51A33,33,0,0,1,1285.88,237Z"/><path class="cls-7" d="M1284.54,313.18a30.9,30.9,0,0,1,11-9.42c3-1.51,4.09-1.37,4.71-1.18,4.65,1.44,6.46,13.13,2.75,15.71-.58.4-1.61.8-6.28-.4A54.34,54.34,0,0,1,1284.54,313.18Z"/><path class="cls-7" d="M1285.6,313.12a31.06,31.06,0,0,0-11-9.43c-3-1.5-4.08-1.37-4.71-1.18-4.64,1.45-6.45,13.13-2.75,15.71.58.41,1.61.8,6.29-.39A54.91,54.91,0,0,0,1285.6,313.12Z"/><path class="cls-7" d="M1286.9,313.18q1.23,5.58,2.75,11.39c2.59,9.86,5.53,19,8.64,27.49L1294,349.7c.26,3.1.26,4.67,0,4.72q-1.11.18-8.64-37.31Z"/><path class="cls-7" d="M1283.76,313.18q-1.23,5.58-2.75,11.39c-2.58,9.86-5.53,19-8.64,27.49l4.32-2.36c-.26,3.1-.26,4.67,0,4.72q1.13.18,8.64-37.31Z"/><circle class="cls-7" cx="1284.94" cy="314.75" r="3.14"/><circle class="cls-8" cx="1284.77" cy="270.97" r="24.94"/><path class="cls-9" d="M1308.37,260.32l-.13-.27a31,31,0,0,0-4.56-6.5,28.67,28.67,0,0,0-14.06-7.81,25.71,25.71,0,0,0-11.45.52s-7.55,2.09-12.5,7.81a34.86,34.86,0,0,0-4.17,6.25l-.52,1,17.19,1,1.56-4.16,1.56,4.16h9.9c.34-1.73.69-3.47,1-5.2l2.08,4.68c2.93,0,6.07-.17,9.37-.52,1.44-.15,2.83-.32,4.17-.52h1"/><path class="cls-10" d="M1287.63,285.86a2.2,2.2,0,0,0,.16-1.68,1.53,1.53,0,0,0-1-.94,1.9,1.9,0,0,0-1.92,1.65,2.23,2.23,0,0,0-.34-.95c-.08-.13-.69-1.06-1.6-.93a1.62,1.62,0,0,0-1.25,1.29,1.94,1.94,0,0,0,.23,1.29,6.91,6.91,0,0,0,3.25,2.85A5.32,5.32,0,0,0,1287.63,285.86Z"/><path d="M1300.2,269.89a3,3,0,0,0,2.06-1.43,2.14,2.14,0,0,0,.23-.75,4.17,4.17,0,0,1-.36.51,5.05,5.05,0,0,1-.6.64,4.46,4.46,0,0,1-1.47.79"/><path d="M1299.82,269.23a2.68,2.68,0,0,0,1.86-1.28,2.2,2.2,0,0,0,.21-.68c-.08.12-.19.28-.33.46a3.22,3.22,0,0,1-.54.57,3.93,3.93,0,0,1-1.31.71"/><path d="M1299.25,268.9a2.23,2.23,0,0,0,1.57-1.09,1.78,1.78,0,0,0,.18-.57c-.07.1-.16.24-.28.39a3.44,3.44,0,0,1-.45.48,3.89,3.89,0,0,1-1.12.61"/><path d="M1298.67,268.57a1.88,1.88,0,0,0,1.3-.89,1.64,1.64,0,0,0,.14-.47l-.23.32a2.9,2.9,0,0,1-.37.39,2.83,2.83,0,0,1-.92.5"/><path class="cls-11" d="M1289.85,270.18c-.25-.89,2.23-2.89,4.72-3.14,3-.29,6.09,1.93,5.89,3.14s-3.82,1.48-5.11,1.57a10.51,10.51,0,0,1-5.1-1.17A.71.71,0,0,1,1289.85,270.18Z"/><path d="M1290.2,270.66a.77.77,0,0,1-.44-.45h0a1,1,0,0,1,.24-.83,7,7,0,0,1,4.56-2.44,7.11,7.11,0,0,1,5.42,2,1.58,1.58,0,0,1,.57,1.28c-.22,1.3-3.83,1.56-5.19,1.65h-.29A10.87,10.87,0,0,1,1290.2,270.66Zm4.38-3.52a6.89,6.89,0,0,0-4.42,2.35.84.84,0,0,0-.21.67c0,.17.24.27.34.33a10.66,10.66,0,0,0,5,1.17c1.2-.09,4.82-.34,5-1.49a1.47,1.47,0,0,0-.52-1.12,7,7,0,0,0-4.73-1.94A4.58,4.58,0,0,0,1294.58,267.14Z"/><path d="M1268.9,270.16a3,3,0,0,1-2.07-1.43,2.46,2.46,0,0,1-.22-.76,4.3,4.3,0,0,0,.35.51,4.1,4.1,0,0,0,.61.64,4.46,4.46,0,0,0,1.46.79"/><path d="M1269.27,269.5a2.72,2.72,0,0,1-1.86-1.29,2.46,2.46,0,0,1-.2-.68,3.94,3.94,0,0,0,.32.46,4.82,4.82,0,0,0,.54.58,4.53,4.53,0,0,0,1.32.71"/><path d="M1269.85,269.17a2.31,2.31,0,0,1-1.58-1.09,1.79,1.79,0,0,1-.17-.58l.27.39a5.54,5.54,0,0,0,.46.49,3.48,3.48,0,0,0,1.12.6"/><path d="M1270.42,268.84a1.88,1.88,0,0,1-1.29-.9,1.55,1.55,0,0,1-.14-.47,3.13,3.13,0,0,0,.22.32,2.54,2.54,0,0,0,.38.4,2.72,2.72,0,0,0,.92.49"/><path class="cls-11" d="M1279.24,270.58c.25-.89-2.22-2.9-4.71-3.15-3-.29-6.1,1.93-5.89,3.15s3.82,1.48,5.11,1.57a10.59,10.59,0,0,0,5.1-1.18A.71.71,0,0,0,1279.24,270.58Z"/><path d="M1273.74,272.24c-1.36-.09-5-.34-5.2-1.65a1.63,1.63,0,0,1,.58-1.28,7.14,7.14,0,0,1,5.42-2,7,7,0,0,1,4.56,2.43,1.06,1.06,0,0,1,.24.83h0a.77.77,0,0,1-.44.45,10.87,10.87,0,0,1-4.87,1.2Zm5.41-1.69a.88.88,0,0,0-.21-.67,6.51,6.51,0,0,0-9.68-.43,1.45,1.45,0,0,0-.52,1.11c.19,1.15,3.82,1.4,5,1.49a10.53,10.53,0,0,0,5.06-1.17.6.6,0,0,0,.34-.33Z"/><circle class="cls-12" cx="1297.5" cy="278.63" r="3.93"/><circle class="cls-12" cx="1271.98" cy="278.63" r="3.93"/><path class="cls-13" d="M1285,394.08a37.77,37.77,0,0,1-18.62-4.26c-2.74-1.47-10.23-5.61-14.36-14.36a30.8,30.8,0,0,1-2.66-9.57,31.48,31.48,0,0,1,1.07-12.24,28.79,28.79,0,0,1,11.17,10.64,36.7,36.7,0,0,1,2.66-4.79,37.19,37.19,0,0,1,4.78-5.85,33.56,33.56,0,0,1,3.73,3.73,33,33,0,0,1,4.25,6.38,26.52,26.52,0,0,1,8-10.11,18.22,18.22,0,0,1,3.19,2.66,18.46,18.46,0,0,1,4.26,7.45,29.25,29.25,0,0,1,2.12-3.72,29.62,29.62,0,0,1,5.85-6.39,24.7,24.7,0,0,1,3.2,3.2,25,25,0,0,1,4.25,7.44,26.4,26.4,0,0,1,2.13-3.19,27.38,27.38,0,0,1,9-7.45,26,26,0,0,1,1.06,3.73,31.37,31.37,0,0,1-7.44,26.59C1303.64,394,1290.9,394.05,1285,394.08Z"/><path class="cls-14" d="M1285,393.55c-6.42-.28-13-2.65-16-3.73a27.16,27.16,0,0,1-2.66-1.06c-.93-.45-8.84-4.4-10.63-12.23-.36-1.56-.94-4.11.53-5.86a5.21,5.21,0,0,1,3.72-1.59,6.48,6.48,0,0,1,5.85,3.72,5.45,5.45,0,0,1,0-2.66A6.65,6.65,0,0,1,1276,367a6.07,6.07,0,0,1,2.12,3.72,5.62,5.62,0,0,1,.54-2.65,6.86,6.86,0,0,1,8-3.2,7.07,7.07,0,0,1,4.78,6.39,7,7,0,0,1,2.13-3.19,6.61,6.61,0,0,1,5.32-1.6c3.17.58,4.52,3.6,4.79,4.25a7.36,7.36,0,0,1,.53,2.66,5.66,5.66,0,0,1,1.06-2.12,5,5,0,0,1,8.51.53,6.11,6.11,0,0,1,.53,4.25c-.63,3.91-3.31,6.75-5.32,8.51A37.2,37.2,0,0,1,1285,393.55Z"/><path class="cls-15" d="M1285,389.29c-1.6.24-3.53-4.82-3.72-5.32a17.33,17.33,0,0,1-1.07-9c.45-2.75,1.32-3.5,1.6-3.72a4.93,4.93,0,0,1,4.25-.54,5.89,5.89,0,0,1,3.19,2.66c2.77,4.37-.82,10.77-1.06,11.17a21.52,21.52,0,0,1-2.13,3.73C1285.46,389.11,1285.26,389.26,1285,389.29Z"/><path class="cls-15" d="M1279.19,387.78c-.57,1-4.32-.1-4.69-.2a12.48,12.48,0,0,1-5.65-3.37c-1.38-1.46-1.43-2.29-1.43-2.55A3.58,3.58,0,0,1,1269,379a4.31,4.31,0,0,1,2.93-.66c3.72.33,5.81,5.2,5.94,5.51a16.53,16.53,0,0,1,1.2,2.86C1279.28,387.45,1279.27,387.63,1279.19,387.78Z"/><path class="cls-15" d="M1290.87,387.78c.57,1,4.32-.1,4.69-.2a12.48,12.48,0,0,0,5.65-3.37c1.38-1.46,1.43-2.29,1.43-2.55a3.58,3.58,0,0,0-1.56-2.67,4.3,4.3,0,0,0-2.93-.66c-3.71.33-5.8,5.2-5.93,5.51a15.78,15.78,0,0,0-1.2,2.86C1290.78,387.45,1290.79,387.63,1290.87,387.78Z"/><path class="cls-9" d="M1267.07,265.08c-.06-.13.9-.78,2-1.18a6.87,6.87,0,0,1,1.57-.39,12.47,12.47,0,0,1,4.72,0c1.79.36,4,1.15,3.92,1.57s-1.17.44-2.16.19-1.12-.76-2-1.17c-1.63-.81-3.81-.17-7.07.78C1267.62,265,1267.11,265.17,1267.07,265.08Z"/><path class="cls-9" d="M1301.23,265.47c.06-.13-.9-.78-2-1.18a7.94,7.94,0,0,0-1.57-.39,12.63,12.63,0,0,0-4.71,0c-1.8.36-4,1.15-3.93,1.57s1.17.45,2.16.2,1.12-.77,2-1.18c1.63-.8,3.82-.17,7.07.78C1300.68,265.4,1301.19,265.56,1301.23,265.47Z"/><circle class="cls-16" cx="1295.04" cy="269.4" r="2.04"/><circle class="cls-17" cx="1295.04" cy="269.4" r="1.52"/><circle cx="1295.04" cy="269.4" r="1.01"/><circle class="cls-11" cx="1294.36" cy="268.81" r="0.39"/><circle class="cls-16" cx="1273.83" cy="269.79" r="2.04"/><circle class="cls-17" cx="1273.83" cy="269.79" r="1.52"/><circle cx="1273.83" cy="269.79" r="1.01"/><circle class="cls-11" cx="1274.5" cy="269.2" r="0.39"/><circle cx="1282.97" cy="277.84" r="0.39"/><circle cx="1286.12" cy="277.84" r="0.39"/><circle class="cls-4" cx="1135.75" cy="256.38" r="52.62"/><circle class="cls-5" cx="1135.98" cy="172.23" r="31.65"/><path class="cls-4" d="M1167.16,178.23c.2,0,1.13-.13,1.57.4s.1,1.67,0,2c-1,3-.35,6.3-.78,9.42-.82,5.91,1.29,12.42,2.35,15.71a48.41,48.41,0,0,0,7.07,13.75l-1.18,2.35c.49.65,1.19,1.59,2,2.75A55.47,55.47,0,0,1,1188,249.7a53.3,53.3,0,0,1-3.53,25.53,48.25,48.25,0,0,1-11,16.88A43.76,43.76,0,0,1,1166,298a41.36,41.36,0,0,1-11.78,5.11c-1.28.31-3.6.6-8.24,1.18a60.44,60.44,0,0,1-9.43.78,42.82,42.82,0,0,1-8.25-1.18c-1.11-.24-3.11-.82-7.06-2-3.77-1.08-5.65-1.63-6.68-2a74.14,74.14,0,0,1-9-3.54c-5.84-2.94-9.26-7.35-11.78-10.6a49.91,49.91,0,0,1-9-19.24,49.26,49.26,0,0,1-1.58-16.89c1.27-13.76,8.87-23.39,12.57-27.49l-1.18-3.14a43.27,43.27,0,0,0,3.54-5.49c5.25-9.74,5.45-19.2,5.49-24.35a63.55,63.55,0,0,0-.78-10.6l2-1.18C1140.23,178.05,1165.33,178.4,1167.16,178.23Z"/><path class="cls-6" d="M1137.08,137a33.83,33.83,0,0,1,15.06,4.18,34.57,34.57,0,0,1,14.23,15.07,36.54,36.54,0,0,1,3.34,14.64,40.73,40.73,0,0,1-.42,6.27c-1.18,7.83-12.89,23.12-32.21,38.91a105.79,105.79,0,0,1-9.83-6.9c-9.46-7.49-22.39-17.73-24.68-33.05a34.87,34.87,0,0,1,10-29.71,43.06,43.06,0,0,1,5.44-4.18,31.71,31.71,0,0,1,4.6-2.51A33,33,0,0,1,1137.08,137Z"/><path class="cls-7" d="M1135.75,213.18a30.81,30.81,0,0,1,11-9.42c3-1.51,4.09-1.37,4.71-1.18,4.65,1.44,6.46,13.13,2.75,15.71-.58.4-1.6.8-6.28-.4A54,54,0,0,1,1135.75,213.18Z"/><path class="cls-7" d="M1136.8,213.12a31,31,0,0,0-11-9.43c-3-1.5-4.08-1.37-4.71-1.18-4.64,1.45-6.45,13.13-2.75,15.71.59.41,1.61.8,6.29-.39A54.71,54.71,0,0,0,1136.8,213.12Z"/><path class="cls-7" d="M1138.1,213.18q1.23,5.58,2.75,11.39c2.59,9.86,5.53,19,8.64,27.49l-4.32-2.36c.26,3.1.26,4.67,0,4.72q-1.11.18-8.64-37.31Z"/><path class="cls-7" d="M1135,213.18q-1.23,5.58-2.75,11.39c-2.58,9.86-5.53,19-8.64,27.49l4.32-2.36c-.26,3.1-.26,4.67,0,4.72q1.13.18,8.64-37.31Z"/><circle class="cls-7" cx="1136.14" cy="214.75" r="3.14"/><circle class="cls-8" cx="1135.97" cy="170.97" r="24.94"/><path class="cls-9" d="M1159.57,160.32l-.13-.27a31.15,31.15,0,0,0-4.55-6.5,28.71,28.71,0,0,0-14.06-7.81,25.75,25.75,0,0,0-11.46.52s-7.55,2.09-12.5,7.81a34.41,34.41,0,0,0-4.16,6.25c-.23.44-.41.8-.53,1l17.19,1,1.56-4.16,1.56,4.16h9.9c.34-1.73.69-3.47,1-5.2l2.08,4.68c2.93,0,6.07-.17,9.38-.52,1.43-.15,2.82-.32,4.16-.52h1"/><path class="cls-10" d="M1138.83,185.86a2.2,2.2,0,0,0,.16-1.68,1.53,1.53,0,0,0-1-.94,1.9,1.9,0,0,0-1.92,1.65,2.23,2.23,0,0,0-.34-.95c-.08-.13-.69-1.06-1.6-.93a1.64,1.64,0,0,0-1.25,1.29,1.94,1.94,0,0,0,.23,1.29,6.89,6.89,0,0,0,3.26,2.85A5.35,5.35,0,0,0,1138.83,185.86Z"/><path d="M1151.4,169.89a3,3,0,0,0,2.07-1.43,2.34,2.34,0,0,0,.22-.75,4.17,4.17,0,0,1-.36.51,4.39,4.39,0,0,1-.6.64,4.56,4.56,0,0,1-1.46.79"/><path d="M1151,169.23a2.67,2.67,0,0,0,1.85-1.28,2.2,2.2,0,0,0,.21-.68l-.32.46a3.84,3.84,0,0,1-.55.57,3.93,3.93,0,0,1-1.31.71"/><path d="M1150.45,168.9a2.26,2.26,0,0,0,1.58-1.09,1.74,1.74,0,0,0,.17-.57l-.27.39a4.53,4.53,0,0,1-.46.48,3.89,3.89,0,0,1-1.12.61"/><path d="M1149.88,168.57a1.89,1.89,0,0,0,1.29-.89,1.64,1.64,0,0,0,.14-.47l-.22.32a4.16,4.16,0,0,1-.38.39,2.83,2.83,0,0,1-.92.5"/><path class="cls-11" d="M1141.05,170.18c-.24-.89,2.23-2.89,4.72-3.14,3-.29,6.09,1.93,5.89,3.14s-3.82,1.48-5.11,1.57a10.51,10.51,0,0,1-5.1-1.17A.71.71,0,0,1,1141.05,170.18Z"/><path d="M1141.4,170.66a.77.77,0,0,1-.44-.45h0a1,1,0,0,1,.24-.83,7,7,0,0,1,4.56-2.44,7.11,7.11,0,0,1,5.42,2,1.58,1.58,0,0,1,.57,1.28c-.22,1.3-3.83,1.56-5.19,1.65h-.29A10.87,10.87,0,0,1,1141.4,170.66Zm4.38-3.52a6.89,6.89,0,0,0-4.42,2.35.88.88,0,0,0-.21.67c0,.17.24.27.34.33a10.67,10.67,0,0,0,5.06,1.17c1.19-.09,4.82-.34,5-1.49a1.47,1.47,0,0,0-.52-1.12,7,7,0,0,0-4.73-1.94A4.58,4.58,0,0,0,1145.78,167.14Z"/><path d="M1120.1,170.16a3,3,0,0,1-2.07-1.43,2.46,2.46,0,0,1-.22-.76,5.43,5.43,0,0,0,1,1.15,4.56,4.56,0,0,0,1.46.79"/><path d="M1120.47,169.5a2.69,2.69,0,0,1-1.85-1.29,2.2,2.2,0,0,1-.21-.68,3.94,3.94,0,0,0,.32.46,4.82,4.82,0,0,0,.54.58,4.53,4.53,0,0,0,1.32.71"/><path d="M1121.05,169.17a2.33,2.33,0,0,1-1.58-1.09,1.79,1.79,0,0,1-.17-.58l.27.39a5.54,5.54,0,0,0,.46.49,3.48,3.48,0,0,0,1.12.6"/><path d="M1121.62,168.84a1.88,1.88,0,0,1-1.29-.9,1.55,1.55,0,0,1-.14-.47,3,3,0,0,0,.6.72,2.92,2.92,0,0,0,.92.49"/><path class="cls-11" d="M1130.44,170.58c.25-.89-2.22-2.9-4.71-3.15-3-.29-6.09,1.93-5.89,3.15s3.82,1.48,5.11,1.57a10.59,10.59,0,0,0,5.1-1.18A.71.71,0,0,0,1130.44,170.58Z"/><path d="M1124.94,172.24c-1.36-.09-5-.34-5.2-1.65a1.63,1.63,0,0,1,.58-1.28,7.14,7.14,0,0,1,5.42-2,7,7,0,0,1,4.56,2.43,1.06,1.06,0,0,1,.24.83h0a.77.77,0,0,1-.44.45,10.87,10.87,0,0,1-4.87,1.2Zm5.41-1.69a.88.88,0,0,0-.21-.67,6.51,6.51,0,0,0-9.68-.43,1.45,1.45,0,0,0-.52,1.11c.19,1.15,3.82,1.4,5,1.49a10.53,10.53,0,0,0,5.06-1.17.6.6,0,0,0,.34-.33Z"/><circle class="cls-12" cx="1148.7" cy="178.63" r="3.93"/><circle class="cls-12" cx="1123.18" cy="178.63" r="3.93"/><path class="cls-13" d="M1136.23,294.08a37.77,37.77,0,0,1-18.62-4.26c-2.74-1.47-10.23-5.61-14.36-14.36a31.1,31.1,0,0,1-2.66-9.57,31.48,31.48,0,0,1,1.07-12.24,28.79,28.79,0,0,1,11.17,10.64,36.7,36.7,0,0,1,2.66-4.79,37.19,37.19,0,0,1,4.78-5.85,33.56,33.56,0,0,1,3.73,3.73,33,33,0,0,1,4.25,6.38,26.52,26.52,0,0,1,8-10.11,17.86,17.86,0,0,1,3.19,2.66,18.46,18.46,0,0,1,4.26,7.45,29.25,29.25,0,0,1,2.12-3.72,29.62,29.62,0,0,1,5.85-6.39,24.7,24.7,0,0,1,3.2,3.2,25,25,0,0,1,4.25,7.44,26.4,26.4,0,0,1,2.13-3.19,27.38,27.38,0,0,1,9-7.45,26,26,0,0,1,1.06,3.73,31.37,31.37,0,0,1-7.44,26.59C1154.84,294,1142.1,294.05,1136.23,294.08Z"/><path class="cls-14" d="M1136.23,293.55c-6.42-.28-13-2.65-16-3.73a28.22,28.22,0,0,1-2.66-1.06c-.92-.45-8.84-4.4-10.63-12.23-.36-1.56-.94-4.11.53-5.86a5.21,5.21,0,0,1,3.72-1.59,6.48,6.48,0,0,1,5.85,3.72,5.45,5.45,0,0,1,0-2.66,6.65,6.65,0,0,1,10.11-3.19,6.15,6.15,0,0,1,2.13,3.72,5.47,5.47,0,0,1,.53-2.65,6.86,6.86,0,0,1,8-3.2,7.06,7.06,0,0,1,4.78,6.39,7.2,7.2,0,0,1,2.13-3.19,6.61,6.61,0,0,1,5.32-1.6c3.17.58,4.52,3.6,4.79,4.25a7.36,7.36,0,0,1,.53,2.66,5.66,5.66,0,0,1,1.06-2.12,5,5,0,0,1,8.51.53,6.11,6.11,0,0,1,.53,4.25c-.63,3.91-3.31,6.75-5.31,8.51A37.24,37.24,0,0,1,1136.23,293.55Z"/><path class="cls-15" d="M1136.23,289.29c-1.6.24-3.53-4.82-3.72-5.32a17.33,17.33,0,0,1-1.07-9c.45-2.75,1.32-3.5,1.6-3.72a4.93,4.93,0,0,1,4.25-.54,6,6,0,0,1,3.2,2.66c2.76,4.37-.83,10.77-1.07,11.17a21.52,21.52,0,0,1-2.13,3.73C1136.66,289.11,1136.46,289.26,1136.23,289.29Z"/><path class="cls-15" d="M1130.39,287.78c-.57,1-4.32-.1-4.68-.2a12.47,12.47,0,0,1-5.66-3.37c-1.38-1.46-1.43-2.29-1.43-2.55a3.58,3.58,0,0,1,1.56-2.67,4.31,4.31,0,0,1,2.93-.66c3.72.33,5.81,5.2,5.94,5.51a15.78,15.78,0,0,1,1.2,2.86C1130.48,287.45,1130.47,287.63,1130.39,287.78Z"/><path class="cls-15" d="M1142.07,287.78c.57,1,4.32-.1,4.69-.2a12.48,12.48,0,0,0,5.65-3.37c1.38-1.46,1.43-2.29,1.43-2.55a3.58,3.58,0,0,0-1.56-2.67,4.3,4.3,0,0,0-2.93-.66c-3.71.33-5.8,5.2-5.93,5.51a15.78,15.78,0,0,0-1.2,2.86C1142,287.45,1142,287.63,1142.07,287.78Z"/><path class="cls-9" d="M1118.27,165.08c-.06-.13.9-.78,2-1.18a6.93,6.93,0,0,1,1.58-.39,12.41,12.41,0,0,1,4.71,0c1.8.36,4,1.15,3.92,1.57s-1.17.44-2.16.19-1.12-.76-2-1.17c-1.63-.81-3.81-.17-7.07.78C1118.83,165,1118.31,165.17,1118.27,165.08Z"/><path class="cls-9" d="M1152.43,165.47c.06-.13-.89-.78-2-1.18a7.94,7.94,0,0,0-1.57-.39,12.63,12.63,0,0,0-4.71,0c-1.8.36-4,1.15-3.93,1.57s1.18.45,2.16.2,1.13-.77,2-1.18c1.63-.8,3.82-.17,7.07.78C1151.88,165.4,1152.39,165.56,1152.43,165.47Z"/><circle class="cls-16" cx="1146.24" cy="169.4" r="2.04"/><circle class="cls-17" cx="1146.24" cy="169.4" r="1.52"/><circle cx="1146.24" cy="169.4" r="1.01"/><circle class="cls-11" cx="1145.56" cy="168.81" r="0.39"/><circle class="cls-16" cx="1125.03" cy="169.79" r="2.04"/><circle class="cls-17" cx="1125.03" cy="169.79" r="1.52"/><circle cx="1125.03" cy="169.79" r="1.01"/><circle class="cls-11" cx="1125.71" cy="169.2" r="0.39"/><circle cx="1134.18" cy="177.84" r="0.39"/><circle cx="1137.32" cy="177.84" r="0.39"/><circle class="cls-4" cx="1795.02" cy="596.22" r="115.58"/><circle class="cls-5" cx="1794.5" cy="411.39" r="69.53"/><path class="cls-4" d="M1726,424.57c-.42,0-2.48-.3-3.45.86s-.22,3.68,0,4.32c2.26,6.54.77,13.84,1.73,20.7,1.8,13-2.84,27.27-5.18,34.5a106.2,106.2,0,0,1-15.53,30.19l2.59,5.18c-1.08,1.42-2.59,3.48-4.31,6-6,8.94-18.42,27.85-21.57,55.21a117.35,117.35,0,0,0,7.77,56.07,105.85,105.85,0,0,0,24.15,37.09,97.87,97.87,0,0,0,16.39,12.93,91.38,91.38,0,0,0,25.88,11.22c2.81.69,7.91,1.32,18.11,2.59s15.5,1.9,20.7,1.72a94.41,94.41,0,0,0,18.12-2.59c2.45-.54,6.84-1.8,15.52-4.31,8.27-2.39,12.41-3.58,14.67-4.31a162.73,162.73,0,0,0,19.84-7.77c12.81-6.45,20.33-16.14,25.87-23.28a109.91,109.91,0,0,0,19.84-42.27c1.74-7,5-20.45,3.45-37.09-2.77-30.24-19.47-51.39-27.6-60.38q1.29-3.45,2.59-6.9a93.88,93.88,0,0,1-7.77-12.08c-11.54-21.38-12-42.16-12.07-53.48a141,141,0,0,1,1.72-23.29l-4.31-2.58C1785.16,424.16,1730,424.94,1726,424.57Z"/><path class="cls-6" d="M1792.08,334.05a74.28,74.28,0,0,0-33.08,9.18,75.88,75.88,0,0,0-31.24,33.09,80.39,80.39,0,0,0-7.35,32.16,92.52,92.52,0,0,0,.91,13.78c2.6,17.2,28.33,50.78,70.76,85.46a227.13,227.13,0,0,0,21.6-15.16c20.78-16.45,49.19-38.94,54.22-72.59a76.19,76.19,0,0,0-.92-26.65c-3.71-17.47-13-31-21.14-38.6a95.09,95.09,0,0,0-11.95-9.19,69.28,69.28,0,0,0-10.1-5.51A72.82,72.82,0,0,0,1792.08,334.05Z"/><path class="cls-7" d="M1795,501.34a67.89,67.89,0,0,0-24.16-20.7c-6.6-3.31-9-3-10.35-2.59-10.2,3.17-14.17,28.84-6,34.5,1.27.89,3.53,1.76,13.8-.86A120.25,120.25,0,0,0,1795,501.34Z"/><path class="cls-7" d="M1792.7,501.19a68.18,68.18,0,0,1,24.15-20.7c6.61-3.3,9-3,10.36-2.59,10.2,3.17,14.17,28.84,6,34.51-1.28.89-3.53,1.75-13.8-.87A119.76,119.76,0,0,1,1792.7,501.19Z"/><path class="cls-7" d="M1789.84,501.34q-2.7,12.24-6,25c-5.68,21.66-12.14,41.81-19,60.38l9.49-5.17q-.85,10.2,0,10.35,2.45.42,19-81.95Z"/><path class="cls-7" d="M1796.74,501.34q2.7,12.24,6,25c5.68,21.66,12.14,41.81,19,60.38l-9.49-5.17q.86,10.2,0,10.35-2.46.42-19-81.95Z"/><circle class="cls-7" cx="1794.15" cy="504.79" r="6.9"/><circle class="cls-8" cx="1794.53" cy="408.61" r="54.77"/><path class="cls-9" d="M1742.68,385.23c.06-.13.17-.34.29-.6a68.12,68.12,0,0,1,10-14.27c13.06-13.84,30.88-17.16,30.88-17.16a56.52,56.52,0,0,1,25.16,1.14s16.59,4.58,27.46,17.16a75,75,0,0,1,9.15,13.73c.5,1,.89,1.76,1.14,2.28L1809,389.8q-1.71-4.57-3.43-9.15-1.71,4.58-3.43,9.15h-21.73q-1.14-5.71-2.29-11.44-2.28,5.16-4.57,10.3c-6.44-.05-13.33-.39-20.59-1.15-3.15-.32-6.2-.71-9.15-1.14h-2.29"/><path class="cls-10" d="M1788.25,441.32a4.77,4.77,0,0,1-.35-3.69,3.34,3.34,0,0,1,2.28-2.07c1.6-.29,3.59,1.13,4.22,3.63a4.69,4.69,0,0,1,.73-2.09c.18-.28,1.52-2.32,3.52-2a3.58,3.58,0,0,1,2.75,2.84,4.27,4.27,0,0,1-.5,2.84c-1.68,3.46-5.54,5.49-7.16,6.25A11.7,11.7,0,0,1,1788.25,441.32Z"/><path d="M1760.64,406.25a6.57,6.57,0,0,1-4.54-3.14,5,5,0,0,1-.5-1.65,12.65,12.65,0,0,0,.78,1.11,10.13,10.13,0,0,0,1.33,1.41,9.72,9.72,0,0,0,3.22,1.73"/><path d="M1761.45,404.8a5.91,5.91,0,0,1-4.08-2.82,4.77,4.77,0,0,1-.44-1.49,9.53,9.53,0,0,0,.7,1,9.29,9.29,0,0,0,1.19,1.27,9,9,0,0,0,2.89,1.55"/><path d="M1762.72,404.07a4.94,4.94,0,0,1-3.46-2.39,4,4,0,0,1-.38-1.26,8.84,8.84,0,0,0,.6.85,7.17,7.17,0,0,0,1,1.07,7.41,7.41,0,0,0,2.46,1.32"/><path d="M1764,403.35a4.09,4.09,0,0,1-2.84-2,3.29,3.29,0,0,1-.31-1c.12.19.28.43.49.7a6.57,6.57,0,0,0,.83.88,6.07,6.07,0,0,0,2,1.08"/><path class="cls-11" d="M1783.36,406.89c.54-2-4.9-6.36-10.36-6.9-6.53-.65-13.39,4.22-12.93,6.9s8.38,3.25,11.21,3.45a23.1,23.1,0,0,0,11.21-2.59A1.62,1.62,0,0,0,1783.36,406.89Z"/><path d="M1771.9,410.57c-.4,0-.62,0-.64,0-3-.21-10.92-.76-11.41-3.63a3.59,3.59,0,0,1,1.26-2.81,15.66,15.66,0,0,1,11.92-4.34c4.21.42,8.48,3.1,10,5.35a2.29,2.29,0,0,1,.52,1.83h0a1.73,1.73,0,0,1-1,1A23.83,23.83,0,0,1,1771.9,410.57Zm-.09-10.43a15.31,15.31,0,0,0-10.38,4.27,3.2,3.2,0,0,0-1.15,2.44c.43,2.53,8.4,3.09,11,3.27a23,23,0,0,0,11.1-2.56c.23-.12.65-.34.76-.73a1.94,1.94,0,0,0-.46-1.47c-1.49-2.17-5.75-4.77-9.71-5.16A11.46,11.46,0,0,0,1771.81,400.14Z"/><path d="M1829.38,406.83a6.57,6.57,0,0,0,4.54-3.14,5.3,5.3,0,0,0,.5-1.65,13.07,13.07,0,0,1-.79,1.11,8.64,8.64,0,0,1-4.54,3.14"/><path d="M1828.56,405.38a5.91,5.91,0,0,0,4.08-2.82,4.81,4.81,0,0,0,.45-1.49,9.83,9.83,0,0,1-.71,1,8.48,8.48,0,0,1-1.18,1.27,9,9,0,0,1-2.9,1.56"/><path d="M1827.3,404.65a5,5,0,0,0,3.46-2.39,4,4,0,0,0,.38-1.26,7.75,7.75,0,0,1-.6.85,6.68,6.68,0,0,1-3.46,2.39"/><path d="M1826,403.93a4.06,4.06,0,0,0,2.83-2,3,3,0,0,0,.31-1,5.44,5.44,0,0,1-.49.7,5.76,5.76,0,0,1-.82.88,6.07,6.07,0,0,1-2,1.08"/><path class="cls-11" d="M1806.66,407.75c-.55-1.95,4.9-6.36,10.35-6.9,6.53-.65,13.39,4.23,12.94,6.9s-8.38,3.25-11.21,3.45a23.13,23.13,0,0,1-11.22-2.59A1.54,1.54,0,0,1,1806.66,407.75Z"/><path d="M1818.12,411.43a23.89,23.89,0,0,1-10.7-2.63,1.73,1.73,0,0,1-1-1h0A2.37,2.37,0,0,1,1807,406c1.54-2.25,5.81-4.93,10-5.35a15.7,15.7,0,0,1,11.92,4.35,3.54,3.54,0,0,1,1.25,2.81c-.48,2.86-8.42,3.42-11.41,3.63Zm-11.25-3.74c.11.39.53.61.75.73a23.28,23.28,0,0,0,11.1,2.57c2.62-.19,10.59-.75,11-3.28a3.24,3.24,0,0,0-1.15-2.44,15.19,15.19,0,0,0-11.56-4.21c-4,.39-8.21,3-9.7,5.17a1.92,1.92,0,0,0-.46,1.46Z"/><circle class="cls-12" cx="1766.55" cy="425.43" r="8.63"/><circle class="cls-12" cx="1822.62" cy="425.43" r="8.63"/><path class="cls-13" d="M1794,679c7.58,0,23.59-.08,40.89-9.35,6-3.23,22.48-12.33,31.55-31.54a67.49,67.49,0,0,0,5.84-21,68.93,68.93,0,0,0-2.34-26.87,61.93,61.93,0,0,0-10.51,7,63.06,63.06,0,0,0-14,16.35A80.16,80.16,0,0,0,1829,590.24a71.53,71.53,0,0,0-8.18,8.18,72.33,72.33,0,0,0-9.34,14,59,59,0,0,0-7-11.68A58.09,58.09,0,0,0,1794,590.24a39,39,0,0,0-7,5.84,40.27,40.27,0,0,0-9.34,16.35,64.31,64.31,0,0,0-17.53-22.19,54.16,54.16,0,0,0-16.35,23.36,58.91,58.91,0,0,0-4.68-7,60,60,0,0,0-19.86-16.35,57.47,57.47,0,0,0-2.34,8.18c-4,19.28,1.78,42.26,16.36,58.41C1753.08,678.83,1781.07,679,1794,679Z"/><path class="cls-14" d="M1794,677.86c14.1-.59,28.49-5.8,35-8.18a57.38,57.38,0,0,0,5.84-2.33c2-1,19.44-9.67,23.37-26.88.78-3.4,2.06-9-1.17-12.85-2.75-3.27-7.25-3.46-8.18-3.5-5.78-.24-9.64,3.72-10.51,4.67a13.91,13.91,0,0,0-2.34,3.51,11.94,11.94,0,0,0,0-5.85c-1.36-5.19-6.26-8.37-10.51-9.34-1-.24-6.84-1.56-11.69,2.33a13.49,13.49,0,0,0-4.67,8.18,12.1,12.1,0,0,0-1.17-5.84c-2.78-5.65-10.56-9.2-17.52-7a15.53,15.53,0,0,0-10.52,14,15.6,15.6,0,0,0-4.67-7c-1.41-1.19-5.9-4.57-11.68-3.5-7,1.27-9.93,7.9-10.52,9.34a16.15,16.15,0,0,0-1.17,5.84,12.51,12.51,0,0,0-2.33-4.67c-.55-.68-3.9-4.85-9.35-4.67-6,.19-9.1,5.41-9.35,5.84-.55,1-2,3.9-1.16,9.35,1.39,8.57,7.28,14.82,11.68,18.69A81.64,81.64,0,0,0,1794,677.86Z"/><path class="cls-15" d="M1794,668.51c3.52.53,7.76-10.58,8.18-11.68a38.1,38.1,0,0,0,2.34-19.86c-1-6-2.89-7.69-3.51-8.18-3.63-2.84-8.62-1.39-9.34-1.17a13,13,0,0,0-7,5.84c-6.08,9.59,1.81,23.64,2.33,24.54a48.09,48.09,0,0,0,4.68,8.18C1793,668.13,1793.45,668.44,1794,668.51Z"/><path class="cls-15" d="M1806.78,665.19c1.24,2.25,9.48-.2,10.29-.44a27.48,27.48,0,0,0,12.41-7.39c3-3.21,3.15-5,3.15-5.6,0-3.33-3-5.55-3.43-5.87a9.39,9.39,0,0,0-6.43-1.45c-8.16.72-12.75,11.42-13,12.11a35.11,35.11,0,0,0-2.63,6.27C1806.59,664.47,1806.6,664.86,1806.78,665.19Z"/><path class="cls-15" d="M1781.12,665.19c-1.25,2.25-9.48-.2-10.29-.44a27.59,27.59,0,0,1-12.42-7.39c-3-3.21-3.14-5-3.15-5.6,0-3.33,3-5.55,3.44-5.87a9.39,9.39,0,0,1,6.43-1.45c8.16.72,12.75,11.42,13,12.11a35.11,35.11,0,0,1,2.63,6.27C1781.31,664.47,1781.29,664.86,1781.12,665.19Z"/><path class="cls-9" d="M1833.4,395.67c.13-.28-2-1.71-4.31-2.58a16.39,16.39,0,0,0-3.45-.87,28.06,28.06,0,0,0-10.35,0c-4,.8-8.79,2.53-8.63,3.45.11.64,2.58,1,4.75.44s2.47-1.68,4.31-2.59c3.58-1.77,8.38-.36,15.53,1.72C1832.18,395.52,1833.31,395.87,1833.4,395.67Z"/><path class="cls-9" d="M1758.36,396.54c-.13-.29,2-1.72,4.31-2.59a15.84,15.84,0,0,1,3.45-.86,27.85,27.85,0,0,1,10.35,0c4,.8,8.79,2.53,8.63,3.45-.11.63-2.58,1-4.74.43s-2.48-1.68-4.32-2.59c-3.57-1.76-8.38-.36-15.52,1.73C1759.58,396.38,1758.45,396.73,1758.36,396.54Z"/><circle class="cls-16" cx="1771.97" cy="405.16" r="4.48"/><circle class="cls-17" cx="1771.97" cy="405.16" r="3.35"/><circle cx="1771.97" cy="405.16" r="2.22"/><circle class="cls-11" cx="1773.45" cy="403.87" r="0.86"/><circle class="cls-16" cx="1818.55" cy="406.03" r="4.48"/><circle class="cls-17" cx="1818.55" cy="406.03" r="3.35"/><circle cx="1818.55" cy="406.03" r="2.22"/><circle class="cls-11" cx="1817.07" cy="404.73" r="0.86"/><circle cx="1798.47" cy="423.71" r="0.86"/><circle cx="1791.57" cy="423.71" r="0.86"/><circle class="cls-4" cx="178.02" cy="596.22" r="115.58"/><circle class="cls-5" cx="177.5" cy="411.39" r="69.53"/><path class="cls-4" d="M109,424.57c-.42,0-2.48-.3-3.45.86s-.22,3.68,0,4.32c2.26,6.54.77,13.84,1.73,20.7,1.8,13-2.84,27.27-5.18,34.5a106.2,106.2,0,0,1-15.53,30.19l2.59,5.18c-1.08,1.42-2.59,3.48-4.31,6-6,8.94-18.42,27.85-21.57,55.21a117.35,117.35,0,0,0,7.77,56.07,105.85,105.85,0,0,0,24.15,37.09,97.87,97.87,0,0,0,16.39,12.93,91.38,91.38,0,0,0,25.88,11.22c2.81.69,7.91,1.32,18.11,2.59s15.5,1.9,20.7,1.72a94.41,94.41,0,0,0,18.12-2.59c2.45-.54,6.84-1.8,15.52-4.31,8.27-2.39,12.41-3.58,14.67-4.31a162.73,162.73,0,0,0,19.84-7.77c12.81-6.45,20.33-16.14,25.87-23.28a109.91,109.91,0,0,0,19.84-42.27c1.74-7,5-20.45,3.45-37.09-2.77-30.24-19.47-51.39-27.6-60.38q1.29-3.45,2.59-6.9a93.88,93.88,0,0,1-7.77-12.08c-11.54-21.38-12-42.16-12.07-53.48a141,141,0,0,1,1.72-23.29l-4.31-2.58C168.16,424.16,113,424.94,109,424.57Z"/><path class="cls-6" d="M175.08,334.05A74.28,74.28,0,0,0,142,343.23a75.88,75.88,0,0,0-31.24,33.09,80.39,80.39,0,0,0-7.35,32.16,92.52,92.52,0,0,0,.91,13.78c2.6,17.2,28.33,50.78,70.76,85.46a227.13,227.13,0,0,0,21.6-15.16c20.78-16.45,49.19-38.94,54.22-72.59a76.19,76.19,0,0,0-.92-26.65c-3.71-17.47-13-31-21.14-38.6a95.09,95.09,0,0,0-12-9.19,69.28,69.28,0,0,0-10.1-5.51A72.82,72.82,0,0,0,175.08,334.05Z"/><path class="cls-7" d="M178,501.34a67.89,67.89,0,0,0-24.16-20.7c-6.6-3.31-9-3-10.35-2.59-10.2,3.17-14.17,28.84-6,34.5,1.27.89,3.53,1.76,13.8-.86A120.25,120.25,0,0,0,178,501.34Z"/><path class="cls-7" d="M175.7,501.19a68.18,68.18,0,0,1,24.15-20.7c6.61-3.3,9-3,10.36-2.59,10.2,3.17,14.17,28.84,6,34.51-1.28.89-3.53,1.75-13.8-.87A119.76,119.76,0,0,1,175.7,501.19Z"/><path class="cls-7" d="M172.84,501.34q-2.7,12.24-6,25c-5.68,21.66-12.14,41.81-19,60.38l9.49-5.17q-.85,10.2,0,10.35,2.44.42,19-81.95Z"/><path class="cls-7" d="M179.74,501.34q2.7,12.24,6,25c5.68,21.66,12.14,41.81,19,60.38l-9.49-5.17q.85,10.2,0,10.35-2.46.42-19-81.95Z"/><circle class="cls-7" cx="177.15" cy="504.79" r="6.9"/><circle class="cls-8" cx="177.53" cy="408.61" r="54.77"/><path class="cls-9" d="M125.68,385.23c.06-.13.17-.34.29-.6a68.12,68.12,0,0,1,10-14.27c13.06-13.84,30.88-17.16,30.88-17.16A56.52,56.52,0,0,1,192,354.34s16.59,4.58,27.46,17.16a75,75,0,0,1,9.15,13.73c.5,1,.89,1.76,1.14,2.28L192,389.8q-1.71-4.57-3.43-9.15-1.71,4.58-3.43,9.15H163.43q-1.14-5.71-2.29-11.44-2.28,5.16-4.57,10.3c-6.44-.05-13.33-.39-20.59-1.15-3.15-.32-6.2-.71-9.15-1.14h-2.29"/><path class="cls-10" d="M171.25,441.32a4.77,4.77,0,0,1-.35-3.69,3.34,3.34,0,0,1,2.28-2.07c1.6-.29,3.59,1.13,4.22,3.63a4.69,4.69,0,0,1,.73-2.09c.18-.28,1.52-2.32,3.52-2a3.58,3.58,0,0,1,2.75,2.84,4.27,4.27,0,0,1-.5,2.84c-1.68,3.46-5.54,5.49-7.16,6.25A11.7,11.7,0,0,1,171.25,441.32Z"/><path d="M143.64,406.25a6.57,6.57,0,0,1-4.54-3.14,5,5,0,0,1-.5-1.65,12.65,12.65,0,0,0,.78,1.11,10.13,10.13,0,0,0,1.33,1.41,9.72,9.72,0,0,0,3.22,1.73"/><path d="M144.45,404.8a5.91,5.91,0,0,1-4.08-2.82,4.77,4.77,0,0,1-.44-1.49,9.53,9.53,0,0,0,.7,1,9.29,9.29,0,0,0,1.19,1.27,9,9,0,0,0,2.89,1.55"/><path d="M145.72,404.07a4.94,4.94,0,0,1-3.46-2.39,4,4,0,0,1-.38-1.26,8.84,8.84,0,0,0,.6.85,7.17,7.17,0,0,0,1,1.07,7.41,7.41,0,0,0,2.46,1.32"/><path d="M147,403.35a4.09,4.09,0,0,1-2.84-2,3.29,3.29,0,0,1-.31-1c.12.19.28.43.49.7a6.57,6.57,0,0,0,.83.88,6.07,6.07,0,0,0,2,1.08"/><path class="cls-11" d="M166.36,406.89c.54-2-4.9-6.36-10.36-6.9-6.53-.65-13.39,4.22-12.93,6.9s8.38,3.25,11.21,3.45a23.1,23.1,0,0,0,11.21-2.59A1.62,1.62,0,0,0,166.36,406.89Z"/><path d="M154.9,410.57c-.4,0-.62,0-.64,0-3-.21-10.92-.76-11.41-3.63a3.59,3.59,0,0,1,1.26-2.81A15.66,15.66,0,0,1,156,399.77c4.21.42,8.48,3.1,10,5.35a2.29,2.29,0,0,1,.52,1.83h0a1.73,1.73,0,0,1-1,1A23.83,23.83,0,0,1,154.9,410.57Zm-.09-10.43a15.31,15.31,0,0,0-10.38,4.27,3.2,3.2,0,0,0-1.15,2.44c.43,2.53,8.4,3.09,11,3.27a23,23,0,0,0,11.1-2.56c.23-.12.65-.34.76-.73a1.94,1.94,0,0,0-.46-1.47c-1.49-2.17-5.75-4.77-9.71-5.16A11.46,11.46,0,0,0,154.81,400.14Z"/><path d="M212.38,406.83a6.57,6.57,0,0,0,4.54-3.14,5.3,5.3,0,0,0,.5-1.65,13.07,13.07,0,0,1-.79,1.11,8.64,8.64,0,0,1-4.54,3.14"/><path d="M211.56,405.38a5.91,5.91,0,0,0,4.08-2.82,4.81,4.81,0,0,0,.45-1.49,9.83,9.83,0,0,1-.71,1,8.48,8.48,0,0,1-1.18,1.27,9,9,0,0,1-2.9,1.56"/><path d="M210.3,404.65a5,5,0,0,0,3.46-2.39,4,4,0,0,0,.38-1.26,7.75,7.75,0,0,1-.6.85,6.68,6.68,0,0,1-3.46,2.39"/><path d="M209,403.93a4.06,4.06,0,0,0,2.83-2,3,3,0,0,0,.31-1,5.44,5.44,0,0,1-.49.7,5.76,5.76,0,0,1-.82.88,6.07,6.07,0,0,1-2,1.08"/><path class="cls-11" d="M189.66,407.75c-.55-1.95,4.9-6.36,10.35-6.9,6.53-.65,13.39,4.23,12.94,6.9s-8.38,3.25-11.21,3.45a23.13,23.13,0,0,1-11.22-2.59A1.54,1.54,0,0,1,189.66,407.75Z"/><path d="M201.12,411.43a23.89,23.89,0,0,1-10.7-2.63,1.73,1.73,0,0,1-1-1h0A2.37,2.37,0,0,1,190,406c1.54-2.25,5.81-4.93,10-5.35A15.7,15.7,0,0,1,211.91,405a3.54,3.54,0,0,1,1.25,2.81c-.48,2.86-8.42,3.42-11.41,3.63Zm-11.25-3.74c.11.39.53.61.75.73a23.28,23.28,0,0,0,11.1,2.57c2.62-.19,10.59-.75,11-3.28a3.24,3.24,0,0,0-1.15-2.44A15.19,15.19,0,0,0,200,401.06c-4,.39-8.21,3-9.7,5.17a1.92,1.92,0,0,0-.46,1.46Z"/><circle class="cls-12" cx="149.55" cy="425.43" r="8.63"/><circle class="cls-12" cx="205.62" cy="425.43" r="8.63"/><path class="cls-13" d="M177,679c7.58,0,23.59-.08,40.89-9.35,6-3.23,22.48-12.33,31.55-31.54a67.49,67.49,0,0,0,5.84-21,68.93,68.93,0,0,0-2.34-26.87,61.93,61.93,0,0,0-10.51,7,63.06,63.06,0,0,0-14,16.35A80.16,80.16,0,0,0,212,590.24a71.53,71.53,0,0,0-8.18,8.18,72.33,72.33,0,0,0-9.34,14,59,59,0,0,0-7-11.68A58.09,58.09,0,0,0,177,590.24a39,39,0,0,0-7,5.84,40.27,40.27,0,0,0-9.34,16.35,64.31,64.31,0,0,0-17.53-22.19,54.16,54.16,0,0,0-16.35,23.36,58.91,58.91,0,0,0-4.68-7,60,60,0,0,0-19.86-16.35,57.47,57.47,0,0,0-2.34,8.18c-4,19.28,1.78,42.26,16.36,58.41C136.08,678.83,164.07,679,177,679Z"/><path class="cls-14" d="M177,677.86c14.1-.59,28.49-5.8,35.05-8.18a57.38,57.38,0,0,0,5.84-2.33c2-1,19.44-9.67,23.37-26.88.78-3.4,2.06-9-1.17-12.85-2.75-3.27-7.25-3.46-8.18-3.5-5.78-.24-9.64,3.72-10.51,4.67A13.91,13.91,0,0,0,219,632.3a11.94,11.94,0,0,0,0-5.85c-1.36-5.19-6.26-8.37-10.51-9.34-1-.24-6.84-1.56-11.69,2.33a13.49,13.49,0,0,0-4.67,8.18,12.1,12.1,0,0,0-1.17-5.84c-2.78-5.65-10.56-9.2-17.52-7a15.53,15.53,0,0,0-10.52,14,15.6,15.6,0,0,0-4.67-7c-1.41-1.19-5.9-4.57-11.68-3.5-7,1.27-9.93,7.9-10.52,9.34a16.15,16.15,0,0,0-1.17,5.84,12.51,12.51,0,0,0-2.33-4.67c-.55-.68-3.9-4.85-9.35-4.67-6,.19-9.1,5.41-9.35,5.84-.55,1-2,3.9-1.16,9.35,1.39,8.57,7.28,14.82,11.68,18.69A81.64,81.64,0,0,0,177,677.86Z"/><path class="cls-15" d="M177,668.51c3.52.53,7.76-10.58,8.18-11.68A38.1,38.1,0,0,0,187.47,637c-1-6-2.89-7.69-3.51-8.18-3.63-2.84-8.62-1.39-9.34-1.17a13,13,0,0,0-7,5.84c-6.08,9.59,1.81,23.64,2.33,24.54a48.09,48.09,0,0,0,4.68,8.18C176,668.13,176.45,668.44,177,668.51Z"/><path class="cls-15" d="M189.78,665.19c1.24,2.25,9.48-.2,10.29-.44a27.48,27.48,0,0,0,12.41-7.39c3-3.21,3.15-5,3.15-5.6,0-3.33-3-5.55-3.43-5.87a9.39,9.39,0,0,0-6.43-1.45c-8.16.72-12.75,11.42-13,12.11a35.11,35.11,0,0,0-2.63,6.27C189.59,664.47,189.6,664.86,189.78,665.19Z"/><path class="cls-15" d="M164.12,665.19c-1.25,2.25-9.48-.2-10.29-.44a27.59,27.59,0,0,1-12.42-7.39c-3-3.21-3.14-5-3.15-5.6,0-3.33,3-5.55,3.44-5.87a9.39,9.39,0,0,1,6.43-1.45c8.16.72,12.75,11.42,13,12.11a35.11,35.11,0,0,1,2.63,6.27C164.31,664.47,164.29,664.86,164.12,665.19Z"/><path class="cls-9" d="M216.4,395.67c.13-.28-2-1.71-4.31-2.58a16.39,16.39,0,0,0-3.45-.87,28.06,28.06,0,0,0-10.35,0c-3.95.8-8.79,2.53-8.63,3.45.11.64,2.58,1,4.75.44s2.47-1.68,4.31-2.59c3.58-1.77,8.38-.36,15.53,1.72C215.18,395.52,216.31,395.87,216.4,395.67Z"/><path class="cls-9" d="M141.36,396.54c-.13-.29,2-1.72,4.31-2.59a15.84,15.84,0,0,1,3.45-.86,27.85,27.85,0,0,1,10.35,0c3.95.8,8.79,2.53,8.63,3.45-.11.63-2.58,1-4.74.43s-2.48-1.68-4.32-2.59c-3.57-1.76-8.38-.36-15.52,1.73C142.58,396.38,141.45,396.73,141.36,396.54Z"/><circle class="cls-16" cx="154.97" cy="405.16" r="4.48"/><circle class="cls-17" cx="154.97" cy="405.16" r="3.35"/><circle cx="154.97" cy="405.16" r="2.22"/><circle class="cls-11" cx="156.45" cy="403.87" r="0.86"/><circle class="cls-16" cx="201.55" cy="406.03" r="4.48"/><circle class="cls-17" cx="201.55" cy="406.03" r="3.35"/><circle cx="201.55" cy="406.03" r="2.22"/><circle class="cls-11" cx="200.07" cy="404.73" r="0.86"/><circle cx="181.47" cy="423.71" r="0.86"/><circle cx="174.57" cy="423.71" r="0.86"/><text class="cls-18" transform="translate(768.39 460.13)">BISTRO <tspan class="cls-19"><tspan x="-205.58" y="192">BABUSH</tspan><tspan class="cls-20" x="421.77" y="192">K</tspan><tspan x="532.01" y="192">A</tspan></tspan></text><rect class="cls-11" x="24" y="755" width="1921" height="28"/><rect class="cls-1" x="26" y="783" width="1921" height="28"/><rect class="cls-21" x="26" y="811" width="1921" height="28"/></g></svg>
